  0
SECTION
  2
HEADER
  9
$ACADVER
  1
AC1015
  9
$ACADMAINTVER
 70
     6
  9
$DWGCODEPAGE
  3
ANSI_1252
  9
$INSBASE
 10
0.0
 20
0.0
 30
0.0
  9
$EXTMIN
 10
0.0
 20
0.0
 30
0.0
  9
$EXTMAX
 10
17.0
 20
11.0
 30
0.0
  9
$LIMMIN
 10
0.0
 20
0.0
  9
$LIMMAX
 10
17.0
 20
11.0
  9
$ORTHOMODE
 70
     0
  9
$REGENMODE
 70
     1
  9
$FILLMODE
 70
     1
  9
$QTEXTMODE
 70
     0
  9
$MIRRTEXT
 70
     1
  9
$LTSCALE
 40
1.0
  9
$ATTMODE
 70
     1
  9
$TEXTSIZE
 40
0.125
  9
$TRACEWID
 40
0.05
  9
$TEXTSTYLE
  7
Standard
  9
$CLAYER
  8
0
  9
$CELTYPE
  6
ByLayer
  9
$CECOLOR
 62
   256
  9
$CELTSCALE
 40
1.0
  9
$DISPSILH
 70
     0
  9
$DIMSCALE
 40
1.0
  9
$DIMASZ
 40
0.13
  9
$DIMEXO
 40
0.05
  9
$DIMDLI
 40
0.38
  9
$DIMRND
 40
0.0
  9
$DIMDLE
 40
0.0
  9
$DIMEXE
 40
0.125
  9
$DIMTP
 40
0.0
  9
$DIMTM
 40
0.0
  9
$DIMTXT
 40
0.125
  9
$DIMCEN
 40
0.09
  9
$DIMTSZ
 40
0.0
  9
$DIMTOL
 70
     0
  9
$DIMLIM
 70
     0
  9
$DIMTIH
 70
     1
  9
$DIMTOH
 70
     1
  9
$DIMSE1
 70
     0
  9
$DIMSE2
 70
     0
  9
$DIMTAD
 70
     0
  9
$DIMZIN
 70
     0
  9
$DIMBLK
  1

  9
$DIMASO
 70
     1
  9
$DIMSHO
 70
     1
  9
$DIMPOST
  1

  9
$DIMAPOST
  1

  9
$DIMALT
 70
     0
  9
$DIMALTD
 70
     2
  9
$DIMALTF
 40
25.4
  9
$DIMLFAC
 40
2.0
  9
$DIMTOFL
 70
     0
  9
$DIMTVP
 40
0.0
  9
$DIMTIX
 70
     0
  9
$DIMSOXD
 70
     0
  9
$DIMSAH
 70
     0
  9
$DIMBLK1
  1

  9
$DIMBLK2
  1

  9
$DIMSTYLE
  2
Standard
  9
$DIMCLRD
 70
     0
  9
$DIMCLRE
 70
     0
  9
$DIMCLRT
 70
     0
  9
$DIMTFAC
 40
1.0
  9
$DIMGAP
 40
0.06
  9
$DIMJUST
 70
     0
  9
$DIMSD1
 70
     0
  9
$DIMSD2
 70
     0
  9
$DIMTOLJ
 70
     1
  9
$DIMTZIN
 70
     0
  9
$DIMALTZ
 70
     0
  9
$DIMALTTZ
 70
     0
  9
$DIMUPT
 70
     0
  9
$DIMDEC
 70
     2
  9
$DIMTDEC
 70
     2
  9
$DIMALTU
 70
     2
  9
$DIMALTTD
 70
     2
  9
$DIMTXSTY
  7
Standard
  9
$DIMAUNIT
 70
     0
  9
$DIMADEC
 70
     2
  9
$DIMALTRND
 40
0.0
  9
$DIMAZIN
 70
     0
  9
$DIMDSEP
 70
    46
  9
$DIMATFIT
 70
     3
  9
$DIMFRAC
 70
     0
  9
$DIMLDRBLK
  1

  9
$DIMLUNIT
 70
     2
  9
$DIMLWD
 70
    -2
  9
$DIMLWE
 70
    -2
  9
$DIMTMOVE
 70
     0
  9
$LUNITS
 70
     2
  9
$LUPREC
 70
     2
  9
$SKETCHINC
 40
0.1
  9
$FILLETRAD
 40
0.5
  9
$AUNITS
 70
     0
  9
$AUPREC
 70
     2
  9
$MENU
  1
.
  9
$ELEVATION
 40
0.0
  9
$PELEVATION
 40
0.0
  9
$THICKNESS
 40
0.0
  9
$LIMCHECK
 70
     0
  9
$CHAMFERA
 40
0.5
  9
$CHAMFERB
 40
0.5
  9
$CHAMFERC
 40
1.0
  9
$CHAMFERD
 40
0.0
  9
$SKPOLY
 70
     0
  9
$TDCREATE
 40
2456806.610387963
  9
$TDUCREATE
 40
2456806.77705463
  9
$TDUPDATE
 40
2456806.610388565
  9
$TDUUPDATE
 40
2456806.777055231
  9
$TDINDWG
 40
0.0000000116
  9
$TDUSRTIMER
 40
0.0000000116
  9
$USRTIMER
 70
     1
  9
$ANGBASE
 50
0.0
  9
$ANGDIR
 70
     0
  9
$PDMODE
 70
     0
  9
$PDSIZE
 40
-1.0
  9
$PLINEWID
 40
0.0
  9
$SPLFRAME
 70
     0
  9
$SPLINETYPE
 70
     6
  9
$SPLINESEGS
 70
     8
  9
$HANDSEED
  5
141
  9
$SURFTAB1
 70
     6
  9
$SURFTAB2
 70
     6
  9
$SURFTYPE
 70
     6
  9
$SURFU
 70
     6
  9
$SURFV
 70
     6
  9
$UCSBASE
  2

  9
$UCSNAME
  2

  9
$UCSORG
 10
0.0
 20
0.0
 30
0.0
  9
$UCSXDIR
 10
1.0
 20
0.0
 30
0.0
  9
$UCSYDIR
 10
0.0
 20
1.0
 30
0.0
  9
$UCSORTHOREF
  2

  9
$UCSORTHOVIEW
 70
     0
  9
$UCSORGTOP
 10
0.0
 20
0.0
 30
0.0
  9
$UCSORGBOTTOM
 10
0.0
 20
0.0
 30
0.0
  9
$UCSORGLEFT
 10
0.0
 20
0.0
 30
0.0
  9
$UCSORGRIGHT
 10
0.0
 20
0.0
 30
0.0
  9
$UCSORGFRONT
 10
0.0
 20
0.0
 30
0.0
  9
$UCSORGBACK
 10
0.0
 20
0.0
 30
0.0
  9
$PUCSBASE
  2

  9
$PUCSNAME
  2

  9
$PUCSORG
 10
0.0
 20
0.0
 30
0.0
  9
$PUCSXDIR
 10
1.0
 20
0.0
 30
0.0
  9
$PUCSYDIR
 10
0.0
 20
1.0
 30
0.0
  9
$PUCSORTHOREF
  2

  9
$PUCSORTHOVIEW
 70
     0
  9
$PUCSORGTOP
 10
0.0
 20
0.0
 30
0.0
  9
$PUCSORGBOTTOM
 10
0.0
 20
0.0
 30
0.0
  9
$PUCSORGLEFT
 10
0.0
 20
0.0
 30
0.0
  9
$PUCSORGRIGHT
 10
0.0
 20
0.0
 30
0.0
  9
$PUCSORGFRONT
 10
0.0
 20
0.0
 30
0.0
  9
$PUCSORGBACK
 10
0.0
 20
0.0
 30
0.0
  9
$USERI1
 70
     0
  9
$USERI2
 70
     0
  9
$USERI3
 70
     0
  9
$USERI4
 70
     0
  9
$USERI5
 70
     0
  9
$USERR1
 40
0.0
  9
$USERR2
 40
0.0
  9
$USERR3
 40
0.0
  9
$USERR4
 40
0.0
  9
$USERR5
 40
0.0
  9
$WORLDVIEW
 70
     1
  9
$SHADEDGE
 70
     3
  9
$SHADEDIF
 70
    70
  9
$TILEMODE
 70
     1
  9
$MAXACTVP
 70
    64
  9
$PINSBASE
 10
0.0
 20
0.0
 30
0.0
  9
$PLIMCHECK
 70
     0
  9
$PEXTMIN
 10
1.0000000000E+20
 20
1.0000000000E+20
 30
1.0000000000E+20
  9
$PEXTMAX
 10
-1.0000000000E+20
 20
-1.0000000000E+20
 30
-1.0000000000E+20
  9
$PLIMMIN
 10
0.0
 20
0.0
  9
$PLIMMAX
 10
12.0
 20
9.0
  9
$UNITMODE
 70
     0
  9
$VISRETAIN
 70
     1
  9
$PLINEGEN
 70
     0
  9
$PSLTSCALE
 70
     1
  9
$TREEDEPTH
 70
  3020
  9
$CMLSTYLE
  2
Standard
  9
$CMLJUST
 70
     0
  9
$CMLSCALE
 40
1.0
  9
$PROXYGRAPHICS
 70
     1
  9
$MEASUREMENT
 70
     0
  9
$CELWEIGHT
370
    -1
  9
$ENDCAPS
280
     0
  9
$JOINSTYLE
280
     0
  9
$LWDISPLAY
290
     1
  9
$INSUNITS
 70
     1
  9
$HYPERLINKBASE
  1

  9
$STYLESHEET
  1

  9
$XEDIT
290
     1
  9
$CEPSNTYPE
380
     0
  9
$PSTYLEMODE
290
     1
  9
$FINGERPRINTGUID
  2
{71AC7445-9A38-4CF2-AF7E-0CD9C9DF3B57}
  9
$VERSIONGUID
  2
{FAEB1C32-E019-11D5-929B-00C0DF256EC4}
  9
$EXTNAMES
290
     1
  9
$PSVPSCALE
 40
0.0
  9
$OLESTARTUP
290
     0
  0
ENDSEC
  0
SECTION
  2
CLASSES
  0
CLASS
  1
ACDBDICTIONARYWDFLT
  2
AcDbDictionaryWithDefault
  3
ObjectDBX Classes
 90
        0
280
     0
281
     0
  0
CLASS
  1
VISUALSTYLE
  2
AcDbVisualStyle
  3
ObjectDBX Classes
 90
     4095
280
     0
281
     0
  0
CLASS
  1
MATERIAL
  2
AcDbMaterial
  3
ObjectDBX Classes
 90
     1153
280
     0
281
     0
  0
CLASS
  1
ACDBPLACEHOLDER
  2
AcDbPlaceHolder
  3
ObjectDBX Classes
 90
        0
280
     0
281
     0
  0
CLASS
  1
LAYOUT
  2
AcDbLayout
  3
ObjectDBX Classes
 90
        0
280
     0
281
     0
  0
ENDSEC
  0
SECTION
  2
TABLES
  0
TABLE
  2
VPORT
  5
8
330
0
100
AcDbSymbolTable
 70
     1
  0
VPORT
  5
29
330
8
100
AcDbSymbolTableRecord
100
AcDbViewportTableRecord
  2
*Active
 70
     0
 10
0.0
 20
0.0
 11
1.0
 21
1.0
 12
8.5
 22
5.5
 13
0.0
 23
0.0
 14
0.5
 24
0.5
 15
0.5
 25
0.5
 16
0.0
 26
0.0
 36
1.0
 17
0.0
 27
0.0
 37
0.0
 40
11.0
 41
1.5454545455
 42
50.0
 43
0.0
 44
0.0
 50
0.0
 51
0.0
 71
     0
 72
  2000
 73
     1
 74
     3
 75
     0
 76
     0
 77
     0
 78
     0
281
     0
 65
     1
110
0.0
120
0.0
130
0.0
111
1.0
121
0.0
131
0.0
112
0.0
122
1.0
132
0.0
 79
     0
146
0.0
  0
ENDTAB
  0
TABLE
  2
LTYPE
  5
5
330
0
100
AcDbSymbolTable
 70
     6
  0
LTYPE
  5
14
330
5
100
AcDbSymbolTableRecord
100
AcDbLinetypeTableRecord
  2
ByBlock
 70
     0
  3

 72
    65
 73
     0
 40
0.0
  0
LTYPE
  5
15
330
5
100
AcDbSymbolTableRecord
100
AcDbLinetypeTableRecord
  2
ByLayer
 70
     0
  3

 72
    65
 73
     0
 40
0.0
  0
LTYPE
  5
16
330
5
100
AcDbSymbolTableRecord
100
AcDbLinetypeTableRecord
  2
Continuous
 70
     0
  3
Solid line
 72
    65
 73
     0
 40
0.0
  0
LTYPE
  5
3F
330
5
100
AcDbSymbolTableRecord
100
AcDbLinetypeTableRecord
  2
HIDDEN
 70
     0
  3
Hidden __ __ __ __ __ __ __ __ __ __ __ __ __ __
 72
    65
 73
     2
 40
0.075
 49
0.05
 74
     0
 49
-0.025
 74
     0
  0
LTYPE
  5
40
330
5
100
AcDbSymbolTableRecord
100
AcDbLinetypeTableRecord
  2
PHANTOM
 70
     0
  3
Phantom ______  __  __  ______  __  __  ______
 72
    65
 73
     6
 40
0.5
 49
0.25
 74
     0
 49
-0.05
 74
     0
 49
0.05
 74
     0
 49
-0.05
 74
     0
 49
0.05
 74
     0
 49
-0.05
 74
     0
  0
LTYPE
  5
41
330
5
100
AcDbSymbolTableRecord
100
AcDbLinetypeTableRecord
  2
CENTER
 70
     0
  3
Center ____ _ ____ _ ____ _ ____ _ ____ _ ____
 72
    65
 73
     4
 40
0.4
 49
0.25
 74
     0
 49
-0.05
 74
     0
 49
0.05
 74
     0
 49
-0.05
 74
     0
  0
LTYPE
  5
42
330
5
100
AcDbSymbolTableRecord
100
AcDbLinetypeTableRecord
  2
CENTERX2
 70
     0
  3
Center (2x) ________  __  ________  __  _____
 72
    65
 73
     4
 40
0.8
 49
0.5
 74
     0
 49
-0.1
 74
     0
 49
0.1
 74
     0
 49
-0.1
 74
     0
  0
LTYPE
  5
43
330
5
100
AcDbSymbolTableRecord
100
AcDbLinetypeTableRecord
  2
DOT2
 70
     0
  3
Dot (.5x) ........................................
 72
    65
 73
     2
 40
0.025
 49
0.0
 74
     0
 49
-0.025
 74
     0
  0
ENDTAB
  0
TABLE
  2
LAYER
  5
2
330
0
100
AcDbSymbolTable
 70
     1
  0
LAYER
  5
10
330
2
100
AcDbSymbolTableRecord
100
AcDbLayerTableRecord
  2
0
 70
     0
 62
     7
  6
Continuous
370
    -3
390
F
  0
ENDTAB
  0
TABLE
  2
STYLE
  5
3
330
0
100
AcDbSymbolTable
 70
     2
  0
STYLE
  5
11
330
3
100
AcDbSymbolTableRecord
100
AcDbTextStyleTableRecord
  2
Standard
 70
     0
 40
0.0
 41
1.0
 50
0.0
 71
     0
 42
0.125
  3
txt
  4

  0
STYLE
  5
13E
330
3
100
AcDbSymbolTableRecord
100
AcDbTextStyleTableRecord
  2
SLDTEXTSTYLE0
 70
     0
 40
0.0
 41
0.7
 50
0.0
 71
     0
 42
0.2
  3
TXT
  4

  0
ENDTAB
  0
TABLE
  2
VIEW
  5
6
330
0
100
AcDbSymbolTable
 70
     0
  0
ENDTAB
  0
TABLE
  2
UCS
  5
7
330
0
100
AcDbSymbolTable
 70
     0
  0
ENDTAB
  0
TABLE
  2
APPID
  5
9
330
0
100
AcDbSymbolTable
 70
     1
  0
APPID
  5
12
330
9
100
AcDbSymbolTableRecord
100
AcDbRegAppTableRecord
  2
ACAD
 70
     0
  0
ENDTAB
  0
TABLE
  2
DIMSTYLE
  5
A
330
0
100
AcDbSymbolTable
 70
     1
100
AcDbDimStyleTable
  0
DIMSTYLE
105
27
330
A
100
AcDbSymbolTableRecord
100
AcDbDimStyleTableRecord
  2
Standard
 70
     0
178
     0
340
11
  0
ENDTAB
  0
TABLE
  2
BLOCK_RECORD
  5
1
330
0
100
AcDbSymbolTable
 70
     1
  0
BLOCK_RECORD
  5
1F
330
1
100
AcDbSymbolTableRecord
100
AcDbBlockTableRecord
  2
*Model_Space
340
22
  0
BLOCK_RECORD
  5
1B
330
1
100
AcDbSymbolTableRecord
100
AcDbBlockTableRecord
  2
*Paper_Space
340
1E
  0
BLOCK_RECORD
  5
23
330
1
100
AcDbSymbolTableRecord
100
AcDbBlockTableRecord
  2
*Paper_Space0
340
26
  0
ENDTAB
  0
ENDSEC
  0
SECTION
  2
BLOCKS
  0
BLOCK
  5
20
330
1F
100
AcDbEntity
  8
0
100
AcDbBlockBegin
  2
*Model_Space
 70
     0
 10
0.0
 20
0.0
 30
0.0
  3
*Model_Space
  1

  0
ENDBLK
  5
21
330
1F
100
AcDbEntity
  8
0
100
AcDbBlockEnd
  0
BLOCK
  5
1C
330
1B
100
AcDbEntity
 67
     1
  8
0
100
AcDbBlockBegin
  2
*Paper_Space
 70
     0
 10
0.0
 20
0.0
 30
0.0
  3
*Paper_Space
  1

  0
ENDBLK
  5
1D
330
1B
100
AcDbEntity
 67
     1
  8
0
100
AcDbBlockEnd
  0
BLOCK
  5
24
330
23
100
AcDbEntity
  8
0
100
AcDbBlockBegin
  2
*Paper_Space0
 70
     0
 10
0.0
 20
0.0
 30
0.0
  3
*Paper_Space0
  1

  0
ENDBLK
  5
25
330
23
100
AcDbEntity
  8
0
100
AcDbBlockEnd
  0
ENDSEC
  0
SECTION
  2
ENTITIES
  0
SPLINE
  5
44
330
1F
100
AcDbEntity
  8
0
  6
Continuous
 62
     7
370
    15
100
AcDbSpline
210
0.0
220
0.0
230
1.0
 70
     8
 71
     3
 72
    11
 73
     7
 74
     0
 42
0.00000001
 43
0.00000001
 12
1.0
 22
0.0
 32
0.0
 13
1.0
 23
0.0
 33
0.0
 40
0.0
 40
0.0
 40
0.0
 40
0.0
 40
0.2803126674407128
 40
0.5589061676698512
 40
0.7792477212267687
 40
1.0
 40
1.0
 40
1.0
 40
1.0
 10
8.111692704892441
 20
5.004393757307648
 30
0.0
 10
8.112965033730966
 20
5.01099395206216
 30
0.0
 10
8.115501888171572
 20
5.024153862350193
 30
0.0
 10
8.12838093505331
 20
5.038819677053602
 30
0.0
 10
8.144620893846856
 20
5.045229094340631
 30
0.0
 10
8.155099300870992
 20
5.045707858807681
 30
0.0
 10
8.160343382875658
 20
5.045947463942348
 30
0.0
  0
SPLINE
  5
45
330
1F
100
AcDbEntity
  8
0
  6
Continuous
 62
     7
370
    15
100
AcDbSpline
210
0.0
220
0.0
230
1.0
 70
     8
 71
     3
 72
     9
 73
     5
 74
     0
 42
0.00000001
 43
0.00000001
 12
1.0
 22
0.0
 32
0.0
 13
1.0
 23
0.0
 33
0.0
 40
0.0
 40
0.0
 40
0.0
 40
0.0
 40
0.55999952076659
 40
0.9999999999999999
 40
0.9999999999999999
 40
0.9999999999999999
 40
0.9999999999999999
 10
8.110664143441138
 20
4.880761052189874
 30
0.0
 10
8.11072164093877
 20
4.903840321698943
 30
0.0
 10
8.11082431512955
 20
4.945053338234162
 30
0.0
 10
8.111427363375308
 20
4.986261948876483
 30
0.0
 10
8.111692704892441
 20
5.004393757307648
 30
0.0
  0
SPLINE
  5
46
330
1F
100
AcDbEntity
  8
0
  6
Continuous
 62
     7
370
    15
100
AcDbSpline
210
0.0
220
0.0
230
1.0
 70
     8
 71
     3
 72
     9
 73
     5
 74
     0
 42
0.00000001
 43
0.00000001
 12
1.0
 22
0.0
 32
0.0
 13
1.0
 23
0.0
 33
0.0
 40
0.0
 40
0.0
 40
0.0
 40
0.0
 40
0.5600097156718581
 40
0.9999999999999999
 40
0.9999999999999999
 40
0.9999999999999999
 40
0.9999999999999999
 10
8.111384121790554
 20
4.822030530649871
 30
0.0
 10
8.111207570356408
 20
4.832993248294103
 30
0.0
 10
8.110892305407955
 20
4.852569190170538
 30
0.0
 10
8.110733858528624
 20
4.872147004219812
 30
0.0
 10
8.110664143441138
 20
4.880761052189874
 30
0.0
  0
SPLINE
  5
47
330
1F
100
AcDbEntity
  8
0
  6
Continuous
 62
     7
370
    15
100
AcDbSpline
210
0.0
220
0.0
230
1.0
 70
     8
 71
     3
 72
     9
 73
     5
 74
     0
 42
0.00000001
 43
0.00000001
 12
1.0
 22
0.0
 32
0.0
 13
1.0
 23
0.0
 33
0.0
 40
0.0
 40
0.0
 40
0.0
 40
0.0
 40
0.5600020233181592
 40
1.0
 40
1.0
 40
1.0
 40
1.0
 10
8.111692704892441
 20
4.760934596435316
 30
0.0
 10
8.111651761906616
 20
4.772339298198849
 30
0.0
 10
8.111578649696087
 20
4.792704763480486
 30
0.0
 10
8.11144356068299
 20
4.813069908185036
 30
0.0
 10
8.111384121790554
 20
4.822030530649871
 30
0.0
  0
SPLINE
  5
48
330
1F
100
AcDbEntity
  8
0
  6
Continuous
 62
     7
370
    15
100
AcDbSpline
210
0.0
220
0.0
230
1.0
 70
     8
 71
     3
 72
     9
 73
     5
 74
     0
 42
0.00000001
 43
0.00000001
 12
1.0
 22
0.0
 32
0.0
 13
1.0
 23
0.0
 33
0.0
 40
0.0
 40
0.0
 40
0.0
 40
0.0
 40
0.5598887762641059
 40
1.0
 40
1.0
 40
1.0
 40
1.0
 10
8.026116920137875
 20
4.74972352594656
 30
0.0
 10
8.042274516353578
 20
4.750465224292113
 30
0.0
 10
8.07113309845182
 20
4.751789948732034
 30
0.0
 10
8.099297316445625
 20
4.758139908063341
 30
0.0
 10
8.111692704892441
 20
4.760934596435316
 30
0.0
  0
SPLINE
  5
49
330
1F
100
AcDbEntity
  8
0
  6
Continuous
 62
     7
370
    15
100
AcDbSpline
210
0.0
220
0.0
230
1.0
 70
     8
 71
     3
 72
     9
 73
     5
 74
     0
 42
0.00000001
 43
0.00000001
 12
1.0
 22
0.0
 32
0.0
 13
1.0
 23
0.0
 33
0.0
 40
0.0
 40
0.0
 40
0.0
 40
0.0
 40
0.5601856302875173
 40
1.0
 40
1.0
 40
1.0
 40
1.0
 10
7.99320310036113
 20
4.757746099935766
 30
0.0
 10
7.999131143995891
 20
4.755301402247236
 30
0.0
 10
8.00971342835709
 20
4.750937317279053
 30
0.0
 10
8.021106210736434
 20
4.750094297957934
 30
0.0
 10
8.026116920137875
 20
4.74972352594656
 30
0.0
  0
SPLINE
  5
4A
330
1F
100
AcDbEntity
  8
0
  6
Continuous
 62
     7
370
    15
100
AcDbSpline
210
0.0
220
0.0
230
1.0
 70
     8
 71
     3
 72
     9
 73
     5
 74
     0
 42
0.00000001
 43
0.00000001
 12
1.0
 22
0.0
 32
0.0
 13
1.0
 23
0.0
 33
0.0
 40
0.0
 40
0.0
 40
0.0
 40
0.0
 40
0.5602458809156075
 40
1.0
 40
1.0
 40
1.0
 40
1.0
 10
7.980037572450432
 20
4.903698280550389
 30
0.0
 10
7.980110915895035
 20
4.876209110421751
 30
0.0
 10
7.980241828851472
 20
4.827142850293765
 30
0.0
 10
7.989244249013257
 20
4.778942432293134
 30
0.0
 10
7.99320310036113
 20
4.757746099935766
 30
0.0
  0
SPLINE
  5
4B
330
1F
100
AcDbEntity
  8
0
  6
Continuous
 62
     7
370
    15
100
AcDbSpline
210
0.0
220
0.0
230
1.0
 70
     8
 71
     3
 72
     9
 73
     5
 74
     0
 42
0.00000001
 43
0.00000001
 12
1.0
 22
0.0
 32
0.0
 13
1.0
 23
0.0
 33
0.0
 40
0.0
 40
0.0
 40
0.0
 40
0.0
 40
0.5599987409451118
 40
1.0
 40
1.0
 40
1.0
 40
1.0
 10
7.986620336405782
 20
5.001205260808098
 30
0.0
 10
7.985249352367996
 20
4.983013506055755
 30
0.0
 10
7.982801161081937
 20
4.950528156675076
 30
0.0
 10
7.980882003988063
 20
4.918007437800547
 30
0.0
 10
7.980037572450432
 20
4.903698280550387
 30
0.0
  0
SPLINE
  5
4C
330
1F
100
AcDbEntity
  8
0
  6
Continuous
 62
     7
370
    15
100
AcDbSpline
210
0.0
220
0.0
230
1.0
 70
     8
 71
     3
 72
    11
 73
     7
 74
     0
 42
0.00000001
 43
0.00000001
 12
1.0
 22
0.0
 32
0.0
 13
1.0
 23
0.0
 33
0.0
 40
0.0
 40
0.0
 40
0.0
 40
0.0
 40
0.2801900869628695
 40
0.5599236837150399
 40
0.7798737003798696
 40
1.0
 40
1.0
 40
1.0
 40
1.0
 10
7.936324077432458
 20
5.045947463942349
 30
0.0
 10
7.943356844652802
 20
5.045287940218157
 30
0.0
 10
7.957410921195658
 20
5.043969967276462
 30
0.0
 10
7.97415439117687
 20
5.032846112926555
 30
0.0
 10
7.985028000957533
 20
5.01782938836255
 30
0.0
 10
7.986089416198057
 20
5.006748116281274
 30
0.0
 10
7.986620336405782
 20
5.001205260808098
 30
0.0
  0
SPLINE
  5
4D
330
1F
100
AcDbEntity
  8
0
  6
Continuous
 62
     7
370
    15
100
AcDbSpline
210
0.0
220
0.0
230
1.0
 70
     8
 71
     3
 72
    10
 73
     6
 74
     0
 42
0.00000001
 43
0.00000001
 12
1.0
 22
0.0
 32
0.0
 13
1.0
 23
0.0
 33
0.0
 40
0.0
 40
0.0
 40
0.0
 40
0.0
 40
0.2815260410784864
 40
0.5613449573495941
 40
1.0
 40
1.0
 40
1.0
 40
1.0
 10
7.887879023740518
 20
5.006656504501533
 30
0.0
 10
7.889468797030467
 20
5.012913960309064
 30
0.0
 10
7.892638703502436
 20
5.025390927803578
 30
0.0
 10
7.909105025115035
 20
5.043272783858226
 30
0.0
 10
7.926005630190202
 20
5.044933521758908
 30
0.0
 10
7.936324077432458
 20
5.045947463942348
 30
0.0
  0
SPLINE
  5
4E
330
1F
100
AcDbEntity
  8
0
  6
Continuous
 62
     7
370
    15
100
AcDbSpline
210
0.0
220
0.0
230
1.0
 70
     8
 71
     3
 72
     9
 73
     5
 74
     0
 42
0.00000001
 43
0.00000001
 12
1.0
 22
0.0
 32
0.0
 13
1.0
 23
0.0
 33
0.0
 40
0.0
 40
0.0
 40
0.0
 40
0.0
 40
0.5599674797608676
 40
1.0
 40
1.0
 40
1.0
 40
1.0
 10
7.881296259785169
 20
4.903492362929166
 30
0.0
 10
7.881768056993931
 20
4.922799337834033
 30
0.0
 10
7.882610600937671
 20
4.957278080980172
 30
0.0
 10
7.886269145261359
 20
4.991567878486383
 30
0.0
 10
7.887879023740518
 20
5.006656504501532
 30
0.0
  0
SPLINE
  5
4F
330
1F
100
AcDbEntity
  8
0
  6
Continuous
 62
     7
370
    15
100
AcDbSpline
210
0.0
220
0.0
230
1.0
 70
     8
 71
     3
 72
     9
 73
     5
 74
     0
 42
0.00000001
 43
0.00000001
 12
1.0
 22
0.0
 32
0.0
 13
1.0
 23
0.0
 33
0.0
 40
0.0
 40
0.0
 40
0.0
 40
0.0
 40
0.5600191710158539
 40
1.0
 40
1.0
 40
1.0
 40
1.0
 10
7.895078953899644
 20
4.748283275917784
 30
0.0
 10
7.890889605343688
 20
4.777120656294264
 30
0.0
 10
7.883408881874246
 20
4.828614215566832
 30
0.0
 10
7.881941763669229
 20
4.880613621291669
 30
0.0
 10
7.881296259785169
 20
4.903492362929165
 30
0.0
  0
SPLINE
  5
50
330
1F
100
AcDbEntity
  8
0
  6
Continuous
 62
     7
370
    15
100
AcDbSpline
210
0.0
220
0.0
230
1.0
 70
     8
 71
     3
 72
    10
 73
     6
 74
     0
 42
0.00000001
 43
0.00000001
 12
1.0
 22
0.0
 32
0.0
 13
1.0
 23
0.0
 33
0.0
 40
0.0
 40
0.0
 40
0.0
 40
0.0
 40
0.2805041860823934
 40
0.5608260905748512
 40
1.0
 40
1.0
 40
1.0
 40
1.0
 10
7.940849718485199
 20
4.678444349369689
 30
0.0
 10
7.934291129506338
 20
4.683130078354063
 30
0.0
 10
7.921178213552843
 20
4.692498491369573
 30
0.0
 10
7.903285579610151
 20
4.715716357738604
 30
0.0
 10
7.898189534787246
 20
4.735939343486876
 30
0.0
 10
7.895078953899644
 20
4.748283275917783
 30
0.0
  0
SPLINE
  5
51
330
1F
100
AcDbEntity
  8
0
  6
Continuous
 62
     7
370
    15
100
AcDbSpline
210
0.0
220
0.0
230
1.0
 70
     8
 71
     3
 72
     9
 73
     5
 74
     0
 42
0.00000001
 43
0.00000001
 12
1.0
 22
0.0
 32
0.0
 13
1.0
 23
0.0
 33
0.0
 40
0.0
 40
0.0
 40
0.0
 40
0.0
 40
0.5602143042305434
 40
1.0
 40
1.0
 40
1.0
 40
1.0
 10
8.024985546540934
 20
4.657564537241727
 30
0.0
 10
8.008435790838892
 20
4.658313256454722
 30
0.0
 10
7.978893960905126
 20
4.65964974359427
 30
0.0
 10
7.952470415698563
 20
4.672703495851042
 30
0.0
 10
7.940849718485199
 20
4.678444349369689
 30
0.0
  0
SPLINE
  5
52
330
1F
100
AcDbEntity
  8
0
  6
Continuous
 62
     7
370
    15
100
AcDbSpline
210
0.0
220
0.0
230
1.0
 70
     8
 71
     3
 72
     9
 73
     5
 74
     0
 42
0.00000001
 43
0.00000001
 12
1.0
 22
0.0
 32
0.0
 13
1.0
 23
0.0
 33
0.0
 40
0.0
 40
0.0
 40
0.0
 40
0.0
 40
0.5598907650943189
 40
1.0
 40
1.0
 40
1.0
 40
1.0
 10
8.11827546884779
 20
4.673816189501254
 30
0.0
 10
8.101219843010377
 20
4.668612048927596
 30
0.0
 10
8.070757426230667
 20
4.659317127671335
 30
0.0
 10
8.038973809696376
 20
4.658100143301589
 30
0.0
 10
8.024985546540934
 20
4.657564537241727
 30
0.0
  0
SPLINE
  5
53
330
1F
100
AcDbEntity
  8
0
  6
Continuous
 62
     7
370
    15
100
AcDbSpline
210
0.0
220
0.0
230
1.0
 70
     8
 71
     3
 72
    10
 73
     6
 74
     0
 42
0.00000001
 43
0.00000001
 12
1.0
 22
0.0
 32
0.0
 13
1.0
 23
0.0
 33
0.0
 40
0.0
 40
0.0
 40
0.0
 40
0.0
 40
0.2809060197309179
 40
0.5613834386122056
 40
1.0
 40
1.0
 40
1.0
 40
1.0
 10
8.157977676871162
 20
4.650982213281296
 30
0.0
 10
8.153478052906191
 20
4.651266667101917
 30
0.0
 10
8.144485670413511
 20
4.651835140729147
 30
0.0
 10
8.129221635958167
 20
4.658354541635402
 30
0.0
 10
8.122422593716722
 20
4.667958304843313
 30
0.0
 10
8.11827546884779
 20
4.673816189501254
 30
0.0
  0
SPLINE
  5
54
330
1F
100
AcDbEntity
  8
0
  6
Continuous
 62
     7
370
    15
100
AcDbSpline
210
0.0
220
0.0
230
1.0
 70
     8
 71
     3
 72
    11
 73
     7
 74
     0
 42
0.00000001
 43
0.00000001
 12
1.0
 22
0.0
 32
0.0
 13
1.0
 23
0.0
 33
0.0
 40
0.0
 40
0.0
 40
0.0
 40
0.0
 40
0.2795542117425821
 40
0.5591888664909148
 40
0.7794982347214274
 40
1.0
 40
1.0
 40
1.0
 40
1.0
 10
8.203851253602355
 20
4.695724416415548
 30
0.0
 10
8.203117741174344
 20
4.689002107965337
 30
0.0
 10
8.201650505246757
 20
4.675555556689849
 30
0.0
 10
8.189060697436618
 20
4.660730788324618
 30
0.0
 10
8.17377521159191
 20
4.65227723063701
 30
0.0
 10
8.16324505378058
 20
4.651414011320508
 30
0.0
 10
8.157977676871162
 20
4.650982213281296
 30
0.0
  0
LINE
  5
55
330
1F
100
AcDbEntity
  8
0
  6
Continuous
 62
     7
370
    15
100
AcDbLine
 10
8.2038512536
 20
4.8781897219
 30
0.0
 11
8.2038512536
 21
4.6957244164
 31
0.0
  0
SPLINE
  5
56
330
1F
100
AcDbEntity
  8
0
  6
Continuous
 62
     7
370
    15
100
AcDbSpline
210
0.0
220
0.0
230
1.0
 70
     8
 71
     3
 72
    13
 73
     9
 74
     0
 42
0.00000001
 43
0.00000001
 12
1.0
 22
0.0
 32
0.0
 13
1.0
 23
0.0
 33
0.0
 40
0.0
 40
0.0
 40
0.0
 40
0.0
 40
0.7543923004013939
 40
0.9428811549542391
 40
0.989568035280138
 40
0.9993929709424512
 40
0.9998873791744989
 40
1.0
 40
1.0
 40
1.0
 40
1.0
 10
8.210434017557706
 20
5.00089667770621
 30
0.0
 10
8.208925069669561
 20
4.970036693449228
 30
0.0
 10
8.207039103274118
 20
4.931466181021396
 30
0.0
 10
8.20471306435768
 20
4.890972918531261
 30
0.0
 10
8.204179650013309
 20
4.880964624662006
 30
0.0
 10
8.20398207566103
 20
4.878629633439965
 30
0.0
 10
8.203865039986068
 20
4.87821581127337
 30
0.0
 10
8.203853411087476
 20
4.878193804723126
 30
0.0
 10
8.203851253602355
 20
4.878189721894101
 30
0.0
  0
SPLINE
  5
57
330
1F
100
AcDbEntity
  8
0
  6
Continuous
 62
     7
370
    15
100
AcDbSpline
210
0.0
220
0.0
230
1.0
 70
     8
 71
     3
 72
    11
 73
     7
 74
     0
 42
0.00000001
 43
0.00000001
 12
1.0
 22
0.0
 32
0.0
 13
1.0
 23
0.0
 33
0.0
 40
0.0
 40
0.0
 40
0.0
 40
0.0
 40
0.2802098814814613
 40
0.5601029423583936
 40
0.7799637695707514
 40
1.0
 40
1.0
 40
1.0
 40
1.0
 10
8.160343382875658
 20
5.045947463942349
 30
0.0
 10
8.16743020748985
 20
5.045294829419384
 30
0.0
 10
8.181595843967056
 20
5.043990298277707
 30
0.0
 10
8.19844108424911
 20
5.032852678675377
 30
0.0
 10
8.209609830791283
 20
5.01775818345542
 30
0.0
 10
8.210159215615551
 20
5.006518673491971
 30
0.0
 10
8.210434017557706
 20
5.00089667770621
 30
0.0
  0
SPLINE
  5
58
330
1F
100
AcDbEntity
  8
0
  6
Continuous
 62
     7
370
    15
100
AcDbSpline
210
0.0
220
0.0
230
1.0
 70
     8
 71
     3
 72
    11
 73
     7
 74
     0
 42
0.00000001
 43
0.00000001
 12
1.0
 22
0.0
 32
0.0
 13
1.0
 23
0.0
 33
0.0
 40
0.0
 40
0.0
 40
0.0
 40
0.0
 40
0.2803125586471548
 40
0.5589069170388413
 40
0.7792486093272216
 40
0.9999999999999999
 40
0.9999999999999999
 40
0.9999999999999999
 40
0.9999999999999999
 10
7.262517401304678
 20
5.004393757307648
 30
0.0
 10
7.263789696281351
 20
5.010993957385983
 30
0.0
 10
7.266326487591768
 20
5.024153901041111
 30
0.0
 10
7.279205632769682
 20
5.038819658057799
 30
0.0
 10
7.295445563194646
 20
5.045229088273487
 30
0.0
 10
7.305923947505915
 20
5.045707857155189
 30
0.0
 10
7.311168005955408
 20
5.045947463942349
 30
0.0
  0
SPLINE
  5
59
330
1F
100
AcDbEntity
  8
0
  6
Continuous
 62
     7
370
    15
100
AcDbSpline
210
0.0
220
0.0
230
1.0
 70
     8
 71
     3
 72
     9
 73
     5
 74
     0
 42
0.00000001
 43
0.00000001
 12
1.0
 22
0.0
 32
0.0
 13
1.0
 23
0.0
 33
0.0
 40
0.0
 40
0.0
 40
0.0
 40
0.0
 40
0.55999952076659
 40
0.9999999999999999
 40
0.9999999999999999
 40
0.9999999999999999
 40
0.9999999999999999
 10
7.261488839853374
 20
4.880761052189874
 30
0.0
 10
7.261546337351007
 20
4.903840321698943
 30
0.0
 10
7.261649011541788
 20
4.945053338234162
 30
0.0
 10
7.262252059787545
 20
4.986261948876483
 30
0.0
 10
7.262517401304678
 20
5.004393757307648
 30
0.0
  0
SPLINE
  5
5A
330
1F
100
AcDbEntity
  8
0
  6
Continuous
 62
     7
370
    15
100
AcDbSpline
210
0.0
220
0.0
230
1.0
 70
     8
 71
     3
 72
     9
 73
     5
 74
     0
 42
0.00000001
 43
0.00000001
 12
1.0
 22
0.0
 32
0.0
 13
1.0
 23
0.0
 33
0.0
 40
0.0
 40
0.0
 40
0.0
 40
0.0
 40
0.5600097301758397
 40
1.0
 40
1.0
 40
1.0
 40
1.0
 10
7.262208818202789
 20
4.822030530649871
 30
0.0
 10
7.262032226769743
 20
4.832993248113392
 30
0.0
 10
7.261716890404085
 20
4.852569189160131
 30
0.0
 10
7.261558520895978
 20
4.872147004108274
 30
0.0
 10
7.261488839853374
 20
4.880761052189874
 30
0.0
  0
SPLINE
  5
5B
330
1F
100
AcDbEntity
  8
0
  6
Continuous
 62
     7
370
    15
100
AcDbSpline
210
0.0
220
0.0
230
1.0
 70
     8
 71
     3
 72
     9
 73
     5
 74
     0
 42
0.00000001
 43
0.00000001
 12
1.0
 22
0.0
 32
0.0
 13
1.0
 23
0.0
 33
0.0
 40
0.0
 40
0.0
 40
0.0
 40
0.0
 40
0.560002029672262
 40
1.0
 40
1.0
 40
1.0
 40
1.0
 10
7.262517401304678
 20
4.760934596435316
 30
0.0
 10
7.26247641831977
 20
4.772339298116503
 30
0.0
 10
7.262403234683395
 20
4.792704763020014
 30
0.0
 10
7.262268223048232
 20
4.813069908134198
 30
0.0
 10
7.262208818202789
 20
4.82203053064987
 30
0.0
  0
SPLINE
  5
5C
330
1F
100
AcDbEntity
  8
0
  6
Continuous
 62
     7
370
    15
100
AcDbSpline
210
0.0
220
0.0
230
1.0
 70
     8
 71
     3
 72
     9
 73
     5
 74
     0
 42
0.00000001
 43
0.00000001
 12
1.0
 22
0.0
 32
0.0
 13
1.0
 23
0.0
 33
0.0
 40
0.0
 40
0.0
 40
0.0
 40
0.0
 40
0.5598883104463904
 40
1.0
 40
1.0
 40
1.0
 40
1.0
 10
7.176941543217627
 20
4.74972352594656
 30
0.0
 10
7.19309913904274
 20
4.750465226392011
 30
0.0
 10
7.221957744453221
 20
4.751789955684645
 30
0.0
 10
7.250121988341853
 20
4.758139908134171
 30
0.0
 10
7.262517401304678
 20
4.760934596435316
 30
0.0
  0
SPLINE
  5
5D
330
1F
100
AcDbEntity
  8
0
  6
Continuous
 62
     7
370
    15
100
AcDbSpline
210
0.0
220
0.0
230
1.0
 70
     8
 71
     3
 72
     9
 73
     5
 74
     0
 42
0.00000001
 43
0.00000001
 12
1.0
 22
0.0
 32
0.0
 13
1.0
 23
0.0
 33
0.0
 40
0.0
 40
0.0
 40
0.0
 40
0.0
 40
0.5601836893497681
 40
1.0
 40
1.0
 40
1.0
 40
1.0
 10
7.144027796773368
 20
4.757746099935766
 30
0.0
 10
7.149955803340862
 20
4.755301401843284
 30
0.0
 10
7.160538058197969
 20
4.750937301033208
 30
0.0
 10
7.171930820523498
 20
4.750094294131793
 30
0.0
 10
7.176941543217627
 20
4.749723525946558
 30
0.0
  0
SPLINE
  5
5E
330
1F
100
AcDbEntity
  8
0
  6
Continuous
 62
     7
370
    15
100
AcDbSpline
210
0.0
220
0.0
230
1.0
 70
     8
 71
     3
 72
     9
 73
     5
 74
     0
 42
0.00000001
 43
0.00000001
 12
1.0
 22
0.0
 32
0.0
 13
1.0
 23
0.0
 33
0.0
 40
0.0
 40
0.0
 40
0.0
 40
0.0
 40
0.5602458809156075
 40
1.0
 40
1.0
 40
1.0
 40
1.0
 10
7.130862268862669
 20
4.903698280550389
 30
0.0
 10
7.130935612307272
 20
4.876209110421751
 30
0.0
 10
7.131066525263709
 20
4.827142850293765
 30
0.0
 10
7.140068945425494
 20
4.778942432293134
 30
0.0
 10
7.144027796773368
 20
4.757746099935766
 30
0.0
  0
SPLINE
  5
5F
330
1F
100
AcDbEntity
  8
0
  6
Continuous
 62
     7
370
    15
100
AcDbSpline
210
0.0
220
0.0
230
1.0
 70
     8
 71
     3
 72
     9
 73
     5
 74
     0
 42
0.00000001
 43
0.00000001
 12
1.0
 22
0.0
 32
0.0
 13
1.0
 23
0.0
 33
0.0
 40
0.0
 40
0.0
 40
0.0
 40
0.0
 40
0.559998765728283
 40
1.0
 40
1.0
 40
1.0
 40
1.0
 10
7.137445032818018
 20
5.001205260808098
 30
0.0
 10
7.136074028809545
 20
4.983013506568723
 30
0.0
 10
7.133625801969814
 20
4.950528159541721
 30
0.0
 10
7.131706683401459
 20
4.918007438116771
 30
0.0
 10
7.130862268862669
 20
4.903698280550389
 30
0.0
  0
SPLINE
  5
60
330
1F
100
AcDbEntity
  8
0
  6
Continuous
 62
     7
370
    15
100
AcDbSpline
210
0.0
220
0.0
230
1.0
 70
     8
 71
     3
 72
    11
 73
     7
 74
     0
 42
0.00000001
 43
0.00000001
 12
1.0
 22
0.0
 32
0.0
 13
1.0
 23
0.0
 33
0.0
 40
0.0
 40
0.0
 40
0.0
 40
0.0
 40
0.2801912356575934
 40
0.5599245302485166
 40
0.7798737592717201
 40
1.0
 40
1.0
 40
1.0
 40
1.0
 10
7.087148663845965
 20
5.045947463942349
 30
0.0
 10
7.094181466406251
 20
5.045287944450626
 30
0.0
 10
7.108235577201891
 20
5.043969983377623
 30
0.0
 10
7.124979107626789
 20
5.032846138983161
 30
0.0
 10
7.135852593907464
 20
5.017829356702662
 30
0.0
 10
7.136914077527528
 20
5.006748111843908
 30
0.0
 10
7.137445032818018
 20
5.001205260808098
 30
0.0
  0
SPLINE
  5
61
330
1F
100
AcDbEntity
  8
0
  6
Continuous
 62
     7
370
    15
100
AcDbSpline
210
0.0
220
0.0
230
1.0
 70
     8
 71
     3
 72
    10
 73
     6
 74
     0
 42
0.00000001
 43
0.00000001
 12
1.0
 22
0.0
 32
0.0
 13
1.0
 23
0.0
 33
0.0
 40
0.0
 40
0.0
 40
0.0
 40
0.0
 40
0.2815263949300083
 40
0.5613449272757856
 40
1.0
 40
1.0
 40
1.0
 40
1.0
 10
7.038703720152755
 20
5.006656504501533
 30
0.0
 10
7.040293496838409
 20
5.01291395692485
 30
0.0
 10
7.043463405927092
 20
5.025390901320675
 30
0.0
 10
7.059929632575336
 20
5.043272800479607
 30
0.0
 10
7.076830220987683
 20
5.044933527706668
 30
0.0
 10
7.087148663845965
 20
5.045947463942349
 30
0.0
  0
SPLINE
  5
62
330
1F
100
AcDbEntity
  8
0
  6
Continuous
 62
     7
370
    15
100
AcDbSpline
210
0.0
220
0.0
230
1.0
 70
     8
 71
     3
 72
     9
 73
     5
 74
     0
 42
0.00000001
 43
0.00000001
 12
1.0
 22
0.0
 32
0.0
 13
1.0
 23
0.0
 33
0.0
 40
0.0
 40
0.0
 40
0.0
 40
0.0
 40
0.5599674797608676
 40
1.0
 40
1.0
 40
1.0
 40
1.0
 10
7.032120956197406
 20
4.903492362929166
 30
0.0
 10
7.032592753406169
 20
4.922799337834033
 30
0.0
 10
7.033435297349908
 20
4.957278080980172
 30
0.0
 10
7.037093841673595
 20
4.991567878486383
 30
0.0
 10
7.038703720152755
 20
5.006656504501532
 30
0.0
  0
SPLINE
  5
63
330
1F
100
AcDbEntity
  8
0
  6
Continuous
 62
     7
370
    15
100
AcDbSpline
210
0.0
220
0.0
230
1.0
 70
     8
 71
     3
 72
     9
 73
     5
 74
     0
 42
0.00000001
 43
0.00000001
 12
1.0
 22
0.0
 32
0.0
 13
1.0
 23
0.0
 33
0.0
 40
0.0
 40
0.0
 40
0.0
 40
0.0
 40
0.5600191955730973
 40
1.0
 40
1.0
 40
1.0
 40
1.0
 10
7.045903613645637
 20
4.748283275917784
 30
0.0
 10
7.041714240742458
 20
4.777120655480427
 30
0.0
 10
7.034233474125356
 20
4.82861421104174
 30
0.0
 10
7.032766428230399
 20
4.880613620795836
 30
0.0
 10
7.032120956197406
 20
4.903492362929166
 30
0.0
  0
SPLINE
  5
64
330
1F
100
AcDbEntity
  8
0
  6
Continuous
 62
     7
370
    15
100
AcDbSpline
210
0.0
220
0.0
230
1.0
 70
     8
 71
     3
 72
    10
 73
     6
 74
     0
 42
0.00000001
 43
0.00000001
 12
1.0
 22
0.0
 32
0.0
 13
1.0
 23
0.0
 33
0.0
 40
0.0
 40
0.0
 40
0.0
 40
0.0
 40
0.2805040181671967
 40
0.5608258299873718
 40
1.0
 40
1.0
 40
1.0
 40
1.0
 10
7.091674304898707
 20
4.678444349369689
 30
0.0
 10
7.085115727235753
 20
4.683130078439785
 30
0.0
 10
7.072002832149987
 20
4.692498492881768
 30
0.0
 10
7.054110247949897
 20
4.715716372494642
 30
0.0
 10
7.049014198485878
 20
4.735939346320598
 30
0.0
 10
7.045903613645637
 20
4.748283275917784
 30
0.0
  0
SPLINE
  5
65
330
1F
100
AcDbEntity
  8
0
  6
Continuous
 62
     7
370
    15
100
AcDbSpline
210
0.0
220
0.0
230
1.0
 70
     8
 71
     3
 72
     9
 73
     5
 74
     0
 42
0.00000001
 43
0.00000001
 12
1.0
 22
0.0
 32
0.0
 13
1.0
 23
0.0
 33
0.0
 40
0.0
 40
0.0
 40
0.0
 40
0.0
 40
0.5602139050751762
 40
1.0
 40
1.0
 40
1.0
 40
1.0
 10
7.175810132954441
 20
4.657564537241726
 30
0.0
 10
7.159260390657519
 20
4.658313260210047
 30
0.0
 10
7.129718563603615
 20
4.659649755005226
 30
0.0
 10
7.10329501441182
 20
4.672703495717623
 30
0.0
 10
7.091674304898707
 20
4.678444349369689
 30
0.0
  0
SPLINE
  5
66
330
1F
100
AcDbEntity
  8
0
  6
Continuous
 62
     7
370
    15
100
AcDbSpline
210
0.0
220
0.0
230
1.0
 70
     8
 71
     3
 72
     9
 73
     5
 74
     0
 42
0.00000001
 43
0.00000001
 12
1.0
 22
0.0
 32
0.0
 13
1.0
 23
0.0
 33
0.0
 40
0.0
 40
0.0
 40
0.0
 40
0.0
 40
0.559890549718112
 40
0.9999999999999999
 40
0.9999999999999999
 40
0.9999999999999999
 40
0.9999999999999999
 10
7.269100091927541
 20
4.673816189501254
 30
0.0
 10
7.252044466062042
 20
4.668612048923222
 30
0.0
 10
7.221582037514025
 20
4.659317124083623
 30
0.0
 10
7.18979840846373
 20
4.658100142387161
 30
0.0
 10
7.175810132954441
 20
4.657564537241727
 30
0.0
  0
SPLINE
  5
67
330
1F
100
AcDbEntity
  8
0
  6
Continuous
 62
     7
370
    15
100
AcDbSpline
210
0.0
220
0.0
230
1.0
 70
     8
 71
     3
 72
    10
 73
     6
 74
     0
 42
0.00000001
 43
0.00000001
 12
1.0
 22
0.0
 32
0.0
 13
1.0
 23
0.0
 33
0.0
 40
0.0
 40
0.0
 40
0.0
 40
0.0
 40
0.2809072167912824
 40
0.5613829217720563
 40
1.0
 40
1.0
 40
1.0
 40
1.0
 10
7.308802373283399
 20
4.650982213281296
 30
0.0
 10
7.304302722454748
 20
4.651266660128947
 30
0.0
 10
7.29531033287503
 20
4.651835116875082
 30
0.0
 10
7.280046315565392
 20
4.658354585463998
 30
0.0
 10
7.273247245536223
 20
4.667958311104051
 30
0.0
 10
7.269100091927541
 20
4.673816189501254
 30
0.0
  0
SPLINE
  5
68
330
1F
100
AcDbEntity
  8
0
  6
Continuous
 62
     7
370
    15
100
AcDbSpline
210
0.0
220
0.0
230
1.0
 70
     8
 71
     3
 72
    11
 73
     7
 74
     0
 42
0.00000001
 43
0.00000001
 12
1.0
 22
0.0
 32
0.0
 13
1.0
 23
0.0
 33
0.0
 40
0.0
 40
0.0
 40
0.0
 40
0.0
 40
0.279554544795509
 40
0.5591886756258351
 40
0.779498139247235
 40
1.0
 40
1.0
 40
1.0
 40
1.0
 10
7.354675950014593
 20
4.695724416415548
 30
0.0
 10
7.353942403055633
 20
4.689002112861892
 30
0.0
 10
7.352475100305147
 20
4.675555591990362
 30
0.0
 10
7.339885397690424
 20
4.660730768816965
 30
0.0
 10
7.324599904060549
 20
4.652277233323508
 30
0.0
 10
7.314069748877902
 20
4.651414012216266
 30
0.0
 10
7.308802373283399
 20
4.650982213281296
 30
0.0
  0
LINE
  5
69
330
1F
100
AcDbEntity
  8
0
  6
Continuous
 62
     7
370
    15
100
AcDbLine
 10
7.35467595
 20
4.8781897219
 30
0.0
 11
7.35467595
 21
4.6957244164
 31
0.0
  0
SPLINE
  5
6A
330
1F
100
AcDbEntity
  8
0
  6
Continuous
 62
     7
370
    15
100
AcDbSpline
210
0.0
220
0.0
230
1.0
 70
     8
 71
     3
 72
    13
 73
     9
 74
     0
 42
0.00000001
 43
0.00000001
 12
1.0
 22
0.0
 32
0.0
 13
1.0
 23
0.0
 33
0.0
 40
0.0
 40
0.0
 40
0.0
 40
0.0
 40
0.7543925120707189
 40
0.9428814118900781
 40
0.9895683034280582
 40
0.9993932414498774
 40
0.9998876498006596
 40
1.0
 40
1.0
 40
1.0
 40
1.0
 10
7.361258713969941
 20
5.00089667770621
 30
0.0
 10
7.35974783600861
 20
4.970037660679299
 30
0.0
 10
7.35785945731638
 20
4.931468357460728
 30
0.0
 10
7.355540259432078
 20
4.890971606831153
 30
0.0
 10
7.355002777824026
 20
4.880965387270004
 30
0.0
 10
7.354807371555221
 20
4.878629290294699
 30
0.0
 10
7.354689589607795
 20
4.878215861023124
 30
0.0
 10
7.354678081001063
 20
4.878193805749788
 30
0.0
 10
7.354675950014593
 20
4.8781897218941
 30
0.0
  0
SPLINE
  5
6B
330
1F
100
AcDbEntity
  8
0
  6
Continuous
 62
     7
370
    15
100
AcDbSpline
210
0.0
220
0.0
230
1.0
 70
     8
 71
     3
 72
    11
 73
     7
 74
     0
 42
0.00000001
 43
0.00000001
 12
1.0
 22
0.0
 32
0.0
 13
1.0
 23
0.0
 33
0.0
 40
0.0
 40
0.0
 40
0.0
 40
0.0
 40
0.2802098418842046
 40
0.560102863208651
 40
0.7799636593518487
 40
1.0
 40
1.0
 40
1.0
 40
1.0
 10
7.311168005955408
 20
5.045947463942349
 30
0.0
 10
7.318254829942826
 20
5.045294829324656
 30
0.0
 10
7.332420465167192
 20
5.043990297993631
 30
0.0
 10
7.349265714166462
 20
5.032852679708776
 30
0.0
 10
7.360434436468684
 20
5.017758177530504
 30
0.0
 10
7.360983881716001
 20
5.006518672719362
 30
0.0
 10
7.361258713969941
 20
5.00089667770621
 30
0.0
  0
LINE
  5
6C
330
1F
100
AcDbEntity
  8
0
  6
Continuous
 62
     7
370
    15
100
AcDbLine
 10
4.561042549
 20
4.643103371
 30
0.0
 11
4.7604321123
 21
4.643103371
 31
0.0
  0
LINE
  5
6D
330
1F
100
AcDbEntity
  8
0
  6
Continuous
 62
     7
370
    15
100
AcDbLine
 10
4.7604321123
 20
4.643103371
 30
0.0
 11
4.7610425319
 21
5.5286790874
 31
0.0
  0
LINE
  5
6E
330
1F
100
AcDbEntity
  8
0
  6
Continuous
 62
     7
370
    15
100
AcDbLine
 10
4.7610425319
 20
5.5286790874
 30
0.0
 11
4.561042549
 21
5.5286790874
 31
0.0
  0
LINE
  5
6F
330
1F
100
AcDbEntity
  8
0
  6
Continuous
 62
     7
370
    15
100
AcDbLine
 10
4.561042549
 20
5.5286790874
 30
0.0
 11
4.561042549
 21
4.643103371
 31
0.0
  0
CIRCLE
  5
70
330
1F
100
AcDbEntity
  8
0
  6
Continuous
 62
     7
370
    15
100
AcDbCircle
 10
5.1811981418
 20
5.7725481379
 30
0.0
 40
0.1574803149606376
  0
LINE
  5
71
330
1F
100
AcDbEntity
  8
0
  6
Continuous
 62
     7
370
    15
100
AcDbLine
 10
9.5816261108
 20
6.1012256999
 30
0.0
 11
7.5404594772
 21
5.4615933557
 31
0.0
  0
ARC
  5
72
330
1F
100
AcDbEntity
  8
0
  6
Continuous
 62
     7
370
    15
100
AcDbCircle
 10
9.7610427449
 20
5.5286791925
 30
0.0
 40
0.6000000000000001
100
AcDbArc
 50
359.9604972771
 51
107.39922693
  0
LINE
  5
73
330
1F
100
AcDbEntity
  8
0
  6
Continuous
 62
     7
370
    15
100
AcDbLine
 10
10.161042804
 20
5.5286790874
 30
0.0
 11
10.3610424935
 21
5.5282654922
 31
0.0
  0
LINE
  5
74
330
1F
100
AcDbEntity
  8
0
  6
Continuous
 62
     7
370
    15
100
AcDbLine
 10
10.161042804
 20
4.643103371
 30
0.0
 11
10.161042804
 21
5.5286790874
 31
0.0
  0
LINE
  5
75
330
1F
100
AcDbEntity
  8
0
  6
Continuous
 62
     7
370
    15
100
AcDbLine
 10
10.3604323673
 20
4.643103371
 30
0.0
 11
10.161042804
 21
4.643103371
 31
0.0
  0
ARC
  5
76
330
1F
100
AcDbEntity
  8
0
  6
Continuous
 62
     7
370
    15
100
AcDbCircle
 10
9.7604324676
 20
4.6435171163
 30
0.0
 40
0.6000000000000005
100
AcDbArc
 50
270.0
 51
359.9604972771
  0
LINE
  5
77
330
1F
100
AcDbEntity
  8
0
  6
Continuous
 62
     7
370
    15
100
AcDbLine
 10
4.9616530811
 20
4.0435170174
 30
0.0
 11
9.7604324185
 21
4.0435170174
 31
0.0
  0
ARC
  5
78
330
1F
100
AcDbEntity
  8
0
  6
Continuous
 62
     7
370
    15
100
AcDbCircle
 10
4.9616530223
 20
4.6435171163
 30
0.0
 40
0.6000000000000005
100
AcDbArc
 50
180.0395027229
 51
270.0
  0
LINE
  5
79
330
1F
100
AcDbEntity
  8
0
  6
Continuous
 62
     7
370
    15
100
AcDbLine
 10
4.3610428594
 20
5.5282654922
 30
0.0
 11
4.3616531323
 21
4.643103371
 31
0.0
  0
ARC
  5
7A
330
1F
100
AcDbEntity
  8
0
  6
Continuous
 62
     7
370
    15
100
AcDbCircle
 10
4.9610427449
 20
5.5286791925
 30
0.0
 40
0.600000000000001
100
AcDbArc
 50
72.60077307
 51
180.0395027229
  0
LINE
  5
7B
330
1F
100
AcDbEntity
  8
0
  6
Continuous
 62
     7
370
    15
100
AcDbLine
 10
7.1816259858
 20
5.4615933557
 30
0.0
 11
5.1404595355
 21
6.1012256999
 31
0.0
  0
ARC
  5
7C
330
1F
100
AcDbEntity
  8
0
  6
Continuous
 62
     7
370
    15
100
AcDbCircle
 10
7.3610427449
 20
6.0341398667
 30
0.0
 40
0.6000000000000003
100
AcDbArc
 50
252.60077307
 51
287.39922693
  0
CIRCLE
  5
7D
330
1F
100
AcDbEntity
  8
0
  6
Continuous
 62
     7
370
    15
100
AcDbCircle
 10
9.540887348
 20
5.7725481379
 30
0.0
 40
0.1574803149606367
  0
SPLINE
  5
7E
330
1F
100
AcDbEntity
  8
0
  6
Continuous
 62
     7
370
    15
100
AcDbSpline
210
0.0
220
0.0
230
1.0
 70
     8
 71
     3
 72
    13
 73
     9
 74
     0
 42
0.00000001
 43
0.00000001
 12
1.0
 22
0.0
 32
0.0
 13
1.0
 23
0.0
 33
0.0
 40
0.0
 40
0.0
 40
0.0
 40
0.0
 40
0.0624160954508709
 40
0.1247759206938471
 40
0.2493066130325092
 40
0.4991225904699084
 40
0.7495328335379009
 40
1.0
 40
1.0
 40
1.0
 40
1.0
 10
6.937391003859232
 20
5.210516122831159
 30
0.0
 10
6.941512511635258
 20
5.210113773027327
 30
0.0
 10
6.949751811509524
 20
5.209309436151536
 30
0.0
 10
6.963611083561453
 20
5.19969894912766
 30
0.0
 10
6.978964204418151
 20
5.174890559169492
 30
0.0
 10
6.987940663409934
 20
5.134536567363731
 30
0.0
 10
6.992793265194807
 20
5.085732824546609
 30
0.0
 10
6.993160690577436
 20
5.052970386240408
 30
0.0
 10
6.993344424147213
 20
5.036587305405034
 30
0.0
  0
SPLINE
  5
7F
330
1F
100
AcDbEntity
  8
0
  6
Continuous
 62
     7
370
    15
100
AcDbSpline
210
0.0
220
0.0
230
1.0
 70
     8
 71
     3
 72
    11
 73
     7
 74
     0
 42
0.00000001
 43
0.00000001
 12
1.0
 22
0.0
 32
0.0
 13
1.0
 23
0.0
 33
0.0
 40
0.0
 40
0.0
 40
0.0
 40
0.0
 40
0.2806280118342156
 40
0.5586882056886698
 40
0.7790308628041094
 40
1.0
 40
1.0
 40
1.0
 40
1.0
 10
6.887300350844064
 20
5.162894006299246
 30
0.0
 10
6.887707810526507
 20
5.170364094855325
 30
0.0
 10
6.888519001531235
 20
5.185235918749357
 30
0.0
 10
6.90183972108507
 20
5.202754300416081
 30
0.0
 10
6.919974853662569
 20
5.209733623776096
 30
0.0
 10
6.931580128897949
 20
5.21025504307961
 30
0.0
 10
6.937391003859232
 20
5.210516122831159
 30
0.0
  0
SPLINE
  5
80
330
1F
100
AcDbEntity
  8
0
  6
Continuous
 62
     7
370
    15
100
AcDbSpline
210
0.0
220
0.0
230
1.0
 70
     8
 71
     3
 72
     9
 73
     5
 74
     0
 42
0.00000001
 43
0.00000001
 12
1.0
 22
0.0
 32
0.0
 13
1.0
 23
0.0
 33
0.0
 40
0.0
 40
0.0
 40
0.0
 40
0.0
 40
0.5600263388087076
 40
0.9999999999999999
 40
0.9999999999999999
 40
0.9999999999999999
 40
0.9999999999999999
 10
6.889357473746671
 20
5.124837379265982
 30
0.0
 10
6.88876958764497
 20
5.131931086033271
 30
0.0
 10
6.887719840408166
 20
5.144597823784174
 30
0.0
 10
6.887428522882431
 20
5.157303738488151
 30
0.0
 10
6.887300350844064
 20
5.162894006299245
 30
0.0
  0
SPLINE
  5
81
330
1F
100
AcDbEntity
  8
0
  6
Continuous
 62
     7
370
    15
100
AcDbSpline
210
0.0
220
0.0
230
1.0
 70
     8
 71
     3
 72
     9
 73
     5
 74
     0
 42
0.00000001
 43
0.00000001
 12
1.0
 22
0.0
 32
0.0
 13
1.0
 23
0.0
 33
0.0
 40
0.0
 40
0.0
 40
0.0
 40
0.0
 40
0.5599800291915477
 40
1.0
 40
1.0
 40
1.0
 40
1.0
 10
6.892031707853691
 20
5.087603836057718
 30
0.0
 10
6.891623578636652
 20
5.094560488505262
 30
0.0
 10
6.890894750471783
 20
5.106983525193885
 30
0.0
 10
6.889827211995737
 20
5.119381863018377
 30
0.0
 10
6.889357473746671
 20
5.124837379265982
 30
0.0
  0
SPLINE
  5
82
330
1F
100
AcDbEntity
  8
0
  6
Continuous
 62
     7
370
    15
100
AcDbSpline
210
0.0
220
0.0
230
1.0
 70
     8
 71
     3
 72
     9
 73
     5
 74
     0
 42
0.00000001
 43
0.00000001
 12
1.0
 22
0.0
 32
0.0
 13
1.0
 23
0.0
 33
0.0
 40
0.0
 40
0.0
 40
0.0
 40
0.0
 40
0.5600068995797961
 40
1.0
 40
1.0
 40
1.0
 40
1.0
 10
6.89419167956818
 20
4.857927075969916
 30
0.0
 10
6.894221318522735
 20
4.900805034230597
 30
0.0
 10
6.894274244575215
 20
4.97737187348357
 30
0.0
 10
6.892716919945763
 20
5.053922214274771
 30
0.0
 10
6.892031707853691
 20
5.087603836057718
 30
0.0
  0
SPLINE
  5
83
330
1F
100
AcDbEntity
  8
0
  6
Continuous
 62
     7
370
    15
100
AcDbSpline
210
0.0
220
0.0
230
1.0
 70
     8
 71
     3
 72
     9
 73
     5
 74
     0
 42
0.00000001
 43
0.00000001
 12
1.0
 22
0.0
 32
0.0
 13
1.0
 23
0.0
 33
0.0
 40
0.0
 40
0.0
 40
0.0
 40
0.0
 40
0.5599880748933546
 40
1.0
 40
1.0
 40
1.0
 40
1.0
 10
6.893883114799412
 20
4.805470881948346
 30
0.0
 10
6.89402307823508
 20
4.815262069540791
 30
0.0
 10
6.894273018264061
 20
4.832746705431135
 30
0.0
 10
6.894216533526356
 20
4.850232929051758
 30
0.0
 10
6.89419167956818
 20
4.857927075969916
 30
0.0
  0
SPLINE
  5
84
330
1F
100
AcDbEntity
  8
0
  6
Continuous
 62
     7
370
    15
100
AcDbSpline
210
0.0
220
0.0
230
1.0
 70
     8
 71
     3
 72
    11
 73
     7
 74
     0
 42
0.00000001
 43
0.00000001
 12
1.0
 22
0.0
 32
0.0
 13
1.0
 23
0.0
 33
0.0
 40
0.0
 40
0.0
 40
0.0
 40
0.0
 40
0.2800079021144063
 40
0.5600066680869512
 40
0.7800078706726391
 40
1.0
 40
1.0
 40
1.0
 40
1.0
 10
6.586756463690194
 20
5.172665413419118
 30
0.0
 10
6.612615694731713
 20
5.136123044916769
 30
0.0
 10
6.664333313075694
 20
5.063039500222219
 30
0.0
 10
6.742337762705054
 20
4.965694843946411
 30
0.0
 10
6.818370550779425
 20
4.879191380652048
 30
0.0
 10
6.868712606166533
 20
4.830044043688033
 30
0.0
 10
6.893883114799412
 20
4.805470881948346
 30
0.0
  0
SPLINE
  5
85
330
1F
100
AcDbEntity
  8
0
  6
Continuous
 62
     7
370
    15
100
AcDbSpline
210
0.0
220
0.0
230
1.0
 70
     8
 71
     3
 72
    10
 73
     6
 74
     0
 42
0.00000001
 43
0.00000001
 12
1.0
 22
0.0
 32
0.0
 13
1.0
 23
0.0
 33
0.0
 40
0.0
 40
0.0
 40
0.0
 40
0.0
 40
0.278106619643502
 40
0.5586853690101065
 40
1.0
 40
1.0
 40
1.0
 40
1.0
 10
6.530494484362547
 20
5.217099033451481
 30
0.0
 10
6.537296647066438
 20
5.215604350993799
 30
0.0
 10
6.550961437876388
 20
5.212601699631197
 30
0.0
 10
6.56957656457903
 20
5.195405486447911
 30
0.0
 10
6.580238505798974
 20
5.181292870279365
 30
0.0
 10
6.586756463690194
 20
5.172665413419118
 30
0.0
  0
SPLINE
  5
86
330
1F
100
AcDbEntity
  8
0
  6
Continuous
 62
     7
370
    15
100
AcDbSpline
210
0.0
220
0.0
230
1.0
 70
     8
 71
     3
 72
    11
 73
     7
 74
     0
 42
0.00000001
 43
0.00000001
 12
1.0
 22
0.0
 32
0.0
 13
1.0
 23
0.0
 33
0.0
 40
0.0
 40
0.0
 40
0.0
 40
0.0
 40
0.2788580421670643
 40
0.5590639422226367
 40
0.7795915640137314
 40
1.0
 40
1.0
 40
1.0
 40
1.0
 10
6.472586808316962
 20
5.163613837983689
 30
0.0
 10
6.473909955477063
 20
5.171721494010697
 30
0.0
 10
6.476562645217395
 20
5.187975994348645
 30
0.0
 10
6.493110070935363
 20
5.204614810487545
 30
0.0
 10
6.511299865435471
 20
5.21531964441918
 30
0.0
 10
6.524097431121818
 20
5.216506010666354
 30
0.0
 10
6.530494484362547
 20
5.217099033451481
 30
0.0
  0
SPLINE
  5
87
330
1F
100
AcDbEntity
  8
0
  6
Continuous
 62
     7
370
    15
100
AcDbSpline
210
0.0
220
0.0
230
1.0
 70
     8
 71
     3
 72
     9
 73
     5
 74
     0
 42
0.00000001
 43
0.00000001
 12
1.0
 22
0.0
 32
0.0
 13
1.0
 23
0.0
 33
0.0
 40
0.0
 40
0.0
 40
0.0
 40
0.0
 40
0.5599940402951709
 40
1.0
 40
1.0
 40
1.0
 40
1.0
 10
6.477832446052241
 20
5.039261887841362
 30
0.0
 10
6.476756153145446
 20
5.062469941960975
 30
0.0
 10
6.474834181071905
 20
5.103913336800287
 30
0.0
 10
6.473273512006756
 20
5.145371846593982
 30
0.0
 10
6.472586808316962
 20
5.163613837983688
 30
0.0
  0
SPLINE
  5
88
330
1F
100
AcDbEntity
  8
0
  6
Continuous
 62
     7
370
    15
100
AcDbSpline
210
0.0
220
0.0
230
1.0
 70
     8
 71
     3
 72
     9
 73
     5
 74
     0
 42
0.00000001
 43
0.00000001
 12
1.0
 22
0.0
 32
0.0
 13
1.0
 23
0.0
 33
0.0
 40
0.0
 40
0.0
 40
0.0
 40
0.0
 40
0.5599996237215116
 40
1.0
 40
1.0
 40
1.0
 40
1.0
 10
6.47916956310575
 20
4.907298025632493
 30
0.0
 10
6.478859521749881
 20
4.931930663251997
 30
0.0
 10
6.478305876099532
 20
4.975917545699891
 30
0.0
 10
6.477977105319266
 20
5.019906660692471
 30
0.0
 10
6.477832446052241
 20
5.039261887841362
 30
0.0
  0
SPLINE
  5
89
330
1F
100
AcDbEntity
  8
0
  6
Continuous
 62
     7
370
    15
100
AcDbSpline
210
0.0
220
0.0
230
1.0
 70
     8
 71
     3
 72
     9
 73
     5
 74
     0
 42
0.00000001
 43
0.00000001
 12
1.0
 22
0.0
 32
0.0
 13
1.0
 23
0.0
 33
0.0
 40
0.0
 40
0.0
 40
0.0
 40
0.0
 40
0.5599998505068364
 40
1.0
 40
1.0
 40
1.0
 40
1.0
 10
6.476701035789056
 20
4.784385738859052
 30
0.0
 10
6.477188865714391
 20
4.807328819227544
 30
0.0
 10
6.478059990813612
 20
4.848298616536824
 30
0.0
 10
6.478830527047604
 20
4.889270424155342
 30
0.0
 10
6.47916956310575
 20
4.907298025632493
 30
0.0
  0
SPLINE
  5
8A
330
1F
100
AcDbEntity
  8
0
  6
Continuous
 62
     7
370
    15
100
AcDbSpline
210
0.0
220
0.0
230
1.0
 70
     8
 71
     3
 72
     9
 73
     5
 74
     0
 42
0.00000001
 43
0.00000001
 12
1.0
 22
0.0
 32
0.0
 13
1.0
 23
0.0
 33
0.0
 40
0.0
 40
0.0
 40
0.0
 40
0.0
 40
0.5599935485172396
 40
1.0
 40
1.0
 40
1.0
 40
1.0
 10
6.472586808316962
 20
4.700249910803317
 30
0.0
 10
6.473423852574493
 20
4.715951732589565
 30
0.0
 10
6.474918591683091
 20
4.743991023091792
 30
0.0
 10
6.476156394544411
 20
4.772042783363882
 30
0.0
 10
6.476701035789056
 20
4.78438573885905
 30
0.0
  0
SPLINE
  5
8B
330
1F
100
AcDbEntity
  8
0
  6
Continuous
 62
     7
370
    15
100
AcDbSpline
210
0.0
220
0.0
230
1.0
 70
     8
 71
     3
 72
     9
 73
     5
 74
     0
 42
0.00000001
 43
0.00000001
 12
1.0
 22
0.0
 32
0.0
 13
1.0
 23
0.0
 33
0.0
 40
0.0
 40
0.0
 40
0.0
 40
0.0
 40
0.5593039365967847
 40
0.9999999999999999
 40
0.9999999999999999
 40
0.9999999999999999
 40
0.9999999999999999
 10
6.48626659862019
 20
4.666616112677156
 30
0.0
 10
6.481829603701097
 20
4.672172704803705
 30
0.0
 10
6.473896537922783
 20
4.682107539448995
 30
0.0
 10
6.472987442910247
 20
4.694700321379323
 30
0.0
 10
6.472586808316962
 20
4.700249910803317
 30
0.0
  0
SPLINE
  5
8C
330
1F
100
AcDbEntity
  8
0
  6
Continuous
 62
     7
370
    15
100
AcDbSpline
210
0.0
220
0.0
230
1.0
 70
     8
 71
     3
 72
     9
 73
     5
 74
     0
 42
0.00000001
 43
0.00000001
 12
1.0
 22
0.0
 32
0.0
 13
1.0
 23
0.0
 33
0.0
 40
0.0
 40
0.0
 40
0.0
 40
0.0
 40
0.5599681743969372
 40
1.0
 40
1.0
 40
1.0
 40
1.0
 10
6.527305960363315
 20
4.650982213281296
 30
0.0
 10
6.518709284698264
 20
4.651616167035812
 30
0.0
 10
6.503357205672866
 20
4.652748291652004
 30
0.0
 10
6.491488990853712
 20
4.662378510080921
 30
0.0
 10
6.48626659862019
 20
4.666616112677156
 30
0.0
  0
SPLINE
  5
8D
330
1F
100
AcDbEntity
  8
0
  6
Continuous
 62
     7
370
    15
100
AcDbSpline
210
0.0
220
0.0
230
1.0
 70
     8
 71
     3
 72
    13
 73
     9
 74
     0
 42
0.00000001
 43
0.00000001
 12
1.0
 22
0.0
 32
0.0
 13
1.0
 23
0.0
 33
0.0
 40
0.0
 40
0.0
 40
0.0
 40
0.0
 40
0.2505244361892744
 40
0.5007943577214786
 40
0.6259480328684686
 40
0.750884988292519
 40
0.8753500148425821
 40
1.0
 40
1.0
 40
1.0
 40
1.0
 10
6.577910887229215
 20
4.75342593650933
 30
0.0
 10
6.577684939407265
 20
4.742847367278269
 30
0.0
 10
6.577233273309961
 20
4.72170097587524
 30
0.0
 10
6.572901017932596
 20
4.695415161539201
 30
0.0
 10
6.565377582659265
 20
4.675561051779404
 30
0.0
 10
6.556627765138133
 20
4.662187902731086
 30
0.0
 10
6.543252268852943
 20
4.652527897678628
 30
0.0
 10
6.532624026884312
 20
4.651497696375758
 30
0.0
 10
6.527305960363315
 20
4.650982213281296
 30
0.0
  0
SPLINE
  5
8E
330
1F
100
AcDbEntity
  8
0
  6
Continuous
 62
     7
370
    15
100
AcDbSpline
210
0.0
220
0.0
230
1.0
 70
     8
 71
     3
 72
    11
 73
     7
 74
     0
 42
0.00000001
 43
0.00000001
 12
1.0
 22
0.0
 32
0.0
 13
1.0
 23
0.0
 33
0.0
 40
0.0
 40
0.0
 40
0.0
 40
0.0
 40
0.3399934342109822
 40
0.5599977970466828
 40
0.7799975613825929
 40
1.0
 40
1.0
 40
1.0
 40
1.0
 10
6.575750920098006
 20
4.918715013742472
 30
0.0
 10
6.575908835256585
 20
4.899981338166445
 30
0.0
 10
6.576168934811535
 20
4.869125398028935
 30
0.0
 10
6.5770302659271
 20
4.826154787187212
 30
0.0
 10
6.577642543691131
 20
4.789792339170634
 30
0.0
 10
6.577821439020752
 20
4.765548119847598
 30
0.0
 10
6.577910887229215
 20
4.75342593650933
 30
0.0
  0
SPLINE
  5
8F
330
1F
100
AcDbEntity
  8
0
  6
Continuous
 62
     7
370
    15
100
AcDbSpline
210
0.0
220
0.0
230
1.0
 70
     8
 71
     3
 72
     9
 73
     5
 74
     0
 42
0.00000001
 43
0.00000001
 12
1.0
 22
0.0
 32
0.0
 13
1.0
 23
0.0
 33
0.0
 40
0.0
 40
0.0
 40
0.0
 40
0.0
 40
0.5600040042296984
 40
1.0
 40
1.0
 40
1.0
 40
1.0
 10
6.577910887229215
 20
5.029490480721491
 30
0.0
 10
6.577386558983197
 20
5.008814548433515
 30
0.0
 10
6.576450265238764
 20
4.971893504777023
 30
0.0
 10
6.57596460754054
 20
4.934963894423416
 30
0.0
 10
6.575750920098006
 20
4.918715013742472
 30
0.0
  0
SPLINE
  5
90
330
1F
100
AcDbEntity
  8
0
  6
Continuous
 62
     7
370
    15
100
AcDbSpline
210
0.0
220
0.0
230
1.0
 70
     8
 71
     3
 72
    10
 73
     6
 74
     0
 42
0.00000001
 43
0.00000001
 12
1.0
 22
0.0
 32
0.0
 13
1.0
 23
0.0
 33
0.0
 40
0.0
 40
0.0
 40
0.0
 40
0.0
 40
0.279970926421403
 40
0.559984892615857
 40
1.0
 40
1.0
 40
1.0
 40
1.0
 10
6.879277630189883
 20
4.691610170610333
 30
0.0
 10
6.848652911568971
 20
4.720810583433938
 30
0.0
 10
6.787398766406378
 20
4.779215898044187
 30
0.0
 10
6.686762182643212
 20
4.892101579964185
 30
0.0
 10
6.619199154716358
 20
4.977377644924198
 30
0.0
 10
6.577910887229215
 20
5.02949048072149
 30
0.0
  0
SPLINE
  5
91
330
1F
100
AcDbEntity
  8
0
  6
Continuous
 62
     7
370
    15
100
AcDbSpline
210
0.0
220
0.0
230
1.0
 70
     8
 71
     3
 72
     9
 73
     5
 74
     0
 42
0.00000001
 43
0.00000001
 12
1.0
 22
0.0
 32
0.0
 13
1.0
 23
0.0
 33
0.0
 40
0.0
 40
0.0
 40
0.0
 40
0.0
 40
0.557435364776045
 40
1.0
 40
1.0
 40
1.0
 40
1.0
 10
6.933996773069675
 20
4.664147447862049
 30
0.0
 10
6.922539763631803
 20
4.666800539823921
 30
0.0
 10
6.901986691182807
 20
4.671560000973174
 30
0.0
 10
6.886244546644932
 20
4.685458975859692
 30
0.0
 10
6.879277630189883
 20
4.691610170610333
 30
0.0
  0
SPLINE
  5
92
330
1F
100
AcDbEntity
  8
0
  6
Continuous
 62
     7
370
    15
100
AcDbSpline
210
0.0
220
0.0
230
1.0
 70
     8
 71
     3
 72
    11
 73
     7
 74
     0
 42
0.00000001
 43
0.00000001
 12
1.0
 22
0.0
 32
0.0
 13
1.0
 23
0.0
 33
0.0
 40
0.0
 40
0.0
 40
0.0
 40
0.0
 40
0.2803012866254432
 40
0.5592052106328558
 40
0.7793334504312572
 40
0.9999999999999999
 40
0.9999999999999999
 40
0.9999999999999999
 40
0.9999999999999999
 10
6.984601688477375
 20
4.708786985515634
 30
0.0
 10
6.98312601181064
 20
4.701913217409169
 30
0.0
 10
6.980182015044937
 20
4.688199948418886
 30
0.0
 10
6.967351143201221
 20
4.672408863225407
 30
0.0
 10
6.950504990905143
 20
4.665011944159155
 30
0.0
 10
6.93950399058165
 20
4.664435847808906
 30
0.0
 10
6.933996773069675
 20
4.664147447862049
 30
0.0
  0
SPLINE
  5
93
330
1F
100
AcDbEntity
  8
0
  6
Continuous
 62
     7
370
    15
100
AcDbSpline
210
0.0
220
0.0
230
1.0
 70
     8
 71
     3
 72
     9
 73
     5
 74
     0
 42
0.00000001
 43
0.00000001
 12
1.0
 22
0.0
 32
0.0
 13
1.0
 23
0.0
 33
0.0
 40
0.0
 40
0.0
 40
0.0
 40
0.0
 40
0.5598731331551513
 40
1.0
 40
1.0
 40
1.0
 40
1.0
 10
6.99056732289519
 20
4.763403261250423
 30
0.0
 10
6.989927608159619
 20
4.753156947030649
 30
0.0
 10
6.988785001562362
 20
4.734855811267921
 30
0.0
 10
6.985880178951732
 20
4.716754054851557
 30
0.0
 10
6.984601688477375
 20
4.708786985515634
 30
0.0
  0
SPLINE
  5
94
330
1F
100
AcDbEntity
  8
0
  6
Continuous
 62
     7
370
    15
100
AcDbSpline
210
0.0
220
0.0
230
1.0
 70
     8
 71
     3
 72
    11
 73
     7
 74
     0
 42
0.00000001
 43
0.00000001
 12
1.0
 22
0.0
 32
0.0
 13
1.0
 23
0.0
 33
0.0
 40
0.0
 40
0.0
 40
0.0
 40
0.0
 40
0.3400004862689706
 40
0.5600025045853041
 40
0.7800032939934832
 40
1.0
 40
1.0
 40
1.0
 40
1.0
 10
6.992624445797798
 20
4.981971029670245
 30
0.0
 10
6.992330586944691
 20
4.957200565042233
 30
0.0
 10
6.991846582655345
 20
4.916402028594094
 30
0.0
 10
6.991249642144809
 20
4.859574649621315
 30
0.0
 10
6.990826182012849
 20
4.811489323944143
 30
0.0
 10
6.990653608733887
 20
4.779431849645082
 30
0.0
 10
6.99056732289519
 20
4.763403261250423
 30
0.0
  0
SPLINE
  5
95
330
1F
100
AcDbEntity
  8
0
  6
Continuous
 62
     7
370
    15
100
AcDbSpline
210
0.0
220
0.0
230
1.0
 70
     8
 71
     3
 72
     9
 73
     5
 74
     0
 42
0.00000001
 43
0.00000001
 12
1.0
 22
0.0
 32
0.0
 13
1.0
 23
0.0
 33
0.0
 40
0.0
 40
0.0
 40
0.0
 40
0.0
 40
0.5599947166826142
 40
1.0
 40
1.0
 40
1.0
 40
1.0
 10
6.993344424147213
 20
5.036587305405034
 30
0.0
 10
6.993214190498983
 20
5.026392308458485
 30
0.0
 10
6.992981628218749
 20
5.008186785008299
 30
0.0
 10
6.992733585780927
 20
4.989981466151648
 30
0.0
 10
6.992624445797798
 20
4.981971029670245
 30
0.0
  0
SPLINE
  5
96
330
1F
100
AcDbEntity
  8
0
  6
Continuous
 62
     7
370
    15
100
AcDbSpline
210
0.0
220
0.0
230
1.0
 70
     8
 71
     3
 72
     9
 73
     5
 74
     0
 42
0.00000001
 43
0.00000001
 12
1.0
 22
0.0
 32
0.0
 13
1.0
 23
0.0
 33
0.0
 40
0.0
 40
0.0
 40
0.0
 40
0.0
 40
0.559995739644265
 40
1.0
 40
1.0
 40
1.0
 40
1.0
 10
7.512662064945511
 20
5.169373664779012
 30
0.0
 10
7.515146330542791
 20
5.158196974656819
 30
0.0
 10
7.519582552859158
 20
5.138238447598571
 30
0.0
 10
7.524062218509051
 20
5.118289628405868
 30
0.0
 10
7.526033290479973
 20
5.109512062972011
 30
0.0
  0
SPLINE
  5
97
330
1F
100
AcDbEntity
  8
0
  6
Continuous
 62
     7
370
    15
100
AcDbSpline
210
0.0
220
0.0
230
1.0
 70
     8
 71
     3
 72
    10
 73
     6
 74
     0
 42
0.00000001
 43
0.00000001
 12
1.0
 22
0.0
 32
0.0
 13
1.0
 23
0.0
 33
0.0
 40
0.0
 40
0.0
 40
0.0
 40
0.0
 40
0.2807360045700574
 40
0.5608772739232095
 40
1.0
 40
1.0
 40
1.0
 40
1.0
 10
7.46473136531171
 20
5.203933212210837
 30
0.0
 10
7.47064599190987
 20
5.20347835886357
 30
0.0
 10
7.4824627150542
 20
5.202569615769359
 30
0.0
 10
7.501557371793358
 20
5.191639038316564
 30
0.0
 10
7.508452483603905
 20
5.177814051174507
 30
0.0
 10
7.512662064945511
 20
5.169373664779012
 30
0.0
  0
SPLINE
  5
98
330
1F
100
AcDbEntity
  8
0
  6
Continuous
 62
     7
370
    15
100
AcDbSpline
210
0.0
220
0.0
230
1.0
 70
     8
 71
     3
 72
     9
 73
     5
 74
     0
 42
0.00000001
 43
0.00000001
 12
1.0
 22
0.0
 32
0.0
 13
1.0
 23
0.0
 33
0.0
 40
0.0
 40
0.0
 40
0.0
 40
0.0
 40
0.5591800120961725
 40
0.9999999999999999
 40
0.9999999999999999
 40
0.9999999999999999
 40
0.9999999999999999
 10
7.429657610486719
 20
5.191487809314527
 30
0.0
 10
7.435627471375748
 20
5.195522928591287
 30
0.0
 10
7.446303569876926
 20
5.202739065058029
 30
0.0
 10
7.45909336706845
 20
5.203567861967312
 30
0.0
 10
7.46473136531171
 20
5.203933212210837
 30
0.0
  0
SPLINE
  5
99
330
1F
100
AcDbEntity
  8
0
  6
Continuous
 62
     7
370
    15
100
AcDbSpline
210
0.0
220
0.0
230
1.0
 70
     8
 71
     3
 72
     9
 73
     5
 74
     0
 42
0.00000001
 43
0.00000001
 12
1.0
 22
0.0
 32
0.0
 13
1.0
 23
0.0
 33
0.0
 40
0.0
 40
0.0
 40
0.0
 40
0.0
 40
0.5590251674131385
 40
0.9999999999999999
 40
0.9999999999999999
 40
0.9999999999999999
 40
0.9999999999999999
 10
7.413920752280248
 20
5.157648680227034
 30
0.0
 10
7.414786564335017
 20
5.164984683885915
 30
0.0
 10
7.416335353379305
 20
5.178107534316476
 30
0.0
 10
7.425580662045451
 20
5.187393105927764
 30
0.0
 10
7.429657610486719
 20
5.191487809314527
 30
0.0
  0
SPLINE
  5
9A
330
1F
100
AcDbEntity
  8
0
  6
Continuous
 62
     7
370
    15
100
AcDbSpline
210
0.0
220
0.0
230
1.0
 70
     8
 71
     3
 72
     9
 73
     5
 74
     0
 42
0.00000001
 43
0.00000001
 12
1.0
 22
0.0
 32
0.0
 13
1.0
 23
0.0
 33
0.0
 40
0.0
 40
0.0
 40
0.0
 40
0.0
 40
0.5603914241312881
 40
1.0
 40
1.0
 40
1.0
 40
1.0
 10
7.433668970813809
 20
5.067547107754755
 30
0.0
 10
7.428561709128793
 20
5.084077431693194
 30
0.0
 10
7.419447969222918
 20
5.113575249159023
 30
0.0
 10
7.415608580492314
 20
5.144190120316911
 30
0.0
 10
7.413920752280248
 20
5.157648680227034
 30
0.0
  0
SPLINE
  5
9B
330
1F
100
AcDbEntity
  8
0
  6
Continuous
 62
     7
370
    15
100
AcDbSpline
210
0.0
220
0.0
230
1.0
 70
     8
 71
     3
 72
     9
 73
     5
 74
     0
 42
0.00000001
 43
0.00000001
 12
1.0
 22
0.0
 32
0.0
 13
1.0
 23
0.0
 33
0.0
 40
0.0
 40
0.0
 40
0.0
 40
0.0
 40
0.559997403647945
 40
1.0
 40
1.0
 40
1.0
 40
1.0
 10
7.462982825510991
 20
4.974359704263592
 30
0.0
 10
7.457585882249711
 20
4.991778212402846
 30
0.0
 10
7.447948438886362
 20
5.02288283543464
 30
0.0
 10
7.438032159493027
 20
5.053899635288515
 30
0.0
 10
7.433668970813809
 20
5.067547107754754
 30
0.0
  0
SPLINE
  5
9C
330
1F
100
AcDbEntity
  8
0
  6
Continuous
 62
     7
370
    15
100
AcDbSpline
210
0.0
220
0.0
230
1.0
 70
     8
 71
     3
 72
     9
 73
     5
 74
     0
 42
0.00000001
 43
0.00000001
 12
1.0
 22
0.0
 32
0.0
 13
1.0
 23
0.0
 33
0.0
 40
0.0
 40
0.0
 40
0.0
 40
0.0
 40
0.5599186357702794
 40
1.0
 40
1.0
 40
1.0
 40
1.0
 10
7.558741339300469
 20
4.684821342368789
 30
0.0
 10
7.538592493800059
 20
4.738116574312193
 30
0.0
 10
7.50260718412611
 20
4.833300460931871
 30
0.0
 10
7.475091823119884
 20
4.931252734209965
 30
0.0
 10
7.462982825510991
 20
4.974359704263592
 30
0.0
  0
SPLINE
  5
9D
330
1F
100
AcDbEntity
  8
0
  6
Continuous
 62
     7
370
    15
100
AcDbSpline
210
0.0
220
0.0
230
1.0
 70
     8
 71
     3
 72
    10
 73
     6
 74
     0
 42
0.00000001
 43
0.00000001
 12
1.0
 22
0.0
 32
0.0
 13
1.0
 23
0.0
 33
0.0
 40
0.0
 40
0.0
 40
0.0
 40
0.0
 40
0.2807878003052177
 40
0.5606884917409707
 40
1.0
 40
1.0
 40
1.0
 40
1.0
 10
7.604717728177301
 20
4.650982213281296
 30
0.0
 10
7.598997252027408
 20
4.651444192773278
 30
0.0
 10
7.58757437275332
 20
4.652366692199155
 30
0.0
 10
7.569310497922065
 20
4.663259706245615
 30
0.0
 10
7.562749158029774
 20
4.676645182640012
 30
0.0
 10
7.558741339300469
 20
4.684821342368788
 30
0.0
  0
SPLINE
  5
9E
330
1F
100
AcDbEntity
  8
0
  6
Continuous
 62
     7
370
    15
100
AcDbSpline
210
0.0
220
0.0
230
1.0
 70
     8
 71
     3
 72
    10
 73
     6
 74
     0
 42
0.00000001
 43
0.00000001
 12
1.0
 22
0.0
 32
0.0
 13
1.0
 23
0.0
 33
0.0
 40
0.0
 40
0.0
 40
0.0
 40
0.0
 40
0.2815517110841432
 40
0.5624760467848555
 40
1.0
 40
1.0
 40
1.0
 40
1.0
 10
7.644317124055034
 20
4.678033100787134
 30
0.0
 10
7.641962200879689
 20
4.67393108377884
 30
0.0
 10
7.637257601951664
 20
4.665736190195046
 30
0.0
 10
7.624459145782336
 20
4.653882882449607
 30
0.0
 10
7.612189657656078
 20
4.652080087603216
 30
0.0
 10
7.604717728177301
 20
4.650982213281296
 30
0.0
  0
SPLINE
  5
9F
330
1F
100
AcDbEntity
  8
0
  6
Continuous
 62
     7
370
    15
100
AcDbSpline
210
0.0
220
0.0
230
1.0
 70
     8
 71
     3
 72
     9
 73
     5
 74
     0
 42
0.00000001
 43
0.00000001
 12
1.0
 22
0.0
 32
0.0
 13
1.0
 23
0.0
 33
0.0
 40
0.0
 40
0.0
 40
0.0
 40
0.0
 40
0.5599745595282679
 40
1.0
 40
1.0
 40
1.0
 40
1.0
 10
7.684019405410892
 20
4.761963011221647
 30
0.0
 10
7.677417959188221
 20
4.745909690484513
 30
0.0
 10
7.665629126802282
 20
4.717241743943052
 30
0.0
 10
7.6508293863614
 20
4.690014000561606
 30
0.0
 10
7.644317124055034
 20
4.678033100787135
 30
0.0
  0
SPLINE
  5
A0
330
1F
100
AcDbEntity
  8
0
  6
Continuous
 62
     7
370
    15
100
AcDbSpline
210
0.0
220
0.0
230
1.0
 70
     8
 71
     3
 72
     9
 73
     5
 74
     0
 42
0.00000001
 43
0.00000001
 12
1.0
 22
0.0
 32
0.0
 13
1.0
 23
0.0
 33
0.0
 40
0.0
 40
0.0
 40
0.0
 40
0.0
 40
0.5599996847024831
 40
0.9999999999999999
 40
0.9999999999999999
 40
0.9999999999999999
 40
0.9999999999999999
 10
7.778132191545288
 20
5.002131010113763
 30
0.0
 10
7.760533615944216
 20
4.957311768511629
 30
0.0
 10
7.729107570391311
 20
4.877277363445945
 30
0.0
 10
7.697796351566262
 20
4.797197969712984
 30
0.0
 10
7.684019405410892
 20
4.761963011221646
 30
0.0
  0
SPLINE
  5
A1
330
1F
100
AcDbEntity
  8
0
  6
Continuous
 62
     7
370
    15
100
AcDbSpline
210
0.0
220
0.0
230
1.0
 70
     8
 71
     3
 72
     9
 73
     5
 74
     0
 42
0.00000001
 43
0.00000001
 12
1.0
 22
0.0
 32
0.0
 13
1.0
 23
0.0
 33
0.0
 40
0.0
 40
0.0
 40
0.0
 40
0.0
 40
0.5599960189450836
 40
1.0
 40
1.0
 40
1.0
 40
1.0
 10
7.804154664264797
 20
5.070838269734971
 30
0.0
 10
7.799262089073762
 20
5.058026283546183
 30
0.0
 10
7.790525285551031
 20
5.035147574135137
 30
0.0
 10
7.781918994062404
 20
5.012219468063384
 30
0.0
 10
7.778132191545288
 20
5.002131010113763
 30
0.0
  0
SPLINE
  5
A2
330
1F
100
AcDbEntity
  8
0
  6
Continuous
 62
     7
370
    15
100
AcDbSpline
210
0.0
220
0.0
230
1.0
 70
     8
 71
     3
 72
     9
 73
     5
 74
     0
 42
0.00000001
 43
0.00000001
 12
1.0
 22
0.0
 32
0.0
 13
1.0
 23
0.0
 33
0.0
 40
0.0
 40
0.0
 40
0.0
 40
0.0
 40
0.5598774089458755
 40
1.0
 40
1.0
 40
1.0
 40
1.0
 10
7.838919762655413
 20
5.135945784274074
 30
0.0
 10
7.831496965198456
 20
5.124286523679246
 30
0.0
 10
7.818239067418774
 20
5.103461856692274
 30
0.0
 10
7.808459064493004
 20
5.080808516511405
 30
0.0
 10
7.804154664264797
 20
5.07083826973497
 30
0.0
  0
SPLINE
  5
A3
330
1F
100
AcDbEntity
  8
0
  6
Continuous
 62
     7
370
    15
100
AcDbSpline
210
0.0
220
0.0
230
1.0
 70
     8
 71
     3
 72
     9
 73
     5
 74
     0
 42
0.00000001
 43
0.00000001
 12
1.0
 22
0.0
 32
0.0
 13
1.0
 23
0.0
 33
0.0
 40
0.0
 40
0.0
 40
0.0
 40
0.0
 40
0.5592153715481519
 40
1.0
 40
1.0
 40
1.0
 40
1.0
 10
7.848382586673396
 20
5.163408507022357
 30
0.0
 10
7.847741231480918
 20
5.157879583438556
 30
0.0
 10
7.846594347426747
 20
5.147992652811995
 30
0.0
 10
7.841267677069651
 20
5.139631327808921
 30
0.0
 10
7.838919762655413
 20
5.135945784274074
 30
0.0
  0
SPLINE
  5
A4
330
1F
100
AcDbEntity
  8
0
  6
Continuous
 62
     7
370
    15
100
AcDbSpline
210
0.0
220
0.0
230
1.0
 70
     8
 71
     3
 72
    11
 73
     7
 74
     0
 42
0.00000001
 43
0.00000001
 12
1.0
 22
0.0
 32
0.0
 13
1.0
 23
0.0
 33
0.0
 40
0.0
 40
0.0
 40
0.0
 40
0.0
 40
0.2795116206151244
 40
0.5596426618999624
 40
0.7798033539622574
 40
1.0
 40
1.0
 40
1.0
 40
1.0
 10
7.799629023212055
 20
5.210516122831159
 30
0.0
 10
7.806664606763319
 20
5.209662286826049
 30
0.0
 10
7.820751365295875
 20
5.207952722645231
 30
0.0
 10
7.836638770501532
 20
5.195438840354019
 30
0.0
 10
7.846783685058168
 20
5.180035857812638
 30
0.0
 10
7.847849590458897
 20
5.168951258961538
 30
0.0
 10
7.848382586673396
 20
5.163408507022357
 30
0.0
  0
SPLINE
  5
A5
330
1F
100
AcDbEntity
  8
0
  6
Continuous
 62
     7
370
    15
100
AcDbSpline
210
0.0
220
0.0
230
1.0
 70
     8
 71
     3
 72
     9
 73
     5
 74
     0
 42
0.00000001
 43
0.00000001
 12
1.0
 22
0.0
 32
0.0
 13
1.0
 23
0.0
 33
0.0
 40
0.0
 40
0.0
 40
0.0
 40
0.0
 40
0.5594670921847916
 40
1.0
 40
1.0
 40
1.0
 40
1.0
 10
7.762806728586344
 20
5.192722141722081
 30
0.0
 10
7.76863348552879
 20
5.198353050137359
 30
0.0
 10
7.779048319616153
 20
5.208417821584934
 30
0.0
 10
7.79333518768022
 20
5.20987443617169
 30
0.0
 10
7.799629023212055
 20
5.210516122831159
 30
0.0
  0
SPLINE
  5
A6
330
1F
100
AcDbEntity
  8
0
  6
Continuous
 62
     7
370
    15
100
AcDbSpline
210
0.0
220
0.0
230
1.0
 70
     8
 71
     3
 72
     9
 73
     5
 74
     0
 42
0.00000001
 43
0.00000001
 12
1.0
 22
0.0
 32
0.0
 13
1.0
 23
0.0
 33
0.0
 40
0.0
 40
0.0
 40
0.0
 40
0.0
 40
0.5601441699930745
 40
1.0
 40
1.0
 40
1.0
 40
1.0
 10
7.718990274757759
 20
5.116506222174887
 30
0.0
 10
7.725539564014624
 20
5.13169606215846
 30
0.0
 10
7.737231713299953
 20
5.15881379505169
 30
0.0
 10
7.754993918899571
 20
5.182363615779386
 30
0.0
 10
7.762806728586344
 20
5.192722141722081
 30
0.0
  0
SPLINE
  5
A7
330
1F
100
AcDbEntity
  8
0
  6
Continuous
 62
     7
370
    15
100
AcDbSpline
210
0.0
220
0.0
230
1.0
 70
     8
 71
     3
 72
     9
 73
     5
 74
     0
 42
0.00000001
 43
0.00000001
 12
1.0
 22
0.0
 32
0.0
 13
1.0
 23
0.0
 33
0.0
 40
0.0
 40
0.0
 40
0.0
 40
0.0
 40
0.5599994992251429
 40
1.0
 40
1.0
 40
1.0
 40
1.0
 10
7.68895644171116
 20
5.033296143424817
 30
0.0
 10
7.694620122895534
 20
5.048807990152747
 30
0.0
 10
7.704733848340309
 20
5.076507741222872
 30
0.0
 10
7.714634141020609
 20
5.104284454446578
 30
0.0
 10
7.718990274757759
 20
5.116506222174887
 30
0.0
  0
SPLINE
  5
A8
330
1F
100
AcDbEntity
  8
0
  6
Continuous
 62
     7
370
    15
100
AcDbSpline
210
0.0
220
0.0
230
1.0
 70
     8
 71
     3
 72
     9
 73
     5
 74
     0
 42
0.00000001
 43
0.00000001
 12
1.0
 22
0.0
 32
0.0
 13
1.0
 23
0.0
 33
0.0
 40
0.0
 40
0.0
 40
0.0
 40
0.0
 40
0.5600019121583413
 40
1.0
 40
1.0
 40
1.0
 40
1.0
 10
7.6081119956331
 20
4.822647696853648
 30
0.0
 10
7.623530974509883
 20
4.861843267042031
 30
0.0
 10
7.651064771345247
 20
4.93183511767218
 30
0.0
 10
7.677378466263209
 20
5.002294256895561
 30
0.0
 10
7.68895644171116
 20
5.033296143424817
 30
0.0
  0
SPLINE
  5
A9
330
1F
100
AcDbEntity
  8
0
  6
Continuous
 62
     7
370
    15
100
AcDbSpline
210
0.0
220
0.0
230
1.0
 70
     8
 71
     3
 72
     9
 73
     5
 74
     0
 42
0.00000001
 43
0.00000001
 12
1.0
 22
0.0
 32
0.0
 13
1.0
 23
0.0
 33
0.0
 40
0.0
 40
0.0
 40
0.0
 40
0.0
 40
0.5599981167625806
 40
1.0
 40
1.0
 40
1.0
 40
1.0
 10
7.557712777849165
 20
4.997399598104772
 30
0.0
 10
7.566487573163641
 20
4.964595675261348
 30
0.0
 10
7.582156903205685
 20
4.906017044616899
 30
0.0
 10
7.600181249374638
 20
4.848121739941449
 30
0.0
 10
7.6081119956331
 20
4.822647696853648
 30
0.0
  0
SPLINE
  5
AA
330
1F
100
AcDbEntity
  8
0
  6
Continuous
 62
     7
370
    15
100
AcDbSpline
210
0.0
220
0.0
230
1.0
 70
     8
 71
     3
 72
     9
 73
     5
 74
     0
 42
0.00000001
 43
0.00000001
 12
1.0
 22
0.0
 32
0.0
 13
1.0
 23
0.0
 33
0.0
 40
0.0
 40
0.0
 40
0.0
 40
0.0
 40
0.5599945974784811
 40
1.0
 40
1.0
 40
1.0
 40
1.0
 10
7.526033290479973
 20
5.109512062972011
 30
0.0
 10
7.532023434354343
 20
5.088606251545303
 30
0.0
 10
7.542720223040061
 20
5.051274085269339
 30
0.0
 10
7.553131680374077
 20
5.013861387323741
 30
0.0
 10
7.557712777849165
 20
4.997399598104772
 30
0.0
  0
LINE
  5
AB
330
1F
100
AcDbEntity
  8
0
  6
Continuous
 62
     7
370
    15
100
AcDbLine
 10
8.1352127799
 20
9.0332740953
 30
0.0
 11
8.1352127799
 21
9.2157398408
 31
0.0
  0
SPLINE
  5
AC
330
1F
100
AcDbEntity
  8
0
  6
Continuous
 62
     7
370
    15
100
AcDbSpline
210
0.0
220
0.0
230
1.0
 70
     8
 71
     3
 72
    11
 73
     7
 74
     0
 42
0.00000001
 43
0.00000001
 12
1.0
 22
0.0
 32
0.0
 13
1.0
 23
0.0
 33
0.0
 40
0.0
 40
0.0
 40
0.0
 40
0.0
 40
0.2795516623150426
 40
0.5591876965710175
 40
0.7794969297729148
 40
1.0
 40
1.0
 40
1.0
 40
1.0
 10
8.135212779853195
 20
9.215739840811656
 30
0.0
 10
8.13447916657807
 20
9.222462021148077
 30
0.0
 10
8.133011718614803
 20
9.235908410653076
 30
0.0
 10
8.120422331180547
 20
9.250733412248998
 30
0.0
 10
8.105136664780524
 20
9.2591866393218
 30
0.0
 10
8.094606567130555
 20
9.260050066958764
 30
0.0
 10
8.089339203122002
 20
9.260481970613421
 30
0.0
  0
SPLINE
  5
AD
330
1F
100
AcDbEntity
  8
0
  6
Continuous
 62
     7
370
    15
100
AcDbSpline
210
0.0
220
0.0
230
1.0
 70
     8
 71
     3
 72
    10
 73
     6
 74
     0
 42
0.00000001
 43
0.00000001
 12
1.0
 22
0.0
 32
0.0
 13
1.0
 23
0.0
 33
0.0
 40
0.0
 40
0.0
 40
0.0
 40
0.0
 40
0.2809090277346618
 40
0.5613848699361745
 40
1.0
 40
1.0
 40
1.0
 40
1.0
 10
8.089339203122002
 20
9.260481970613421
 30
0.0
 10
8.084839519019443
 20
9.260197543632056
 30
0.0
 10
8.075847089708644
 20
9.259629128279844
 30
0.0
 10
8.060583238557243
 20
9.253109364831028
 30
0.0
 10
8.05378406016393
 20
9.243505822839321
 30
0.0
 10
8.049636848433657
 20
9.23764806772595
 30
0.0
  0
SPLINE
  5
AE
330
1F
100
AcDbEntity
  8
0
  6
Continuous
 62
     7
370
    15
100
AcDbSpline
210
0.0
220
0.0
230
1.0
 70
     8
 71
     3
 72
     9
 73
     5
 74
     0
 42
0.00000001
 43
0.00000001
 12
1.0
 22
0.0
 32
0.0
 13
1.0
 23
0.0
 33
0.0
 40
0.0
 40
0.0
 40
0.0
 40
0.0
 40
0.5598906456973345
 40
1.0
 40
1.0
 40
1.0
 40
1.0
 10
8.049636848433657
 20
9.23764806772595
 30
0.0
 10
8.032581220167678
 20
9.24285214926224
 30
0.0
 10
8.002118792554272
 20
9.252146967056188
 30
0.0
 10
7.970335187864311
 20
9.253363707713172
 30
0.0
 10
7.956346926126801
 20
9.253899206658073
 30
0.0
  0
SPLINE
  5
AF
330
1F
100
AcDbEntity
  8
0
  6
Continuous
 62
     7
370
    15
100
AcDbSpline
210
0.0
220
0.0
230
1.0
 70
     8
 71
     3
 72
     9
 73
     5
 74
     0
 42
0.00000001
 43
0.00000001
 12
1.0
 22
0.0
 32
0.0
 13
1.0
 23
0.0
 33
0.0
 40
0.0
 40
0.0
 40
0.0
 40
0.0
 40
0.5602144421100331
 40
1.0
 40
1.0
 40
1.0
 40
1.0
 10
7.956346926126801
 20
9.253899206658073
 30
0.0
 10
7.939797172705076
 20
9.25315051131149
 30
0.0
 10
7.910255354112555
 20
9.251814067103156
 30
0.0
 10
7.883831796914743
 20
9.238760369068002
 30
0.0
 10
7.872211098071066
 20
9.233019541195084
 30
0.0
  0
SPLINE
  5
B0
330
1F
100
AcDbEntity
  8
0
  6
Continuous
 62
     7
370
    15
100
AcDbSpline
210
0.0
220
0.0
230
1.0
 70
     8
 71
     3
 72
    10
 73
     6
 74
     0
 42
0.00000001
 43
0.00000001
 12
1.0
 22
0.0
 32
0.0
 13
1.0
 23
0.0
 33
0.0
 40
0.0
 40
0.0
 40
0.0
 40
0.0
 40
0.2805053962712729
 40
0.5608223497004526
 40
1.0
 40
1.0
 40
1.0
 40
1.0
 10
7.872211098071066
 20
9.233019541195084
 30
0.0
 10
7.865652522854889
 20
9.228333750818852
 30
0.0
 10
7.852539778457392
 20
9.218965317968951
 30
0.0
 10
7.834646916196785
 20
9.19574767181228
 30
0.0
 10
7.829550963313682
 20
9.175524677942972
 30
0.0
 10
7.826440406817997
 20
9.16318061464699
 30
0.0
  0
SPLINE
  5
B1
330
1F
100
AcDbEntity
  8
0
  6
Continuous
 62
     7
370
    15
100
AcDbSpline
210
0.0
220
0.0
230
1.0
 70
     8
 71
     3
 72
     9
 73
     5
 74
     0
 42
0.00000001
 43
0.00000001
 12
1.0
 22
0.0
 32
0.0
 13
1.0
 23
0.0
 33
0.0
 40
0.0
 40
0.0
 40
0.0
 40
0.0
 40
0.5600199144660241
 40
1.0
 40
1.0
 40
1.0
 40
1.0
 10
7.826440406817997
 20
9.16318061464699
 30
0.0
 10
7.822251049826884
 20
9.13434321019594
 30
0.0
 10
7.814770321226175
 20
9.082849676294481
 30
0.0
 10
7.813303262610997
 20
9.030850293748422
 30
0.0
 10
7.812657786036008
 20
9.007971600968093
 30
0.0
  0
SPLINE
  5
B2
330
1F
100
AcDbEntity
  8
0
  6
Continuous
 62
     7
370
    15
100
AcDbSpline
210
0.0
220
0.0
230
1.0
 70
     8
 71
     3
 72
     9
 73
     5
 74
     0
 42
0.00000001
 43
0.00000001
 12
1.0
 22
0.0
 32
0.0
 13
1.0
 23
0.0
 33
0.0
 40
0.0
 40
0.0
 40
0.0
 40
0.0
 40
0.5599689313880113
 40
1.0
 40
1.0
 40
1.0
 40
1.0
 10
7.812657786036008
 20
9.007971600968093
 30
0.0
 10
7.813129588193497
 20
8.98866457771412
 30
0.0
 10
7.813972138790581
 20
8.954185837605953
 30
0.0
 10
7.817630627821216
 20
8.919896036999205
 30
0.0
 10
7.819240476658871
 20
8.904807459395727
 30
0.0
  0
SPLINE
  5
B3
330
1F
100
AcDbEntity
  8
0
  6
Continuous
 62
     7
370
    15
100
AcDbSpline
210
0.0
220
0.0
230
1.0
 70
     8
 71
     3
 72
    10
 73
     6
 74
     0
 42
0.00000001
 43
0.00000001
 12
1.0
 22
0.0
 32
0.0
 13
1.0
 23
0.0
 33
0.0
 40
0.0
 40
0.0
 40
0.0
 40
0.0
 40
0.281530651851835
 40
0.5613451640866607
 40
1.0
 40
1.0
 40
1.0
 40
1.0
 10
7.819240476658871
 20
8.904807459395727
 30
0.0
 10
7.82083024896269
 20
8.898549892049175
 30
0.0
 10
7.824000102720627
 20
8.886072901903242
 30
0.0
 10
7.840466518266772
 20
8.868191165371865
 30
0.0
 10
7.857367014731612
 20
8.866530531387356
 30
0.0
 10
7.867685457018324
 20
8.865516646619882
 30
0.0
  0
SPLINE
  5
B4
330
1F
100
AcDbEntity
  8
0
  6
Continuous
 62
     7
370
    15
100
AcDbSpline
210
0.0
220
0.0
230
1.0
 70
     8
 71
     3
 72
    11
 73
     7
 74
     0
 42
0.00000001
 43
0.00000001
 12
1.0
 22
0.0
 32
0.0
 13
1.0
 23
0.0
 33
0.0
 40
0.0
 40
0.0
 40
0.0
 40
0.0
 40
0.2801910568168595
 40
0.5599250996672464
 40
0.7798718991343739
 40
1.0
 40
1.0
 40
1.0
 40
1.0
 10
7.867685457018324
 20
8.865516646619882
 30
0.0
 10
7.874718281225696
 20
8.866176092567512
 30
0.0
 10
7.888772458543097
 20
8.867493908853826
 30
0.0
 10
7.905515858013292
 20
8.87861795590978
 30
0.0
 10
7.916389386574913
 20
8.893634694989979
 30
0.0
 10
7.917450891523645
 20
8.904715943087416
 30
0.0
 10
7.917981862656621
 20
8.910258849754133
 30
0.0
  0
SPLINE
  5
B5
330
1F
100
AcDbEntity
  8
0
  6
Continuous
 62
     7
370
    15
100
AcDbSpline
210
0.0
220
0.0
230
1.0
 70
     8
 71
     3
 72
     9
 73
     5
 74
     0
 42
0.00000001
 43
0.00000001
 12
1.0
 22
0.0
 32
0.0
 13
1.0
 23
0.0
 33
0.0
 40
0.0
 40
0.0
 40
0.0
 40
0.0
 40
0.5599979021304351
 40
1.0
 40
1.0
 40
1.0
 40
1.0
 10
7.917981862656621
 20
8.910258849754133
 30
0.0
 10
7.916610877635832
 20
8.928450604446562
 30
0.0
 10
7.914162680927286
 20
8.9609360023797
 30
0.0
 10
7.912243529399588
 20
8.993456770485801
 30
0.0
 10
7.911399098701271
 20
9.007765976676815
 30
0.0
  0
SPLINE
  5
B6
330
1F
100
AcDbEntity
  8
0
  6
Continuous
 62
     7
370
    15
100
AcDbSpline
210
0.0
220
0.0
230
1.0
 70
     8
 71
     3
 72
     9
 73
     5
 74
     0
 42
0.00000001
 43
0.00000001
 12
1.0
 22
0.0
 32
0.0
 13
1.0
 23
0.0
 33
0.0
 40
0.0
 40
0.0
 40
0.0
 40
0.0
 40
0.5602427430478225
 40
1.0
 40
1.0
 40
1.0
 40
1.0
 10
7.911399098701271
 20
9.007765976676815
 30
0.0
 10
7.911472462739201
 20
9.035254948945594
 30
0.0
 10
7.911603413186737
 20
9.084321130721074
 30
0.0
 10
7.92060577338506
 20
9.132521482716388
 30
0.0
 10
7.92456462661197
 20
9.153717937293978
 30
0.0
  0
SPLINE
  5
B7
330
1F
100
AcDbEntity
  8
0
  6
Continuous
 62
     7
370
    15
100
AcDbSpline
210
0.0
220
0.0
230
1.0
 70
     8
 71
     3
 72
     9
 73
     5
 74
     0
 42
0.00000001
 43
0.00000001
 12
1.0
 22
0.0
 32
0.0
 13
1.0
 23
0.0
 33
0.0
 40
0.0
 40
0.0
 40
0.0
 40
0.0
 40
0.5601826450372678
 40
1.0
 40
1.0
 40
1.0
 40
1.0
 10
7.92456462661197
 20
9.153717937293978
 30
0.0
 10
7.930492629550083
 20
9.156162538141022
 30
0.0
 10
7.941074897656085
 20
9.16052647349086
 30
0.0
 10
7.952467594105478
 20
9.161369764102071
 30
0.0
 10
7.957478299723743
 20
9.161740657948158
 30
0.0
  0
SPLINE
  5
B8
330
1F
100
AcDbEntity
  8
0
  6
Continuous
 62
     7
370
    15
100
AcDbSpline
210
0.0
220
0.0
230
1.0
 70
     8
 71
     3
 72
     9
 73
     5
 74
     0
 42
0.00000001
 43
0.00000001
 12
1.0
 22
0.0
 32
0.0
 13
1.0
 23
0.0
 33
0.0
 40
0.0
 40
0.0
 40
0.0
 40
0.0
 40
0.559888025057405
 40
1.0
 40
1.0
 40
1.0
 40
1.0
 10
7.957478299723743
 20
9.161740657948158
 30
0.0
 10
7.97363589193767
 20
9.160998853649394
 30
0.0
 10
8.002494505608272
 20
9.159673938192077
 30
0.0
 10
8.030658791608758
 20
9.1533240865439
 30
0.0
 10
8.04305423114328
 20
9.150529440794429
 30
0.0
  0
SPLINE
  5
B9
330
1F
100
AcDbEntity
  8
0
  6
Continuous
 62
     7
370
    15
100
AcDbSpline
210
0.0
220
0.0
230
1.0
 70
     8
 71
     3
 72
     9
 73
     5
 74
     0
 42
0.00000001
 43
0.00000001
 12
1.0
 22
0.0
 32
0.0
 13
1.0
 23
0.0
 33
0.0
 40
0.0
 40
0.0
 40
0.0
 40
0.0
 40
0.5599993474791363
 40
1.0
 40
1.0
 40
1.0
 40
1.0
 10
8.04305423114328
 20
9.150529440794429
 30
0.0
 10
8.043013207912955
 20
9.139124739197072
 30
0.0
 10
8.042939952059154
 20
9.11875917690009
 30
0.0
 10
8.04280501877463
 20
9.098393933593552
 30
0.0
 10
8.042745648041393
 20
9.08943321324993
 30
0.0
  0
SPLINE
  5
BA
330
1F
100
AcDbEntity
  8
0
  6
Continuous
 62
     7
370
    15
100
AcDbSpline
210
0.0
220
0.0
230
1.0
 70
     8
 71
     3
 72
     9
 73
     5
 74
     0
 42
0.00000001
 43
0.00000001
 12
1.0
 22
0.0
 32
0.0
 13
1.0
 23
0.0
 33
0.0
 40
0.0
 40
0.0
 40
0.0
 40
0.0
 40
0.560006698514314
 40
1.0
 40
1.0
 40
1.0
 40
1.0
 10
8.042745648041393
 20
9.08943321324993
 30
0.0
 10
8.04256901634726
 20
9.078470569303095
 30
0.0
 10
8.042253606380555
 20
9.058894653557946
 30
0.0
 10
8.04209531627716
 20
9.039316862129022
 30
0.0
 10
8.042025669691977
 20
9.030702765042413
 30
0.0
  0
SPLINE
  5
BB
330
1F
100
AcDbEntity
  8
0
  6
Continuous
 62
     7
370
    15
100
AcDbSpline
210
0.0
220
0.0
230
1.0
 70
     8
 71
     3
 72
     9
 73
     5
 74
     0
 42
0.00000001
 43
0.00000001
 12
1.0
 22
0.0
 32
0.0
 13
1.0
 23
0.0
 33
0.0
 40
0.0
 40
0.0
 40
0.0
 40
0.0
 40
0.560000849253593
 40
1.0
 40
1.0
 40
1.0
 40
1.0
 10
8.042025669691977
 20
9.030702765042413
 30
0.0
 10
8.042083166617749
 20
9.007623495526497
 30
0.0
 10
8.042185839543777
 20
8.96641057674847
 30
0.0
 10
8.042788889621308
 20
8.925202063907939
 30
0.0
 10
8.04305423114328
 20
8.907070353254584
 30
0.0
  0
SPLINE
  5
BC
330
1F
100
AcDbEntity
  8
0
  6
Continuous
 62
     7
370
    15
100
AcDbSpline
210
0.0
220
0.0
230
1.0
 70
     8
 71
     3
 72
    11
 73
     7
 74
     0
 42
0.00000001
 43
0.00000001
 12
1.0
 22
0.0
 32
0.0
 13
1.0
 23
0.0
 33
0.0
 40
0.0
 40
0.0
 40
0.0
 40
0.0
 40
0.2803131479668698
 40
0.5589086348869405
 40
0.7792486645687035
 40
1.0
 40
1.0
 40
1.0
 40
1.0
 10
8.04305423114328
 20
8.907070353254584
 30
0.0
 10
8.04432649533898
 20
8.900470108429534
 30
0.0
 10
8.046863227739841
 20
8.88731006277401
 30
0.0
 10
8.059742375629982
 20
8.872644145865884
 30
0.0
 10
8.075982442917315
 20
8.866234868278305
 30
0.0
 10
8.086460830119362
 20
8.865756202620275
 30
0.0
 10
8.091704909126497
 20
8.865516646619882
 30
0.0
  0
SPLINE
  5
BD
330
1F
100
AcDbEntity
  8
0
  6
Continuous
 62
     7
370
    15
100
AcDbSpline
210
0.0
220
0.0
230
1.0
 70
     8
 71
     3
 72
    11
 73
     7
 74
     0
 42
0.00000001
 43
0.00000001
 12
1.0
 22
0.0
 32
0.0
 13
1.0
 23
0.0
 33
0.0
 40
0.0
 40
0.0
 40
0.0
 40
0.0
 40
0.2802083999739551
 40
0.5601029558356829
 40
0.7799592788146849
 40
0.9999999999999999
 40
0.9999999999999999
 40
0.9999999999999999
 40
0.9999999999999999
 10
8.091704909126497
 20
8.865516646619882
 30
0.0
 10
8.098791696046293
 20
8.866169273416574
 30
0.0
 10
8.112957332413812
 20
8.867473796043015
 30
0.0
 10
8.129802257701567
 20
8.878611567368958
 30
0.0
 10
8.140971327773059
 20
8.893705794109524
 30
0.0
 10
8.141520728363236
 20
8.904945316127819
 30
0.0
 10
8.141795543808545
 20
8.910567432856022
 30
0.0
  0
SPLINE
  5
BE
330
1F
100
AcDbEntity
  8
0
  6
Continuous
 62
     7
370
    15
100
AcDbSpline
210
0.0
220
0.0
230
1.0
 70
     8
 71
     3
 72
    13
 73
     9
 74
     0
 42
0.00000001
 43
0.00000001
 12
1.0
 22
0.0
 32
0.0
 13
1.0
 23
0.0
 33
0.0
 40
0.0
 40
0.0
 40
0.0
 40
0.0
 40
0.7543932799592836
 40
0.9428826618183823
 40
0.9895684816093521
 40
0.9993934447573752
 40
0.9998889838118629
 40
1.0
 40
1.0
 40
1.0
 40
1.0
 10
8.141795543808545
 20
8.910567432856022
 30
0.0
 10
8.140285965260244
 20
8.94142687430921
 30
0.0
 10
8.138399210065497
 20
8.979996719869312
 30
0.0
 10
8.13607520717509
 20
9.020491665333354
 30
0.0
 10
8.135540592819638
 20
9.030498853157212
 30
0.0
 10
8.135343645830092
 20
9.03283440472602
 30
0.0
 10
8.135226390009386
 20
9.033248012008082
 30
0.0
 10
8.135214885493966
 20
9.0332700599603
 30
0.0
 10
8.135212779853195
 20
9.033274095338186
 30
0.0
  0
LINE
  5
BF
330
1F
100
AcDbEntity
  8
0
  6
Continuous
 62
     7
370
    15
100
AcDbLine
 10
7.2860374029
 20
9.0332740953
 30
0.0
 11
7.2860374029
 21
9.2157398408
 31
0.0
  0
SPLINE
  5
C0
330
1F
100
AcDbEntity
  8
0
  6
Continuous
 62
     7
370
    15
100
AcDbSpline
210
0.0
220
0.0
230
1.0
 70
     8
 71
     3
 72
    11
 73
     7
 74
     0
 42
0.00000001
 43
0.00000001
 12
1.0
 22
0.0
 32
0.0
 13
1.0
 23
0.0
 33
0.0
 40
0.0
 40
0.0
 40
0.0
 40
0.0
 40
0.2795513292590999
 40
0.5591878874315561
 40
0.7794970252451474
 40
1.0
 40
1.0
 40
1.0
 40
1.0
 10
7.286037402932945
 20
9.215739840811656
 30
0.0
 10
7.285303824188693
 20
9.222462026044584
 30
0.0
 10
7.283836443048527
 20
9.235908445953537
 30
0.0
 10
7.271246950418584
 20
9.250733392741685
 30
0.0
 10
7.255961291803924
 20
9.25918664200831
 30
0.0
 10
7.24543119152524
 20
9.260050067854529
 30
0.0
 10
7.240163826201752
 20
9.260481970613421
 30
0.0
  0
SPLINE
  5
C1
330
1F
100
AcDbEntity
  8
0
  6
Continuous
 62
     7
370
    15
100
AcDbSpline
210
0.0
220
0.0
230
1.0
 70
     8
 71
     3
 72
    10
 73
     6
 74
     0
 42
0.00000001
 43
0.00000001
 12
1.0
 22
0.0
 32
0.0
 13
1.0
 23
0.0
 33
0.0
 40
0.0
 40
0.0
 40
0.0
 40
0.0
 40
0.2809079731585005
 40
0.5613856715202377
 40
1.0
 40
1.0
 40
1.0
 40
1.0
 10
7.240163826201752
 20
9.260481970613421
 30
0.0
 10
7.23566416922666
 20
9.260197536413152
 30
0.0
 10
7.22667174753008
 20
9.259629103688631
 30
0.0
 10
7.211407882286189
 20
9.253109415598914
 30
0.0
 10
7.204608750905551
 20
9.243505830088159
 30
0.0
 10
7.200461581512137
 20
9.23764806772595
 30
0.0
  0
SPLINE
  5
C2
330
1F
100
AcDbEntity
  8
0
  6
Continuous
 62
     7
370
    15
100
AcDbSpline
210
0.0
220
0.0
230
1.0
 70
     8
 71
     3
 72
     9
 73
     5
 74
     0
 42
0.00000001
 43
0.00000001
 12
1.0
 22
0.0
 32
0.0
 13
1.0
 23
0.0
 33
0.0
 40
0.0
 40
0.0
 40
0.0
 40
0.0
 40
0.5598909748553703
 40
1.0
 40
1.0
 40
1.0
 40
1.0
 10
7.200461581512137
 20
9.23764806772595
 30
0.0
 10
7.183405928654127
 20
9.242852149255611
 30
0.0
 10
7.152943475026585
 20
9.252146961573324
 30
0.0
 10
7.121159847291043
 20
9.25336370631567
 30
0.0
 10
7.107171585872794
 20
9.253899206658073
 30
0.0
  0
SPLINE
  5
C3
330
1F
100
AcDbEntity
  8
0
  6
Continuous
 62
     7
370
    15
100
AcDbSpline
210
0.0
220
0.0
230
1.0
 70
     8
 71
     3
 72
     9
 73
     5
 74
     0
 42
0.00000001
 43
0.00000001
 12
1.0
 22
0.0
 32
0.0
 13
1.0
 23
0.0
 33
0.0
 40
0.0
 40
0.0
 40
0.0
 40
0.0
 40
0.5602140429543065
 40
1.0
 40
1.0
 40
1.0
 40
1.0
 10
7.107171585872794
 20
9.253899206658073
 30
0.0
 10
7.090621845856178
 20
9.253150507556173
 30
0.0
 10
7.061080030143491
 20
9.251814055692256
 30
0.0
 10
7.034656468960484
 20
9.238760369201428
 30
0.0
 10
7.023035757817059
 20
9.233019541195084
 30
0.0
  0
SPLINE
  5
C4
330
1F
100
AcDbEntity
  8
0
  6
Continuous
 62
     7
370
    15
100
AcDbSpline
210
0.0
220
0.0
230
1.0
 70
     8
 71
     3
 72
    10
 73
     6
 74
     0
 42
0.00000001
 43
0.00000001
 12
1.0
 22
0.0
 32
0.0
 13
1.0
 23
0.0
 33
0.0
 40
0.0
 40
0.0
 40
0.0
 40
0.0
 40
0.280505015246641
 40
0.5608226990553526
 40
0.9999999999999999
 40
0.9999999999999999
 40
0.9999999999999999
 40
0.9999999999999999
 10
7.023035757817059
 20
9.233019541195084
 30
0.0
 10
7.016477205054267
 20
9.22833374241706
 30
0.0
 10
7.003364479568441
 20
9.218965274207639
 30
0.0
 10
6.985471465149034
 20
9.195747733311293
 30
0.0
 10
6.980375578505582
 20
9.175524691096454
 30
0.0
 10
6.977265066563991
 20
9.16318061464699
 30
0.0
  0
SPLINE
  5
C5
330
1F
100
AcDbEntity
  8
0
  6
Continuous
 62
     7
370
    15
100
AcDbSpline
210
0.0
220
0.0
230
1.0
 70
     8
 71
     3
 72
     9
 73
     5
 74
     0
 42
0.00000001
 43
0.00000001
 12
1.0
 22
0.0
 32
0.0
 13
1.0
 23
0.0
 33
0.0
 40
0.0
 40
0.0
 40
0.0
 40
0.0
 40
0.5600199271210959
 40
1.0
 40
1.0
 40
1.0
 40
1.0
 10
6.977265066563991
 20
9.16318061464699
 30
0.0
 10
6.973075693933205
 20
9.134343210615334
 30
0.0
 10
6.965594937574547
 20
9.082849678626394
 30
0.0
 10
6.96412788362111
 20
9.030850294003939
 30
0.0
 10
6.963482409115759
 20
9.007971600968093
 30
0.0
  0
SPLINE
  5
C6
330
1F
100
AcDbEntity
  8
0
  6
Continuous
 62
     7
370
    15
100
AcDbSpline
210
0.0
220
0.0
230
1.0
 70
     8
 71
     3
 72
     9
 73
     5
 74
     0
 42
0.00000001
 43
0.00000001
 12
1.0
 22
0.0
 32
0.0
 13
1.0
 23
0.0
 33
0.0
 40
0.0
 40
0.0
 40
0.0
 40
0.0
 40
0.5599688940010799
 40
1.0
 40
1.0
 40
1.0
 40
1.0
 10
6.963482409115759
 20
9.007971600968093
 30
0.0
 10
6.963954202660677
 20
8.988664576899069
 30
0.0
 10
6.964796737933569
 20
8.954185833033366
 30
0.0
 10
6.96845529441585
 20
8.91989603649221
 30
0.0
 10
6.970065173071108
 20
8.904807459395727
 30
0.0
  0
SPLINE
  5
C7
330
1F
100
AcDbEntity
  8
0
  6
Continuous
 62
     7
370
    15
100
AcDbSpline
210
0.0
220
0.0
230
1.0
 70
     8
 71
     3
 72
    10
 73
     6
 74
     0
 42
0.00000001
 43
0.00000001
 12
1.0
 22
0.0
 32
0.0
 13
1.0
 23
0.0
 33
0.0
 40
0.0
 40
0.0
 40
0.0
 40
0.0
 40
0.2815303386568726
 40
0.561345625019795
 40
1.0
 40
1.0
 40
1.0
 40
1.0
 10
6.970065173071108
 20
8.904807459395727
 30
0.0
 10
6.971654912773629
 20
8.898549887076616
 30
0.0
 10
6.974824707656794
 20
8.886072862890392
 30
0.0
 10
6.991291219957787
 20
8.868191202858178
 30
0.0
 10
7.008191699903619
 20
8.866530544662123
 30
0.0
 10
7.018510116764317
 20
8.865516646619882
 30
0.0
  0
SPLINE
  5
C8
330
1F
100
AcDbEntity
  8
0
  6
Continuous
 62
     7
370
    15
100
AcDbSpline
210
0.0
220
0.0
230
1.0
 70
     8
 71
     3
 72
    11
 73
     7
 74
     0
 42
0.00000001
 43
0.00000001
 12
1.0
 22
0.0
 32
0.0
 13
1.0
 23
0.0
 33
0.0
 40
0.0
 40
0.0
 40
0.0
 40
0.0
 40
0.280190643111043
 40
0.5599243433998939
 40
0.7798720229646461
 40
1.0
 40
1.0
 40
1.0
 40
1.0
 10
7.018510116764317
 20
8.865516646619882
 30
0.0
 10
7.025542933711122
 20
8.86617608969097
 30
0.0
 10
7.039597098288028
 20
8.867493900394745
 30
0.0
 10
7.056340421782946
 20
8.878618006803974
 30
0.0
 10
7.067214120315233
 20
8.893634650346204
 30
0.0
 10
7.068275552307656
 20
8.904715936629968
 30
0.0
 10
7.068806485736371
 20
8.910258849754133
 30
0.0
  0
SPLINE
  5
C9
330
1F
100
AcDbEntity
  8
0
  6
Continuous
 62
     7
370
    15
100
AcDbSpline
210
0.0
220
0.0
230
1.0
 70
     8
 71
     3
 72
     9
 73
     5
 74
     0
 42
0.00000001
 43
0.00000001
 12
1.0
 22
0.0
 32
0.0
 13
1.0
 23
0.0
 33
0.0
 40
0.0
 40
0.0
 40
0.0
 40
0.0
 40
0.5599979269135287
 40
1.0
 40
1.0
 40
1.0
 40
1.0
 10
7.068806485736371
 20
8.910258849754133
 30
0.0
 10
7.067435480744923
 20
8.928450603933598
 30
0.0
 10
7.064987248482698
 20
8.96093599951306
 30
0.0
 10
7.063068135480483
 20
8.993456770169578
 30
0.0
 10
7.062223721781022
 20
9.007765976676815
 30
0.0
  0
SPLINE
  5
CA
330
1F
100
AcDbEntity
  8
0
  6
Continuous
 62
     7
370
    15
100
AcDbSpline
210
0.0
220
0.0
230
1.0
 70
     8
 71
     3
 72
     9
 73
     5
 74
     0
 42
0.00000001
 43
0.00000001
 12
1.0
 22
0.0
 32
0.0
 13
1.0
 23
0.0
 33
0.0
 40
0.0
 40
0.0
 40
0.0
 40
0.0
 40
0.5602427430478225
 40
1.0
 40
1.0
 40
1.0
 40
1.0
 10
7.062223721781022
 20
9.007765976676815
 30
0.0
 10
7.062297085818952
 20
9.035254948945594
 30
0.0
 10
7.062428036266487
 20
9.084321130721074
 30
0.0
 10
7.071430396464811
 20
9.132521482716388
 30
0.0
 10
7.07538924969172
 20
9.153717937293978
 30
0.0
  0
SPLINE
  5
CB
330
1F
100
AcDbEntity
  8
0
  6
Continuous
 62
     7
370
    15
100
AcDbSpline
210
0.0
220
0.0
230
1.0
 70
     8
 71
     3
 72
     9
 73
     5
 74
     0
 42
0.00000001
 43
0.00000001
 12
1.0
 22
0.0
 32
0.0
 13
1.0
 23
0.0
 33
0.0
 40
0.0
 40
0.0
 40
0.0
 40
0.0
 40
0.560182493896152
 40
1.0
 40
1.0
 40
1.0
 40
1.0
 10
7.07538924969172
 20
9.153717937293978
 30
0.0
 10
7.081317265023066
 20
9.156162538172511
 30
0.0
 10
7.091899558107798
 20
9.16052647475598
 30
0.0
 10
7.103292278337023
 20
9.161369764400002
 30
0.0
 10
7.108302996135979
 20
9.161740657948158
 30
0.0
  0
SPLINE
  5
CC
330
1F
100
AcDbEntity
  8
0
  6
Continuous
 62
     7
370
    15
100
AcDbSpline
210
0.0
220
0.0
230
1.0
 70
     8
 71
     3
 72
     9
 73
     5
 74
     0
 42
0.00000001
 43
0.00000001
 12
1.0
 22
0.0
 32
0.0
 13
1.0
 23
0.0
 33
0.0
 40
0.0
 40
0.0
 40
0.0
 40
0.0
 40
0.559888304793818
 40
1.0
 40
1.0
 40
1.0
 40
1.0
 10
7.108302996135979
 20
9.161740657948158
 30
0.0
 10
7.124460576418409
 20
9.160998854910412
 30
0.0
 10
7.153319154359914
 20
9.15967394236733
 30
0.0
 10
7.181483402544196
 20
9.153324086586462
 30
0.0
 10
7.193878817556788
 20
9.150529440794429
 30
0.0
  0
SPLINE
  5
CD
330
1F
100
AcDbEntity
  8
0
  6
Continuous
 62
     7
370
    15
100
AcDbSpline
210
0.0
220
0.0
230
1.0
 70
     8
 71
     3
 72
     9
 73
     5
 74
     0
 42
0.00000001
 43
0.00000001
 12
1.0
 22
0.0
 32
0.0
 13
1.0
 23
0.0
 33
0.0
 40
0.0
 40
0.0
 40
0.0
 40
0.0
 40
0.5599993379488948
 40
1.0
 40
1.0
 40
1.0
 40
1.0
 10
7.193878817556788
 20
9.150529440794429
 30
0.0
 10
7.193837854324832
 20
9.139124739073564
 30
0.0
 10
7.19376470560986
 20
9.118759176209444
 30
0.0
 10
7.193629656258782
 20
9.098393933517302
 30
0.0
 10
7.193570234454899
 20
9.08943321324993
 30
0.0
  0
SPLINE
  5
CE
330
1F
100
AcDbEntity
  8
0
  6
Continuous
 62
     7
370
    15
100
AcDbSpline
210
0.0
220
0.0
230
1.0
 70
     8
 71
     3
 72
     9
 73
     5
 74
     0
 42
0.00000001
 43
0.00000001
 12
1.0
 22
0.0
 32
0.0
 13
1.0
 23
0.0
 33
0.0
 40
0.0
 40
0.0
 40
0.0
 40
0.0
 40
0.5600066767591131
 40
1.0
 40
1.0
 40
1.0
 40
1.0
 10
7.193570234454899
 20
9.08943321324993
 30
0.0
 10
7.193393662758834
 20
9.078470569032044
 30
0.0
 10
7.193078359918004
 20
9.058894652042396
 30
0.0
 10
7.192919953758171
 20
9.039316861961721
 30
0.0
 10
7.192850256105484
 20
9.030702765042413
 30
0.0
  0
SPLINE
  5
CF
330
1F
100
AcDbEntity
  8
0
  6
Continuous
 62
     7
370
    15
100
AcDbSpline
210
0.0
220
0.0
230
1.0
 70
     8
 71
     3
 72
     9
 73
     5
 74
     0
 42
0.00000001
 43
0.00000001
 12
1.0
 22
0.0
 32
0.0
 13
1.0
 23
0.0
 33
0.0
 40
0.0
 40
0.0
 40
0.0
 40
0.0
 40
0.560000849253593
 40
1.0
 40
1.0
 40
1.0
 40
1.0
 10
7.192850256105484
 20
9.030702765042413
 30
0.0
 10
7.192907753031256
 20
9.007623495526497
 30
0.0
 10
7.193010425957284
 20
8.96641057674847
 30
0.0
 10
7.193613476034816
 20
8.925202063907939
 30
0.0
 10
7.193878817556788
 20
8.907070353254584
 30
0.0
  0
SPLINE
  5
D0
330
1F
100
AcDbEntity
  8
0
  6
Continuous
 62
     7
370
    15
100
AcDbSpline
210
0.0
220
0.0
230
1.0
 70
     8
 71
     3
 72
    11
 73
     7
 74
     0
 42
0.00000001
 43
0.00000001
 12
1.0
 22
0.0
 32
0.0
 13
1.0
 23
0.0
 33
0.0
 40
0.0
 40
0.0
 40
0.0
 40
0.0
 40
0.2803137368759895
 40
0.5589091841912357
 40
0.7792494525423569
 40
1.0
 40
1.0
 40
1.0
 40
1.0
 10
7.193878817556788
 20
8.907070353254584
 30
0.0
 10
7.195151113538392
 20
8.900470111797176
 30
0.0
 10
7.197687906479949
 20
8.887310087570262
 30
0.0
 10
7.210566996171105
 20
8.872644135889828
 30
0.0
 10
7.226807045015322
 20
8.866234878825205
 30
0.0
 10
7.237285405450631
 20
8.865756205767022
 30
0.0
 10
7.242529458873761
 20
8.865516646619882
 30
0.0
  0
SPLINE
  5
D1
330
1F
100
AcDbEntity
  8
0
  6
Continuous
 62
     7
370
    15
100
AcDbSpline
210
0.0
220
0.0
230
1.0
 70
     8
 71
     3
 72
    11
 73
     7
 74
     0
 42
0.00000001
 43
0.00000001
 12
1.0
 22
0.0
 32
0.0
 13
1.0
 23
0.0
 33
0.0
 40
0.0
 40
0.0
 40
0.0
 40
0.0
 40
0.2802098232272905
 40
0.560103880600742
 40
0.7799598120187179
 40
1.0
 40
1.0
 40
1.0
 40
1.0
 10
7.242529458873761
 20
8.865516646619882
 30
0.0
 10
7.249616297430275
 20
8.866169265485253
 30
0.0
 10
7.263781988450586
 20
8.86747376778584
 30
0.0
 10
7.280626947426767
 20
8.878611568508735
 30
0.0
 10
7.291796041552901
 20
8.893705788160798
 30
0.0
 10
7.292345381743589
 20
8.90494531534723
 30
0.0
 10
7.292620166888295
 20
8.910567432856022
 30
0.0
  0
SPLINE
  5
D2
330
1F
100
AcDbEntity
  8
0
  6
Continuous
 62
     7
370
    15
100
AcDbSpline
210
0.0
220
0.0
230
1.0
 70
     8
 71
     3
 72
    13
 73
     9
 74
     0
 42
0.00000001
 43
0.00000001
 12
1.0
 22
0.0
 32
0.0
 13
1.0
 23
0.0
 33
0.0
 40
0.0
 40
0.0
 40
0.0
 40
0.0
 40
0.7543931489709788
 40
0.9428825057222479
 40
0.9895683192944079
 40
0.9993933663931731
 40
0.9998887131273694
 40
1.0
 40
1.0
 40
1.0
 40
1.0
 10
7.292620166888295
 20
8.910567432856022
 30
0.0
 10
7.291114446327128
 20
8.94142846238107
 30
0.0
 10
7.289232513043975
 20
8.980000293113411
 30
0.0
 10
7.286894715680043
 20
9.020489511237468
 30
0.0
 10
7.286368305114854
 20
9.030500108980602
 30
0.0
 10
7.286166985078516
 20
9.03283384027891
 30
0.0
 10
7.28605116052699
 20
9.033248070421358
 30
0.0
 10
7.286039535536291
 20
9.033270061142634
 30
0.0
 10
7.286037402932945
 20
9.033274095338186
 30
0.0
  0
LINE
  5
D3
330
1F
100
AcDbEntity
  8
0
  6
Continuous
 62
     7
370
    15
100
AcDbLine
 10
4.6917934919
 20
9.2683605196
 30
0.0
 11
4.6924040581
 21
8.3827847298
 31
0.0
  0
LINE
  5
D4
330
1F
100
AcDbEntity
  8
0
  6
Continuous
 62
     7
370
    15
100
AcDbLine
 10
4.4924040752
 20
9.2683605196
 30
0.0
 11
4.6917934919
 21
9.2683605196
 31
0.0
  0
LINE
  5
D5
330
1F
100
AcDbEntity
  8
0
  6
Continuous
 62
     7
370
    15
100
AcDbLine
 10
4.4924040752
 20
8.3827847298
 30
0.0
 11
4.4924040752
 21
9.2683605196
 31
0.0
  0
LINE
  5
D6
330
1F
100
AcDbEntity
  8
0
  6
Continuous
 62
     7
370
    15
100
AcDbLine
 10
4.6924040581
 20
8.3827847298
 30
0.0
 11
4.4924040752
 21
8.3827847298
 31
0.0
  0
CIRCLE
  5
D7
330
1F
100
AcDbEntity
  8
0
  6
Continuous
 62
     7
370
    15
100
AcDbCircle
 10
5.1125595923
 20
8.1389158435
 30
0.0
 40
0.1574803149606367
  0
LINE
  5
D8
330
1F
100
AcDbEntity
  8
0
  6
Continuous
 62
     7
370
    15
100
AcDbLine
 10
7.1129874387
 20
8.4498707549
 30
0.0
 11
5.0718209151
 21
7.8102381173
 31
0.0
  0
ARC
  5
D9
330
1F
100
AcDbEntity
  8
0
  6
Continuous
 62
     7
370
    15
100
AcDbCircle
 10
4.8924041954
 20
8.3827847889
 30
0.0
 40
0.6000000000000023
100
AcDbArc
 50
179.9604972771
 51
287.39922693
  0
LINE
  5
DA
330
1F
100
AcDbEntity
  8
0
  6
Continuous
 62
     7
370
    15
100
AcDbLine
 10
4.2924043856
 20
8.3831984717
 30
0.0
 11
4.2930146586
 21
9.2683605196
 31
0.0
  0
ARC
  5
DB
330
1F
100
AcDbEntity
  8
0
  6
Continuous
 62
     7
370
    15
100
AcDbCircle
 10
4.8930144728
 20
9.2679468651
 30
0.0
 40
0.600000000000001
100
AcDbArc
 50
90.0
 51
179.9604972771
  0
LINE
  5
DC
330
1F
100
AcDbEntity
  8
0
  6
Continuous
 62
     7
370
    15
100
AcDbLine
 10
4.8930144607
 20
9.8679468731
 30
0.0
 11
9.6917937981
 21
9.8679468731
 31
0.0
  0
ARC
  5
DD
330
1F
100
AcDbEntity
  8
0
  6
Continuous
 62
     7
370
    15
100
AcDbCircle
 10
9.6917939181
 20
9.2679468651
 30
0.0
 40
0.6000000000000019
100
AcDbArc
 50
0.0395027229
 51
90.0
  0
LINE
  5
DE
330
1F
100
AcDbEntity
  8
0
  6
Continuous
 62
     7
370
    15
100
AcDbLine
 10
10.2917937468
 20
9.2683605196
 30
0.0
 11
10.0924044769
 21
9.2683605196
 31
0.0
  0
LINE
  5
DF
330
1F
100
AcDbEntity
  8
0
  6
Continuous
 62
     7
370
    15
100
AcDbLine
 10
10.0924044769
 20
9.2683605196
 30
0.0
 11
10.0924044769
 21
8.3827847298
 31
0.0
  0
LINE
  5
E0
330
1F
100
AcDbEntity
  8
0
  6
Continuous
 62
     7
370
    15
100
AcDbLine
 10
10.0924044769
 20
8.3827847298
 30
0.0
 11
10.2924041665
 21
8.3831984717
 31
0.0
  0
ARC
  5
E1
330
1F
100
AcDbEntity
  8
0
  6
Continuous
 62
     7
370
    15
100
AcDbCircle
 10
9.6924041954
 20
8.3827847889
 30
0.0
 40
0.6000000000000001
100
AcDbArc
 50
252.60077307
 51
0.0395027229
  0
LINE
  5
E2
330
1F
100
AcDbEntity
  8
0
  6
Continuous
 62
     7
370
    15
100
AcDbLine
 10
9.5129874903
 20
7.8102381173
 30
0.0
 11
7.4718209301
 21
8.4498707549
 31
0.0
  0
ARC
  5
E3
330
1F
100
AcDbEntity
  8
0
  6
Continuous
 62
     7
370
    15
100
AcDbCircle
 10
7.2924041954
 20
7.8773241148
 30
0.0
 40
0.6000000000000018
100
AcDbArc
 50
72.60077307
 51
107.39922693
  0
CIRCLE
  5
E4
330
1F
100
AcDbEntity
  8
0
  6
Continuous
 62
     7
370
    15
100
AcDbCircle
 10
9.4722487985
 20
8.1389158435
 30
0.0
 40
0.1574803149606376
  0
SPLINE
  5
E5
330
1F
100
AcDbEntity
  8
0
  6
Continuous
 62
     7
370
    15
100
AcDbSpline
210
0.0
220
0.0
230
1.0
 70
     8
 71
     3
 72
     9
 73
     5
 74
     0
 42
0.00000001
 43
0.00000001
 12
1.0
 22
0.0
 32
0.0
 13
1.0
 23
0.0
 33
0.0
 40
0.0
 40
0.0
 40
0.0
 40
0.0
 40
0.5598737184144943
 40
0.9999999999999999
 40
0.9999999999999999
 40
0.9999999999999999
 40
0.9999999999999999
 10
6.921928775813543
 20
9.148060849311808
 30
0.0
 10
6.921289062255521
 20
9.158307188091133
 30
0.0
 10
6.920146458955919
 20
9.176608348589149
 30
0.0
 10
6.917241632057276
 20
9.194710129053314
 30
0.0
 10
6.915963141395728
 20
9.202677198379083
 30
0.0
  0
SPLINE
  5
E6
330
1F
100
AcDbEntity
  8
0
  6
Continuous
 62
     7
370
    15
100
AcDbSpline
210
0.0
220
0.0
230
1.0
 70
     8
 71
     3
 72
    11
 73
     7
 74
     0
 42
0.00000001
 43
0.00000001
 12
1.0
 22
0.0
 32
0.0
 13
1.0
 23
0.0
 33
0.0
 40
0.0
 40
0.0
 40
0.0
 40
0.0
 40
0.280301741384763
 40
0.5592061178844218
 40
0.7793330924230185
 40
1.0
 40
1.0
 40
1.0
 40
1.0
 10
6.915963141395728
 20
9.202677198379083
 30
0.0
 10
6.9144874597342
 20
9.209550955604813
 30
0.0
 10
6.91154345300381
 20
9.223264202887865
 30
0.0
 10
6.898712677099335
 20
9.239055406016044
 30
0.0
 10
6.881866368285322
 20
9.246451872690937
 30
0.0
 10
6.870865431807859
 20
9.247028017456877
 30
0.0
 10
6.865358225988029
 20
9.247316442702724
 30
0.0
  0
SPLINE
  5
E7
330
1F
100
AcDbEntity
  8
0
  6
Continuous
 62
     7
370
    15
100
AcDbSpline
210
0.0
220
0.0
230
1.0
 70
     8
 71
     3
 72
     9
 73
     5
 74
     0
 42
0.00000001
 43
0.00000001
 12
1.0
 22
0.0
 32
0.0
 13
1.0
 23
0.0
 33
0.0
 40
0.0
 40
0.0
 40
0.0
 40
0.0
 40
0.557434581278902
 40
1.0
 40
1.0
 40
1.0
 40
1.0
 10
6.865358225988029
 20
9.247316442702724
 30
0.0
 10
6.853901211278071
 20
9.244663468246117
 30
0.0
 10
6.83334810048313
 20
9.239904211203758
 30
0.0
 10
6.817605982022986
 20
9.226005224260657
 30
0.0
 10
6.810639064775115
 20
9.219854013284385
 30
0.0
  0
SPLINE
  5
E8
330
1F
100
AcDbEntity
  8
0
  6
Continuous
 62
     7
370
    15
100
AcDbSpline
210
0.0
220
0.0
230
1.0
 70
     8
 71
     3
 72
    10
 73
     6
 74
     0
 42
0.00000001
 43
0.00000001
 12
1.0
 22
0.0
 32
0.0
 13
1.0
 23
0.0
 33
0.0
 40
0.0
 40
0.0
 40
0.0
 40
0.0
 40
0.2799712367853675
 40
0.5599854215962978
 40
1.0
 40
1.0
 40
1.0
 40
1.0
 10
6.810639064775115
 20
9.219854013284385
 30
0.0
 10
6.780014349341241
 20
9.190653525731575
 30
0.0
 10
6.718760220594254
 20
9.132248071225499
 30
0.0
 10
6.618123755523
 20
9.019362278871018
 30
0.0
 10
6.550560631952425
 20
8.934086345212371
 30
0.0
 10
6.509272337855928
 20
8.88197362984074
 30
0.0
  0
SPLINE
  5
E9
330
1F
100
AcDbEntity
  8
0
  6
Continuous
 62
     7
370
    15
100
AcDbSpline
210
0.0
220
0.0
230
1.0
 70
     8
 71
     3
 72
     9
 73
     5
 74
     0
 42
0.00000001
 43
0.00000001
 12
1.0
 22
0.0
 32
0.0
 13
1.0
 23
0.0
 33
0.0
 40
0.0
 40
0.0
 40
0.0
 40
0.0
 40
0.5600047454005321
 40
1.0
 40
1.0
 40
1.0
 40
1.0
 10
6.509272337855928
 20
8.88197362984074
 30
0.0
 10
6.508748010513346
 20
8.902649562132288
 30
0.0
 10
6.507811719621368
 20
8.939570556929858
 30
0.0
 10
6.507326062247753
 20
8.976500118367698
 30
0.0
 10
6.507112375308
 20
8.992748950154787
 30
0.0
  0
SPLINE
  5
EA
330
1F
100
AcDbEntity
  8
0
  6
Continuous
 62
     7
370
    15
100
AcDbSpline
210
0.0
220
0.0
230
1.0
 70
     8
 71
     3
 72
    11
 73
     7
 74
     0
 42
0.00000001
 43
0.00000001
 12
1.0
 22
0.0
 32
0.0
 13
1.0
 23
0.0
 33
0.0
 40
0.0
 40
0.0
 40
0.0
 40
0.0
 40
0.3399946226435154
 40
0.559996963695253
 40
0.7799986968540572
 40
1.0
 40
1.0
 40
1.0
 40
1.0
 10
6.507112375308
 20
8.992748950154787
 30
0.0
 10
6.507270283506887
 20
9.011482674693834
 30
0.0
 10
6.507530370302469
 20
9.042338541704323
 30
0.0
 10
6.5083917341242
 20
9.085309176416661
 30
0.0
 10
6.509003983789105
 20
9.121671527113602
 30
0.0
 10
6.509182886558601
 20
9.145915770751099
 30
0.0
 10
6.509272337855928
 20
9.158037880722956
 30
0.0
  0
SPLINE
  5
EB
330
1F
100
AcDbEntity
  8
0
  6
Continuous
 62
     7
370
    15
100
AcDbSpline
210
0.0
220
0.0
230
1.0
 70
     8
 71
     3
 72
     9
 73
     5
 74
     0
 42
0.00000001
 43
0.00000001
 12
1.0
 22
0.0
 32
0.0
 13
1.0
 23
0.0
 33
0.0
 40
0.0
 40
0.0
 40
0.0
 40
0.0
 40
0.5599666866399214
 40
0.9999999999999999
 40
0.9999999999999999
 40
0.9999999999999999
 40
0.9999999999999999
 10
6.458667413281669
 20
9.260481970613421
 30
0.0
 10
6.450070721865908
 20
9.259848063978787
 30
0.0
 10
6.434718573924134
 20
9.258716020502344
 30
0.0
 10
6.422850430161743
 20
9.24908562110735
 30
0.0
 10
6.417628051538544
 20
9.24484792455259
 30
0.0
  0
SPLINE
  5
EC
330
1F
100
AcDbEntity
  8
0
  6
Continuous
 62
     7
370
    15
100
AcDbSpline
210
0.0
220
0.0
230
1.0
 70
     8
 71
     3
 72
     9
 73
     5
 74
     0
 42
0.00000001
 43
0.00000001
 12
1.0
 22
0.0
 32
0.0
 13
1.0
 23
0.0
 33
0.0
 40
0.0
 40
0.0
 40
0.0
 40
0.0
 40
0.5593068581442499
 40
0.9999999999999999
 40
0.9999999999999999
 40
0.9999999999999999
 40
0.9999999999999999
 10
6.417628051538544
 20
9.24484792455259
 30
0.0
 10
6.413191056391986
 20
9.239291307864578
 30
0.0
 10
6.405258031645463
 20
9.22935648119993
 30
0.0
 10
6.40434890646669
 20
9.21676373614275
 30
0.0
 10
6.403948261235316
 20
9.211214199758915
 30
0.0
  0
SPLINE
  5
ED
330
1F
100
AcDbEntity
  8
0
  6
Continuous
 62
     7
370
    15
100
AcDbSpline
210
0.0
220
0.0
230
1.0
 70
     8
 71
     3
 72
     9
 73
     5
 74
     0
 42
0.00000001
 43
0.00000001
 12
1.0
 22
0.0
 32
0.0
 13
1.0
 23
0.0
 33
0.0
 40
0.0
 40
0.0
 40
0.0
 40
0.0
 40
0.5599952823623615
 40
1.0
 40
1.0
 40
1.0
 40
1.0
 10
6.403948261235316
 20
9.211214199758915
 30
0.0
 10
6.404785299168808
 20
9.19551232892669
 30
0.0
 10
6.406280022356407
 20
9.167473037656261
 30
0.0
 10
6.407517842156001
 20
9.139421278201368
 30
0.0
 10
6.408062488707409
 20
9.127078371703181
 30
0.0
  0
SPLINE
  5
EE
330
1F
100
AcDbEntity
  8
0
  6
Continuous
 62
     7
370
    15
100
AcDbSpline
210
0.0
220
0.0
230
1.0
 70
     8
 71
     3
 72
     9
 73
     5
 74
     0
 42
0.00000001
 43
0.00000001
 12
1.0
 22
0.0
 32
0.0
 13
1.0
 23
0.0
 33
0.0
 40
0.0
 40
0.0
 40
0.0
 40
0.0
 40
0.5600003745162269
 40
1.0
 40
1.0
 40
1.0
 40
1.0
 10
6.408062488707409
 20
9.127078371703181
 30
0.0
 10
6.408550317291842
 20
9.104135242420224
 30
0.0
 10
6.409421439181456
 20
9.063165396100429
 30
0.0
 10
6.410191985221588
 20
9.02219353972523
 30
0.0
 10
6.410531025190664
 20
9.004165938264766
 30
0.0
  0
SPLINE
  5
EF
330
1F
100
AcDbEntity
  8
0
  6
Continuous
 62
     7
370
    15
100
AcDbSpline
210
0.0
220
0.0
230
1.0
 70
     8
 71
     3
 72
     9
 73
     5
 74
     0
 42
0.00000001
 43
0.00000001
 12
1.0
 22
0.0
 32
0.0
 13
1.0
 23
0.0
 33
0.0
 40
0.0
 40
0.0
 40
0.0
 40
0.0
 40
0.5600008694173638
 40
0.9999999999999999
 40
0.9999999999999999
 40
0.9999999999999999
 40
0.9999999999999999
 10
6.410531025190664
 20
9.004165938264766
 30
0.0
 10
6.410220975158255
 20
8.979533300672282
 30
0.0
 10
6.409667315245671
 20
8.935546516119404
 30
0.0
 10
6.409338553745041
 20
8.89155749877331
 30
0.0
 10
6.409193898970594
 20
8.872202369385843
 30
0.0
  0
SPLINE
  5
F0
330
1F
100
AcDbEntity
  8
0
  6
Continuous
 62
     7
370
    15
100
AcDbSpline
210
0.0
220
0.0
230
1.0
 70
     8
 71
     3
 72
     9
 73
     5
 74
     0
 42
0.00000001
 43
0.00000001
 12
1.0
 22
0.0
 32
0.0
 13
1.0
 23
0.0
 33
0.0
 40
0.0
 40
0.0
 40
0.0
 40
0.0
 40
0.5599944138071
 40
0.9999999999999999
 40
0.9999999999999999
 40
0.9999999999999999
 40
0.9999999999999999
 10
6.409193898970594
 20
8.872202369385843
 30
0.0
 10
6.408117611422047
 20
8.848994217388396
 30
0.0
 10
6.406195650198845
 20
8.807550675407922
 30
0.0
 10
6.404634969472966
 20
8.766092019461203
 30
0.0
 10
6.403948261235316
 20
8.747849979248597
 30
0.0
  0
SPLINE
  5
F1
330
1F
100
AcDbEntity
  8
0
  6
Continuous
 62
     7
370
    15
100
AcDbSpline
210
0.0
220
0.0
230
1.0
 70
     8
 71
     3
 72
    11
 73
     7
 74
     0
 42
0.00000001
 43
0.00000001
 12
1.0
 22
0.0
 32
0.0
 13
1.0
 23
0.0
 33
0.0
 40
0.0
 40
0.0
 40
0.0
 40
0.0
 40
0.2788554876791067
 40
0.5590622159372794
 40
0.7795912466594844
 40
1.0
 40
1.0
 40
1.0
 40
1.0
 10
6.403948261235316
 20
8.747849979248597
 30
0.0
 10
6.405271421031241
 20
8.739742422109204
 30
0.0
 10
6.407924152213639
 20
8.72348802131576
 30
0.0
 10
6.424471572285895
 20
8.706849353909568
 30
0.0
 10
6.442661261627573
 20
8.696144252034568
 30
0.0
 10
6.455458875691772
 20
8.69495802756071
 30
0.0
 10
6.4618559372809
 20
8.694365077110751
 30
0.0
  0
SPLINE
  5
F2
330
1F
100
AcDbEntity
  8
0
  6
Continuous
 62
     7
370
    15
100
AcDbSpline
210
0.0
220
0.0
230
1.0
 70
     8
 71
     3
 72
    10
 73
     6
 74
     0
 42
0.00000001
 43
0.00000001
 12
1.0
 22
0.0
 32
0.0
 13
1.0
 23
0.0
 33
0.0
 40
0.0
 40
0.0
 40
0.0
 40
0.0
 40
0.2781065741355213
 40
0.5586853373770093
 40
0.9999999999999999
 40
0.9999999999999999
 40
0.9999999999999999
 40
0.9999999999999999
 10
6.4618559372809
 20
8.694365077110751
 30
0.0
 10
6.468658098344495
 20
8.695859759847542
 30
0.0
 10
6.482322887321598
 20
8.698862412092181
 30
0.0
 10
6.500938012985593
 20
8.716058624309605
 30
0.0
 10
6.511599954837323
 20
8.730171240310698
 30
0.0
 10
6.518117913171087
 20
8.738798697143114
 30
0.0
  0
SPLINE
  5
F3
330
1F
100
AcDbEntity
  8
0
  6
Continuous
 62
     7
370
    15
100
AcDbSpline
210
0.0
220
0.0
230
1.0
 70
     8
 71
     3
 72
    11
 73
     7
 74
     0
 42
0.00000001
 43
0.00000001
 12
1.0
 22
0.0
 32
0.0
 13
1.0
 23
0.0
 33
0.0
 40
0.0
 40
0.0
 40
0.0
 40
0.0
 40
0.2800082732282714
 40
0.5600061979417196
 40
0.7800084235897676
 40
1.0
 40
1.0
 40
1.0
 40
1.0
 10
6.518117913171087
 20
8.738798697143114
 30
0.0
 10
6.543977089796379
 20
8.775341159109379
 30
0.0
 10
6.595694487346372
 20
8.848424732509635
 30
0.0
 10
6.673699636564776
 20
8.945768853743182
 30
0.0
 10
6.749731659410105
 20
9.032272850697508
 30
0.0
 10
6.800074004429724
 20
9.081419970260233
 30
0.0
 10
6.825244567717766
 20
9.105992935283941
 30
0.0
  0
SPLINE
  5
F4
330
1F
100
AcDbEntity
  8
0
  6
Continuous
 62
     7
370
    15
100
AcDbSpline
210
0.0
220
0.0
230
1.0
 70
     8
 71
     3
 72
     9
 73
     5
 74
     0
 42
0.00000001
 43
0.00000001
 12
1.0
 22
0.0
 32
0.0
 13
1.0
 23
0.0
 33
0.0
 40
0.0
 40
0.0
 40
0.0
 40
0.0
 40
0.5599837134788304
 40
1.0
 40
1.0
 40
1.0
 40
1.0
 10
6.825244567717766
 20
9.105992935283941
 30
0.0
 10
6.825384530871939
 20
9.096201796579377
 30
0.0
 10
6.825634472344886
 20
9.078717111812857
 30
0.0
 10
6.825577986970995
 20
9.061230839295558
 30
0.0
 10
6.825553132486532
 20
9.053536594597398
 30
0.0
  0
SPLINE
  5
F5
330
1F
100
AcDbEntity
  8
0
  6
Continuous
 62
     7
370
    15
100
AcDbSpline
210
0.0
220
0.0
230
1.0
 70
     8
 71
     3
 72
     9
 73
     5
 74
     0
 42
0.00000001
 43
0.00000001
 12
1.0
 22
0.0
 32
0.0
 13
1.0
 23
0.0
 33
0.0
 40
0.0
 40
0.0
 40
0.0
 40
0.0
 40
0.560007972161601
 40
1.0
 40
1.0
 40
1.0
 40
1.0
 10
6.825553132486532
 20
9.053536594597398
 30
0.0
 10
6.825582772665277
 20
9.010658636317851
 30
0.0
 10
6.825635700802409
 20
8.934091943679457
 30
0.0
 10
6.82407837271516
 20
8.85754174962011
 30
0.0
 10
6.823393160772043
 20
8.823860274504513
 30
0.0
  0
SPLINE
  5
F6
330
1F
100
AcDbEntity
  8
0
  6
Continuous
 62
     7
370
    15
100
AcDbSpline
210
0.0
220
0.0
230
1.0
 70
     8
 71
     3
 72
     9
 73
     5
 74
     0
 42
0.00000001
 43
0.00000001
 12
1.0
 22
0.0
 32
0.0
 13
1.0
 23
0.0
 33
0.0
 40
0.0
 40
0.0
 40
0.0
 40
0.0
 40
0.559983457136755
 40
1.0
 40
1.0
 40
1.0
 40
1.0
 10
6.823393160772043
 20
8.823860274504513
 30
0.0
 10
6.822985036169501
 20
8.81690352393993
 30
0.0
 10
6.82225622070658
 20
8.80448038808489
 30
0.0
 10
6.821188654932912
 20
8.792081954048093
 30
0.0
 10
6.820718908331902
 20
8.786626437966303
 30
0.0
  0
SPLINE
  5
F7
330
1F
100
AcDbEntity
  8
0
  6
Continuous
 62
     7
370
    15
100
AcDbSpline
210
0.0
220
0.0
230
1.0
 70
     8
 71
     3
 72
     9
 73
     5
 74
     0
 42
0.00000001
 43
0.00000001
 12
1.0
 22
0.0
 32
0.0
 13
1.0
 23
0.0
 33
0.0
 40
0.0
 40
0.0
 40
0.0
 40
0.0
 40
0.5600208167744255
 40
1.0
 40
1.0
 40
1.0
 40
1.0
 10
6.820718908331902
 20
8.786626437966303
 30
0.0
 10
6.820131019419314
 20
8.779532829105458
 30
0.0
 10
6.819081256812321
 20
8.766866141281774
 30
0.0
 10
6.818789965761179
 20
8.754160274490856
 30
0.0
 10
6.818661803762416
 20
8.748569957598013
 30
0.0
  0
SPLINE
  5
F8
330
1F
100
AcDbEntity
  8
0
  6
Continuous
 62
     7
370
    15
100
AcDbSpline
210
0.0
220
0.0
230
1.0
 70
     8
 71
     3
 72
    11
 73
     7
 74
     0
 42
0.00000001
 43
0.00000001
 12
1.0
 22
0.0
 32
0.0
 13
1.0
 23
0.0
 33
0.0
 40
0.0
 40
0.0
 40
0.0
 40
0.0
 40
0.2806248037396067
 40
0.5586854655839111
 40
0.7790304439893752
 40
1.0
 40
1.0
 40
1.0
 40
1.0
 10
6.818661803762416
 20
8.748569957598013
 30
0.0
 10
6.819069274217323
 20
8.741099952977052
 30
0.0
 10
6.819880491963501
 20
8.726228199112244
 30
0.0
 10
6.833201287499913
 20
8.708710110109152
 30
0.0
 10
6.851336182820499
 20
8.701730036242072
 30
0.0
 10
6.862941557226643
 20
8.701208818678648
 30
0.0
 10
6.868752456777585
 20
8.7009478410661
 30
0.0
  0
SPLINE
  5
F9
330
1F
100
AcDbEntity
  8
0
  6
Continuous
 62
     7
370
    15
100
AcDbSpline
210
0.0
220
0.0
230
1.0
 70
     8
 71
     3
 72
    13
 73
     9
 74
     0
 42
0.00000001
 43
0.00000001
 12
1.0
 22
0.0
 32
0.0
 13
1.0
 23
0.0
 33
0.0
 40
0.0
 40
0.0
 40
0.0
 40
0.0
 40
0.0624162527895456
 40
0.1247764677405676
 40
0.2493072905313762
 40
0.499122809607355
 40
0.7495325711609809
 40
1.0
 40
1.0
 40
1.0
 40
1.0
 10
6.868752456777585
 20
8.7009478410661
 30
0.0
 10
6.872873977935718
 20
8.701350179246901
 30
0.0
 10
6.881113319915507
 20
8.70215449438589
 30
0.0
 10
6.894972469117602
 20
8.711765230216654
 30
0.0
 10
6.910325668885417
 20
8.73657344848069
 30
0.0
 10
6.919302110271744
 20
8.776927412449009
 30
0.0
 10
6.924154724279262
 20
8.825731036533385
 30
0.0
 10
6.924522145369418
 20
8.858493429389645
 30
0.0
 10
6.924705877065566
 20
8.874876511827253
 30
0.0
  0
SPLINE
  5
FA
330
1F
100
AcDbEntity
  8
0
  6
Continuous
 62
     7
370
    15
100
AcDbSpline
210
0.0
220
0.0
230
1.0
 70
     8
 71
     3
 72
     9
 73
     5
 74
     0
 42
0.00000001
 43
0.00000001
 12
1.0
 22
0.0
 32
0.0
 13
1.0
 23
0.0
 33
0.0
 40
0.0
 40
0.0
 40
0.0
 40
0.0
 40
0.5599973965098449
 40
1.0
 40
1.0
 40
1.0
 40
1.0
 10
6.924705877065566
 20
8.874876511827253
 30
0.0
 10
6.92457564819964
 20
8.885071557726585
 30
0.0
 10
6.924343095572185
 20
8.903277081471643
 30
0.0
 10
6.924095017185791
 20
8.92148240000847
 30
0.0
 10
6.923985862049908
 20
8.929492787562042
 30
0.0
  0
SPLINE
  5
FB
330
1F
100
AcDbEntity
  8
0
  6
Continuous
 62
     7
370
    15
100
AcDbSpline
210
0.0
220
0.0
230
1.0
 70
     8
 71
     3
 72
    11
 73
     7
 74
     0
 42
0.00000001
 43
0.00000001
 12
1.0
 22
0.0
 32
0.0
 13
1.0
 23
0.0
 33
0.0
 40
0.0
 40
0.0
 40
0.0
 40
0.0
 40
0.3400013706231709
 40
0.5600017522175932
 40
0.7800022468235049
 40
1.0
 40
1.0
 40
1.0
 40
1.0
 10
6.923985862049908
 20
8.929492787562042
 30
0.0
 10
6.923692020260909
 20
8.954263350022176
 30
0.0
 10
6.9232080459863
 20
8.995061886674147
 30
0.0
 10
6.922611091784941
 20
9.05188926535138
 30
0.0
 10
6.922187634321562
 20
9.099974591064221
 30
0.0
 10
6.922015061624475
 20
9.132032163141341
 30
0.0
 10
6.921928775813543
 20
9.148060849311808
 30
0.0
  0
SPLINE
  5
FC
330
1F
100
AcDbEntity
  8
0
  6
Continuous
 62
     7
370
    15
100
AcDbSpline
210
0.0
220
0.0
230
1.0
 70
     8
 71
     3
 72
     9
 73
     5
 74
     0
 42
0.00000001
 43
0.00000001
 12
1.0
 22
0.0
 32
0.0
 13
1.0
 23
0.0
 33
0.0
 40
0.0
 40
0.0
 40
0.0
 40
0.0
 40
0.560002460273556
 40
1.0
 40
1.0
 40
1.0
 40
1.0
 10
7.539473448551453
 20
9.088816047046153
 30
0.0
 10
7.554892418312329
 20
9.049620497902124
 30
0.0
 10
7.582426171920027
 20
8.97962875335714
 30
0.0
 10
7.608739913203699
 20
8.909169753657043
 30
0.0
 10
7.620317894629514
 20
8.878167967137415
 30
0.0
  0
SPLINE
  5
FD
330
1F
100
AcDbEntity
  8
0
  6
Continuous
 62
     7
370
    15
100
AcDbSpline
210
0.0
220
0.0
230
1.0
 70
     8
 71
     3
 72
     9
 73
     5
 74
     0
 42
0.00000001
 43
0.00000001
 12
1.0
 22
0.0
 32
0.0
 13
1.0
 23
0.0
 33
0.0
 40
0.0
 40
0.0
 40
0.0
 40
0.0
 40
0.5599986250483777
 40
1.0
 40
1.0
 40
1.0
 40
1.0
 10
7.620317894629514
 20
8.878167967137415
 30
0.0
 10
7.625981581303919
 20
8.862656122373146
 30
0.0
 10
7.636095332340212
 20
8.83495633156932
 30
0.0
 10
7.645995597425985
 20
8.80717955958652
 30
0.0
 10
7.650351727676111
 20
8.794957741722373
 30
0.0
  0
SPLINE
  5
FE
330
1F
100
AcDbEntity
  8
0
  6
Continuous
 62
     7
370
    15
100
AcDbSpline
210
0.0
220
0.0
230
1.0
 70
     8
 71
     3
 72
     9
 73
     5
 74
     0
 42
0.00000001
 43
0.00000001
 12
1.0
 22
0.0
 32
0.0
 13
1.0
 23
0.0
 33
0.0
 40
0.0
 40
0.0
 40
0.0
 40
0.0
 40
0.5601441699930745
 40
1.0
 40
1.0
 40
1.0
 40
1.0
 10
7.650351727676111
 20
8.794957741722373
 30
0.0
 10
7.656901016932977
 20
8.779767901738799
 30
0.0
 10
7.668593166218305
 20
8.75265016884557
 30
0.0
 10
7.686355371817924
 20
8.729100348117873
 30
0.0
 10
7.694168181504698
 20
8.71874182217518
 30
0.0
  0
SPLINE
  5
FF
330
1F
100
AcDbEntity
  8
0
  6
Continuous
 62
     7
370
    15
100
AcDbSpline
210
0.0
220
0.0
230
1.0
 70
     8
 71
     3
 72
     9
 73
     5
 74
     0
 42
0.00000001
 43
0.00000001
 12
1.0
 22
0.0
 32
0.0
 13
1.0
 23
0.0
 33
0.0
 40
0.0
 40
0.0
 40
0.0
 40
0.0
 40
0.5594657802492843
 40
1.0
 40
1.0
 40
1.0
 40
1.0
 10
7.694168181504698
 20
8.71874182217518
 30
0.0
 10
7.699994950822635
 20
8.713110993531206
 30
0.0
 10
7.71040983145276
 20
8.703046341066738
 30
0.0
 10
7.724696645605089
 20
8.701589589833851
 30
0.0
 10
7.730990476130408
 20
8.7009478410661
 30
0.0
  0
SPLINE
  5
100
330
1F
100
AcDbEntity
  8
0
  6
Continuous
 62
     7
370
    15
100
AcDbSpline
210
0.0
220
0.0
230
1.0
 70
     8
 71
     3
 72
    11
 73
     7
 74
     0
 42
0.00000001
 43
0.00000001
 12
1.0
 22
0.0
 32
0.0
 13
1.0
 23
0.0
 33
0.0
 40
0.0
 40
0.0
 40
0.0
 40
0.0
 40
0.2795098015941019
 40
0.5596446911214196
 40
0.779800017423452
 40
1.0
 40
1.0
 40
1.0
 40
1.0
 10
7.730990476130408
 20
8.7009478410661
 30
0.0
 10
7.738026063032235
 20
8.701801592819896
 30
0.0
 10
7.752112971026424
 20
8.703511005634123
 30
0.0
 10
7.767999917299993
 20
8.716025376057546
 30
0.0
 10
7.778145316516226
 20
8.731428097732335
 30
0.0
 10
7.779211046986468
 20
8.742512726907933
 30
0.0
 10
7.779743966259263
 20
8.748055603539875
 30
0.0
  0
SPLINE
  5
101
330
1F
100
AcDbEntity
  8
0
  6
Continuous
 62
     7
370
    15
100
AcDbSpline
210
0.0
220
0.0
230
1.0
 70
     8
 71
     3
 72
     9
 73
     5
 74
     0
 42
0.00000001
 43
0.00000001
 12
1.0
 22
0.0
 32
0.0
 13
1.0
 23
0.0
 33
0.0
 40
0.0
 40
0.0
 40
0.0
 40
0.0
 40
0.5592152285906623
 40
0.9999999999999999
 40
0.9999999999999999
 40
0.9999999999999999
 40
0.9999999999999999
 10
7.779743966259263
 20
8.748055603539875
 30
0.0
 10
7.779102673085924
 20
8.753584482646007
 30
0.0
 10
7.77795589964244
 20
8.763471336264187
 30
0.0
 10
7.77262921179254
 20
8.771832541166598
 30
0.0
 10
7.770281288906252
 20
8.775518032958214
 30
0.0
  0
SPLINE
  5
102
330
1F
100
AcDbEntity
  8
0
  6
Continuous
 62
     7
370
    15
100
AcDbSpline
210
0.0
220
0.0
230
1.0
 70
     8
 71
     3
 72
     9
 73
     5
 74
     0
 42
0.00000001
 43
0.00000001
 12
1.0
 22
0.0
 32
0.0
 13
1.0
 23
0.0
 33
0.0
 40
0.0
 40
0.0
 40
0.0
 40
0.0
 40
0.559874863237449
 40
1.0
 40
1.0
 40
1.0
 40
1.0
 10
7.770281288906252
 20
8.775518032958214
 30
0.0
 10
7.762858445152947
 20
8.78717723327457
 30
0.0
 10
7.749600404400082
 20
8.808001887285537
 30
0.0
 10
7.739820499267259
 20
8.830655340130678
 30
0.0
 10
7.73551611718315
 20
8.840625694162288
 30
0.0
  0
SPLINE
  5
103
330
1F
100
AcDbEntity
  8
0
  6
Continuous
 62
     7
370
    15
100
AcDbSpline
210
0.0
220
0.0
230
1.0
 70
     8
 71
     3
 72
     9
 73
     5
 74
     0
 42
0.00000001
 43
0.00000001
 12
1.0
 22
0.0
 32
0.0
 13
1.0
 23
0.0
 33
0.0
 40
0.0
 40
0.0
 40
0.0
 40
0.0
 40
0.5599968398392882
 40
1.0
 40
1.0
 40
1.0
 40
1.0
 10
7.73551611718315
 20
8.840625694162288
 30
0.0
 10
7.730623546477874
 20
8.853437730947073
 30
0.0
 10
7.721886763772673
 20
8.876316497170935
 30
0.0
 10
7.713280449806217
 20
8.899244643574342
 30
0.0
 10
7.709493644463642
 20
8.909333100448467
 30
0.0
  0
SPLINE
  5
104
330
1F
100
AcDbEntity
  8
0
  6
Continuous
 62
     7
370
    15
100
AcDbSpline
210
0.0
220
0.0
230
1.0
 70
     8
 71
     3
 72
     9
 73
     5
 74
     0
 42
0.00000001
 43
0.00000001
 12
1.0
 22
0.0
 32
0.0
 13
1.0
 23
0.0
 33
0.0
 40
0.0
 40
0.0
 40
0.0
 40
0.0
 40
0.5599996000699093
 40
1.0
 40
1.0
 40
1.0
 40
1.0
 10
7.709493644463642
 20
8.909333100448467
 30
0.0
 10
7.691895067177148
 20
8.95415229249774
 30
0.0
 10
7.66046901386515
 20
9.034186621171681
 30
0.0
 10
7.629157803439032
 20
9.114265944883703
 30
0.0
 10
7.615380858329245
 20
9.149500879343126
 30
0.0
  0
SPLINE
  5
105
330
1F
100
AcDbEntity
  8
0
  6
Continuous
 62
     7
370
    15
100
AcDbSpline
210
0.0
220
0.0
230
1.0
 70
     8
 71
     3
 72
     9
 73
     5
 74
     0
 42
0.00000001
 43
0.00000001
 12
1.0
 22
0.0
 32
0.0
 13
1.0
 23
0.0
 33
0.0
 40
0.0
 40
0.0
 40
0.0
 40
0.0
 40
0.5599712542790402
 40
1.0
 40
1.0
 40
1.0
 40
1.0
 10
7.615380858329245
 20
9.149500879343126
 30
0.0
 10
7.60877938005251
 20
9.165554110776707
 30
0.0
 10
7.596990420840245
 20
9.194222067052873
 30
0.0
 10
7.582190824700109
 20
9.221449955967405
 30
0.0
 10
7.575678576973387
 20
9.233431009775096
 30
0.0
  0
SPLINE
  5
106
330
1F
100
AcDbEntity
  8
0
  6
Continuous
 62
     7
370
    15
100
AcDbSpline
210
0.0
220
0.0
230
1.0
 70
     8
 71
     3
 72
    10
 73
     6
 74
     0
 42
0.00000001
 43
0.00000001
 12
1.0
 22
0.0
 32
0.0
 13
1.0
 23
0.0
 33
0.0
 40
0.0
 40
0.0
 40
0.0
 40
0.0
 40
0.2815445460727711
 40
0.562475778335046
 40
1.0
 40
1.0
 40
1.0
 40
1.0
 10
7.575678576973387
 20
9.233431009775096
 30
0.0
 10
7.573323598507947
 20
9.23753283068113
 30
0.0
 10
7.568618771638494
 20
9.245727537127749
 30
0.0
 10
7.55582085964889
 20
9.257581434590477
 30
0.0
 10
7.543551165876822
 20
9.259384153071604
 30
0.0
 10
7.536079181095654
 20
9.260481970613421
 30
0.0
  0
SPLINE
  5
107
330
1F
100
AcDbEntity
  8
0
  6
Continuous
 62
     7
370
    15
100
AcDbSpline
210
0.0
220
0.0
230
1.0
 70
     8
 71
     3
 72
    10
 73
     6
 74
     0
 42
0.00000001
 43
0.00000001
 12
1.0
 22
0.0
 32
0.0
 13
1.0
 23
0.0
 33
0.0
 40
0.0
 40
0.0
 40
0.0
 40
0.0
 40
0.2807862658940242
 40
0.5606848118926107
 40
1.0
 40
1.0
 40
1.0
 40
1.0
 10
7.536079181095654
 20
9.260481970613421
 30
0.0
 10
7.530358709555625
 20
9.260019985191061
 30
0.0
 10
7.518935852033922
 20
9.259097474936475
 30
0.0
 10
7.500671793146727
 20
9.248204516923806
 30
0.0
 10
7.494110566683251
 20
9.234818820211533
 30
0.0
 10
7.490102792218821
 20
9.226642474863498
 30
0.0
  0
SPLINE
  5
108
330
1F
100
AcDbEntity
  8
0
  6
Continuous
 62
     7
370
    15
100
AcDbSpline
210
0.0
220
0.0
230
1.0
 70
     8
 71
     3
 72
     9
 73
     5
 74
     0
 42
0.00000001
 43
0.00000001
 12
1.0
 22
0.0
 32
0.0
 13
1.0
 23
0.0
 33
0.0
 40
0.0
 40
0.0
 40
0.0
 40
0.0
 40
0.5599177212396087
 40
1.0
 40
1.0
 40
1.0
 40
1.0
 10
7.490102792218821
 20
9.226642474863498
 30
0.0
 10
7.469953931433393
 20
9.173347345674557
 30
0.0
 10
7.433968535684851
 20
9.078163487105211
 30
0.0
 10
7.406453262536976
 20
8.980211185200671
 30
0.0
 10
7.394344278429345
 20
8.937104112968695
 30
0.0
  0
SPLINE
  5
109
330
1F
100
AcDbEntity
  8
0
  6
Continuous
 62
     7
370
    15
100
AcDbSpline
210
0.0
220
0.0
230
1.0
 70
     8
 71
     3
 72
     9
 73
     5
 74
     0
 42
0.00000001
 43
0.00000001
 12
1.0
 22
0.0
 32
0.0
 13
1.0
 23
0.0
 33
0.0
 40
0.0
 40
0.0
 40
0.0
 40
0.0
 40
0.5599990059503235
 40
1.0
 40
1.0
 40
1.0
 40
1.0
 10
7.394344278429345
 20
8.937104112968695
 30
0.0
 10
7.388947345320827
 20
8.919685601598527
 30
0.0
 10
7.379309947662667
 20
8.888581061795623
 30
0.0
 10
7.369393618445179
 20
8.857564375576166
 30
0.0
 10
7.365030423732162
 20
8.843917002807476
 30
0.0
  0
SPLINE
  5
10A
330
1F
100
AcDbEntity
  8
0
  6
Continuous
 62
     7
370
    15
100
AcDbSpline
210
0.0
220
0.0
230
1.0
 70
     8
 71
     3
 72
     9
 73
     5
 74
     0
 42
0.00000001
 43
0.00000001
 12
1.0
 22
0.0
 32
0.0
 13
1.0
 23
0.0
 33
0.0
 40
0.0
 40
0.0
 40
0.0
 40
0.0
 40
0.560393856233645
 40
1.0
 40
1.0
 40
1.0
 40
1.0
 10
7.365030423732162
 20
8.843917002807476
 30
0.0
 10
7.359923166800799
 20
8.82738662907025
 30
0.0
 10
7.350809474931139
 20
8.797888850760678
 30
0.0
 10
7.346970043044528
 20
8.76727403715256
 30
0.0
 10
7.345282205198601
 20
8.75381557700017
 30
0.0
  0
SPLINE
  5
10B
330
1F
100
AcDbEntity
  8
0
  6
Continuous
 62
     7
370
    15
100
AcDbSpline
210
0.0
220
0.0
230
1.0
 70
     8
 71
     3
 72
     9
 73
     5
 74
     0
 42
0.00000001
 43
0.00000001
 12
1.0
 22
0.0
 32
0.0
 13
1.0
 23
0.0
 33
0.0
 40
0.0
 40
0.0
 40
0.0
 40
0.0
 40
0.5590251570062004
 40
1.0
 40
1.0
 40
1.0
 40
1.0
 10
7.345282205198601
 20
8.75381557700017
 30
0.0
 10
7.34614801732182
 20
8.74647952805357
 30
0.0
 10
7.347696806517384
 20
8.733356596366761
 30
0.0
 10
7.356942114964275
 20
8.724070909077293
 30
0.0
 10
7.361019063405072
 20
8.719976154582731
 30
0.0
  0
SPLINE
  5
10C
330
1F
100
AcDbEntity
  8
0
  6
Continuous
 62
     7
370
    15
100
AcDbSpline
210
0.0
220
0.0
230
1.0
 70
     8
 71
     3
 72
     9
 73
     5
 74
     0
 42
0.00000001
 43
0.00000001
 12
1.0
 22
0.0
 32
0.0
 13
1.0
 23
0.0
 33
0.0
 40
0.0
 40
0.0
 40
0.0
 40
0.0
 40
0.5591774646691486
 40
0.9999999999999999
 40
0.9999999999999999
 40
0.9999999999999999
 40
0.9999999999999999
 10
7.361019063405072
 20
8.719976154582731
 30
0.0
 10
7.366988945460251
 20
8.715941212612636
 30
0.0
 10
7.377665130450486
 20
8.708725360356354
 30
0.0
 10
7.390454830311298
 20
8.707896142804847
 30
0.0
 10
7.396092818230064
 20
8.707530605021448
 30
0.0
  0
SPLINE
  5
10D
330
1F
100
AcDbEntity
  8
0
  6
Continuous
 62
     7
370
    15
100
AcDbSpline
210
0.0
220
0.0
230
1.0
 70
     8
 71
     3
 72
    10
 73
     6
 74
     0
 42
0.00000001
 43
0.00000001
 12
1.0
 22
0.0
 32
0.0
 13
1.0
 23
0.0
 33
0.0
 40
0.0
 40
0.0
 40
0.0
 40
0.0
 40
0.2807365512754074
 40
0.560878366175722
 40
1.0
 40
1.0
 40
1.0
 40
1.0
 10
7.396092818230064
 20
8.707530605021448
 30
0.0
 10
7.402007445316223
 20
8.707985458101078
 30
0.0
 10
7.41382416943552
 20
8.708894200660582
 30
0.0
 10
7.432918780309433
 20
8.719824761587859
 30
0.0
 10
7.439813924204938
 20
8.733649677474265
 30
0.0
 10
7.444023517863864
 20
8.742090005788302
 30
0.0
  0
SPLINE
  5
10E
330
1F
100
AcDbEntity
  8
0
  6
Continuous
 62
     7
370
    15
100
AcDbSpline
210
0.0
220
0.0
230
1.0
 70
     8
 71
     3
 72
     9
 73
     5
 74
     0
 42
0.00000001
 43
0.00000001
 12
1.0
 22
0.0
 32
0.0
 13
1.0
 23
0.0
 33
0.0
 40
0.0
 40
0.0
 40
0.0
 40
0.0
 40
0.5599988204883383
 40
1.0
 40
1.0
 40
1.0
 40
1.0
 10
7.444023517863864
 20
8.742090005788302
 30
0.0
 10
7.446507774666144
 20
8.753266844534153
 30
0.0
 10
7.450943956871159
 20
8.773225527190132
 30
0.0
 10
7.455423666067893
 20
8.793174483349896
 30
0.0
 10
7.457394743398326
 20
8.80195204759022
 30
0.0
  0
SPLINE
  5
10F
330
1F
100
AcDbEntity
  8
0
  6
Continuous
 62
     7
370
    15
100
AcDbSpline
210
0.0
220
0.0
230
1.0
 70
     8
 71
     3
 72
     9
 73
     5
 74
     0
 42
0.00000001
 43
0.00000001
 12
1.0
 22
0.0
 32
0.0
 13
1.0
 23
0.0
 33
0.0
 40
0.0
 40
0.0
 40
0.0
 40
0.0
 40
0.5599958091449844
 40
1.0
 40
1.0
 40
1.0
 40
1.0
 10
7.457394743398326
 20
8.80195204759022
 30
0.0
 10
7.463384879277237
 20
8.822857910159406
 30
0.0
 10
7.474081630540532
 20
8.860190086986059
 30
0.0
 10
7.484493128175191
 20
8.897602773569568
 30
0.0
 10
7.489074230767518
 20
8.91406451245746
 30
0.0
  0
SPLINE
  5
110
330
1F
100
AcDbEntity
  8
0
  6
Continuous
 62
     7
370
    15
100
AcDbSpline
210
0.0
220
0.0
230
1.0
 70
     8
 71
     3
 72
     9
 73
     5
 74
     0
 42
0.00000001
 43
0.00000001
 12
1.0
 22
0.0
 32
0.0
 13
1.0
 23
0.0
 33
0.0
 40
0.0
 40
0.0
 40
0.0
 40
0.0
 40
0.5599999705381637
 40
1.0
 40
1.0
 40
1.0
 40
1.0
 10
7.489074230767518
 20
8.91406451245746
 30
0.0
 10
7.497849004411662
 20
8.94686849067557
 30
0.0
 10
7.513518243886282
 20
9.005447026289753
 30
0.0
 10
7.531542691201656
 20
9.063342178408297
 30
0.0
 10
7.539473448551453
 20
9.088816047046153
 30
0.0
  0
SPLINE
  5
111
330
1F
100
AcDbEntity
  8
0
  6
Continuous
 62
     7
370
    15
100
AcDbSpline
210
0.0
220
0.0
230
1.0
 70
     8
 71
     3
 72
    13
 73
     9
 74
     0
 42
0.00000001
 43
0.00000001
 12
1.0
 22
0.0
 32
0.0
 13
1.0
 23
0.0
 33
0.0
 40
0.0
 40
0.0
 40
0.0
 40
0.0
 40
0.2505261837541484
 40
0.5007955520069175
 40
0.6259494638739268
 40
0.7508856931932774
 40
0.8753500828084925
 40
1.0
 40
1.0
 40
1.0
 40
1.0
 10
6.509272337855928
 20
9.158037880722956
 30
0.0
 10
6.509046400779706
 20
9.168616549316813
 30
0.0
 10
6.508594758236361
 20
9.18976304226446
 30
0.0
 10
6.5042624292024
 20
9.216048958497087
 30
0.0
 10
6.496739077096965
 20
9.23590310217873
 30
0.0
 10
6.487989206112955
 20
9.249276226282293
 30
0.0
 10
6.474613684912465
 20
9.2589360955099
 30
0.0
 10
6.463985475607242
 20
9.259966423133834
 30
0.0
 10
6.458667413281669
 20
9.260481970613421
 30
0.0
  0
CIRCLE
  5
112
330
1F
100
AcDbEntity
  8
0
  6
Continuous
 62
     7
370
    15
100
AcDbCircle
 10
9.187578486
 20
7.4657005881
 30
0.0
 40
0.1181102362204722
  0
LINE
  5
113
330
1F
100
AcDbEntity
  8
0
  6
Continuous
 62
     7
370
    15
100
AcDbLine
 10
9.1144474277
 20
7.0042155352
 30
0.0
 11
7.4144472795
 21
7.0042155352
 31
0.0
  0
LINE
  5
114
330
1F
100
AcDbEntity
  8
0
  6
Continuous
 62
     7
370
    15
100
AcDbLine
 10
7.7643460508
 20
7.5838108663
 30
0.0
 11
8.9231251712
 21
7.5838108663
 31
0.0
  0
LINE
  5
115
330
1F
100
AcDbEntity
  8
0
  6
Continuous
 62
     7
370
    15
100
AcDbLine
 10
7.4144472795
 20
7.0042155352
 30
0.0
 11
7.4144472795
 21
7.8897912516
 31
0.0
  0
LINE
  5
116
330
1F
100
AcDbEntity
  8
0
  6
Continuous
 62
     7
370
    15
100
AcDbLine
 10
7.4144472795
 20
7.8897912516
 30
0.0
 11
9.1144474277
 21
7.8897912516
 31
0.0
  0
ARC
  5
117
330
1F
100
AcDbEntity
  8
0
  6
Continuous
 62
     7
370
    15
100
AcDbCircle
 10
9.1144473093
 20
7.6897911964
 30
0.0
 40
0.2000000000000002
100
AcDbArc
 50
0.0
 51
90.0
  0
LINE
  5
118
330
1F
100
AcDbEntity
  8
0
  6
Continuous
 62
     7
370
    15
100
AcDbLine
 10
9.3144474106
 20
7.6897912687
 30
0.0
 11
9.3144474106
 21
7.2042155181
 31
0.0
  0
ARC
  5
119
330
1F
100
AcDbEntity
  8
0
  6
Continuous
 62
     7
370
    15
100
AcDbCircle
 10
9.1144473093
 20
7.2042154488
 30
0.0
 40
0.2000000000000002
100
AcDbArc
 50
270.0
 51
0.0
  0
ARC
  5
11A
330
1F
100
AcDbEntity
  8
0
  6
Continuous
 62
     7
370
    15
100
AcDbCircle
 10
7.7643460325
 20
7.4657005881
 30
0.0
 40
0.1181102362204731
100
AcDbArc
 50
90.0
 51
270.0
  0
LINE
  5
11B
330
1F
100
AcDbEntity
  8
0
  6
Continuous
 62
     7
370
    15
100
AcDbLine
 10
7.7643460508
 20
7.3475902085
 30
0.0
 11
8.9231251712
 21
7.3475902085
 31
0.0
  0
ARC
  5
11C
330
1F
100
AcDbEntity
  8
0
  6
Continuous
 62
     7
370
    15
100
AcDbCircle
 10
8.9231251657
 20
7.4657005881
 30
0.0
 40
0.1181102362204731
100
AcDbArc
 50
270.0
 51
90.0
  0
CIRCLE
  5
11D
330
1F
100
AcDbEntity
  8
0
  6
Continuous
 62
     7
370
    15
100
AcDbCircle
 10
9.1676883072
 20
6.4748876212
 30
0.0
 40
0.1181102362204722
  0
LINE
  5
11E
330
1F
100
AcDbEntity
  8
0
  6
Continuous
 62
     7
370
    15
100
AcDbLine
 10
9.0945570174
 20
6.0134024212
 30
0.0
 11
7.3945571626
 21
6.0134024212
 31
0.0
  0
LINE
  5
11F
330
1F
100
AcDbEntity
  8
0
  6
Continuous
 62
     7
370
    15
100
AcDbLine
 10
7.7444558606
 20
6.5929977523
 30
0.0
 11
8.9032350543
 21
6.5929977523
 31
0.0
  0
LINE
  5
120
330
1F
100
AcDbEntity
  8
0
  6
Continuous
 62
     7
370
    15
100
AcDbLine
 10
7.3945571626
 20
6.0134024212
 30
0.0
 11
7.3945571626
 21
6.8989781376
 31
0.0
  0
ARC
  5
121
330
1F
100
AcDbEntity
  8
0
  6
Continuous
 62
     7
370
    15
100
AcDbCircle
 10
9.0945571305
 20
6.6989782295
 30
0.0
 40
0.2000000000000011
100
AcDbArc
 50
0.0
 51
90.0
  0
LINE
  5
122
330
1F
100
AcDbEntity
  8
0
  6
Continuous
 62
     7
370
    15
100
AcDbLine
 10
9.2945570003
 20
6.6989781547
 30
0.0
 11
9.2945570003
 21
6.2134024041
 31
0.0
  0
ARC
  5
123
330
1F
100
AcDbEntity
  8
0
  6
Continuous
 62
     7
370
    15
100
AcDbCircle
 10
9.0945571305
 20
6.2134024819
 30
0.0
 40
0.2000000000000011
100
AcDbArc
 50
270.0
 51
0.0
  0
ARC
  5
124
330
1F
100
AcDbEntity
  8
0
  6
Continuous
 62
     7
370
    15
100
AcDbCircle
 10
7.7444558537
 20
6.4748876212
 30
0.0
 40
0.1181102362204731
100
AcDbArc
 50
90.0
 51
270.0
  0
LINE
  5
125
330
1F
100
AcDbEntity
  8
0
  6
Continuous
 62
     7
370
    15
100
AcDbLine
 10
7.7444558606
 20
6.3567773878
 30
0.0
 11
8.9032350543
 21
6.3567773878
 31
0.0
  0
ARC
  5
126
330
1F
100
AcDbEntity
  8
0
  6
Continuous
 62
     7
370
    15
100
AcDbCircle
 10
8.9032349869
 20
6.4748876212
 30
0.0
 40
0.1181102362204731
100
AcDbArc
 50
270.0
 51
90.0
  0
LINE
  5
127
330
1F
100
AcDbEntity
  8
0
  6
Continuous
 62
     7
370
    15
100
AcDbLine
 10
7.3945571626
 20
6.8989781376
 30
0.0
 11
9.0945570174
 21
6.8989781376
 31
0.0
  0
CIRCLE
  5
128
330
1F
100
AcDbEntity
  8
0
  6
Continuous
 62
     7
370
    15
100
AcDbCircle
 10
7.1905024665
 20
7.4566604856
 30
0.0
 40
0.1181102362204722
  0
LINE
  5
129
330
1F
100
AcDbEntity
  8
0
  6
Continuous
 62
     7
370
    15
100
AcDbLine
 10
5.7672699879
 20
7.5747707308
 30
0.0
 11
6.9260491449
 21
7.5747707308
 31
0.0
  0
LINE
  5
12A
330
1F
100
AcDbEntity
  8
0
  6
Continuous
 62
     7
370
    15
100
AcDbLine
 10
5.4173712899
 20
6.9951753996
 30
0.0
 11
5.4173712899
 21
7.880751116
 31
0.0
  0
LINE
  5
12B
330
1F
100
AcDbEntity
  8
0
  6
Continuous
 62
     7
370
    15
100
AcDbLine
 10
5.4173712899
 20
7.880751116
 30
0.0
 11
7.1173712914
 21
7.880751116
 31
0.0
  0
ARC
  5
12C
330
1F
100
AcDbEntity
  8
0
  6
Continuous
 62
     7
370
    15
100
AcDbCircle
 10
7.1173712898
 20
7.6807510939
 30
0.0
 40
0.2000000000000002
100
AcDbArc
 50
0.0
 51
90.0
  0
LINE
  5
12D
330
1F
100
AcDbEntity
  8
0
  6
Continuous
 62
     7
370
    15
100
AcDbLine
 10
7.3173712743
 20
7.6807511331
 30
0.0
 11
7.3173712743
 21
7.1951753825
 31
0.0
  0
ARC
  5
12E
330
1F
100
AcDbEntity
  8
0
  6
Continuous
 62
     7
370
    15
100
AcDbCircle
 10
7.1173712898
 20
7.1951753463
 30
0.0
 40
0.2000000000000002
100
AcDbArc
 50
270.0
 51
0.0
  0
ARC
  5
12F
330
1F
100
AcDbEntity
  8
0
  6
Continuous
 62
     7
370
    15
100
AcDbCircle
 10
5.7672700129
 20
7.4566604856
 30
0.0
 40
0.1181102362204722
100
AcDbArc
 50
90.0
 51
270.0
  0
LINE
  5
130
330
1F
100
AcDbEntity
  8
0
  6
Continuous
 62
     7
370
    15
100
AcDbLine
 10
5.7672699879
 20
7.3385503663
 30
0.0
 11
6.9260491449
 21
7.3385503663
 31
0.0
  0
LINE
  5
131
330
1F
100
AcDbEntity
  8
0
  6
Continuous
 62
     7
370
    15
100
AcDbLine
 10
7.1173712914
 20
6.9951753996
 30
0.0
 11
5.4173712899
 21
6.9951753996
 31
0.0
  0
ARC
  5
132
330
1F
100
AcDbEntity
  8
0
  6
Continuous
 62
     7
370
    15
100
AcDbCircle
 10
6.9260491461
 20
7.4566604856
 30
0.0
 40
0.1181102362204722
100
AcDbArc
 50
270.0
 51
90.0
  0
LINE
  5
133
330
1F
100
AcDbEntity
  8
0
  6
Continuous
 62
     7
370
    15
100
AcDbLine
 10
5.7667337074
 20
6.6166298793
 30
0.0
 11
6.9255128277
 21
6.6166298793
 31
0.0
  0
LINE
  5
134
330
1F
100
AcDbEntity
  8
0
  6
Continuous
 62
     7
370
    15
100
AcDbLine
 10
7.1168349742
 20
6.0370345482
 30
0.0
 11
5.4168349361
 21
6.0370345482
 31
0.0
  0
LINE
  5
135
330
1F
100
AcDbEntity
  8
0
  6
Continuous
 62
     7
370
    15
100
AcDbLine
 10
5.4168349361
 20
6.9226102646
 30
0.0
 11
7.1168349742
 21
6.9226102646
 31
0.0
  0
CIRCLE
  5
136
330
1F
100
AcDbEntity
  8
0
  6
Continuous
 62
     7
370
    15
100
AcDbCircle
 10
7.1899661483
 20
6.4985196086
 30
0.0
 40
0.1181102362204722
  0
LINE
  5
137
330
1F
100
AcDbEntity
  8
0
  6
Continuous
 62
     7
370
    15
100
AcDbLine
 10
5.7667337074
 20
6.3804095148
 30
0.0
 11
6.9255128277
 21
6.3804095148
 31
0.0
  0
ARC
  5
138
330
1F
100
AcDbEntity
  8
0
  6
Continuous
 62
     7
370
    15
100
AcDbCircle
 10
6.925512828
 20
6.4985196086
 30
0.0
 40
0.1181102362204722
100
AcDbArc
 50
270.0
 51
90.0
  0
LINE
  5
139
330
1F
100
AcDbEntity
  8
0
  6
Continuous
 62
     7
370
    15
100
AcDbLine
 10
5.4168349361
 20
6.0370345482
 30
0.0
 11
5.4168349361
 21
6.9226102646
 31
0.0
  0
LINE
  5
13A
330
1F
100
AcDbEntity
  8
0
  6
Continuous
 62
     7
370
    15
100
AcDbLine
 10
7.3168349938
 20
6.7226102817
 30
0.0
 11
7.3168349938
 21
6.2370345311
 31
0.0
  0
ARC
  5
13B
330
1F
100
AcDbEntity
  8
0
  6
Continuous
 62
     7
370
    15
100
AcDbCircle
 10
7.1168349716
 20
6.2370344693
 30
0.0
 40
0.2000000000000002
100
AcDbArc
 50
270.0
 51
0.0
  0
ARC
  5
13C
330
1F
100
AcDbEntity
  8
0
  6
Continuous
 62
     7
370
    15
100
AcDbCircle
 10
5.7667336948
 20
6.4985196086
 30
0.0
 40
0.1181102362204722
100
AcDbArc
 50
90.0
 51
270.0
  0
ARC
  5
13D
330
1F
100
AcDbEntity
  8
0
  6
Continuous
 62
     7
370
    15
100
AcDbCircle
 10
7.1168349716
 20
6.7226102169
 30
0.0
 40
0.2000000000000002
100
AcDbArc
 50
0.0
 51
90.0
  0
MTEXT
  5
13F
330
1F
100
AcDbEntity
  8
0
  6
Continuous
 62
     7
100
AcDbMText
 10
0.0
 20
0.5307595909
 30
0.0
 40
0.1903
 41
0.0
 71
     1
 72
     1
  1
SolidWorks Student Edition.
  7
SLDTEXTSTYLE0
 73
     1
 44
1.0
  0
MTEXT
  5
140
330
1F
100
AcDbEntity
  8
0
  6
Continuous
 62
     7
100
AcDbMText
 10
0.0
 20
0.2453095909
 30
0.0
 40
0.1903
 41
0.0
 71
     1
 72
     1
  1
For Academic Use Only.
  7
SLDTEXTSTYLE0
 73
     1
 44
1.0
  0
ENDSEC
  0
SECTION
  2
OBJECTS
  0
DICTIONARY
  5
C
330
0
100
AcDbDictionary
281
     1
  3
ACAD_GROUP
350
D
  3
ACAD_LAYOUT
350
1A
  3
ACAD_MLINESTYLE
350
17
  3
ACAD_PLOTSETTINGS
350
19
  3
ACAD_PLOTSTYLENAME
350
E
  0
DICTIONARY
  5
D
102
{ACAD_REACTORS
330
C
102
}
330
C
100
AcDbDictionary
281
     1
  0
DICTIONARY
  5
1A
102
{ACAD_REACTORS
330
C
102
}
330
C
100
AcDbDictionary
281
     1
  3
Layout1
350
1E
  3
Layout2
350
26
  3
Model
350
22
  0
DICTIONARY
  5
17
102
{ACAD_REACTORS
330
C
102
}
330
C
100
AcDbDictionary
281
     1
  3
Standard
350
18
  0
DICTIONARY
  5
19
102
{ACAD_REACTORS
330
C
102
}
330
C
100
AcDbDictionary
281
     1
  0
ACDBDICTIONARYWDFLT
  5
E
102
{ACAD_REACTORS
330
C
102
}
330
C
100
AcDbDictionary
281
     1
  3
Normal
350
F
100
AcDbDictionaryWithDefault
340
F
  0
LAYOUT
  5
1E
102
{ACAD_REACTORS
330
1A
102
}
330
1A
100
AcDbPlotSettings
  1

  2
none_device
  4

  6

 40
0.0
 41
0.0
 42
0.0
 43
0.0
 44
0.0
 45
0.0
 46
0.0
 47
0.0
 48
0.0
 49
0.0
140
0.0
141
0.0
142
1.0
143
1.0
 70
   688
 72
     0
 73
     0
 74
     5
  7

 75
    16
147
1.0
148
0.0
149
0.0
100
AcDbLayout
  1
Layout1
 70
     1
 71
     1
 10
0.0
 20
0.0
 11
12.0
 21
9.0
 12
0.0
 22
0.0
 32
0.0
 14
1.0000000000E+20
 24
1.0000000000E+20
 34
1.0000000000E+20
 15
-1.0000000000E+20
 25
-1.0000000000E+20
 35
-1.0000000000E+20
146
0.0
 13
0.0
 23
0.0
 33
0.0
 16
1.0
 26
0.0
 36
0.0
 17
0.0
 27
1.0
 37
0.0
 76
     0
330
1B
  0
LAYOUT
  5
26
102
{ACAD_REACTORS
330
1A
102
}
330
1A
100
AcDbPlotSettings
  1

  2
none_device
  4

  6

 40
0.0
 41
0.0
 42
0.0
 43
0.0
 44
0.0
 45
0.0
 46
0.0
 47
0.0
 48
0.0
 49
0.0
140
0.0
141
0.0
142
1.0
143
1.0
 70
   688
 72
     0
 73
     0
 74
     5
  7

 75
    16
147
1.0
148
0.0
149
0.0
100
AcDbLayout
  1
Layout2
 70
     1
 71
     2
 10
0.0
 20
0.0
 11
0.0
 21
0.0
 12
0.0
 22
0.0
 32
0.0
 14
0.0
 24
0.0
 34
0.0
 15
0.0
 25
0.0
 35
0.0
146
0.0
 13
0.0
 23
0.0
 33
0.0
 16
1.0
 26
0.0
 36
0.0
 17
0.0
 27
1.0
 37
0.0
 76
     0
330
23
  0
LAYOUT
  5
22
102
{ACAD_REACTORS
330
1A
102
}
330
1A
100
AcDbPlotSettings
  1

  2
none_device
  4

  6

 40
0.0
 41
0.0
 42
0.0
 43
0.0
 44
0.0
 45
0.0
 46
0.0
 47
0.0
 48
0.0
 49
0.0
140
0.0
141
0.0
142
1.0
143
1.0
 70
  1712
 72
     0
 73
     0
 74
     0
  7

 75
     0
147
1.0
148
0.0
149
0.0
100
AcDbLayout
  1
Model
 70
     1
 71
     0
 10
0.0
 20
0.0
 11
17.0
 21
11.0
 12
0.0
 22
0.0
 32
0.0
 14
0.0
 24
0.0
 34
0.0
 15
17.0
 25
11.0
 35
0.0
146
0.0
 13
0.0
 23
0.0
 33
0.0
 16
1.0
 26
0.0
 36
0.0
 17
0.0
 27
1.0
 37
0.0
 76
     0
330
1F
331
29
  0
MLINESTYLE
  5
18
102
{ACAD_REACTORS
330
17
102
}
330
17
100
AcDbMlineStyle
  2
Standard
 70
     0
  3

 62
   256
 51
90.0
 52
90.0
 71
     2
 49
0.5
 62
   256
  6
BYLAYER
 49
-0.5
 62
   256
  6
BYLAYER
  0
ACDBPLACEHOLDER
  5
F
102
{ACAD_REACTORS
330
E
102
}
330
E
  0
ENDSEC
  0
EOF
