  0
SECTION
  2
HEADER
  9
$ACADVER
  1
AC1015
  9
$ACADMAINTVER
 70
     6
  9
$DWGCODEPAGE
  3
ANSI_1252
  9
$INSBASE
 10
0.0
 20
0.0
 30
0.0
  9
$EXTMIN
 10
0.0
 20
0.0
 30
0.0
  9
$EXTMAX
 10
17.0
 20
11.0
 30
0.0
  9
$LIMMIN
 10
0.0
 20
0.0
  9
$LIMMAX
 10
17.0
 20
11.0
  9
$ORTHOMODE
 70
     0
  9
$REGENMODE
 70
     1
  9
$FILLMODE
 70
     1
  9
$QTEXTMODE
 70
     0
  9
$MIRRTEXT
 70
     1
  9
$LTSCALE
 40
1.0
  9
$ATTMODE
 70
     1
  9
$TEXTSIZE
 40
0.125
  9
$TRACEWID
 40
0.05
  9
$TEXTSTYLE
  7
Standard
  9
$CLAYER
  8
0
  9
$CELTYPE
  6
ByLayer
  9
$CECOLOR
 62
   256
  9
$CELTSCALE
 40
1.0
  9
$DISPSILH
 70
     0
  9
$DIMSCALE
 40
1.0
  9
$DIMASZ
 40
0.13
  9
$DIMEXO
 40
0.05
  9
$DIMDLI
 40
0.38
  9
$DIMRND
 40
0.0
  9
$DIMDLE
 40
0.0
  9
$DIMEXE
 40
0.125
  9
$DIMTP
 40
0.0
  9
$DIMTM
 40
0.0
  9
$DIMTXT
 40
0.125
  9
$DIMCEN
 40
0.09
  9
$DIMTSZ
 40
0.0
  9
$DIMTOL
 70
     0
  9
$DIMLIM
 70
     0
  9
$DIMTIH
 70
     1
  9
$DIMTOH
 70
     1
  9
$DIMSE1
 70
     0
  9
$DIMSE2
 70
     0
  9
$DIMTAD
 70
     0
  9
$DIMZIN
 70
     0
  9
$DIMBLK
  1

  9
$DIMASO
 70
     1
  9
$DIMSHO
 70
     1
  9
$DIMPOST
  1

  9
$DIMAPOST
  1

  9
$DIMALT
 70
     0
  9
$DIMALTD
 70
     2
  9
$DIMALTF
 40
25.4
  9
$DIMLFAC
 40
4.0
  9
$DIMTOFL
 70
     0
  9
$DIMTVP
 40
0.0
  9
$DIMTIX
 70
     0
  9
$DIMSOXD
 70
     0
  9
$DIMSAH
 70
     0
  9
$DIMBLK1
  1

  9
$DIMBLK2
  1

  9
$DIMSTYLE
  2
Standard
  9
$DIMCLRD
 70
     0
  9
$DIMCLRE
 70
     0
  9
$DIMCLRT
 70
     0
  9
$DIMTFAC
 40
1.0
  9
$DIMGAP
 40
0.06
  9
$DIMJUST
 70
     0
  9
$DIMSD1
 70
     0
  9
$DIMSD2
 70
     0
  9
$DIMTOLJ
 70
     1
  9
$DIMTZIN
 70
     0
  9
$DIMALTZ
 70
     0
  9
$DIMALTTZ
 70
     0
  9
$DIMUPT
 70
     0
  9
$DIMDEC
 70
     2
  9
$DIMTDEC
 70
     2
  9
$DIMALTU
 70
     2
  9
$DIMALTTD
 70
     2
  9
$DIMTXSTY
  7
Standard
  9
$DIMAUNIT
 70
     0
  9
$DIMADEC
 70
     2
  9
$DIMALTRND
 40
0.0
  9
$DIMAZIN
 70
     0
  9
$DIMDSEP
 70
    46
  9
$DIMATFIT
 70
     3
  9
$DIMFRAC
 70
     0
  9
$DIMLDRBLK
  1

  9
$DIMLUNIT
 70
     2
  9
$DIMLWD
 70
    -2
  9
$DIMLWE
 70
    -2
  9
$DIMTMOVE
 70
     0
  9
$LUNITS
 70
     2
  9
$LUPREC
 70
     2
  9
$SKETCHINC
 40
0.1
  9
$FILLETRAD
 40
0.5
  9
$AUNITS
 70
     0
  9
$AUPREC
 70
     2
  9
$MENU
  1
.
  9
$ELEVATION
 40
0.0
  9
$PELEVATION
 40
0.0
  9
$THICKNESS
 40
0.0
  9
$LIMCHECK
 70
     0
  9
$CHAMFERA
 40
0.5
  9
$CHAMFERB
 40
0.5
  9
$CHAMFERC
 40
1.0
  9
$CHAMFERD
 40
0.0
  9
$SKPOLY
 70
     0
  9
$TDCREATE
 40
2456811.540055625
  9
$TDUCREATE
 40
2456811.706722292
  9
$TDUPDATE
 40
2456811.540055984
  9
$TDUUPDATE
 40
2456811.706722651
  9
$TDINDWG
 40
0.0000000116
  9
$TDUSRTIMER
 40
0.0000000116
  9
$USRTIMER
 70
     1
  9
$ANGBASE
 50
0.0
  9
$ANGDIR
 70
     0
  9
$PDMODE
 70
     0
  9
$PDSIZE
 40
-1.0
  9
$PLINEWID
 40
0.0
  9
$SPLFRAME
 70
     0
  9
$SPLINETYPE
 70
     6
  9
$SPLINESEGS
 70
     8
  9
$HANDSEED
  5
1AE
  9
$SURFTAB1
 70
     6
  9
$SURFTAB2
 70
     6
  9
$SURFTYPE
 70
     6
  9
$SURFU
 70
     6
  9
$SURFV
 70
     6
  9
$UCSBASE
  2

  9
$UCSNAME
  2

  9
$UCSORG
 10
0.0
 20
0.0
 30
0.0
  9
$UCSXDIR
 10
1.0
 20
0.0
 30
0.0
  9
$UCSYDIR
 10
0.0
 20
1.0
 30
0.0
  9
$UCSORTHOREF
  2

  9
$UCSORTHOVIEW
 70
     0
  9
$UCSORGTOP
 10
0.0
 20
0.0
 30
0.0
  9
$UCSORGBOTTOM
 10
0.0
 20
0.0
 30
0.0
  9
$UCSORGLEFT
 10
0.0
 20
0.0
 30
0.0
  9
$UCSORGRIGHT
 10
0.0
 20
0.0
 30
0.0
  9
$UCSORGFRONT
 10
0.0
 20
0.0
 30
0.0
  9
$UCSORGBACK
 10
0.0
 20
0.0
 30
0.0
  9
$PUCSBASE
  2

  9
$PUCSNAME
  2

  9
$PUCSORG
 10
0.0
 20
0.0
 30
0.0
  9
$PUCSXDIR
 10
1.0
 20
0.0
 30
0.0
  9
$PUCSYDIR
 10
0.0
 20
1.0
 30
0.0
  9
$PUCSORTHOREF
  2

  9
$PUCSORTHOVIEW
 70
     0
  9
$PUCSORGTOP
 10
0.0
 20
0.0
 30
0.0
  9
$PUCSORGBOTTOM
 10
0.0
 20
0.0
 30
0.0
  9
$PUCSORGLEFT
 10
0.0
 20
0.0
 30
0.0
  9
$PUCSORGRIGHT
 10
0.0
 20
0.0
 30
0.0
  9
$PUCSORGFRONT
 10
0.0
 20
0.0
 30
0.0
  9
$PUCSORGBACK
 10
0.0
 20
0.0
 30
0.0
  9
$USERI1
 70
     0
  9
$USERI2
 70
     0
  9
$USERI3
 70
     0
  9
$USERI4
 70
     0
  9
$USERI5
 70
     0
  9
$USERR1
 40
0.0
  9
$USERR2
 40
0.0
  9
$USERR3
 40
0.0
  9
$USERR4
 40
0.0
  9
$USERR5
 40
0.0
  9
$WORLDVIEW
 70
     1
  9
$SHADEDGE
 70
     3
  9
$SHADEDIF
 70
    70
  9
$TILEMODE
 70
     1
  9
$MAXACTVP
 70
    64
  9
$PINSBASE
 10
0.0
 20
0.0
 30
0.0
  9
$PLIMCHECK
 70
     0
  9
$PEXTMIN
 10
1.0000000000E+20
 20
1.0000000000E+20
 30
1.0000000000E+20
  9
$PEXTMAX
 10
-1.0000000000E+20
 20
-1.0000000000E+20
 30
-1.0000000000E+20
  9
$PLIMMIN
 10
0.0
 20
0.0
  9
$PLIMMAX
 10
12.0
 20
9.0
  9
$UNITMODE
 70
     0
  9
$VISRETAIN
 70
     1
  9
$PLINEGEN
 70
     0
  9
$PSLTSCALE
 70
     1
  9
$TREEDEPTH
 70
  3020
  9
$CMLSTYLE
  2
Standard
  9
$CMLJUST
 70
     0
  9
$CMLSCALE
 40
1.0
  9
$PROXYGRAPHICS
 70
     1
  9
$MEASUREMENT
 70
     0
  9
$CELWEIGHT
370
    -1
  9
$ENDCAPS
280
     0
  9
$JOINSTYLE
280
     0
  9
$LWDISPLAY
290
     1
  9
$INSUNITS
 70
     1
  9
$HYPERLINKBASE
  1

  9
$STYLESHEET
  1

  9
$XEDIT
290
     1
  9
$CEPSNTYPE
380
     0
  9
$PSTYLEMODE
290
     1
  9
$FINGERPRINTGUID
  2
{2C29DC01-30D1-4037-9397-83BCCE27BB94}
  9
$VERSIONGUID
  2
{FAEB1C32-E019-11D5-929B-00C0DF256EC4}
  9
$EXTNAMES
290
     1
  9
$PSVPSCALE
 40
0.0
  9
$OLESTARTUP
290
     0
  0
ENDSEC
  0
SECTION
  2
CLASSES
  0
CLASS
  1
ACDBDICTIONARYWDFLT
  2
AcDbDictionaryWithDefault
  3
ObjectDBX Classes
 90
        0
280
     0
281
     0
  0
CLASS
  1
VISUALSTYLE
  2
AcDbVisualStyle
  3
ObjectDBX Classes
 90
     4095
280
     0
281
     0
  0
CLASS
  1
MATERIAL
  2
AcDbMaterial
  3
ObjectDBX Classes
 90
     1153
280
     0
281
     0
  0
CLASS
  1
ACDBPLACEHOLDER
  2
AcDbPlaceHolder
  3
ObjectDBX Classes
 90
        0
280
     0
281
     0
  0
CLASS
  1
LAYOUT
  2
AcDbLayout
  3
ObjectDBX Classes
 90
        0
280
     0
281
     0
  0
ENDSEC
  0
SECTION
  2
TABLES
  0
TABLE
  2
VPORT
  5
8
330
0
100
AcDbSymbolTable
 70
     1
  0
VPORT
  5
29
330
8
100
AcDbSymbolTableRecord
100
AcDbViewportTableRecord
  2
*Active
 70
     0
 10
0.0
 20
0.0
 11
1.0
 21
1.0
 12
8.5
 22
5.5
 13
0.0
 23
0.0
 14
0.5
 24
0.5
 15
0.5
 25
0.5
 16
0.0
 26
0.0
 36
1.0
 17
0.0
 27
0.0
 37
0.0
 40
11.0
 41
1.5454545455
 42
50.0
 43
0.0
 44
0.0
 50
0.0
 51
0.0
 71
     0
 72
  2000
 73
     1
 74
     3
 75
     0
 76
     0
 77
     0
 78
     0
281
     0
 65
     1
110
0.0
120
0.0
130
0.0
111
1.0
121
0.0
131
0.0
112
0.0
122
1.0
132
0.0
 79
     0
146
0.0
  0
ENDTAB
  0
TABLE
  2
LTYPE
  5
5
330
0
100
AcDbSymbolTable
 70
     6
  0
LTYPE
  5
14
330
5
100
AcDbSymbolTableRecord
100
AcDbLinetypeTableRecord
  2
ByBlock
 70
     0
  3

 72
    65
 73
     0
 40
0.0
  0
LTYPE
  5
15
330
5
100
AcDbSymbolTableRecord
100
AcDbLinetypeTableRecord
  2
ByLayer
 70
     0
  3

 72
    65
 73
     0
 40
0.0
  0
LTYPE
  5
16
330
5
100
AcDbSymbolTableRecord
100
AcDbLinetypeTableRecord
  2
Continuous
 70
     0
  3
Solid line
 72
    65
 73
     0
 40
0.0
  0
LTYPE
  5
3F
330
5
100
AcDbSymbolTableRecord
100
AcDbLinetypeTableRecord
  2
HIDDEN
 70
     0
  3
Hidden __ __ __ __ __ __ __ __ __ __ __ __ __ __
 72
    65
 73
     2
 40
0.075
 49
0.05
 74
     0
 49
-0.025
 74
     0
  0
LTYPE
  5
40
330
5
100
AcDbSymbolTableRecord
100
AcDbLinetypeTableRecord
  2
PHANTOM
 70
     0
  3
Phantom ______  __  __  ______  __  __  ______
 72
    65
 73
     6
 40
0.5
 49
0.25
 74
     0
 49
-0.05
 74
     0
 49
0.05
 74
     0
 49
-0.05
 74
     0
 49
0.05
 74
     0
 49
-0.05
 74
     0
  0
LTYPE
  5
41
330
5
100
AcDbSymbolTableRecord
100
AcDbLinetypeTableRecord
  2
CENTER
 70
     0
  3
Center ____ _ ____ _ ____ _ ____ _ ____ _ ____
 72
    65
 73
     4
 40
0.4
 49
0.25
 74
     0
 49
-0.05
 74
     0
 49
0.05
 74
     0
 49
-0.05
 74
     0
  0
LTYPE
  5
42
330
5
100
AcDbSymbolTableRecord
100
AcDbLinetypeTableRecord
  2
CENTERX2
 70
     0
  3
Center (2x) ________  __  ________  __  _____
 72
    65
 73
     4
 40
0.8
 49
0.5
 74
     0
 49
-0.1
 74
     0
 49
0.1
 74
     0
 49
-0.1
 74
     0
  0
LTYPE
  5
43
330
5
100
AcDbSymbolTableRecord
100
AcDbLinetypeTableRecord
  2
DOT2
 70
     0
  3
Dot (.5x) ........................................
 72
    65
 73
     2
 40
0.025
 49
0.0
 74
     0
 49
-0.025
 74
     0
  0
ENDTAB
  0
TABLE
  2
LAYER
  5
2
330
0
100
AcDbSymbolTable
 70
     1
  0
LAYER
  5
10
330
2
100
AcDbSymbolTableRecord
100
AcDbLayerTableRecord
  2
0
 70
     0
 62
     7
  6
Continuous
370
    -3
390
F
  0
ENDTAB
  0
TABLE
  2
STYLE
  5
3
330
0
100
AcDbSymbolTable
 70
     2
  0
STYLE
  5
11
330
3
100
AcDbSymbolTableRecord
100
AcDbTextStyleTableRecord
  2
Standard
 70
     0
 40
0.0
 41
1.0
 50
0.0
 71
     0
 42
0.125
  3
txt
  4

  0
STYLE
  5
1AB
330
3
100
AcDbSymbolTableRecord
100
AcDbTextStyleTableRecord
  2
SLDTEXTSTYLE0
 70
     0
 40
0.0
 41
0.7
 50
0.0
 71
     0
 42
0.2
  3
TXT
  4

  0
ENDTAB
  0
TABLE
  2
VIEW
  5
6
330
0
100
AcDbSymbolTable
 70
     0
  0
ENDTAB
  0
TABLE
  2
UCS
  5
7
330
0
100
AcDbSymbolTable
 70
     0
  0
ENDTAB
  0
TABLE
  2
APPID
  5
9
330
0
100
AcDbSymbolTable
 70
     1
  0
APPID
  5
12
330
9
100
AcDbSymbolTableRecord
100
AcDbRegAppTableRecord
  2
ACAD
 70
     0
  0
ENDTAB
  0
TABLE
  2
DIMSTYLE
  5
A
330
0
100
AcDbSymbolTable
 70
     1
100
AcDbDimStyleTable
  0
DIMSTYLE
105
27
330
A
100
AcDbSymbolTableRecord
100
AcDbDimStyleTableRecord
  2
Standard
 70
     0
178
     0
340
11
  0
ENDTAB
  0
TABLE
  2
BLOCK_RECORD
  5
1
330
0
100
AcDbSymbolTable
 70
     1
  0
BLOCK_RECORD
  5
1F
330
1
100
AcDbSymbolTableRecord
100
AcDbBlockTableRecord
  2
*Model_Space
340
22
  0
BLOCK_RECORD
  5
1B
330
1
100
AcDbSymbolTableRecord
100
AcDbBlockTableRecord
  2
*Paper_Space
340
1E
  0
BLOCK_RECORD
  5
23
330
1
100
AcDbSymbolTableRecord
100
AcDbBlockTableRecord
  2
*Paper_Space0
340
26
  0
ENDTAB
  0
ENDSEC
  0
SECTION
  2
BLOCKS
  0
BLOCK
  5
20
330
1F
100
AcDbEntity
  8
0
100
AcDbBlockBegin
  2
*Model_Space
 70
     0
 10
0.0
 20
0.0
 30
0.0
  3
*Model_Space
  1

  0
ENDBLK
  5
21
330
1F
100
AcDbEntity
  8
0
100
AcDbBlockEnd
  0
BLOCK
  5
1C
330
1B
100
AcDbEntity
 67
     1
  8
0
100
AcDbBlockBegin
  2
*Paper_Space
 70
     0
 10
0.0
 20
0.0
 30
0.0
  3
*Paper_Space
  1

  0
ENDBLK
  5
1D
330
1B
100
AcDbEntity
 67
     1
  8
0
100
AcDbBlockEnd
  0
BLOCK
  5
24
330
23
100
AcDbEntity
  8
0
100
AcDbBlockBegin
  2
*Paper_Space0
 70
     0
 10
0.0
 20
0.0
 30
0.0
  3
*Paper_Space0
  1

  0
ENDBLK
  5
25
330
23
100
AcDbEntity
  8
0
100
AcDbBlockEnd
  0
ENDSEC
  0
SECTION
  2
ENTITIES
  0
LINE
  5
44
330
1F
100
AcDbEntity
  8
0
  6
Continuous
 62
     7
370
    15
100
AcDbLine
 10
15.703804415
 20
-0.4780193807
 30
0.0
 11
15.703804415
 21
-0.5462889921
 31
0.0
  0
LINE
  5
45
330
1F
100
AcDbEntity
  8
0
  6
Continuous
 62
     7
370
    15
100
AcDbLine
 10
15.703804415
 20
-0.5462889921
 30
0.0
 11
15.6038047168
 21
-0.5462889921
 31
0.0
  0
LINE
  5
46
330
1F
100
AcDbEntity
  8
0
  6
Continuous
 62
     7
370
    15
100
AcDbLine
 10
15.6038047168
 20
-0.5462889921
 30
0.0
 11
15.6038047168
 21
-0.6447143884
 31
0.0
  0
LINE
  5
47
330
1F
100
AcDbEntity
  8
0
  6
Continuous
 62
     7
370
    15
100
AcDbLine
 10
15.6038047168
 20
-0.6447143884
 30
0.0
 11
15.703804415
 21
-0.6447143884
 31
0.0
  0
LINE
  5
48
330
1F
100
AcDbEntity
  8
0
  6
Continuous
 62
     7
370
    15
100
AcDbLine
 10
14.623274284
 20
-1.2370745587
 30
0.0
 11
15.6232741986
 21
-1.2370745587
 31
0.0
  0
LINE
  5
49
330
1F
100
AcDbEntity
  8
0
  6
Continuous
 62
     7
370
    15
100
AcDbLine
 10
14.623274284
 20
-1.0370745758
 30
0.0
 11
14.623274284
 21
-1.2370745587
 31
0.0
  0
LINE
  5
4A
330
1F
100
AcDbEntity
  8
0
  6
Continuous
 62
     7
370
    15
100
AcDbLine
 10
9.603804716
 20
-0.6447143884
 30
0.0
 11
9.7038047075
 21
-0.6447143884
 31
0.0
  0
LINE
  5
4B
330
1F
100
AcDbEntity
  8
0
  6
Continuous
 62
     7
370
    15
100
AcDbLine
 10
9.7038047075
 20
-0.6447143884
 30
0.0
 11
9.7038047075
 21
-1.0370745758
 31
0.0
  0
LINE
  5
4C
330
1F
100
AcDbEntity
  8
0
  6
Continuous
 62
     7
370
    15
100
AcDbLine
 10
9.7038047075
 20
-1.0370745758
 30
0.0
 11
9.6232742711
 21
-1.0370745758
 31
0.0
  0
LINE
  5
4D
330
1F
100
AcDbEntity
  8
0
  6
Continuous
 62
     7
370
    15
100
AcDbLine
 10
9.6232742711
 20
-1.2370745587
 30
0.0
 11
9.6232742711
 21
-1.0370745758
 31
0.0
  0
LINE
  5
4E
330
1F
100
AcDbEntity
  8
0
  6
Continuous
 62
     7
370
    15
100
AcDbLine
 10
8.6232742649
 20
-1.2370745587
 30
0.0
 11
9.6232742711
 21
-1.2370745587
 31
0.0
  0
LINE
  5
4F
330
1F
100
AcDbEntity
  8
0
  6
Continuous
 62
     7
370
    15
100
AcDbLine
 10
8.6232742649
 20
-1.0370745758
 30
0.0
 11
8.6232742649
 21
-1.2370745587
 31
0.0
  0
LINE
  5
50
330
1F
100
AcDbEntity
  8
0
  6
Continuous
 62
     7
370
    15
100
AcDbLine
 10
8.6232742649
 20
-1.0370745758
 30
0.0
 11
5.7087997981
 21
-1.0370745758
 31
0.0
  0
LINE
  5
51
330
1F
100
AcDbEntity
  8
0
  6
Continuous
 62
     7
370
    15
100
AcDbLine
 10
5.7087997981
 20
-1.0370745758
 30
0.0
 11
5.7087997981
 21
-0.2584718903
 31
0.0
  0
ARC
  5
52
330
1F
100
AcDbEntity
  8
0
  6
Continuous
 62
     7
370
    15
100
AcDbCircle
 10
6.0400279413
 20
-0.2584718366
 30
0.0
 40
0.3312280363228696
100
AcDbArc
 50
90.0
 51
180.0
  0
LINE
  5
53
330
1F
100
AcDbEntity
  8
0
  6
Continuous
 62
     7
370
    15
100
AcDbLine
 10
14.6124562756
 20
0.0727562833
 30
0.0
 11
6.0400279717
 21
0.0727562833
 31
0.0
  0
ARC
  5
54
330
1F
100
AcDbEntity
  8
0
  6
Continuous
 62
     7
370
    15
100
AcDbCircle
 10
14.6124560989
 20
0.9727561997
 30
0.0
 40
0.8999999999999997
100
AcDbArc
 50
270.0
 51
315.0
  0
LINE
  5
55
330
1F
100
AcDbEntity
  8
0
  6
Continuous
 62
     7
370
    15
100
AcDbLine
 10
15.2488520173
 20
0.3363601715
 30
0.0
 11
15.4451959358
 21
0.5327037967
 31
0.0
  0
ARC
  5
56
330
1F
100
AcDbEntity
  8
0
  6
Continuous
 62
     7
370
    15
100
AcDbCircle
 10
14.808799905
 20
1.1691000058
 30
0.0
 40
0.8999999999999986
100
AcDbArc
 50
315.0
 51
0.0
  0
LINE
  5
57
330
1F
100
AcDbEntity
  8
0
  6
Continuous
 62
     7
370
    15
100
AcDbLine
 10
15.7087998239
 20
3.8911771343
 30
0.0
 11
15.7087998239
 21
1.1690999783
 31
0.0
  0
ARC
  5
58
330
1F
100
AcDbEntity
  8
0
  6
Continuous
 62
     7
370
    15
100
AcDbCircle
 10
14.808799905
 20
3.8911771402
 30
0.0
 40
0.8999999999999986
100
AcDbArc
 50
0.0
 51
45.0
  0
LINE
  5
59
330
1F
100
AcDbEntity
  8
0
  6
Continuous
 62
     7
370
    15
100
AcDbLine
 10
14.5889963333
 20
5.38377301
 30
0.0
 11
15.4451959358
 21
4.5275732609
 31
0.0
  0
ARC
  5
5A
330
1F
100
AcDbEntity
  8
0
  6
Continuous
 62
     7
370
    15
100
AcDbCircle
 10
15.2253923772
 20
6.0201690803
 30
0.0
 40
0.8999999999999969
100
AcDbArc
 50
180.0
 51
225.0
  0
LINE
  5
5B
330
1F
100
AcDbEntity
  8
0
  6
Continuous
 62
     7
370
    15
100
AcDbLine
 10
14.623274284
 20
6.0876381589
 30
0.0
 11
14.3253924452
 21
6.0876381589
 31
0.0
  0
LINE
  5
5C
330
1F
100
AcDbEntity
  8
0
  6
Continuous
 62
     7
370
    15
100
AcDbLine
 10
14.623274284
 20
6.297351763
 30
0.0
 11
14.623274284
 21
6.0876381589
 31
0.0
  0
LINE
  5
5D
330
1F
100
AcDbEntity
  8
0
  6
Continuous
 62
     7
370
    15
100
AcDbLine
 10
14.623274284
 20
6.297351763
 30
0.0
 11
15.6232741986
 21
6.297351763
 31
0.0
  0
LINE
  5
5E
330
1F
100
AcDbEntity
  8
0
  6
Continuous
 62
     7
370
    15
100
AcDbLine
 10
15.6232741986
 20
6.297351763
 30
0.0
 11
15.6232741986
 21
6.09735178
 31
0.0
  0
LINE
  5
5F
330
1F
100
AcDbEntity
  8
0
  6
Continuous
 62
     7
370
    15
100
AcDbLine
 10
15.6232741986
 20
6.09735178
 30
0.0
 11
15.703804415
 21
6.09735178
 31
0.0
  0
LINE
  5
60
330
1F
100
AcDbEntity
  8
0
  6
Continuous
 62
     7
370
    15
100
AcDbLine
 10
15.703804415
 20
5.704991446
 30
0.0
 11
15.703804415
 21
6.09735178
 31
0.0
  0
LINE
  5
61
330
1F
100
AcDbEntity
  8
0
  6
Continuous
 62
     7
370
    15
100
AcDbLine
 10
15.6038047168
 20
5.704991446
 30
0.0
 11
15.703804415
 21
5.704991446
 31
0.0
  0
LINE
  5
62
330
1F
100
AcDbEntity
  8
0
  6
Continuous
 62
     7
370
    15
100
AcDbLine
 10
15.6038047168
 20
5.6065661963
 30
0.0
 11
15.6038047168
 21
5.704991446
 31
0.0
  0
LINE
  5
63
330
1F
100
AcDbEntity
  8
0
  6
Continuous
 62
     7
370
    15
100
AcDbLine
 10
15.703804415
 20
5.6065661963
 30
0.0
 11
15.6038047168
 21
5.6065661963
 31
0.0
  0
LINE
  5
64
330
1F
100
AcDbEntity
  8
0
  6
Continuous
 62
     7
370
    15
100
AcDbLine
 10
15.8219148905
 20
5.538296585
 30
0.0
 11
15.703804415
 21
5.538296585
 31
0.0
  0
LINE
  5
65
330
1F
100
AcDbEntity
  8
0
  6
Continuous
 62
     7
370
    15
100
AcDbLine
 10
15.8219148905
 20
5.6065661963
 30
0.0
 11
15.8219148905
 21
5.538296585
 31
0.0
  0
LINE
  5
66
330
1F
100
AcDbEntity
  8
0
  6
Continuous
 62
     7
370
    15
100
AcDbLine
 10
15.8219148905
 20
5.6065661963
 30
0.0
 11
15.9219151753
 21
5.6065661963
 31
0.0
  0
LINE
  5
67
330
1F
100
AcDbEntity
  8
0
  6
Continuous
 62
     7
370
    15
100
AcDbLine
 10
15.9219151753
 20
5.6065661963
 30
0.0
 11
15.9219151753
 21
5.704991446
 31
0.0
  0
LINE
  5
68
330
1F
100
AcDbEntity
  8
0
  6
Continuous
 62
     7
370
    15
100
AcDbLine
 10
15.9219151753
 20
5.704991446
 30
0.0
 11
15.8219148905
 21
5.704991446
 31
0.0
  0
LINE
  5
69
330
1F
100
AcDbEntity
  8
0
  6
Continuous
 62
     7
370
    15
100
AcDbLine
 10
15.8219148905
 20
6.09735178
 30
0.0
 11
15.8219148905
 21
5.704991446
 31
0.0
  0
LINE
  5
6A
330
1F
100
AcDbEntity
  8
0
  6
Continuous
 62
     7
370
    15
100
AcDbLine
 10
15.8219148905
 20
6.09735178
 30
0.0
 11
17.2962146593
 21
6.09735178
 31
0.0
  0
LINE
  5
6B
330
1F
100
AcDbEntity
  8
0
  6
Continuous
 62
     7
370
    15
100
AcDbLine
 10
17.2962146593
 20
6.09735178
 30
0.0
 11
17.2962146593
 21
4.677520962
 31
0.0
  0
LINE
  5
6C
330
1F
100
AcDbEntity
  8
0
  6
Continuous
 62
     7
370
    15
100
AcDbLine
 10
17.2962146593
 20
4.677520962
 30
0.0
 11
17.4937354175
 21
4.677520962
 31
0.0
  0
LINE
  5
6D
330
1F
100
AcDbEntity
  8
0
  6
Continuous
 62
     7
370
    15
100
AcDbLine
 10
17.4937354175
 20
4.677520962
 30
0.0
 11
17.4937354175
 21
3.651507063
 31
0.0
  0
LINE
  5
6E
330
1F
100
AcDbEntity
  8
0
  6
Continuous
 62
     7
370
    15
100
AcDbLine
 10
17.4937354175
 20
3.651507063
 30
0.0
 11
17.2962146593
 21
3.651507063
 31
0.0
  0
LINE
  5
6F
330
1F
100
AcDbEntity
  8
0
  6
Continuous
 62
     7
370
    15
100
AcDbLine
 10
17.2962146593
 20
3.651507063
 30
0.0
 11
17.2962146593
 21
1.0727561979
 31
0.0
  0
LINE
  5
70
330
1F
100
AcDbEntity
  8
0
  6
Continuous
 62
     7
370
    15
100
AcDbLine
 10
17.4937354175
 20
1.0727561979
 30
0.0
 11
17.2962146593
 21
1.0727561979
 31
0.0
  0
LINE
  5
71
330
1F
100
AcDbEntity
  8
0
  6
Continuous
 62
     7
370
    15
100
AcDbLine
 10
17.4937354175
 20
0.0727562833
 30
0.0
 11
17.4937354175
 21
1.0727561979
 31
0.0
  0
LINE
  5
72
330
1F
100
AcDbEntity
  8
0
  6
Continuous
 62
     7
370
    15
100
AcDbLine
 10
17.2962146593
 20
0.0727562833
 30
0.0
 11
17.4937354175
 21
0.0727562833
 31
0.0
  0
LINE
  5
73
330
1F
100
AcDbEntity
  8
0
  6
Continuous
 62
     7
370
    15
100
AcDbLine
 10
17.2962146593
 20
-1.0370745758
 30
0.0
 11
17.2962146593
 21
0.0727562833
 31
0.0
  0
LINE
  5
74
330
1F
100
AcDbEntity
  8
0
  6
Continuous
 62
     7
370
    15
100
AcDbLine
 10
15.8219148905
 20
-1.0370745758
 30
0.0
 11
17.2962146593
 21
-1.0370745758
 31
0.0
  0
LINE
  5
75
330
1F
100
AcDbEntity
  8
0
  6
Continuous
 62
     7
370
    15
100
AcDbLine
 10
15.8219148905
 20
-1.0370745758
 30
0.0
 11
15.8219148905
 21
-0.6447143884
 31
0.0
  0
LINE
  5
76
330
1F
100
AcDbEntity
  8
0
  6
Continuous
 62
     7
370
    15
100
AcDbLine
 10
15.9219151753
 20
-0.6447143884
 30
0.0
 11
15.8219148905
 21
-0.6447143884
 31
0.0
  0
LINE
  5
77
330
1F
100
AcDbEntity
  8
0
  6
Continuous
 62
     7
370
    15
100
AcDbLine
 10
15.9219151753
 20
-0.5462889921
 30
0.0
 11
15.9219151753
 21
-0.6447143884
 31
0.0
  0
LINE
  5
78
330
1F
100
AcDbEntity
  8
0
  6
Continuous
 62
     7
370
    15
100
AcDbLine
 10
15.8219148905
 20
-0.5462889921
 30
0.0
 11
15.9219151753
 21
-0.5462889921
 31
0.0
  0
LINE
  5
79
330
1F
100
AcDbEntity
  8
0
  6
Continuous
 62
     7
370
    15
100
AcDbLine
 10
15.8219148905
 20
-0.5462889921
 30
0.0
 11
15.8219148905
 21
-0.4780193807
 31
0.0
  0
LINE
  5
7A
330
1F
100
AcDbEntity
  8
0
  6
Continuous
 62
     7
370
    15
100
AcDbLine
 10
15.8219148905
 20
-0.4780193807
 30
0.0
 11
15.703804415
 21
-0.4780193807
 31
0.0
  0
LINE
  5
7B
330
1F
100
AcDbEntity
  8
0
  6
Continuous
 62
     7
370
    15
100
AcDbLine
 10
15.703804415
 20
5.538296585
 30
0.0
 11
15.703804415
 21
5.6065661963
 31
0.0
  0
LINE
  5
7C
330
1F
100
AcDbEntity
  8
0
  6
Continuous
 62
     7
370
    15
100
AcDbLine
 10
9.9219149545
 20
-0.5462889921
 30
0.0
 11
9.9219149545
 21
-0.6447143884
 31
0.0
  0
LINE
  5
7D
330
1F
100
AcDbEntity
  8
0
  6
Continuous
 62
     7
370
    15
100
AcDbLine
 10
9.8219149631
 20
-0.5462889921
 30
0.0
 11
9.9219149545
 21
-0.5462889921
 31
0.0
  0
LINE
  5
7E
330
1F
100
AcDbEntity
  8
0
  6
Continuous
 62
     7
370
    15
100
AcDbLine
 10
9.8219149631
 20
-0.5462889921
 30
0.0
 11
9.8219149631
 21
-0.4780193807
 31
0.0
  0
LINE
  5
7F
330
1F
100
AcDbEntity
  8
0
  6
Continuous
 62
     7
370
    15
100
AcDbLine
 10
15.703804415
 20
-0.6447143884
 30
0.0
 11
15.703804415
 21
-1.0370745758
 31
0.0
  0
LINE
  5
80
330
1F
100
AcDbEntity
  8
0
  6
Continuous
 62
     7
370
    15
100
AcDbLine
 10
15.6232741986
 20
-1.0370745758
 30
0.0
 11
15.703804415
 21
-1.0370745758
 31
0.0
  0
LINE
  5
81
330
1F
100
AcDbEntity
  8
0
  6
Continuous
 62
     7
370
    15
100
AcDbLine
 10
15.6232741986
 20
-1.2370745587
 30
0.0
 11
15.6232741986
 21
-1.0370745758
 31
0.0
  0
LINE
  5
82
330
1F
100
AcDbEntity
  8
0
  6
Continuous
 62
     7
370
    15
100
AcDbLine
 10
9.603804716
 20
-0.5462889921
 30
0.0
 11
9.603804716
 21
-0.6447143884
 31
0.0
  0
LINE
  5
83
330
1F
100
AcDbEntity
  8
0
  6
Continuous
 62
     7
370
    15
100
AcDbLine
 10
9.8219149631
 20
-1.0370745758
 30
0.0
 11
9.8219149631
 21
-0.6447143884
 31
0.0
  0
LINE
  5
84
330
1F
100
AcDbEntity
  8
0
  6
Continuous
 62
     7
370
    15
100
AcDbLine
 10
9.8219149631
 20
-1.0370745758
 30
0.0
 11
14.623274284
 21
-1.0370745758
 31
0.0
  0
LINE
  5
85
330
1F
100
AcDbEntity
  8
0
  6
Continuous
 62
     7
370
    15
100
AcDbLine
 10
9.7038047075
 20
-0.5462889921
 30
0.0
 11
9.603804716
 21
-0.5462889921
 31
0.0
  0
LINE
  5
86
330
1F
100
AcDbEntity
  8
0
  6
Continuous
 62
     7
370
    15
100
AcDbLine
 10
9.9219149545
 20
-0.6447143884
 30
0.0
 11
9.8219149631
 21
-0.6447143884
 31
0.0
  0
LINE
  5
87
330
1F
100
AcDbEntity
  8
0
  6
Continuous
 62
     7
370
    15
100
AcDbLine
 10
14.3253924452
 20
6.0876381589
 30
0.0
 11
14.3253924452
 21
6.020169045
 31
0.0
  0
LINE
  5
88
330
1F
100
AcDbEntity
  8
0
  6
Continuous
 62
     7
370
    15
100
AcDbLine
 10
9.8219149631
 20
-0.4780193807
 30
0.0
 11
9.7038047075
 21
-0.4780193807
 31
0.0
  0
LINE
  5
89
330
1F
100
AcDbEntity
  8
0
  6
Continuous
 62
     7
370
    15
100
AcDbLine
 10
9.7038047075
 20
-0.4780193807
 30
0.0
 11
9.7038047075
 21
-0.5462889921
 31
0.0
  0
CIRCLE
  5
8A
330
1F
100
AcDbEntity
  8
0
  6
Continuous
 62
     7
370
    15
100
AcDbCircle
 10
6.1670802435
 20
4.2459459701
 30
0.0
 40
0.059055118110236
  0
ARC
  5
8B
330
1F
100
AcDbEntity
  8
0
  6
Continuous
 62
     7
370
    15
100
AcDbCircle
 10
6.7758833995
 20
4.3410065733
 30
0.0
 40
1.250000000000001
100
AcDbArc
 50
142.4631382086
 51
55.2862571065
  0
ARC
  5
8C
330
1F
100
AcDbEntity
  8
0
  6
Continuous
 62
     7
370
    15
100
AcDbCircle
 10
6.0225699521
 20
4.9198147021
 30
0.0
 40
0.3000000000000003
100
AcDbArc
 50
17.6673334485
 51
142.4631382086
  0
LINE
  5
8D
330
1F
100
AcDbEntity
  8
0
  6
Continuous
 62
     7
370
    15
100
AcDbLine
 10
6.3084204712
 20
5.0108616246
 30
0.0
 11
6.5338165208
 21
4.3032094395
 31
0.0
  0
ARC
  5
8E
330
1F
100
AcDbEntity
  8
0
  6
Continuous
 62
     7
370
    15
100
AcDbCircle
 10
6.7758833995
 20
4.3410065733
 30
0.0
 40
0.2450000000000011
100
AcDbArc
 50
188.8746976575
 51
8.8746976575
  0
LINE
  5
8F
330
1F
100
AcDbEntity
  8
0
  6
Continuous
 62
     7
370
    15
100
AcDbLine
 10
7.0179502614
 20
4.3788037195
 30
0.0
 11
7.016886647
 21
5.1214839733
 31
0.0
  0
ARC
  5
90
330
1F
100
AcDbEntity
  8
0
  6
Continuous
 62
     7
370
    15
100
AcDbCircle
 10
7.3168862698
 20
5.1219136705
 30
0.0
 40
0.3
100
AcDbArc
 50
55.2862571065
 51
180.0820618665
  0
CIRCLE
  5
91
330
1F
100
AcDbEntity
  8
0
  6
Continuous
 62
     7
370
    15
100
AcDbCircle
 10
7.3846865556
 20
4.4360671764
 30
0.0
 40
0.0590551181102361
  0
CIRCLE
  5
92
330
1F
100
AcDbEntity
  8
0
  6
Continuous
 62
     7
370
    15
100
AcDbCircle
 10
13.2466213248
 20
4.0609925204
 30
0.0
 40
0.0590551181102361
  0
ARC
  5
93
330
1F
100
AcDbEntity
  8
0
  6
Continuous
 62
     7
370
    15
100
AcDbCircle
 10
13.1021110334
 20
4.7348612523
 30
0.0
 40
0.3000000000000004
100
AcDbArc
 50
17.6673334485
 51
142.4631382086
  0
LINE
  5
94
330
1F
100
AcDbEntity
  8
0
  6
Continuous
 62
     7
370
    15
100
AcDbLine
 10
13.3879615678
 20
4.8259081479
 30
0.0
 11
13.6133574707
 21
4.1182559627
 31
0.0
  0
ARC
  5
95
330
1F
100
AcDbEntity
  8
0
  6
Continuous
 62
     7
370
    15
100
AcDbCircle
 10
13.8554244809
 20
4.1560531236
 30
0.0
 40
0.2450000000000002
100
AcDbArc
 50
188.8746976575
 51
8.8746976575
  0
LINE
  5
96
330
1F
100
AcDbEntity
  8
0
  6
Continuous
 62
     7
370
    15
100
AcDbLine
 10
14.0974915046
 20
4.1938502794
 30
0.0
 11
14.0964278902
 21
4.9365304966
 31
0.0
  0
ARC
  5
97
330
1F
100
AcDbEntity
  8
0
  6
Continuous
 62
     7
370
    15
100
AcDbCircle
 10
14.3964273511
 20
4.9369602207
 30
0.0
 40
0.3000000000000008
100
AcDbArc
 50
55.2862571065
 51
180.0820618665
  0
CIRCLE
  5
98
330
1F
100
AcDbEntity
  8
0
  6
Continuous
 62
     7
370
    15
100
AcDbCircle
 10
14.464227637
 20
4.2511137267
 30
0.0
 40
0.059055118110237
  0
ARC
  5
99
330
1F
100
AcDbEntity
  8
0
  6
Continuous
 62
     7
370
    15
100
AcDbCircle
 10
13.8554244809
 20
4.1560531236
 30
0.0
 40
1.250000000000001
100
AcDbArc
 50
142.4631382086
 51
55.2862571065
  0
LINE
  5
9A
330
1F
100
AcDbEntity
  8
0
  6
Continuous
 62
     7
370
    15
100
AcDbLine
 10
3.294147879
 20
2.2210786924
 30
0.0
 11
3.294147879
 21
0.7417958345
 31
0.0
  0
ARC
  5
9B
330
1F
100
AcDbEntity
  8
0
  6
Continuous
 62
     7
370
    15
100
AcDbCircle
 10
2.8941477309
 20
0.7417958992
 30
0.0
 40
0.4000000000000004
100
AcDbArc
 50
270.0
 51
0.0
  0
CIRCLE
  5
9C
330
1F
100
AcDbEntity
  8
0
  6
Continuous
 62
     7
370
    15
100
AcDbCircle
 10
2.7569103445
 20
0.6259645055
 30
0.0
 40
0.0590551181102361
  0
CIRCLE
  5
9D
330
1F
100
AcDbEntity
  8
0
  6
Continuous
 62
     7
370
    15
100
AcDbCircle
 10
2.7569103445
 20
2.0316339433
 30
0.0
 40
0.0597603696268756
  0
CIRCLE
  5
9E
330
1F
100
AcDbEntity
  8
0
  6
Continuous
 62
     7
370
    15
100
AcDbCircle
 10
2.7569103445
 20
1.3352461284
 30
0.0
 40
0.2483826924545807
  0
LINE
  5
9F
330
1F
100
AcDbEntity
  8
0
  6
Continuous
 62
     7
370
    15
100
AcDbLine
 10
2.8941479132
 20
0.3417958687
 30
0.0
 11
2.3917957431
 21
0.3417958687
 31
0.0
  0
LINE
  5
A0
330
1F
100
AcDbEntity
  8
0
  6
Continuous
 62
     7
370
    15
100
AcDbLine
 10
2.3917957431
 20
0.3417958687
 30
0.0
 11
2.3917957431
 21
2.2210786924
 31
0.0
  0
LINE
  5
A1
330
1F
100
AcDbEntity
  8
0
  6
Continuous
 62
     7
370
    15
100
AcDbLine
 10
2.3917957431
 20
2.2210786924
 30
0.0
 11
3.294147879
 21
2.2210786924
 31
0.0
  0
LINE
  5
A2
330
1F
100
AcDbEntity
  8
0
  6
Continuous
 62
     7
370
    15
100
AcDbLine
 10
3.3568588879
 20
6.5996446975
 30
0.0
 11
3.3568588879
 21
5.1203619863
 31
0.0
  0
ARC
  5
A3
330
1F
100
AcDbEntity
  8
0
  6
Continuous
 62
     7
370
    15
100
AcDbCircle
 10
2.9568590352
 20
5.1203619294
 30
0.0
 40
0.4000000000000004
100
AcDbArc
 50
270.0
 51
0.0
  0
CIRCLE
  5
A4
330
1F
100
AcDbEntity
  8
0
  6
Continuous
 62
     7
370
    15
100
AcDbCircle
 10
2.8196216488
 20
5.0045305358
 30
0.0
 40
0.0590551181102361
  0
CIRCLE
  5
A5
330
1F
100
AcDbEntity
  8
0
  6
Continuous
 62
     7
370
    15
100
AcDbCircle
 10
2.8196216488
 20
6.4101999736
 30
0.0
 40
0.0597603696268756
  0
CIRCLE
  5
A6
330
1F
100
AcDbEntity
  8
0
  6
Continuous
 62
     7
370
    15
100
AcDbCircle
 10
2.8196216488
 20
5.7138121587
 30
0.0
 40
0.2483826924545807
  0
LINE
  5
A7
330
1F
100
AcDbEntity
  8
0
  6
Continuous
 62
     7
370
    15
100
AcDbLine
 10
2.4545073386
 20
6.5996446975
 30
0.0
 11
3.3568588879
 21
6.5996446975
 31
0.0
  0
LINE
  5
A8
330
1F
100
AcDbEntity
  8
0
  6
Continuous
 62
     7
370
    15
100
AcDbLine
 10
2.4545073386
 20
4.7203619471
 30
0.0
 11
2.4545073386
 21
6.5996446975
 31
0.0
  0
LINE
  5
A9
330
1F
100
AcDbEntity
  8
0
  6
Continuous
 62
     7
370
    15
100
AcDbLine
 10
2.9568589221
 20
4.7203619471
 30
0.0
 11
2.4545073386
 21
4.7203619471
 31
0.0
  0
CIRCLE
  5
AA
330
1F
100
AcDbEntity
  8
0
  6
Continuous
 62
     7
370
    15
100
AcDbCircle
 10
2.7632763457
 20
2.8473836677
 30
0.0
 40
0.0590551181102361
  0
CIRCLE
  5
AB
330
1F
100
AcDbEntity
  8
0
  6
Continuous
 62
     7
370
    15
100
AcDbCircle
 10
2.7632763457
 20
4.2530531055
 30
0.0
 40
0.0597603696268756
  0
LINE
  5
AC
330
1F
100
AcDbEntity
  8
0
  6
Continuous
 62
     7
370
    15
100
AcDbLine
 10
3.0045367713
 20
3.4976101691
 30
0.0
 11
3.3005137255
 21
3.4976101691
 31
0.0
  0
LINE
  5
AD
330
1F
100
AcDbEntity
  8
0
  6
Continuous
 62
     7
370
    15
100
AcDbLine
 10
3.3005137255
 20
3.4976101691
 30
0.0
 11
3.3005137255
 21
2.9632150392
 31
0.0
  0
ARC
  5
AE
330
1F
100
AcDbEntity
  8
0
  6
Continuous
 62
     7
370
    15
100
AcDbCircle
 10
2.9005137321
 20
2.9632150614
 30
0.0
 40
0.4000000000000004
100
AcDbArc
 50
270.0
 51
0.0
  0
LINE
  5
AF
330
1F
100
AcDbEntity
  8
0
  6
Continuous
 62
     7
370
    15
100
AcDbLine
 10
2.9005137597
 20
2.5632150734
 30
0.0
 11
2.3981615896
 21
2.5632150734
 31
0.0
  0
LINE
  5
B0
330
1F
100
AcDbEntity
  8
0
  6
Continuous
 62
     7
370
    15
100
AcDbLine
 10
2.3981615896
 20
2.5632150734
 30
0.0
 11
2.3981615896
 21
4.4424978237
 31
0.0
  0
LINE
  5
B1
330
1F
100
AcDbEntity
  8
0
  6
Continuous
 62
     7
370
    15
100
AcDbLine
 10
2.3981615896
 20
4.4424978237
 30
0.0
 11
3.3005137255
 21
4.4424978237
 31
0.0
  0
LINE
  5
B2
330
1F
100
AcDbEntity
  8
0
  6
Continuous
 62
     7
370
    15
100
AcDbLine
 10
3.3005137255
 20
4.4424978237
 30
0.0
 11
3.3005137255
 21
3.6157204087
 31
0.0
  0
LINE
  5
B3
330
1F
100
AcDbEntity
  8
0
  6
Continuous
 62
     7
370
    15
100
AcDbLine
 10
3.3005137255
 20
3.6157204087
 30
0.0
 11
3.0045367713
 21
3.6157204087
 31
0.0
  0
ARC
  5
B4
330
1F
100
AcDbEntity
  8
0
  6
Continuous
 62
     7
370
    15
100
AcDbCircle
 10
2.7632763457
 20
3.5566652906
 30
0.0
 40
0.2483826924545803
100
AcDbArc
 50
13.7542880498
 51
346.2457119502
  0
LINE
  5
B5
330
1F
100
AcDbEntity
  8
0
  6
Continuous
 62
     7
370
    15
100
AcDbLine
 10
15.307423554
 20
8.9599912706
 30
0.0
 11
15.307423554
 21
9.1424571627
 31
0.0
  0
SPLINE
  5
B6
330
1F
100
AcDbEntity
  8
0
  6
Continuous
 62
     7
370
    15
100
AcDbSpline
210
0.0
220
0.0
230
1.0
 70
     8
 71
     3
 72
    11
 73
     7
 74
     0
 42
0.00000001
 43
0.00000001
 12
1.0
 22
0.0
 32
0.0
 13
1.0
 23
0.0
 33
0.0
 40
0.0
 40
0.0
 40
0.0
 40
0.0
 40
0.2795479734961114
 40
0.5591913333503096
 40
0.7794921361624477
 40
0.9999999999999999
 40
0.9999999999999999
 40
0.9999999999999999
 40
0.9999999999999999
 10
15.3074235539947
 20
9.142457162719918
 30
0.0
 10
15.30668984391245
 20
9.14917921766771
 30
0.0
 10
15.30522217339404
 20
9.162625621238801
 30
0.0
 10
15.29263302144822
 20
9.177450762492997
 30
0.0
 10
15.27734709854626
 20
9.18590361665447
 30
0.0
 10
15.26681713755042
 20
9.186767314219402
 30
0.0
 10
15.26154968393356
 20
9.18719936585417
 30
0.0
  0
SPLINE
  5
B7
330
1F
100
AcDbEntity
  8
0
  6
Continuous
 62
     7
370
    15
100
AcDbSpline
210
0.0
220
0.0
230
1.0
 70
     8
 71
     3
 72
    10
 73
     6
 74
     0
 42
0.00000001
 43
0.00000001
 12
1.0
 22
0.0
 32
0.0
 13
1.0
 23
0.0
 33
0.0
 40
0.0
 40
0.0
 40
0.0
 40
0.0
 40
0.2809069787552258
 40
0.5613930994788902
 40
1.0
 40
1.0
 40
1.0
 40
1.0
 10
15.26154968393356
 20
9.18719936585417
 30
0.0
 10
15.25705003965914
 20
9.186914954300738
 30
0.0
 10
15.24805749252856
 20
9.186346557302501
 30
0.0
 10
15.23279388176214
 20
9.179826351030316
 30
0.0
 10
15.22599463792714
 20
9.170222938926154
 30
0.0
 10
15.22184747591019
 20
9.164365389634211
 30
0.0
  0
SPLINE
  5
B8
330
1F
100
AcDbEntity
  8
0
  6
Continuous
 62
     7
370
    15
100
AcDbSpline
210
0.0
220
0.0
230
1.0
 70
     8
 71
     3
 72
     9
 73
     5
 74
     0
 42
0.00000001
 43
0.00000001
 12
1.0
 22
0.0
 32
0.0
 13
1.0
 23
0.0
 33
0.0
 40
0.0
 40
0.0
 40
0.0
 40
0.0
 40
0.5598886457757727
 40
1.0
 40
1.0
 40
1.0
 40
1.0
 10
15.22184747591019
 20
9.164365389634211
 30
0.0
 10
15.20479190436135
 20
9.169569599893627
 30
0.0
 10
15.17432946923695
 20
9.178864680797092
 30
0.0
 10
15.14254577267464
 20
9.180081096757993
 30
0.0
 10
15.12855740693836
 20
9.180616455233848
 30
0.0
  0
SPLINE
  5
B9
330
1F
100
AcDbEntity
  8
0
  6
Continuous
 62
     7
370
    15
100
AcDbSpline
210
0.0
220
0.0
230
1.0
 70
     8
 71
     3
 72
     9
 73
     5
 74
     0
 42
0.00000001
 43
0.00000001
 12
1.0
 22
0.0
 32
0.0
 13
1.0
 23
0.0
 33
0.0
 40
0.0
 40
0.0
 40
0.0
 40
0.0
 40
0.5602127076087411
 40
1.0
 40
1.0
 40
1.0
 40
1.0
 10
15.12855740693836
 20
9.180616455233848
 30
0.0
 10
15.11200770485677
 20
9.179867720999603
 30
0.0
 10
15.08246588644242
 20
9.178531203237556
 30
0.0
 10
15.05604232529498
 20
9.165477497158198
 30
0.0
 10
15.04442157888262
 20
9.159736643105886
 30
0.0
  0
SPLINE
  5
BA
330
1F
100
AcDbEntity
  8
0
  6
Continuous
 62
     7
370
    15
100
AcDbSpline
210
0.0
220
0.0
230
1.0
 70
     8
 71
     3
 72
     9
 73
     5
 74
     0
 42
0.00000001
 43
0.00000001
 12
1.0
 22
0.0
 32
0.0
 13
1.0
 23
0.0
 33
0.0
 40
0.0
 40
0.0
 40
0.0
 40
0.0
 40
0.5589145647081318
 40
1.0
 40
1.0
 40
1.0
 40
1.0
 10
15.04442157888262
 20
9.159736643105886
 30
0.0
 10
15.03156030550106
 20
9.149402612947721
 30
0.0
 10
15.00854914387874
 20
9.130913149958754
 30
0.0
 10
15.00168058308818
 20
9.102451663639828
 30
0.0
 10
14.99865096096204
 20
9.089897716557791
 30
0.0
  0
SPLINE
  5
BB
330
1F
100
AcDbEntity
  8
0
  6
Continuous
 62
     7
370
    15
100
AcDbSpline
210
0.0
220
0.0
230
1.0
 70
     8
 71
     3
 72
     9
 73
     5
 74
     0
 42
0.00000001
 43
0.00000001
 12
1.0
 22
0.0
 32
0.0
 13
1.0
 23
0.0
 33
0.0
 40
0.0
 40
0.0
 40
0.0
 40
0.0
 40
0.5600191441998957
 40
1.0
 40
1.0
 40
1.0
 40
1.0
 10
14.99865096096204
 20
9.089897716557791
 30
0.0
 10
14.99446165754965
 20
9.061060335292622
 30
0.0
 10
14.98698101433276
 20
9.009566771967444
 30
0.0
 10
14.98551401277733
 20
8.957567370642467
 30
0.0
 10
14.98486856017751
 20
8.934688629546411
 30
0.0
  0
SPLINE
  5
BC
330
1F
100
AcDbEntity
  8
0
  6
Continuous
 62
     7
370
    15
100
AcDbSpline
210
0.0
220
0.0
230
1.0
 70
     8
 71
     3
 72
     9
 73
     5
 74
     0
 42
0.00000001
 43
0.00000001
 12
1.0
 22
0.0
 32
0.0
 13
1.0
 23
0.0
 33
0.0
 40
0.0
 40
0.0
 40
0.0
 40
0.0
 40
0.5599705680810555
 40
0.9999999999999999
 40
0.9999999999999999
 40
0.9999999999999999
 40
0.9999999999999999
 10
14.98486856017751
 20
8.93468862954641
 30
0.0
 10
14.98534016165637
 20
8.915381652292492
 30
0.0
 10
14.9861823514173
 20
8.88090309510675
 30
0.0
 10
14.98984097991743
 20
8.846613503950952
 30
0.0
 10
14.99145088413794
 20
8.831525074633932
 30
0.0
  0
SPLINE
  5
BD
330
1F
100
AcDbEntity
  8
0
  6
Continuous
 62
     7
370
    15
100
AcDbSpline
210
0.0
220
0.0
230
1.0
 70
     8
 71
     3
 72
    10
 73
     6
 74
     0
 42
0.00000001
 43
0.00000001
 12
1.0
 22
0.0
 32
0.0
 13
1.0
 23
0.0
 33
0.0
 40
0.0
 40
0.0
 40
0.0
 40
0.0
 40
0.2815338824845457
 40
0.5613496525001285
 40
1.0
 40
1.0
 40
1.0
 40
1.0
 10
14.99145088413794
 20
8.831525074633932
 30
0.0
 10
14.99304074531591
 20
8.825267428764565
 30
0.0
 10
14.99621076525064
 20
8.812790325464466
 30
0.0
 10
15.01267693966575
 20
8.794908091016604
 30
0.0
 10
15.02957760083402
 20
8.79324779053146
 30
0.0
 10
15.03989608449485
 20
8.792234115193114
 30
0.0
  0
SPLINE
  5
BE
330
1F
100
AcDbEntity
  8
0
  6
Continuous
 62
     7
370
    15
100
AcDbSpline
210
0.0
220
0.0
230
1.0
 70
     8
 71
     3
 72
    11
 73
     7
 74
     0
 42
0.00000001
 43
0.00000001
 12
1.0
 22
0.0
 32
0.0
 13
1.0
 23
0.0
 33
0.0
 40
0.0
 40
0.0
 40
0.0
 40
0.0
 40
0.2801890020173619
 40
0.559926872861056
 40
0.7798679812741173
 40
1.0
 40
1.0
 40
1.0
 40
1.0
 10
15.03989608449485
 20
8.792234115193114
 30
0.0
 10
15.04692894211403
 20
8.792893350232863
 30
0.0
 10
15.06098333377691
 20
8.7942107588807
 30
0.0
 10
15.0777262776533
 20
8.805335414137689
 30
0.0
 10
15.08860045778889
 20
8.82035185077005
 30
0.0
 10
15.08966146370501
 20
8.831433226719314
 30
0.0
 10
15.0901921968032
 20
8.836976318327366
 30
0.0
  0
SPLINE
  5
BF
330
1F
100
AcDbEntity
  8
0
  6
Continuous
 62
     7
370
    15
100
AcDbSpline
210
0.0
220
0.0
230
1.0
 70
     8
 71
     3
 72
     9
 73
     5
 74
     0
 42
0.00000001
 43
0.00000001
 12
1.0
 22
0.0
 32
0.0
 13
1.0
 23
0.0
 33
0.0
 40
0.0
 40
0.0
 40
0.0
 40
0.0
 40
0.5599988954650579
 40
1.0
 40
1.0
 40
1.0
 40
1.0
 10
15.0901921968032
 20
8.836976318327366
 30
0.0
 10
15.08882116068077
 20
8.855168069881422
 30
0.0
 10
15.08637287706177
 20
8.887653404587216
 30
0.0
 10
15.08445412560367
 20
8.920174139363308
 30
0.0
 10
15.08360987284277
 20
8.934483298585077
 30
0.0
  0
SPLINE
  5
C0
330
1F
100
AcDbEntity
  8
0
  6
Continuous
 62
     7
370
    15
100
AcDbSpline
210
0.0
220
0.0
230
1.0
 70
     8
 71
     3
 72
     9
 73
     5
 74
     0
 42
0.00000001
 43
0.00000001
 12
1.0
 22
0.0
 32
0.0
 13
1.0
 23
0.0
 33
0.0
 40
0.0
 40
0.0
 40
0.0
 40
0.0
 40
0.5602418818911472
 40
1.0
 40
1.0
 40
1.0
 40
1.0
 10
15.08360987284277
 20
8.934483298585077
 30
0.0
 10
15.08368311736634
 20
8.961972271054396
 30
0.0
 10
15.08381385468878
 20
9.011038528608237
 30
0.0
 10
15.09281623680542
 20
9.059238951803358
 30
0.0
 10
15.09677510742353
 20
9.0804354791997
 30
0.0
  0
SPLINE
  5
C1
330
1F
100
AcDbEntity
  8
0
  6
Continuous
 62
     7
370
    15
100
AcDbSpline
210
0.0
220
0.0
230
1.0
 70
     8
 71
     3
 72
     9
 73
     5
 74
     0
 42
0.00000001
 43
0.00000001
 12
1.0
 22
0.0
 32
0.0
 13
1.0
 23
0.0
 33
0.0
 40
0.0
 40
0.0
 40
0.0
 40
0.0
 40
0.5601837930750849
 40
0.9999999999999999
 40
0.9999999999999999
 40
0.9999999999999999
 40
0.9999999999999999
 10
15.09677510742353
 20
9.080435479199698
 30
0.0
 10
15.1027032271085
 20
9.082879857181428
 30
0.0
 10
15.11328568193539
 20
9.087243385744637
 30
0.0
 10
15.12467838042771
 20
9.08808701247868
 30
0.0
 10
15.12968907386524
 20
9.088458053188905
 30
0.0
  0
SPLINE
  5
C2
330
1F
100
AcDbEntity
  8
0
  6
Continuous
 62
     7
370
    15
100
AcDbSpline
210
0.0
220
0.0
230
1.0
 70
     8
 71
     3
 72
     9
 73
     5
 74
     0
 42
0.00000001
 43
0.00000001
 12
1.0
 22
0.0
 32
0.0
 13
1.0
 23
0.0
 33
0.0
 40
0.0
 40
0.0
 40
0.0
 40
0.0
 40
0.5598908740399628
 40
1.0
 40
1.0
 40
1.0
 40
1.0
 10
15.12968907386525
 20
9.088458053188907
 30
0.0
 10
15.14584666745757
 20
9.087716114002616
 30
0.0
 10
15.17470513674416
 20
9.086390964369551
 30
0.0
 10
15.2028692722354
 20
9.080041050905047
 30
0.0
 10
15.21526456528987
 20
9.07724639604026
 30
0.0
  0
SPLINE
  5
C3
330
1F
100
AcDbEntity
  8
0
  6
Continuous
 62
     7
370
    15
100
AcDbSpline
210
0.0
220
0.0
230
1.0
 70
     8
 71
     3
 72
     9
 73
     5
 74
     0
 42
0.00000001
 43
0.00000001
 12
1.0
 22
0.0
 32
0.0
 13
1.0
 23
0.0
 33
0.0
 40
0.0
 40
0.0
 40
0.0
 40
0.0
 40
0.5599923958880018
 40
1.0
 40
1.0
 40
1.0
 40
1.0
 10
15.21526456528986
 20
9.077246396040259
 30
0.0
 10
15.21522378141697
 20
9.065841889505323
 30
0.0
 10
15.2151509520836
 20
9.045476422726345
 30
0.0
 10
15.21501555703772
 20
9.025111279641754
 30
0.0
 10
15.21495598218798
 20
9.016150461825704
 30
0.0
  0
SPLINE
  5
C4
330
1F
100
AcDbEntity
  8
0
  6
Continuous
 62
     7
370
    15
100
AcDbSpline
210
0.0
220
0.0
230
1.0
 70
     8
 71
     3
 72
     9
 73
     5
 74
     0
 42
0.00000001
 43
0.00000001
 12
1.0
 22
0.0
 32
0.0
 13
1.0
 23
0.0
 33
0.0
 40
0.0
 40
0.0
 40
0.0
 40
0.0
 40
0.5600097286276053
 40
1.0
 40
1.0
 40
1.0
 40
1.0
 10
15.21495598218798
 20
9.016150461825704
 30
0.0
 10
15.21477941333194
 20
9.00518774434289
 30
0.0
 10
15.21446411728079
 20
8.985611803207588
 30
0.0
 10
15.21430580594926
 20
8.966033988355395
 30
0.0
 10
15.21423615050353
 20
8.957419940285702
 30
0.0
  0
SPLINE
  5
C5
330
1F
100
AcDbEntity
  8
0
  6
Continuous
 62
     7
370
    15
100
AcDbSpline
210
0.0
220
0.0
230
1.0
 70
     8
 71
     3
 72
     9
 73
     5
 74
     0
 42
0.00000001
 43
0.00000001
 12
1.0
 22
0.0
 32
0.0
 13
1.0
 23
0.0
 33
0.0
 40
0.0
 40
0.0
 40
0.0
 40
0.0
 40
0.5600022083204865
 40
0.9999999999999999
 40
0.9999999999999999
 40
0.9999999999999999
 40
0.9999999999999999
 10
15.21423615050353
 20
8.957419940285702
 30
0.0
 10
15.21429382426523
 20
8.934340671564678
 30
0.0
 10
15.21439681271927
 20
8.893127854225549
 30
0.0
 10
15.2149994195952
 20
8.851919435198376
 30
0.0
 10
15.21526456528986
 20
8.833787821827817
 30
0.0
  0
SPLINE
  5
C6
330
1F
100
AcDbEntity
  8
0
  6
Continuous
 62
     7
370
    15
100
AcDbSpline
210
0.0
220
0.0
230
1.0
 70
     8
 71
     3
 72
    11
 73
     7
 74
     0
 42
0.00000001
 43
0.00000001
 12
1.0
 22
0.0
 32
0.0
 13
1.0
 23
0.0
 33
0.0
 40
0.0
 40
0.0
 40
0.0
 40
0.0
 40
0.2803197630520654
 40
0.5589107256098191
 40
0.7792464571766724
 40
0.9999999999999999
 40
0.9999999999999999
 40
0.9999999999999999
 40
0.9999999999999999
 10
15.21526456528986
 20
8.833787821827817
 30
0.0
 10
15.21653703352778
 20
8.82718741880816
 30
0.0
 10
15.21907412238097
 20
8.814027319067533
 30
0.0
 10
15.23195317040496
 20
8.799361468629044
 30
0.0
 10
15.24819303794381
 20
8.792951667756359
 30
0.0
 10
15.25867149300469
 20
8.792473450374185
 30
0.0
 10
15.263915683268
 20
8.792234115193114
 30
0.0
  0
SPLINE
  5
C7
330
1F
100
AcDbEntity
  8
0
  6
Continuous
 62
     7
370
    15
100
AcDbSpline
210
0.0
220
0.0
230
1.0
 70
     8
 71
     3
 72
    11
 73
     7
 74
     0
 42
0.00000001
 43
0.00000001
 12
1.0
 22
0.0
 32
0.0
 13
1.0
 23
0.0
 33
0.0
 40
0.0
 40
0.0
 40
0.0
 40
0.0
 40
0.2802087581530945
 40
0.5601026171047363
 40
0.7799554181719689
 40
1.0
 40
1.0
 40
1.0
 40
1.0
 10
15.263915683268
 20
8.792234115193114
 30
0.0
 10
15.27100245723686
 20
8.792886757563384
 30
0.0
 10
15.28516804104286
 20
8.794191308863029
 30
0.0
 10
15.30201304696646
 20
8.805328776672921
 30
0.0
 10
15.31318187043256
 20
8.820423169609402
 30
0.0
 10
15.3137311289614
 20
8.831662690802368
 30
0.0
 10
15.31400587795513
 20
8.837284901429255
 30
0.0
  0
SPLINE
  5
C8
330
1F
100
AcDbEntity
  8
0
  6
Continuous
 62
     7
370
    15
100
AcDbSpline
210
0.0
220
0.0
230
1.0
 70
     8
 71
     3
 72
    13
 73
     9
 74
     0
 42
0.00000001
 43
0.00000001
 12
1.0
 22
0.0
 32
0.0
 13
1.0
 23
0.0
 33
0.0
 40
0.0
 40
0.0
 40
0.0
 40
0.0
 40
0.7543964167301059
 40
0.9428817120161695
 40
0.9895687843240565
 40
0.9993937759790453
 40
0.9998889642466755
 40
0.9999999999999999
 40
0.9999999999999999
 40
0.9999999999999999
 40
0.9999999999999999
 10
15.31400587795513
 20
8.837284901429255
 30
0.0
 10
15.31247920550802
 20
8.868136837096005
 30
0.0
 10
15.31057109526427
 20
8.906697102329723
 30
0.0
 10
15.30830971713348
 20
8.947219203145757
 30
0.0
 10
15.30773730891
 20
8.957209998727
 30
0.0
 10
15.30756075335104
 20
8.959554258486515
 30
0.0
 10
15.30743645181457
 20
8.95996485385878
 30
0.0
 10
15.30742555064807
 20
8.959987181127682
 30
0.0
 10
15.3074235539947
 20
8.959991270581474
 30
0.0
  0
LINE
  5
C9
330
1F
100
AcDbEntity
  8
0
  6
Continuous
 62
     7
370
    15
100
AcDbLine
 10
14.4582480304
 20
8.9599912706
 30
0.0
 11
14.4582480304
 21
9.1424571627
 31
0.0
  0
SPLINE
  5
CA
330
1F
100
AcDbEntity
  8
0
  6
Continuous
 62
     7
370
    15
100
AcDbSpline
210
0.0
220
0.0
230
1.0
 70
     8
 71
     3
 72
    11
 73
     7
 74
     0
 42
0.00000001
 43
0.00000001
 12
1.0
 22
0.0
 32
0.0
 13
1.0
 23
0.0
 33
0.0
 40
0.0
 40
0.0
 40
0.0
 40
0.0
 40
0.2795496613079881
 40
0.5591895496819931
 40
0.7794989556400773
 40
1.0
 40
1.0
 40
1.0
 40
1.0
 10
14.45824803040947
 20
9.142457162719918
 30
0.0
 10
14.45751428029833
 20
9.149179178663495
 30
0.0
 10
14.45604654325187
 20
9.16262538013931
 30
0.0
 10
14.44345801265671
 20
9.177451141646449
 30
0.0
 10
14.42817184987877
 20
9.185903384560794
 30
0.0
 10
14.41764197388822
 20
9.186767246904234
 30
0.0
 10
14.41237474700823
 20
9.18719936585417
 30
0.0
  0
SPLINE
  5
CB
330
1F
100
AcDbEntity
  8
0
  6
Continuous
 62
     7
370
    15
100
AcDbSpline
210
0.0
220
0.0
230
1.0
 70
     8
 71
     3
 72
    10
 73
     6
 74
     0
 42
0.00000001
 43
0.00000001
 12
1.0
 22
0.0
 32
0.0
 13
1.0
 23
0.0
 33
0.0
 40
0.0
 40
0.0
 40
0.0
 40
0.0
 40
0.2809165550710656
 40
0.5613889646690684
 40
1.0
 40
1.0
 40
1.0
 40
1.0
 10
14.41237474700823
 20
9.18719936585417
 30
0.0
 10
14.40787488782018
 20
9.186915010091264
 30
0.0
 10
14.39888228398415
 20
9.18634674814851
 30
0.0
 10
14.38361881040365
 20
9.179826000393035
 30
0.0
 10
14.37681934426419
 20
9.170222888834047
 30
0.0
 10
14.37267195232496
 20
9.164365389634211
 30
0.0
  0
SPLINE
  5
CC
330
1F
100
AcDbEntity
  8
0
  6
Continuous
 62
     7
370
    15
100
AcDbSpline
210
0.0
220
0.0
230
1.0
 70
     8
 71
     3
 72
     9
 73
     5
 74
     0
 42
0.00000001
 43
0.00000001
 12
1.0
 22
0.0
 32
0.0
 13
1.0
 23
0.0
 33
0.0
 40
0.0
 40
0.0
 40
0.0
 40
0.0
 40
0.5598920918043921
 40
1.0
 40
1.0
 40
1.0
 40
1.0
 10
14.37267195232496
 20
9.164365389634211
 30
0.0
 10
14.35561638122567
 20
9.169569599825065
 30
0.0
 10
14.32515413439462
 20
9.178864623396631
 30
0.0
 10
14.29337063808777
 20
9.180081082126737
 30
0.0
 10
14.27938247001302
 20
9.180616455233848
 30
0.0
  0
SPLINE
  5
CD
330
1F
100
AcDbEntity
  8
0
  6
Continuous
 62
     7
370
    15
100
AcDbSpline
210
0.0
220
0.0
230
1.0
 70
     8
 71
     3
 72
     9
 73
     5
 74
     0
 42
0.00000001
 43
0.00000001
 12
1.0
 22
0.0
 32
0.0
 13
1.0
 23
0.0
 33
0.0
 40
0.0
 40
0.0
 40
0.0
 40
0.0
 40
0.5602190940906142
 40
0.9999999999999999
 40
0.9999999999999999
 40
0.9999999999999999
 40
0.9999999999999999
 10
14.27938247001302
 20
9.180616455233848
 30
0.0
 10
14.26283255344925
 20
9.179867781085447
 30
0.0
 10
14.23329068895667
 20
9.178531385813848
 30
0.0
 10
14.20686719157368
 20
9.165477495023367
 30
0.0
 10
14.19524664195729
 20
9.159736643105887
 30
0.0
  0
SPLINE
  5
CE
330
1F
100
AcDbEntity
  8
0
  6
Continuous
 62
     7
370
    15
100
AcDbSpline
210
0.0
220
0.0
230
1.0
 70
     8
 71
     3
 72
     9
 73
     5
 74
     0
 42
0.00000001
 43
0.00000001
 12
1.0
 22
0.0
 32
0.0
 13
1.0
 23
0.0
 33
0.0
 40
0.0
 40
0.0
 40
0.0
 40
0.0
 40
0.5589166839862724
 40
1.0
 40
1.0
 40
1.0
 40
1.0
 10
14.19524664195729
 20
9.159736643105886
 30
0.0
 10
14.18238512440918
 20
9.149402653132054
 30
0.0
 10
14.1593736131829
 20
9.130913332147525
 30
0.0
 10
14.15250504722554
 20
9.102451677547851
 30
0.0
 10
14.14947543737682
 20
9.089897716557791
 30
0.0
  0
SPLINE
  5
CF
330
1F
100
AcDbEntity
  8
0
  6
Continuous
 62
     7
370
    15
100
AcDbSpline
210
0.0
220
0.0
230
1.0
 70
     8
 71
     3
 72
     9
 73
     5
 74
     0
 42
0.00000001
 43
0.00000001
 12
1.0
 22
0.0
 32
0.0
 13
1.0
 23
0.0
 33
0.0
 40
0.0
 40
0.0
 40
0.0
 40
0.0
 40
0.5600191441998957
 40
1.0
 40
1.0
 40
1.0
 40
1.0
 10
14.14947543737682
 20
9.089897716557791
 30
0.0
 10
14.14528613396443
 20
9.061060335292622
 30
0.0
 10
14.13780549074753
 20
9.009566771967444
 30
0.0
 10
14.1363384891921
 20
8.957567370642467
 30
0.0
 10
14.13569303659229
 20
8.934688629546411
 30
0.0
  0
SPLINE
  5
D0
330
1F
100
AcDbEntity
  8
0
  6
Continuous
 62
     7
370
    15
100
AcDbSpline
210
0.0
220
0.0
230
1.0
 70
     8
 71
     3
 72
     9
 73
     5
 74
     0
 42
0.00000001
 43
0.00000001
 12
1.0
 22
0.0
 32
0.0
 13
1.0
 23
0.0
 33
0.0
 40
0.0
 40
0.0
 40
0.0
 40
0.0
 40
0.5599706671555899
 40
1.0
 40
1.0
 40
1.0
 40
1.0
 10
14.13569303659229
 20
8.93468862954641
 30
0.0
 10
14.13616488811982
 20
8.915381654452359
 30
0.0
 10
14.13700752427062
 20
8.880903107223947
 30
0.0
 10
14.14066607678884
 20
8.846613505294464
 30
0.0
 10
14.14227594721261
 20
8.831525074633932
 30
0.0
  0
SPLINE
  5
D1
330
1F
100
AcDbEntity
  8
0
  6
Continuous
 62
     7
370
    15
100
AcDbSpline
210
0.0
220
0.0
230
1.0
 70
     8
 71
     3
 72
    10
 73
     6
 74
     0
 42
0.00000001
 43
0.00000001
 12
1.0
 22
0.0
 32
0.0
 13
1.0
 23
0.0
 33
0.0
 40
0.0
 40
0.0
 40
0.0
 40
0.0
 40
0.2815318597787465
 40
0.5613484175628363
 40
1.0
 40
1.0
 40
1.0
 40
1.0
 10
14.14227594721261
 20
8.831525074633932
 30
0.0
 10
14.14386557433026
 20
8.825267415823198
 30
0.0
 10
14.14703514337196
 20
8.812790224524804
 30
0.0
 10
14.16350147679993
 20
8.794908112254959
 30
0.0
 10
14.18040210026687
 20
8.79324779858269
 30
0.0
 10
14.19072056090963
 20
8.792234115193114
 30
0.0
  0
SPLINE
  5
D2
330
1F
100
AcDbEntity
  8
0
  6
Continuous
 62
     7
370
    15
100
AcDbSpline
210
0.0
220
0.0
230
1.0
 70
     8
 71
     3
 72
    11
 73
     7
 74
     0
 42
0.00000001
 43
0.00000001
 12
1.0
 22
0.0
 32
0.0
 13
1.0
 23
0.0
 33
0.0
 40
0.0
 40
0.0
 40
0.0
 40
0.0
 40
0.2801886010701157
 40
0.5599260716121273
 40
0.7798668652919867
 40
1.0
 40
1.0
 40
1.0
 40
1.0
 10
14.19072056090963
 20
8.792234115193114
 30
0.0
 10
14.19775341356155
 20
8.792893351176357
 30
0.0
 10
14.2118077952979
 20
8.794210761709664
 30
0.0
 10
14.22855080823598
 20
8.805335403848893
 30
0.0
 10
14.23942480042237
 20
8.820351910139806
 30
0.0
 10
14.2404862854133
 20
8.831433234510856
 30
0.0
 10
14.24101725987788
 20
8.836976318327368
 30
0.0
  0
SPLINE
  5
D3
330
1F
100
AcDbEntity
  8
0
  6
Continuous
 62
     7
370
    15
100
AcDbSpline
210
0.0
220
0.0
230
1.0
 70
     8
 71
     3
 72
     9
 73
     5
 74
     0
 42
0.00000001
 43
0.00000001
 12
1.0
 22
0.0
 32
0.0
 13
1.0
 23
0.0
 33
0.0
 40
0.0
 40
0.0
 40
0.0
 40
0.0
 40
0.5599986894327709
 40
1.0
 40
1.0
 40
1.0
 40
1.0
 10
14.24101725987787
 20
8.836976318327366
 30
0.0
 10
14.23964629320161
 20
8.855168074145922
 30
0.0
 10
14.23719813269313
 20
8.887653428418771
 30
0.0
 10
14.23527884038743
 20
8.920174141992192
 30
0.0
 10
14.23443434925755
 20
8.934483298585077
 30
0.0
  0
SPLINE
  5
D4
330
1F
100
AcDbEntity
  8
0
  6
Continuous
 62
     7
370
    15
100
AcDbSpline
210
0.0
220
0.0
230
1.0
 70
     8
 71
     3
 72
     9
 73
     5
 74
     0
 42
0.00000001
 43
0.00000001
 12
1.0
 22
0.0
 32
0.0
 13
1.0
 23
0.0
 33
0.0
 40
0.0
 40
0.0
 40
0.0
 40
0.0
 40
0.5602422984137839
 40
0.9999999999999999
 40
0.9999999999999999
 40
0.9999999999999999
 40
0.9999999999999999
 10
14.23443434925755
 20
8.934483298585077
 30
0.0
 10
14.2345079111663
 20
8.961972258299502
 30
0.0
 10
14.23463921490569
 20
9.011038456607368
 30
0.0
 10
14.24364098577195
 20
9.059238943755917
 30
0.0
 10
14.24759958383831
 20
9.0804354791997
 30
0.0
  0
SPLINE
  5
D5
330
1F
100
AcDbEntity
  8
0
  6
Continuous
 62
     7
370
    15
100
AcDbSpline
210
0.0
220
0.0
230
1.0
 70
     8
 71
     3
 72
     9
 73
     5
 74
     0
 42
0.00000001
 43
0.00000001
 12
1.0
 22
0.0
 32
0.0
 13
1.0
 23
0.0
 33
0.0
 40
0.0
 40
0.0
 40
0.0
 40
0.0
 40
0.5601837930750849
 40
0.9999999999999999
 40
0.9999999999999999
 40
0.9999999999999999
 40
0.9999999999999999
 10
14.2475995838383
 20
9.080435479199698
 30
0.0
 10
14.25352770352328
 20
9.082879857181428
 30
0.0
 10
14.26411015835017
 20
9.087243385744637
 30
0.0
 10
14.27550285684249
 20
9.08808701247868
 30
0.0
 10
14.28051355028002
 20
9.088458053188905
 30
0.0
  0
SPLINE
  5
D6
330
1F
100
AcDbEntity
  8
0
  6
Continuous
 62
     7
370
    15
100
AcDbSpline
210
0.0
220
0.0
230
1.0
 70
     8
 71
     3
 72
     9
 73
     5
 74
     0
 42
0.00000001
 43
0.00000001
 12
1.0
 22
0.0
 32
0.0
 13
1.0
 23
0.0
 33
0.0
 40
0.0
 40
0.0
 40
0.0
 40
0.0
 40
0.5598871474957016
 40
1.0
 40
1.0
 40
1.0
 40
1.0
 10
14.28051355028002
 20
9.088458053188905
 30
0.0
 10
14.29667114074766
 20
9.087716097203735
 30
0.0
 10
14.32552979653195
 20
9.086390908746582
 30
0.0
 10
14.35369413918194
 20
9.080041050337623
 30
0.0
 10
14.36608962836453
 20
9.077246396040259
 30
0.0
  0
SPLINE
  5
D7
330
1F
100
AcDbEntity
  8
0
  6
Continuous
 62
     7
370
    15
100
AcDbSpline
210
0.0
220
0.0
230
1.0
 70
     8
 71
     3
 72
     9
 73
     5
 74
     0
 42
0.00000001
 43
0.00000001
 12
1.0
 22
0.0
 32
0.0
 13
1.0
 23
0.0
 33
0.0
 40
0.0
 40
0.0
 40
0.0
 40
0.0
 40
0.5599924467230191
 40
1.0
 40
1.0
 40
1.0
 40
1.0
 10
14.36608962836453
 20
9.077246396040259
 30
0.0
 10
14.36604852450383
 20
9.065841890164105
 30
0.0
 10
14.36597512376255
 20
9.045476426410275
 30
0.0
 10
14.36584034773345
 20
9.025111280048485
 30
0.0
 10
14.36578104526264
 20
9.016150461825704
 30
0.0
  0
SPLINE
  5
D8
330
1F
100
AcDbEntity
  8
0
  6
Continuous
 62
     7
370
    15
100
AcDbSpline
210
0.0
220
0.0
230
1.0
 70
     8
 71
     3
 72
     9
 73
     5
 74
     0
 42
0.00000001
 43
0.00000001
 12
1.0
 22
0.0
 32
0.0
 13
1.0
 23
0.0
 33
0.0
 40
0.0
 40
0.0
 40
0.0
 40
0.0
 40
0.5600096767570072
 40
0.9999999999999999
 40
0.9999999999999999
 40
0.9999999999999999
 40
0.9999999999999999
 10
14.36578104526264
 20
9.016150461825704
 30
0.0
 10
14.36560454609416
 20
9.005187743696622
 30
0.0
 10
14.36528937445373
 20
8.98561179959407
 30
0.0
 10
14.36513052093109
 20
8.966033987956505
 30
0.0
 10
14.36506062691831
 20
8.957419940285702
 30
0.0
  0
SPLINE
  5
D9
330
1F
100
AcDbEntity
  8
0
  6
Continuous
 62
     7
370
    15
100
AcDbSpline
210
0.0
220
0.0
230
1.0
 70
     8
 71
     3
 72
     9
 73
     5
 74
     0
 42
0.00000001
 43
0.00000001
 12
1.0
 22
0.0
 32
0.0
 13
1.0
 23
0.0
 33
0.0
 40
0.0
 40
0.0
 40
0.0
 40
0.0
 40
0.5600021741771183
 40
1.0
 40
1.0
 40
1.0
 40
1.0
 10
14.36506062691831
 20
8.957419940285702
 30
0.0
 10
14.36511823100572
 20
8.934340670669327
 30
0.0
 10
14.36522109504816
 20
8.89312784921861
 30
0.0
 10
14.36582424409519
 20
8.851919434645563
 30
0.0
 10
14.36608962836453
 20
8.833787821827817
 30
0.0
  0
SPLINE
  5
DA
330
1F
100
AcDbEntity
  8
0
  6
Continuous
 62
     7
370
    15
100
AcDbSpline
210
0.0
220
0.0
230
1.0
 70
     8
 71
     3
 72
    11
 73
     7
 74
     0
 42
0.00000001
 43
0.00000001
 12
1.0
 22
0.0
 32
0.0
 13
1.0
 23
0.0
 33
0.0
 40
0.0
 40
0.0
 40
0.0
 40
0.0
 40
0.2803182850474125
 40
0.5589100469026913
 40
0.7792540405177781
 40
1.0
 40
1.0
 40
1.0
 40
1.0
 10
14.36608962836453
 20
8.833787821827817
 30
0.0
 10
14.36736186115252
 20
8.827187413638073
 30
0.0
 10
14.36989849085218
 20
8.814027250182153
 30
0.0
 10
14.38277777890405
 20
8.799361266232745
 30
0.0
 10
14.39901775959075
 20
8.792951832737025
 30
0.0
 10
14.40949617665358
 20
8.792473499676271
 30
0.0
 10
14.41474015968278
 20
8.792234115193114
 30
0.0
  0
SPLINE
  5
DB
330
1F
100
AcDbEntity
  8
0
  6
Continuous
 62
     7
370
    15
100
AcDbSpline
210
0.0
220
0.0
230
1.0
 70
     8
 71
     3
 72
    11
 73
     7
 74
     0
 42
0.00000001
 43
0.00000001
 12
1.0
 22
0.0
 32
0.0
 13
1.0
 23
0.0
 33
0.0
 40
0.0
 40
0.0
 40
0.0
 40
0.0
 40
0.2802075329291325
 40
0.5601001680337214
 40
0.7799563803256722
 40
0.9999999999999999
 40
0.9999999999999999
 40
0.9999999999999999
 40
0.9999999999999999
 10
14.41474015968278
 20
8.792234115193114
 30
0.0
 10
14.42182695199103
 20
8.792886745056094
 30
0.0
 10
14.4359925724552
 20
8.794191271355217
 30
0.0
 10
14.45283741774875
 20
8.80532897555614
 30
0.0
 10
14.46400704418788
 20
8.82042297486062
 30
0.0
 10
14.46455623076048
 20
8.83166266311835
 30
0.0
 10
14.4648309410298
 20
8.837284901429255
 30
0.0
  0
SPLINE
  5
DC
330
1F
100
AcDbEntity
  8
0
  6
Continuous
 62
     7
370
    15
100
AcDbSpline
210
0.0
220
0.0
230
1.0
 70
     8
 71
     3
 72
    13
 73
     9
 74
     0
 42
0.00000001
 43
0.00000001
 12
1.0
 22
0.0
 32
0.0
 13
1.0
 23
0.0
 33
0.0
 40
0.0
 40
0.0
 40
0.0
 40
0.0
 40
0.7543960312546801
 40
0.9428811692722204
 40
0.9895682026253078
 40
0.9993931860825115
 40
0.9998868298201009
 40
1.0
 40
1.0
 40
1.0
 40
1.0
 10
14.4648309410298
 20
8.837284901429255
 30
0.0
 10
14.46333291848284
 20
8.868149160326418
 30
0.0
 10
14.46146061641316
 20
8.906724825245117
 30
0.0
 10
14.45909494566244
 20
8.947202477004783
 30
0.0
 10
14.45858460481197
 20
8.957219723430764
 30
0.0
 10
14.458374967045
 20
8.959549819415546
 30
0.0
 10
14.45826210634085
 20
8.959965313502977
 30
0.0
 10
14.45825024292457
 20
8.959987190536856
 30
0.0
 10
14.45824803040948
 20
8.959991270581476
 30
0.0
  0
CIRCLE
  5
DD
330
1F
100
AcDbEntity
  8
0
  6
Continuous
 62
     7
370
    15
100
AcDbCircle
 10
10.9467620909
 20
10.8703493023
 30
0.0
 40
0.0590551181102335
  0
CIRCLE
  5
DE
330
1F
100
AcDbEntity
  8
0
  6
Continuous
 62
     7
370
    15
100
AcDbCircle
 10
12.5420227494
 20
9.2394026833
 30
0.0
 40
0.0590551181102352
  0
LINE
  5
DF
330
1F
100
AcDbEntity
  8
0
  6
Continuous
 62
     7
370
    15
100
AcDbLine
 10
9.4563190431
 20
10.9703491668
 30
0.0
 11
10.4563189944
 21
10.9703491668
 31
0.0
  0
LINE
  5
E0
330
1F
100
AcDbEntity
  8
0
  6
Continuous
 62
     7
370
    15
100
AcDbLine
 10
9.4563190431
 20
10.7703491838
 30
0.0
 11
9.4563190431
 21
10.9703491668
 31
0.0
  0
LINE
  5
E1
330
1F
100
AcDbEntity
  8
0
  6
Continuous
 62
     7
370
    15
100
AcDbLine
 10
10.4563189944
 20
10.7703491838
 30
0.0
 11
9.4563190431
 21
10.7703491838
 31
0.0
  0
LINE
  5
E2
330
1F
100
AcDbEntity
  8
0
  6
Continuous
 62
     7
370
    15
100
AcDbLine
 10
10.4563189944
 20
10.9703491668
 30
0.0
 11
10.4563189944
 21
10.7703491838
 31
0.0
  0
LINE
  5
E3
330
1F
100
AcDbEntity
  8
0
  6
Continuous
 62
     7
370
    15
100
AcDbLine
 10
16.0420226412
 20
11.5999549068
 30
0.0
 11
16.0420226412
 21
11.6999551916
 31
0.0
  0
ARC
  5
E4
330
1F
100
AcDbEntity
  8
0
  6
Continuous
 62
     7
370
    15
100
AcDbCircle
 10
16.1420227494
 20
11.6999551402
 30
0.0
 40
0.0999999999999996
100
AcDbArc
 50
90.0
 51
180.0
  0
LINE
  5
E5
330
1F
100
AcDbEntity
  8
0
  6
Continuous
 62
     7
370
    15
100
AcDbLine
 10
16.142022926
 20
11.7999548897
 30
0.0
 11
16.442022607
 21
11.7999548897
 31
0.0
  0
ARC
  5
E6
330
1F
100
AcDbEntity
  8
0
  6
Continuous
 62
     7
370
    15
100
AcDbCircle
 10
16.4420227494
 20
11.6999551402
 30
0.0
 40
0.0999999999999996
100
AcDbArc
 50
0.0
 51
90.0
  0
LINE
  5
E7
330
1F
100
AcDbEntity
  8
0
  6
Continuous
 62
     7
370
    15
100
AcDbLine
 10
16.5420228918
 20
11.6999551916
 30
0.0
 11
16.5420228918
 21
8.6999548612
 31
0.0
  0
ARC
  5
E8
330
1F
100
AcDbEntity
  8
0
  6
Continuous
 62
     7
370
    15
100
AcDbCircle
 10
15.6420227494
 20
8.6999551402
 30
0.0
 40
0.9000000000000004
100
AcDbArc
 50
270.0
 51
0.0
  0
LINE
  5
E9
330
1F
100
AcDbEntity
  8
0
  6
Continuous
 62
     7
370
    15
100
AcDbLine
 10
15.6420226753
 20
7.7999552314
 30
0.0
 11
9.4420227649
 21
7.7999552314
 31
0.0
  0
ARC
  5
EA
330
1F
100
AcDbEntity
  8
0
  6
Continuous
 62
     7
370
    15
100
AcDbCircle
 10
9.4420227494
 20
8.6999551402
 30
0.0
 40
0.9000000000000004
100
AcDbArc
 50
180.0
 51
270.0
  0
LINE
  5
EB
330
1F
100
AcDbEntity
  8
0
  6
Continuous
 62
     7
370
    15
100
AcDbLine
 10
8.5420227318
 20
8.6999548612
 30
0.0
 11
8.5420227318
 21
11.6999551916
 31
0.0
  0
ARC
  5
EC
330
1F
100
AcDbEntity
  8
0
  6
Continuous
 62
     7
370
    15
100
AcDbCircle
 10
8.6420227494
 20
11.6999551402
 30
0.0
 40
0.0999999999999996
100
AcDbArc
 50
90.0
 51
180.0
  0
LINE
  5
ED
330
1F
100
AcDbEntity
  8
0
  6
Continuous
 62
     7
370
    15
100
AcDbLine
 10
8.6420227416
 20
11.7999548897
 30
0.0
 11
8.9420227492
 21
11.7999548897
 31
0.0
  0
ARC
  5
EE
330
1F
100
AcDbEntity
  8
0
  6
Continuous
 62
     7
370
    15
100
AcDbCircle
 10
8.9420227494
 20
11.6999551402
 30
0.0
 40
0.0999999999999996
100
AcDbArc
 50
0.0
 51
90.0
  0
LINE
  5
EF
330
1F
100
AcDbEntity
  8
0
  6
Continuous
 62
     7
370
    15
100
AcDbLine
 10
9.0420227533
 20
11.6999551916
 30
0.0
 11
9.0420227533
 21
11.5999549068
 31
0.0
  0
ARC
  5
F0
330
1F
100
AcDbEntity
  8
0
  6
Continuous
 62
     7
370
    15
100
AcDbCircle
 10
9.3420227494
 20
11.5999551402
 30
0.0
 40
0.3000000000000007
100
AcDbArc
 50
180.0
 51
270.0
  0
LINE
  5
F1
330
1F
100
AcDbEntity
  8
0
  6
Continuous
 62
     7
370
    15
100
AcDbLine
 10
9.3420227368
 20
11.2999552258
 30
0.0
 11
15.7420229601
 21
11.2999552258
 31
0.0
  0
ARC
  5
F2
330
1F
100
AcDbEntity
  8
0
  6
Continuous
 62
     7
370
    15
100
AcDbCircle
 10
15.7420227494
 20
11.5999551402
 30
0.0
 40
0.3000000000000025
100
AcDbArc
 50
270.0
 51
0.0
  0
LINE
  5
F3
330
1F
100
AcDbEntity
  8
0
  6
Continuous
 62
     7
370
    15
100
AcDbLine
 10
14.6277264459
 20
10.9703491668
 30
0.0
 11
15.6277263605
 21
10.9703491668
 31
0.0
  0
LINE
  5
F4
330
1F
100
AcDbEntity
  8
0
  6
Continuous
 62
     7
370
    15
100
AcDbLine
 10
14.6277264459
 20
10.7703491838
 30
0.0
 11
14.6277264459
 21
10.9703491668
 31
0.0
  0
LINE
  5
F5
330
1F
100
AcDbEntity
  8
0
  6
Continuous
 62
     7
370
    15
100
AcDbLine
 10
15.6277263605
 20
10.7703491838
 30
0.0
 11
14.6277264459
 21
10.7703491838
 31
0.0
  0
LINE
  5
F6
330
1F
100
AcDbEntity
  8
0
  6
Continuous
 62
     7
370
    15
100
AcDbLine
 10
15.6277263605
 20
10.9703491668
 30
0.0
 11
15.6277263605
 21
10.7703491838
 31
0.0
  0
LINE
  5
F7
330
1F
100
AcDbEntity
  8
0
  6
Continuous
 62
     7
370
    15
100
AcDbLine
 10
12.4420226554
 20
9.0974093098
 30
0.0
 11
12.6420226383
 21
9.0974093098
 31
0.0
  0
LINE
  5
F8
330
1F
100
AcDbEntity
  8
0
  6
Continuous
 62
     7
370
    15
100
AcDbLine
 10
12.4420226554
 20
8.0974091019
 30
0.0
 11
12.4420226554
 21
9.0974093098
 31
0.0
  0
LINE
  5
F9
330
1F
100
AcDbEntity
  8
0
  6
Continuous
 62
     7
370
    15
100
AcDbLine
 10
12.6420226383
 20
8.0974091019
 30
0.0
 11
12.4420226554
 21
8.0974091019
 31
0.0
  0
LINE
  5
FA
330
1F
100
AcDbEntity
  8
0
  6
Continuous
 62
     7
370
    15
100
AcDbLine
 10
12.6420226383
 20
9.0974093098
 30
0.0
 11
12.6420226383
 21
8.0974091019
 31
0.0
  0
CIRCLE
  5
FB
330
1F
100
AcDbEntity
  8
0
  6
Continuous
 62
     7
370
    15
100
AcDbCircle
 10
14.137283408
 20
10.8703493023
 30
0.0
 40
0.059055118110237
  0
SPLINE
  5
FC
330
1F
100
AcDbEntity
  8
0
  6
Continuous
 62
     7
370
    15
100
AcDbSpline
210
0.0
220
0.0
230
1.0
 70
     8
 71
     3
 72
     9
 73
     5
 74
     0
 42
0.00000001
 43
0.00000001
 12
1.0
 22
0.0
 32
0.0
 13
1.0
 23
0.0
 33
0.0
 40
0.0
 40
0.0
 40
0.0
 40
0.0
 40
0.559873126373118
 40
1.0
 40
1.0
 40
1.0
 40
1.0
 10
14.09413932995759
 20
9.074778317885041
 30
0.0
 10
14.09349958827367
 20
9.085024632182776
 30
0.0
 10
14.09235693352962
 20
9.103325768306435
 30
0.0
 10
14.0894520866962
 20
9.121427524332793
 30
0.0
 10
14.08817358554104
 20
9.12939459361983
 30
0.0
  0
SPLINE
  5
FD
330
1F
100
AcDbEntity
  8
0
  6
Continuous
 62
     7
370
    15
100
AcDbSpline
210
0.0
220
0.0
230
1.0
 70
     8
 71
     3
 72
    11
 73
     7
 74
     0
 42
0.00000001
 43
0.00000001
 12
1.0
 22
0.0
 32
0.0
 13
1.0
 23
0.0
 33
0.0
 40
0.0
 40
0.0
 40
0.0
 40
0.0
 40
0.2803020691893622
 40
0.5592090462273736
 40
0.7793352100964784
 40
0.9999999999999999
 40
0.9999999999999999
 40
0.9999999999999999
 40
0.9999999999999999
 10
14.08817358554104
 20
9.12939459361983
 30
0.0
 10
14.08669798440066
 20
9.136268353537941
 30
0.0
 10
14.08375412633813
 20
9.149981661965953
 30
0.0
 10
14.07092319594769
 20
9.16577283871557
 30
0.0
 10
14.05407681565565
 20
9.17316887832822
 30
0.0
 10
14.04307601279549
 20
9.173745087818029
 30
0.0
 10
14.0375688901308
 20
9.174033544613525
 30
0.0
  0
SPLINE
  5
FE
330
1F
100
AcDbEntity
  8
0
  6
Continuous
 62
     7
370
    15
100
AcDbSpline
210
0.0
220
0.0
230
1.0
 70
     8
 71
     3
 72
     9
 73
     5
 74
     0
 42
0.00000001
 43
0.00000001
 12
1.0
 22
0.0
 32
0.0
 13
1.0
 23
0.0
 33
0.0
 40
0.0
 40
0.0
 40
0.0
 40
0.0
 40
0.5574398353458321
 40
1.0
 40
1.0
 40
1.0
 40
1.0
 10
14.0375688901308
 20
9.174033544613525
 30
0.0
 10
14.02611173010256
 20
9.171380745638343
 30
0.0
 10
14.00555855233921
 20
9.16662184825252
 30
0.0
 10
13.98981667620796
 20
9.152722643062562
 30
0.0
 10
13.98284994891535
 20
9.146571408525132
 30
0.0
  0
SPLINE
  5
FF
330
1F
100
AcDbEntity
  8
0
  6
Continuous
 62
     7
370
    15
100
AcDbSpline
210
0.0
220
0.0
230
1.0
 70
     8
 71
     3
 72
     9
 73
     5
 74
     0
 42
0.00000001
 43
0.00000001
 12
1.0
 22
0.0
 32
0.0
 13
1.0
 23
0.0
 33
0.0
 40
0.0
 40
0.0
 40
0.0
 40
0.0
 40
0.5598692251452824
 40
0.9999999999999999
 40
0.9999999999999999
 40
0.9999999999999999
 40
0.9999999999999999
 10
13.98284994891535
 20
9.146571408525132
 30
0.0
 10
13.92281949159075
 20
9.086860503913355
 30
0.0
 10
13.81559720712062
 20
8.980208982575883
 30
0.0
 10
13.72247083799898
 20
8.861110156860413
 30
0.0
 10
13.68148305699806
 20
8.808691098413973
 30
0.0
  0
SPLINE
  5
100
330
1F
100
AcDbEntity
  8
0
  6
Continuous
 62
     7
370
    15
100
AcDbSpline
210
0.0
220
0.0
230
1.0
 70
     8
 71
     3
 72
     9
 73
     5
 74
     0
 42
0.00000001
 43
0.00000001
 12
1.0
 22
0.0
 32
0.0
 13
1.0
 23
0.0
 33
0.0
 40
0.0
 40
0.0
 40
0.0
 40
0.0
 40
0.560004008983698
 40
0.9999999999999999
 40
0.9999999999999999
 40
0.9999999999999999
 40
0.9999999999999999
 10
13.68148305699806
 20
8.808691098413973
 30
0.0
 10
13.68095869861482
 20
8.829367030590223
 30
0.0
 10
13.68002235106223
 20
8.866288073733772
 30
0.0
 10
13.67953667208691
 20
8.903217684643097
 30
0.0
 10
13.67932297528485
 20
8.919466565392995
 30
0.0
  0
SPLINE
  5
101
330
1F
100
AcDbEntity
  8
0
  6
Continuous
 62
     7
370
    15
100
AcDbSpline
210
0.0
220
0.0
230
1.0
 70
     8
 71
     3
 72
    11
 73
     7
 74
     0
 42
0.00000001
 43
0.00000001
 12
1.0
 22
0.0
 32
0.0
 13
1.0
 23
0.0
 33
0.0
 40
0.0
 40
0.0
 40
0.0
 40
0.0
 40
0.3399946333303367
 40
0.5599962292039862
 40
0.7800003184824199
 40
1.0
 40
1.0
 40
1.0
 40
1.0
 10
13.67932297528485
 20
8.919466565392993
 30
0.0
 10
13.67948084048392
 20
8.938200241234517
 30
0.0
 10
13.67974085610632
 20
8.969055986596214
 30
0.0
 10
13.68060229808162
 20
9.012026595421732
 30
0.0
 10
13.68121440780557
 20
9.04838885059273
 30
0.0
 10
13.68139350786528
 20
9.072633068464315
 30
0.0
 10
13.68148305699806
 20
9.084755055966246
 30
0.0
  0
SPLINE
  5
102
330
1F
100
AcDbEntity
  8
0
  6
Continuous
 62
     7
370
    15
100
AcDbSpline
210
0.0
220
0.0
230
1.0
 70
     8
 71
     3
 72
    11
 73
     7
 74
     0
 42
0.00000001
 43
0.00000001
 12
1.0
 22
0.0
 32
0.0
 13
1.0
 23
0.0
 33
0.0
 40
0.0
 40
0.0
 40
0.0
 40
0.0
 40
0.5010183135716983
 40
0.7501748262073713
 40
0.8749938323987516
 40
1.0
 40
1.0
 40
1.0
 40
1.0
 10
13.68148305699806
 20
9.084755055966246
 30
0.0
 10
13.680927669742
 20
9.10597293246313
 30
0.0
 10
13.68009608828676
 20
9.137742463401167
 30
0.0
 10
13.66457786459437
 20
9.172773408731182
 30
0.0
 10
13.64683127119016
 20
9.18565912480854
 30
0.0
 10
13.6361984578286
 20
9.186685695813718
 30
0.0
 10
13.63087806825788
 20
9.18719936585417
 30
0.0
  0
SPLINE
  5
103
330
1F
100
AcDbEntity
  8
0
  6
Continuous
 62
     7
370
    15
100
AcDbSpline
210
0.0
220
0.0
230
1.0
 70
     8
 71
     3
 72
     9
 73
     5
 74
     0
 42
0.00000001
 43
0.00000001
 12
1.0
 22
0.0
 32
0.0
 13
1.0
 23
0.0
 33
0.0
 40
0.0
 40
0.0
 40
0.0
 40
0.0
 40
0.5599645548563411
 40
1.0
 40
1.0
 40
1.0
 40
1.0
 10
13.63087806825788
 20
9.18719936585417
 30
0.0
 10
13.62228144276277
 20
9.1865653870504
 30
0.0
 10
13.60692935409832
 20
9.185433210382659
 30
0.0
 10
13.5950610454816
 20
9.175803069700276
 30
0.0
 10
13.58983856901634
 20
9.17156546645831
 30
0.0
  0
SPLINE
  5
104
330
1F
100
AcDbEntity
  8
0
  6
Continuous
 62
     7
370
    15
100
AcDbSpline
210
0.0
220
0.0
230
1.0
 70
     8
 71
     3
 72
     9
 73
     5
 74
     0
 42
0.00000001
 43
0.00000001
 12
1.0
 22
0.0
 32
0.0
 13
1.0
 23
0.0
 33
0.0
 40
0.0
 40
0.0
 40
0.0
 40
0.0
 40
0.5593182162988056
 40
1.0
 40
1.0
 40
1.0
 40
1.0
 10
13.58983856901634
 20
9.17156546645831
 30
0.0
 10
13.58540159644642
 20
9.166008672332602
 30
0.0
 10
13.57746877316152
 20
9.156073730176635
 30
0.0
 10
13.57655952348275
 20
9.143481038265255
 30
0.0
 10
13.57615883371248
 20
9.137931668332149
 30
0.0
  0
SPLINE
  5
105
330
1F
100
AcDbEntity
  8
0
  6
Continuous
 62
     7
370
    15
100
AcDbSpline
210
0.0
220
0.0
230
1.0
 70
     8
 71
     3
 72
     9
 73
     5
 74
     0
 42
0.00000001
 43
0.00000001
 12
1.0
 22
0.0
 32
0.0
 13
1.0
 23
0.0
 33
0.0
 40
0.0
 40
0.0
 40
0.0
 40
0.0
 40
0.5600004835964006
 40
1.0
 40
1.0
 40
1.0
 40
1.0
 10
13.57615883371248
 20
9.137931668332149
 30
0.0
 10
13.57699585549599
 20
9.1222296503566
 30
0.0
 10
13.57849053596151
 20
9.094190356756869
 30
0.0
 10
13.5797284138468
 20
9.066138599780354
 30
0.0
 10
13.58027307951769
 20
9.053795840276413
 30
0.0
  0
SPLINE
  5
106
330
1F
100
AcDbEntity
  8
0
  6
Continuous
 62
     7
370
    15
100
AcDbSpline
210
0.0
220
0.0
230
1.0
 70
     8
 71
     3
 72
     9
 73
     5
 74
     0
 42
0.00000001
 43
0.00000001
 12
1.0
 22
0.0
 32
0.0
 13
1.0
 23
0.0
 33
0.0
 40
0.0
 40
0.0
 40
0.0
 40
0.0
 40
0.5599971814961487
 40
1.0
 40
1.0
 40
1.0
 40
1.0
 10
13.58027307951769
 20
9.053795840276413
 30
0.0
 10
13.58076094439301
 20
9.030852760006121
 30
0.0
 10
13.5816321360551
 20
8.989882767605453
 30
0.0
 10
13.58240269585084
 20
8.948910763936967
 30
0.0
 10
13.5827417443328
 20
8.930882966843082
 30
0.0
  0
SPLINE
  5
107
330
1F
100
AcDbEntity
  8
0
  6
Continuous
 62
     7
370
    15
100
AcDbSpline
210
0.0
220
0.0
230
1.0
 70
     8
 71
     3
 72
     9
 73
     5
 74
     0
 42
0.00000001
 43
0.00000001
 12
1.0
 22
0.0
 32
0.0
 13
1.0
 23
0.0
 33
0.0
 40
0.0
 40
0.0
 40
0.0
 40
0.0
 40
0.5600021177855744
 40
1.0
 40
1.0
 40
1.0
 40
1.0
 10
13.5827417443328
 20
8.930882966843082
 30
0.0
 10
13.58243164413596
 20
8.90625032935227
 30
0.0
 10
13.58187789587859
 20
8.862263643037192
 30
0.0
 10
13.58154911569787
 20
8.818274722966228
 30
0.0
 10
13.58140445311464
 20
8.798919691294103
 30
0.0
  0
SPLINE
  5
108
330
1F
100
AcDbEntity
  8
0
  6
Continuous
 62
     7
370
    15
100
AcDbSpline
210
0.0
220
0.0
230
1.0
 70
     8
 71
     3
 72
     9
 73
     5
 74
     0
 42
0.00000001
 43
0.00000001
 12
1.0
 22
0.0
 32
0.0
 13
1.0
 23
0.0
 33
0.0
 40
0.0
 40
0.0
 40
0.0
 40
0.0
 40
0.5599960757153043
 40
1.0
 40
1.0
 40
1.0
 40
1.0
 10
13.58140445311464
 20
8.798919691294103
 30
0.0
 10
13.5803282249818
 20
8.775711440568525
 30
0.0
 10
13.57840637556265
 20
8.734267845279158
 30
0.0
 10
13.5768455868646
 20
8.692809145215595
 30
0.0
 10
13.57615883371248
 20
8.674567154491887
 30
0.0
  0
SPLINE
  5
109
330
1F
100
AcDbEntity
  8
0
  6
Continuous
 62
     7
370
    15
100
AcDbSpline
210
0.0
220
0.0
230
1.0
 70
     8
 71
     3
 72
    11
 73
     7
 74
     0
 42
0.00000001
 43
0.00000001
 12
1.0
 22
0.0
 32
0.0
 13
1.0
 23
0.0
 33
0.0
 40
0.0
 40
0.0
 40
0.0
 40
0.0
 40
0.2788533913692354
 40
0.5590592811878555
 40
0.7795912068139473
 40
1.0
 40
1.0
 40
1.0
 40
1.0
 10
13.57615883371248
 20
8.674567154491886
 30
0.0
 10
13.5774820960766
 20
8.666459697398826
 30
0.0
 10
13.58013503890968
 20
8.650205460315851
 30
0.0
 10
13.59668230407342
 20
8.63356692388377
 30
0.0
 10
13.61487170318109
 20
8.622861079916648
 30
0.0
 10
13.62766946882153
 20
8.62167528005023
 30
0.0
 10
13.63406656475743
 20
8.621082545683985
 30
0.0
  0
SPLINE
  5
10A
330
1F
100
AcDbEntity
  8
0
  6
Continuous
 62
     7
370
    15
100
AcDbSpline
210
0.0
220
0.0
230
1.0
 70
     8
 71
     3
 72
    10
 73
     6
 74
     0
 42
0.00000001
 43
0.00000001
 12
1.0
 22
0.0
 32
0.0
 13
1.0
 23
0.0
 33
0.0
 40
0.0
 40
0.0
 40
0.0
 40
0.0
 40
0.2781053375932443
 40
0.5586868165305139
 40
1.0
 40
1.0
 40
1.0
 40
1.0
 10
13.63406656475743
 20
8.621082545683985
 30
0.0
 10
13.64086867069287
 20
8.622577251030759
 30
0.0
 10
13.65453344585922
 20
8.625579969997128
 30
0.0
 10
13.67314874847531
 20
8.642775933864552
 30
0.0
 10
13.68381056982532
 20
8.65688867567067
 30
0.0
 10
13.69032842148233
 20
8.665516165716348
 30
0.0
  0
SPLINE
  5
10B
330
1F
100
AcDbEntity
  8
0
  6
Continuous
 62
     7
370
    15
100
AcDbSpline
210
0.0
220
0.0
230
1.0
 70
     8
 71
     3
 72
     9
 73
     5
 74
     0
 42
0.00000001
 43
0.00000001
 12
1.0
 22
0.0
 32
0.0
 13
1.0
 23
0.0
 33
0.0
 40
0.0
 40
0.0
 40
0.0
 40
0.0
 40
0.5600362058957581
 40
1.0
 40
1.0
 40
1.0
 40
1.0
 10
13.69032842148233
 20
8.665516165716348
 30
0.0
 10
13.7424568153025
 20
8.738474221167179
 30
0.0
 10
13.8355372148756
 20
8.868748040400236
 30
0.0
 10
13.94798324949968
 20
8.982613452015665
 30
0.0
 10
13.99745543352487
 20
9.03271011052723
 30
0.0
  0
SPLINE
  5
10C
330
1F
100
AcDbEntity
  8
0
  6
Continuous
 62
     7
370
    15
100
AcDbSpline
210
0.0
220
0.0
230
1.0
 70
     8
 71
     3
 72
     9
 73
     5
 74
     0
 42
0.00000001
 43
0.00000001
 12
1.0
 22
0.0
 32
0.0
 13
1.0
 23
0.0
 33
0.0
 40
0.0
 40
0.0
 40
0.0
 40
0.0
 40
0.5599880781543405
 40
0.9999999999999999
 40
0.9999999999999999
 40
0.9999999999999999
 40
0.9999999999999999
 10
13.99745543352488
 20
9.03271011052723
 30
0.0
 10
13.99759541478254
 20
9.022918922971071
 30
0.0
 10
13.99784538663575
 20
9.005434287247343
 30
0.0
 10
13.99778888015288
 20
8.987948063446217
 30
0.0
 10
13.99776401662676
 20
8.980253916505658
 30
0.0
  0
SPLINE
  5
10D
330
1F
100
AcDbEntity
  8
0
  6
Continuous
 62
     7
370
    15
100
AcDbSpline
210
0.0
220
0.0
230
1.0
 70
     8
 71
     3
 72
    11
 73
     7
 74
     0
 42
0.00000001
 43
0.00000001
 12
1.0
 22
0.0
 32
0.0
 13
1.0
 23
0.0
 33
0.0
 40
0.0
 40
0.0
 40
0.0
 40
0.0
 40
0.3400035280602067
 40
0.5600044557176859
 40
0.7800045873907828
 40
1.0
 40
1.0
 40
1.0
 40
1.0
 10
13.99776401662676
 20
8.980253916505658
 30
0.0
 10
13.99776644669029
 20
8.954221490525146
 30
0.0
 10
13.9977704491382
 20
8.91134465737756
 30
0.0
 10
13.99736055419766
 20
8.851625468488914
 30
0.0
 10
13.99693533075745
 20
8.80109326377526
 30
0.0
 10
13.99604773035493
 20
8.767416129578313
 30
0.0
 10
13.99560393491354
 20
8.750577743077747
 30
0.0
  0
SPLINE
  5
10E
330
1F
100
AcDbEntity
  8
0
  6
Continuous
 62
     7
370
    15
100
AcDbSpline
210
0.0
220
0.0
230
1.0
 70
     8
 71
     3
 72
     9
 73
     5
 74
     0
 42
0.00000001
 43
0.00000001
 12
1.0
 22
0.0
 32
0.0
 13
1.0
 23
0.0
 33
0.0
 40
0.0
 40
0.0
 40
0.0
 40
0.0
 40
0.5599863938036543
 40
1.0
 40
1.0
 40
1.0
 40
1.0
 10
13.99560393491354
 20
8.750577743077747
 30
0.0
 10
13.99519588159423
 20
8.743620890521713
 30
0.0
 10
13.99446719724791
 20
8.731197637683765
 30
0.0
 10
13.99339925958116
 20
8.7187991267271
 30
0.0
 10
13.99292935247722
 20
8.713343613209593
 30
0.0
  0
SPLINE
  5
10F
330
1F
100
AcDbEntity
  8
0
  6
Continuous
 62
     7
370
    15
100
AcDbSpline
210
0.0
220
0.0
230
1.0
 70
     8
 71
     3
 72
     9
 73
     5
 74
     0
 42
0.00000001
 43
0.00000001
 12
1.0
 22
0.0
 32
0.0
 13
1.0
 23
0.0
 33
0.0
 40
0.0
 40
0.0
 40
0.0
 40
0.0
 40
0.5600104919778585
 40
1.0
 40
1.0
 40
1.0
 40
1.0
 10
13.99292935247722
 20
8.713343613209593
 30
0.0
 10
13.99234168971464
 20
8.70625009824965
 30
0.0
 10
13.99129231158512
 20
8.693583344569927
 30
0.0
 10
13.991000789544
 20
8.680877447553547
 30
0.0
 10
13.99087252290455
 20
8.67528698617633
 30
0.0
  0
SPLINE
  5
110
330
1F
100
AcDbEntity
  8
0
  6
Continuous
 62
     7
370
    15
100
AcDbSpline
210
0.0
220
0.0
230
1.0
 70
     8
 71
     3
 72
    11
 73
     7
 74
     0
 42
0.00000001
 43
0.00000001
 12
1.0
 22
0.0
 32
0.0
 13
1.0
 23
0.0
 33
0.0
 40
0.0
 40
0.0
 40
0.0
 40
0.0
 40
0.2806208513563916
 40
0.5586813522184668
 40
0.7790300425520682
 40
1.0
 40
1.0
 40
1.0
 40
1.0
 10
13.99087252290455
 20
8.675286986176328
 30
0.0
 10
13.99127995822164
 20
8.66781708144428
 30
0.0
 10
13.99209111146558
 20
8.652945426481818
 30
0.0
 10
14.00541194547733
 20
8.635427363690349
 30
0.0
 10
14.02354692565682
 20
8.628447250598725
 30
0.0
 10
14.03515239884479
 20
8.627925907936207
 30
0.0
 10
14.04096330425157
 20
8.627664869644416
 30
0.0
  0
SPLINE
  5
111
330
1F
100
AcDbEntity
  8
0
  6
Continuous
 62
     7
370
    15
100
AcDbSpline
210
0.0
220
0.0
230
1.0
 70
     8
 71
     3
 72
    12
 73
     8
 74
     0
 42
0.00000001
 43
0.00000001
 12
1.0
 22
0.0
 32
0.0
 13
1.0
 23
0.0
 33
0.0
 40
0.0
 40
0.0
 40
0.0
 40
0.0
 40
0.0624398839615773
 40
0.1248232778018392
 40
0.2494037797284983
 40
0.4993175563226522
 40
1.0
 40
1.0
 40
1.0
 40
1.0
 10
14.04096330425157
 20
8.627664869644416
 30
0.0
 10
14.04508464936843
 20
8.62806747221589
 30
0.0
 10
14.05332361097118
 20
8.628872313119402
 30
0.0
 10
14.06718420391142
 20
8.638482509290482
 30
0.0
 10
14.08252148056155
 20
8.66329329299922
 30
0.0
 10
14.09527611693991
 20
8.719769990802442
 30
0.0
 10
14.0962601693437
 20
8.768853027952343
 30
0.0
 10
14.09691657787458
 20
8.801593687070541
 30
0.0
  0
SPLINE
  5
112
330
1F
100
AcDbEntity
  8
0
  6
Continuous
 62
     7
370
    15
100
AcDbSpline
210
0.0
220
0.0
230
1.0
 70
     8
 71
     3
 72
     9
 73
     5
 74
     0
 42
0.00000001
 43
0.00000001
 12
1.0
 22
0.0
 32
0.0
 13
1.0
 23
0.0
 33
0.0
 40
0.0
 40
0.0
 40
0.0
 40
0.0
 40
0.5599947014066877
 40
1.0
 40
1.0
 40
1.0
 40
1.0
 10
14.09691657787458
 20
8.801593687070541
 30
0.0
 10
14.09678640680084
 20
8.81178868419406
 30
0.0
 10
14.09655395625549
 20
8.829994208456892
 30
0.0
 10
14.09630589462287
 20
8.848199526433186
 30
0.0
 10
14.09619674619014
 20
8.85620996280533
 30
0.0
  0
SPLINE
  5
113
330
1F
100
AcDbEntity
  8
0
  6
Continuous
 62
     7
370
    15
100
AcDbSpline
210
0.0
220
0.0
230
1.0
 70
     8
 71
     3
 72
    11
 73
     7
 74
     0
 42
0.00000001
 43
0.00000001
 12
1.0
 22
0.0
 32
0.0
 13
1.0
 23
0.0
 33
0.0
 40
0.0
 40
0.0
 40
0.0
 40
0.0
 40
0.3400022561164752
 40
0.5600010141515096
 40
0.7800012039486798
 40
1.0
 40
1.0
 40
1.0
 40
1.0
 10
14.09619674619014
 20
8.85620996280533
 30
0.0
 10
14.09590294162433
 20
8.880980623782136
 30
0.0
 10
14.09541903055651
 20
8.921779162670246
 30
0.0
 10
14.09482132622362
 20
8.978606534984579
 30
0.0
 10
14.09439826696094
 20
9.026691865227923
 30
0.0
 10
14.09422564210977
 20
9.058749534181414
 30
0.0
 10
14.09413932995759
 20
9.074778317885041
 30
0.0
  0
LINE
  5
114
330
1F
100
AcDbEntity
  8
0
  6
Continuous
 62
     7
370
    15
100
AcDbLine
 10
14.7334894908
 20
9.0191330407
 30
0.0
 11
14.8480706205
 21
8.8068395998
 31
0.0
  0
LINE
  5
115
330
1F
100
AcDbEntity
  8
0
  6
Continuous
 62
     7
370
    15
100
AcDbLine
 10
14.8480706205
 20
8.8068395998
 30
0.0
 11
14.8907554074
 21
8.7224978541
 31
0.0
  0
SPLINE
  5
116
330
1F
100
AcDbEntity
  8
0
  6
Continuous
 62
     7
370
    15
100
AcDbSpline
210
0.0
220
0.0
230
1.0
 70
     8
 71
     3
 72
    10
 73
     6
 74
     0
 42
0.00000001
 43
0.00000001
 12
1.0
 22
0.0
 32
0.0
 13
1.0
 23
0.0
 33
0.0
 40
0.0
 40
0.0
 40
0.0
 40
0.0
 40
0.5616028300597324
 40
0.7818754277318759
 40
1.0
 40
1.0
 40
1.0
 40
1.0
 10
14.89075540738068
 20
8.722497854125686
 30
0.0
 10
14.90449127289218
 20
8.700306681327584
 30
0.0
 10
14.92361463756775
 20
8.669411657665501
 30
0.0
 10
14.95679167360222
 20
8.634177630495834
 30
0.0
 10
14.97732579902329
 20
8.629828687053147
 30
0.0
 10
14.98754255595395
 20
8.627664869644416
 30
0.0
  0
SPLINE
  5
117
330
1F
100
AcDbEntity
  8
0
  6
Continuous
 62
     7
370
    15
100
AcDbSpline
210
0.0
220
0.0
230
1.0
 70
     8
 71
     3
 72
    11
 73
     7
 74
     0
 42
0.00000001
 43
0.00000001
 12
1.0
 22
0.0
 32
0.0
 13
1.0
 23
0.0
 33
0.0
 40
0.0
 40
0.0
 40
0.0
 40
0.0
 40
0.2798458909052917
 40
0.5597720417886541
 40
0.7799186739898274
 40
1.0
 40
1.0
 40
1.0
 40
1.0
 10
14.98754255595395
 20
8.627664869644416
 30
0.0
 10
14.99374200423515
 20
8.62828475532532
 30
0.0
 10
15.00614267880324
 20
8.629524704470727
 30
0.0
 10
15.02001543312924
 20
8.640638829904495
 30
0.0
 10
15.02884645242252
 20
8.65413934734725
 30
0.0
 10
15.02976748269501
 20
8.663850037441348
 30
0.0
 10
15.03022792951554
 20
8.668704662215898
 30
0.0
  0
SPLINE
  5
118
330
1F
100
AcDbEntity
  8
0
  6
Continuous
 62
     7
370
    15
100
AcDbSpline
210
0.0
220
0.0
230
1.0
 70
     8
 71
     3
 72
     9
 73
     5
 74
     0
 42
0.00000001
 43
0.00000001
 12
1.0
 22
0.0
 32
0.0
 13
1.0
 23
0.0
 33
0.0
 40
0.0
 40
0.0
 40
0.0
 40
0.0
 40
0.5589605898940959
 40
1.0
 40
1.0
 40
1.0
 40
1.0
 10
15.03022792951554
 20
8.668704662215896
 30
0.0
 10
15.02929693813734
 20
8.67590136674906
 30
0.0
 10
15.02763136207521
 20
8.688776522284666
 30
0.0
 10
15.01936909554382
 20
8.698687264240561
 30
0.0
 10
15.01572511038668
 20
8.703058292026501
 30
0.0
  0
SPLINE
  5
119
330
1F
100
AcDbEntity
  8
0
  6
Continuous
 62
     7
370
    15
100
AcDbSpline
210
0.0
220
0.0
230
1.0
 70
     8
 71
     3
 72
     9
 73
     5
 74
     0
 42
0.00000001
 43
0.00000001
 12
1.0
 22
0.0
 32
0.0
 13
1.0
 23
0.0
 33
0.0
 40
0.0
 40
0.0
 40
0.0
 40
0.0
 40
0.5599545560583794
 40
1.0
 40
1.0
 40
1.0
 40
1.0
 10
15.01572511038668
 20
8.703058292026501
 30
0.0
 10
15.00675276064214
 20
8.71442319969978
 30
0.0
 10
14.99072940723343
 20
8.73471932471621
 30
0.0
 10
14.97815972127869
 20
8.757302454075457
 30
0.0
 10
14.97262848824253
 20
8.767240057259938
 30
0.0
  0
LINE
  5
11A
330
1F
100
AcDbEntity
  8
0
  6
Continuous
 62
     7
370
    15
100
AcDbLine
 10
14.9726284882
 20
8.7672400573
 30
0.0
 11
14.8032257519
 21
9.0815665595
 31
0.0
  0
SPLINE
  5
11B
330
1F
100
AcDbEntity
  8
0
  6
Continuous
 62
     7
370
    15
100
AcDbSpline
210
0.0
220
0.0
230
1.0
 70
     8
 71
     3
 72
    10
 73
     6
 74
     0
 42
0.00000001
 43
0.00000001
 12
1.0
 22
0.0
 32
0.0
 13
1.0
 23
0.0
 33
0.0
 40
0.0
 40
0.0
 40
0.0
 40
0.0
 40
0.562382326520185
 40
0.7826528699149523
 40
1.0
 40
1.0
 40
1.0
 40
1.0
 10
14.80322575186406
 20
9.081566559466696
 30
0.0
 10
14.78930510738979
 20
9.10697623912994
 30
0.0
 10
14.76993210821275
 20
9.14233823002875
 30
0.0
 10
14.73724665523772
 20
9.185787979560152
 30
0.0
 10
14.71432552760628
 20
9.191129404927924
 30
0.0
 10
14.70294152368936
 20
9.19378227647449
 30
0.0
  0
SPLINE
  5
11C
330
1F
100
AcDbEntity
  8
0
  6
Continuous
 62
     7
370
    15
100
AcDbSpline
210
0.0
220
0.0
230
1.0
 70
     8
 71
     3
 72
    13
 73
     9
 74
     0
 42
0.00000001
 43
0.00000001
 12
1.0
 22
0.0
 32
0.0
 13
1.0
 23
0.0
 33
0.0
 40
0.0
 40
0.0
 40
0.0
 40
0.0
 40
0.0621939436582001
 40
0.1240034072555751
 40
0.1862739165297618
 40
0.2488721385304352
 40
0.4992558369577821
 40
1.0
 40
1.0
 40
1.0
 40
1.0
 10
14.70294152368936
 20
9.19378227647449
 30
0.0
 10
14.69538499034798
 20
9.193199983705572
 30
0.0
 10
14.68031863780212
 20
9.192038997874493
 30
0.0
 10
14.66254484459834
 20
9.17588481444672
 30
0.0
 10
14.65624895287148
 20
9.154168987128829
 30
0.0
 10
14.64660394129001
 20
9.110619215867864
 30
0.0
 10
14.62869456653224
 20
9.015062999287695
 30
0.0
 10
14.61782408177786
 20
8.926168921321038
 30
0.0
 10
14.6105772040232
 20
8.866907119230866
 30
0.0
  0
SPLINE
  5
11D
330
1F
100
AcDbEntity
  8
0
  6
Continuous
 62
     7
370
    15
100
AcDbSpline
210
0.0
220
0.0
230
1.0
 70
     8
 71
     3
 72
     9
 73
     5
 74
     0
 42
0.00000001
 43
0.00000001
 12
1.0
 22
0.0
 32
0.0
 13
1.0
 23
0.0
 33
0.0
 40
0.0
 40
0.0
 40
0.0
 40
0.0
 40
0.5599952676087213
 40
1.0
 40
1.0
 40
1.0
 40
1.0
 10
14.6105772040232
 20
8.866907119230866
 30
0.0
 10
14.60807038033381
 20
8.849279570389633
 30
0.0
 10
14.60359387163029
 20
8.817801538590354
 30
0.0
 10
14.59858631611893
 20
8.786403792388114
 30
0.0
 10
14.59638296799622
 20
8.772588635472708
 30
0.0
  0
SPLINE
  5
11E
330
1F
100
AcDbEntity
  8
0
  6
Continuous
 62
     7
370
    15
100
AcDbSpline
210
0.0
220
0.0
230
1.0
 70
     8
 71
     3
 72
     9
 73
     5
 74
     0
 42
0.00000001
 43
0.00000001
 12
1.0
 22
0.0
 32
0.0
 13
1.0
 23
0.0
 33
0.0
 40
0.0
 40
0.0
 40
0.0
 40
0.0
 40
0.5600223732406547
 40
0.9999999999999999
 40
0.9999999999999999
 40
0.9999999999999999
 40
0.9999999999999999
 10
14.59638296799622
 20
8.772588635472708
 30
0.0
 10
14.594526717695
 20
8.759610032694928
 30
0.0
 10
14.59121211743986
 20
8.736434882204641
 30
0.0
 10
14.59044580208776
 20
8.713042037306186
 30
0.0
 10
14.59010864047779
 20
8.702749708924614
 30
0.0
  0
SPLINE
  5
11F
330
1F
100
AcDbEntity
  8
0
  6
Continuous
 62
     7
370
    15
100
AcDbSpline
210
0.0
220
0.0
230
1.0
 70
     8
 71
     3
 72
    11
 73
     7
 74
     0
 42
0.00000001
 43
0.00000001
 12
1.0
 22
0.0
 32
0.0
 13
1.0
 23
0.0
 33
0.0
 40
0.0
 40
0.0
 40
0.0
 40
0.0
 40
0.2811774576822198
 40
0.5588528606236092
 40
0.7795809961470876
 40
1.0
 40
1.0
 40
1.0
 40
1.0
 10
14.59010864047779
 20
8.702749708924612
 30
0.0
 10
14.59043890020923
 20
8.693258342638718
 30
0.0
 10
14.59109530629949
 20
8.674393824679765
 30
0.0
 10
14.60381779236468
 20
8.64978202043575
 30
0.0
 10
14.62556570078674
 20
8.637197333817467
 30
0.0
 10
14.64033073693807
 20
8.63523050536722
 30
0.0
 10
14.64770808175079
 20
8.634247780264738
 30
0.0
  0
SPLINE
  5
120
330
1F
100
AcDbEntity
  8
0
  6
Continuous
 62
     7
370
    15
100
AcDbSpline
210
0.0
220
0.0
230
1.0
 70
     8
 71
     3
 72
    13
 73
     9
 74
     0
 42
0.00000001
 43
0.00000001
 12
1.0
 22
0.0
 32
0.0
 13
1.0
 23
0.0
 33
0.0
 40
0.0
 40
0.0
 40
0.0
 40
0.0
 40
0.0624060360695083
 40
0.1245960280416336
 40
0.1868177283674868
 40
0.2492400453041283
 40
0.4994397955782117
 40
1.0
 40
1.0
 40
1.0
 40
1.0
 10
14.64770808175079
 20
8.634247780264738
 30
0.0
 10
14.65260988498251
 20
8.634514149949823
 30
0.0
 10
14.66239652184298
 20
8.635045967172044
 30
0.0
 10
14.67550549708013
 20
8.642431334370862
 30
0.0
 10
14.68481929869168
 20
8.654124988671049
 30
0.0
 10
14.69233746857869
 20
8.682721657677066
 30
0.0
 10
14.69188533057114
 20
8.746320467140535
 30
0.0
 10
14.70203610724289
 20
8.803982255510617
 30
0.0
 10
14.70880401596535
 20
8.8424275620208
 30
0.0
  0
SPLINE
  5
121
330
1F
100
AcDbEntity
  8
0
  6
Continuous
 62
     7
370
    15
100
AcDbSpline
210
0.0
220
0.0
230
1.0
 70
     8
 71
     3
 72
     9
 73
     5
 74
     0
 42
0.00000001
 43
0.00000001
 12
1.0
 22
0.0
 32
0.0
 13
1.0
 23
0.0
 33
0.0
 40
0.0
 40
0.0
 40
0.0
 40
0.0
 40
0.5599994304609539
 40
1.0
 40
1.0
 40
1.0
 40
1.0
 10
14.70880401596535
 20
8.8424275620208
 30
0.0
 10
14.71249560805913
 20
8.875542729236146
 30
0.0
 10
14.71908774350246
 20
8.934677016547989
 30
0.0
 10
14.72908895294558
 20
8.99332701012617
 30
0.0
 10
14.73348949079664
 20
9.019133040704032
 30
0.0
  0
CIRCLE
  5
122
330
1F
100
AcDbEntity
  8
0
  6
Continuous
 62
     7
370
    15
100
AcDbCircle
 10
4.419021539
 20
3.2394026833
 30
0.0
 40
0.0590551181102361
  0
CIRCLE
  5
123
330
1F
100
AcDbEntity
  8
0
  6
Continuous
 62
     7
370
    15
100
AcDbCircle
 10
4.8840398692
 20
0.175930995
 30
0.0
 40
0.25
  0
LINE
  5
124
330
1F
100
AcDbEntity
  8
0
  6
Continuous
 62
     7
370
    15
100
AcDbLine
 10
6.5047252302
 20
10.9703491668
 30
0.0
 11
7.5047252914
 21
10.9703491668
 31
0.0
  0
LINE
  5
125
330
1F
100
AcDbEntity
  8
0
  6
Continuous
 62
     7
370
    15
100
AcDbLine
 10
6.5047252302
 20
10.7703491838
 30
0.0
 11
6.5047252302
 21
10.9703491668
 31
0.0
  0
LINE
  5
126
330
1F
100
AcDbEntity
  8
0
  6
Continuous
 62
     7
370
    15
100
AcDbLine
 10
7.5047252914
 20
10.7703491838
 30
0.0
 11
6.5047252302
 21
10.7703491838
 31
0.0
  0
LINE
  5
127
330
1F
100
AcDbEntity
  8
0
  6
Continuous
 62
     7
370
    15
100
AcDbLine
 10
7.5047252914
 20
10.9703491668
 30
0.0
 11
7.5047252914
 21
10.7703491838
 31
0.0
  0
LINE
  5
128
330
1F
100
AcDbEntity
  8
0
  6
Continuous
 62
     7
370
    15
100
AcDbLine
 10
7.9190215721
 20
11.5999549068
 30
0.0
 11
7.9190215721
 21
11.6999551916
 31
0.0
  0
ARC
  5
129
330
1F
100
AcDbEntity
  8
0
  6
Continuous
 62
     7
370
    15
100
AcDbCircle
 10
8.019021539
 20
11.6999551402
 30
0.0
 40
0.1000000000000005
100
AcDbArc
 50
90.0
 51
180.0
  0
LINE
  5
12A
330
1F
100
AcDbEntity
  8
0
  6
Continuous
 62
     7
370
    15
100
AcDbLine
 10
8.0190215636
 20
11.7999548897
 30
0.0
 11
8.3190215379
 21
11.7999548897
 31
0.0
  0
ARC
  5
12B
330
1F
100
AcDbEntity
  8
0
  6
Continuous
 62
     7
370
    15
100
AcDbCircle
 10
8.319021539
 20
11.6999551402
 30
0.0
 40
0.0999999999999996
100
AcDbArc
 50
0.0
 51
90.0
  0
LINE
  5
12C
330
1F
100
AcDbEntity
  8
0
  6
Continuous
 62
     7
370
    15
100
AcDbLine
 10
8.4190215294
 20
11.6999551916
 30
0.0
 11
8.4190215294
 21
8.6999548612
 31
0.0
  0
ARC
  5
12D
330
1F
100
AcDbEntity
  8
0
  6
Continuous
 62
     7
370
    15
100
AcDbCircle
 10
7.519021539
 20
8.6999551402
 30
0.0
 40
0.9000000000000004
100
AcDbArc
 50
270.0
 51
0.0
  0
LINE
  5
12E
330
1F
100
AcDbEntity
  8
0
  6
Continuous
 62
     7
370
    15
100
AcDbLine
 10
7.5190216063
 20
7.7999552314
 30
0.0
 11
6.79415726
 21
7.7999552314
 31
0.0
  0
LINE
  5
12F
330
1F
100
AcDbEntity
  8
0
  6
Continuous
 62
     7
370
    15
100
AcDbLine
 10
6.79415726
 20
7.7999552314
 30
0.0
 11
5.5384346462
 21
6.5442323243
 31
0.0
  0
ARC
  5
130
330
1F
100
AcDbEntity
  8
0
  6
Continuous
 62
     7
370
    15
100
AcDbCircle
 10
5.8212772556
 20
6.2613897388
 30
0.0
 40
0.4000000000000004
100
AcDbArc
 50
135.0
 51
180.0
  0
LINE
  5
131
330
1F
100
AcDbEntity
  8
0
  6
Continuous
 62
     7
370
    15
100
AcDbLine
 10
5.4212771996
 20
6.2613898051
 30
0.0
 11
5.4212771996
 21
-0.4175191996
 31
0.0
  0
ARC
  5
132
330
1F
100
AcDbEntity
  8
0
  6
Continuous
 62
     7
370
    15
100
AcDbCircle
 10
5.0212772556
 20
-0.4175192342
 30
0.0
 40
0.4000000000000001
100
AcDbArc
 50
270.0
 51
0.0
  0
LINE
  5
133
330
1F
100
AcDbEntity
  8
0
  6
Continuous
 62
     7
370
    15
100
AcDbLine
 10
5.0212772338
 20
-0.8175191655
 30
0.0
 11
4.0219945109
 21
-0.8175191655
 31
0.0
  0
ARC
  5
134
330
1F
100
AcDbEntity
  8
0
  6
Continuous
 62
     7
370
    15
100
AcDbCircle
 10
4.0219945346
 20
-0.4175192342
 30
0.0
 40
0.399999999999998
100
AcDbArc
 50
180.0
 51
270.0
  0
LINE
  5
135
330
1F
100
AcDbEntity
  8
0
  6
Continuous
 62
     7
370
    15
100
AcDbLine
 10
3.6219945451
 20
-0.4175191996
 30
0.0
 11
3.6219945451
 21
6.2613898051
 31
0.0
  0
ARC
  5
136
330
1F
100
AcDbEntity
  8
0
  6
Continuous
 62
     7
370
    15
100
AcDbCircle
 10
3.2219945346
 20
6.2613897388
 30
0.0
 40
0.4000000000000021
100
AcDbArc
 50
0.0
 51
45.0
  0
LINE
  5
137
330
1F
100
AcDbEntity
  8
0
  6
Continuous
 62
     7
370
    15
100
AcDbLine
 10
3.5048373918
 20
6.5442323243
 30
0.0
 11
2.249114778
 21
7.7999552314
 31
0.0
  0
LINE
  5
138
330
1F
100
AcDbEntity
  8
0
  6
Continuous
 62
     7
370
    15
100
AcDbLine
 10
2.249114778
 20
7.7999552314
 30
0.0
 11
1.3190212559
 21
7.7999552314
 31
0.0
  0
ARC
  5
139
330
1F
100
AcDbEntity
  8
0
  6
Continuous
 62
     7
370
    15
100
AcDbCircle
 10
1.319021539
 20
8.6999551402
 30
0.0
 40
0.9000000000000008
100
AcDbArc
 50
180.0
 51
270.0
  0
LINE
  5
13A
330
1F
100
AcDbEntity
  8
0
  6
Continuous
 62
     7
370
    15
100
AcDbLine
 10
0.4190216261
 20
8.6999548612
 30
0.0
 11
0.4190216261
 21
11.6999551916
 31
0.0
  0
ARC
  5
13B
330
1F
100
AcDbEntity
  8
0
  6
Continuous
 62
     7
370
    15
100
AcDbCircle
 10
0.519021539
 20
11.6999551402
 30
0.0
 40
0.1000000000000005
100
AcDbArc
 50
90.0
 51
180.0
  0
LINE
  5
13C
330
1F
100
AcDbEntity
  8
0
  6
Continuous
 62
     7
370
    15
100
AcDbLine
 10
0.91902129
 20
11.6999551916
 30
0.0
 11
0.91902129
 21
11.5999549068
 31
0.0
  0
ARC
  5
13D
330
1F
100
AcDbEntity
  8
0
  6
Continuous
 62
     7
370
    15
100
AcDbCircle
 10
1.219021539
 20
11.5999551402
 30
0.0
 40
0.3000000000000007
100
AcDbArc
 50
180.0
 51
270.0
  0
LINE
  5
13E
330
1F
100
AcDbEntity
  8
0
  6
Continuous
 62
     7
370
    15
100
AcDbLine
 10
1.2190215578
 20
11.2999552258
 30
0.0
 11
7.6190215977
 21
11.2999552258
 31
0.0
  0
ARC
  5
13F
330
1F
100
AcDbEntity
  8
0
  6
Continuous
 62
     7
370
    15
100
AcDbCircle
 10
7.619021539
 20
11.5999551402
 30
0.0
 40
0.3000000000000007
100
AcDbArc
 50
270.0
 51
0.0
  0
LINE
  5
140
330
1F
100
AcDbEntity
  8
0
  6
Continuous
 62
     7
370
    15
100
AcDbLine
 10
2.333318072
 20
10.7703491838
 30
0.0
 11
1.3333175707
 21
10.7703491838
 31
0.0
  0
LINE
  5
141
330
1F
100
AcDbEntity
  8
0
  6
Continuous
 62
     7
370
    15
100
AcDbLine
 10
2.333318072
 20
10.9703491668
 30
0.0
 11
2.333318072
 21
10.7703491838
 31
0.0
  0
CIRCLE
  5
142
330
1F
100
AcDbEntity
  8
0
  6
Continuous
 62
     7
370
    15
100
AcDbCircle
 10
4.8840398692
 20
0.8723188099
 30
0.0
 40
0.059055118110237
  0
LINE
  5
143
330
1F
100
AcDbEntity
  8
0
  6
Continuous
 62
     7
370
    15
100
AcDbLine
 10
4.5190215692
 20
3.0974090523
 30
0.0
 11
4.5190215692
 21
2.0974090277
 31
0.0
  0
LINE
  5
144
330
1F
100
AcDbEntity
  8
0
  6
Continuous
 62
     7
370
    15
100
AcDbLine
 10
4.3190215863
 20
3.0974090523
 30
0.0
 11
4.5190215692
 21
3.0974090523
 31
0.0
  0
LINE
  5
145
330
1F
100
AcDbEntity
  8
0
  6
Continuous
 62
     7
370
    15
100
AcDbLine
 10
4.3190215863
 20
2.0974090277
 30
0.0
 11
4.3190215863
 21
3.0974090523
 31
0.0
  0
LINE
  5
146
330
1F
100
AcDbEntity
  8
0
  6
Continuous
 62
     7
370
    15
100
AcDbLine
 10
4.5190215692
 20
2.0974090277
 30
0.0
 11
4.3190215863
 21
2.0974090277
 31
0.0
  0
CIRCLE
  5
147
330
1F
100
AcDbEntity
  8
0
  6
Continuous
 62
     7
370
    15
100
AcDbCircle
 10
4.8840398692
 20
-0.5333506278
 30
0.0
 40
0.059055118110237
  0
CIRCLE
  5
148
330
1F
100
AcDbEntity
  8
0
  6
Continuous
 62
     7
370
    15
100
AcDbCircle
 10
2.8237608805
 20
10.8703493023
 30
0.0
 40
0.0590551181102361
  0
CIRCLE
  5
149
330
1F
100
AcDbEntity
  8
0
  6
Continuous
 62
     7
370
    15
100
AcDbCircle
 10
6.0142821976
 20
10.8703493023
 30
0.0
 40
0.0590551181102361
  0
CIRCLE
  5
14A
330
1F
100
AcDbEntity
  8
0
  6
Continuous
 62
     7
370
    15
100
AcDbCircle
 10
4.419021539
 20
9.2394026833
 30
0.0
 40
0.0590551181102361
  0
LINE
  5
14B
330
1F
100
AcDbEntity
  8
0
  6
Continuous
 62
     7
370
    15
100
AcDbLine
 10
4.3190215863
 20
9.0974093098
 30
0.0
 11
4.5190215692
 21
9.0974093098
 31
0.0
  0
LINE
  5
14C
330
1F
100
AcDbEntity
  8
0
  6
Continuous
 62
     7
370
    15
100
AcDbLine
 10
4.3190215863
 20
8.0974091019
 30
0.0
 11
4.3190215863
 21
9.0974093098
 31
0.0
  0
LINE
  5
14D
330
1F
100
AcDbEntity
  8
0
  6
Continuous
 62
     7
370
    15
100
AcDbLine
 10
4.5190215692
 20
8.0974091019
 30
0.0
 11
4.3190215863
 21
8.0974091019
 31
0.0
  0
LINE
  5
14E
330
1F
100
AcDbEntity
  8
0
  6
Continuous
 62
     7
370
    15
100
AcDbLine
 10
4.5190215692
 20
9.0974093098
 30
0.0
 11
4.5190215692
 21
8.0974091019
 31
0.0
  0
LINE
  5
14F
330
1F
100
AcDbEntity
  8
0
  6
Continuous
 62
     7
370
    15
100
AcDbLine
 10
1.3333175707
 20
10.9703491668
 30
0.0
 11
2.333318072
 21
10.9703491668
 31
0.0
  0
LINE
  5
150
330
1F
100
AcDbEntity
  8
0
  6
Continuous
 62
     7
370
    15
100
AcDbLine
 10
1.3333175707
 20
10.7703491838
 30
0.0
 11
1.3333175707
 21
10.9703491668
 31
0.0
  0
ARC
  5
151
330
1F
100
AcDbEntity
  8
0
  6
Continuous
 62
     7
370
    15
100
AcDbCircle
 10
0.819021539
 20
11.6999551402
 30
0.0
 40
0.1000000000000005
100
AcDbArc
 50
0.0
 51
90.0
  0
LINE
  5
152
330
1F
100
AcDbEntity
  8
0
  6
Continuous
 62
     7
370
    15
100
AcDbLine
 10
0.5190213242
 20
11.7999548897
 30
0.0
 11
0.8190215919
 21
11.7999548897
 31
0.0
  0
LINE
  5
153
330
1F
100
AcDbEntity
  8
0
  6
Continuous
 62
     7
370
    15
100
AcDbLine
 10
10.7453427089
 20
6.1010494973
 30
0.0
 11
10.7453427089
 21
5.1010495827
 31
0.0
  0
ARC
  5
154
330
1F
100
AcDbEntity
  8
0
  6
Continuous
 62
     7
370
    15
100
AcDbCircle
 10
13.0801924938
 20
3.3588467974
 30
0.0
 40
0.8999999999999986
100
AcDbArc
 50
180.0
 51
227.4593570075
  0
LINE
  5
155
330
1F
100
AcDbEntity
  8
0
  6
Continuous
 62
     7
370
    15
100
AcDbLine
 10
14.3522221619
 20
0.9700836773
 30
0.0
 11
12.4716906326
 21
2.6957286359
 31
0.0
  0
ARC
  5
156
330
1F
100
AcDbEntity
  8
0
  6
Continuous
 62
     7
370
    15
100
AcDbCircle
 10
13.7437201988
 20
0.3069655844
 30
0.0
 40
0.9000000000000014
100
AcDbArc
 50
5.9775038722
 51
47.4593570075
  0
LINE
  5
157
330
1F
100
AcDbEntity
  8
0
  6
Continuous
 62
     7
370
    15
100
AcDbLine
 10
13.7331296604
 20
0.400689775
 30
0.0
 11
14.6388266377
 21
0.400689775
 31
0.0
  0
LINE
  5
158
330
1F
100
AcDbEntity
  8
0
  6
Continuous
 62
     7
370
    15
100
AcDbLine
 10
13.7331296604
 20
0.2006897921
 30
0.0
 11
13.7331296604
 21
0.400689775
 31
0.0
  0
LINE
  5
159
330
1F
100
AcDbEntity
  8
0
  6
Continuous
 62
     7
370
    15
100
AcDbLine
 10
12.7331297458
 20
0.2006897921
 30
0.0
 11
12.7331297458
 21
0.400689775
 31
0.0
  0
LINE
  5
15A
330
1F
100
AcDbEntity
  8
0
  6
Continuous
 62
     7
370
    15
100
AcDbLine
 10
12.7331297458
 20
0.400689775
 30
0.0
 11
12.2983027156
 21
0.400689775
 31
0.0
  0
LINE
  5
15B
330
1F
100
AcDbEntity
  8
0
  6
Continuous
 62
     7
370
    15
100
AcDbLine
 10
12.2983027156
 20
0.400689775
 30
0.0
 11
12.2983027156
 21
0.7930499625
 31
0.0
  0
LINE
  5
15C
330
1F
100
AcDbEntity
  8
0
  6
Continuous
 62
     7
370
    15
100
AcDbLine
 10
12.3983027071
 20
0.7930499625
 30
0.0
 11
12.2983027156
 21
0.7930499625
 31
0.0
  0
LINE
  5
15D
330
1F
100
AcDbEntity
  8
0
  6
Continuous
 62
     7
370
    15
100
AcDbLine
 10
12.3983027071
 20
0.8914750654
 30
0.0
 11
12.3983027071
 21
0.7930499625
 31
0.0
  0
LINE
  5
15E
330
1F
100
AcDbEntity
  8
0
  6
Continuous
 62
     7
370
    15
100
AcDbLine
 10
12.2983027156
 20
0.8914750654
 30
0.0
 11
12.3983027071
 21
0.8914750654
 31
0.0
  0
LINE
  5
15F
330
1F
100
AcDbEntity
  8
0
  6
Continuous
 62
     7
370
    15
100
AcDbLine
 10
12.2983027156
 20
0.8914750654
 30
0.0
 11
12.2983027156
 21
0.9597449701
 31
0.0
  0
LINE
  5
160
330
1F
100
AcDbEntity
  8
0
  6
Continuous
 62
     7
370
    15
100
AcDbLine
 10
12.2983027156
 20
0.9597449701
 30
0.0
 11
12.1801925334
 21
0.9597449701
 31
0.0
  0
LINE
  5
161
330
1F
100
AcDbEntity
  8
0
  6
Continuous
 62
     7
370
    15
100
AcDbLine
 10
12.1801925334
 20
0.9597449701
 30
0.0
 11
12.1801925334
 21
0.8914750654
 31
0.0
  0
LINE
  5
162
330
1F
100
AcDbEntity
  8
0
  6
Continuous
 62
     7
370
    15
100
AcDbLine
 10
12.0801925419
 20
0.8914750654
 30
0.0
 11
12.0801925419
 21
0.7930499625
 31
0.0
  0
LINE
  5
163
330
1F
100
AcDbEntity
  8
0
  6
Continuous
 62
     7
370
    15
100
AcDbLine
 10
12.0801925419
 20
0.7930499625
 30
0.0
 11
12.1801925334
 21
0.7930499625
 31
0.0
  0
LINE
  5
164
330
1F
100
AcDbEntity
  8
0
  6
Continuous
 62
     7
370
    15
100
AcDbLine
 10
12.1801925334
 20
0.7930499625
 30
0.0
 11
12.1801925334
 21
0.400689775
 31
0.0
  0
LINE
  5
165
330
1F
100
AcDbEntity
  8
0
  6
Continuous
 62
     7
370
    15
100
AcDbLine
 10
12.1801925334
 20
0.400689775
 30
0.0
 11
9.1104927731
 21
0.400689775
 31
0.0
  0
LINE
  5
166
330
1F
100
AcDbEntity
  8
0
  6
Continuous
 62
     7
370
    15
100
AcDbLine
 10
9.1104927731
 20
0.7930499625
 30
0.0
 11
9.1104927731
 21
0.400689775
 31
0.0
  0
LINE
  5
167
330
1F
100
AcDbEntity
  8
0
  6
Continuous
 62
     7
370
    15
100
AcDbLine
 10
9.2104927829
 20
0.7930499625
 30
0.0
 11
9.1104927731
 21
0.7930499625
 31
0.0
  0
LINE
  5
168
330
1F
100
AcDbEntity
  8
0
  6
Continuous
 62
     7
370
    15
100
AcDbLine
 10
9.1104927731
 20
0.9597449701
 30
0.0
 11
9.1104927731
 21
0.8914750654
 31
0.0
  0
LINE
  5
169
330
1F
100
AcDbEntity
  8
0
  6
Continuous
 62
     7
370
    15
100
AcDbLine
 10
8.9923825405
 20
0.9597449701
 30
0.0
 11
9.1104927731
 21
0.9597449701
 31
0.0
  0
LINE
  5
16A
330
1F
100
AcDbEntity
  8
0
  6
Continuous
 62
     7
370
    15
100
AcDbLine
 10
8.9923825405
 20
0.8914750654
 30
0.0
 11
8.9923825405
 21
0.9597449701
 31
0.0
  0
LINE
  5
16B
330
1F
100
AcDbEntity
  8
0
  6
Continuous
 62
     7
370
    15
100
AcDbLine
 10
8.9923825405
 20
0.8914750654
 30
0.0
 11
8.8923825421
 21
0.8914750654
 31
0.0
  0
LINE
  5
16C
330
1F
100
AcDbEntity
  8
0
  6
Continuous
 62
     7
370
    15
100
AcDbLine
 10
8.9923825405
 20
0.400689775
 30
0.0
 11
8.9923825405
 21
0.7930499625
 31
0.0
  0
LINE
  5
16D
330
1F
100
AcDbEntity
  8
0
  6
Continuous
 62
     7
370
    15
100
AcDbLine
 10
8.5575555057
 20
0.400689775
 30
0.0
 11
8.9923825405
 21
0.400689775
 31
0.0
  0
LINE
  5
16E
330
1F
100
AcDbEntity
  8
0
  6
Continuous
 62
     7
370
    15
100
AcDbLine
 10
8.5575555057
 20
0.2006897921
 30
0.0
 11
8.5575555057
 21
0.400689775
 31
0.0
  0
ARC
  5
16F
330
1F
100
AcDbEntity
  8
0
  6
Continuous
 62
     7
370
    15
100
AcDbCircle
 10
13.0801924938
 20
4.5737769553
 30
0.0
 40
0.8999999999999986
100
AcDbArc
 50
132.5406429925
 51
180.0
  0
LINE
  5
170
330
1F
100
AcDbEntity
  8
0
  6
Continuous
 62
     7
370
    15
100
AcDbLine
 10
14.3522221619
 20
6.9625401853
 30
0.0
 11
12.4716906326
 21
5.2368950801
 31
0.0
  0
ARC
  5
171
330
1F
100
AcDbEntity
  8
0
  6
Continuous
 62
     7
370
    15
100
AcDbCircle
 10
13.7437201988
 20
7.6256581683
 30
0.0
 40
0.9000000000000015
100
AcDbArc
 50
312.5406429925
 51
354.0224961278
  0
LINE
  5
172
330
1F
100
AcDbEntity
  8
0
  6
Continuous
 62
     7
370
    15
100
AcDbLine
 10
13.7331296604
 20
7.5319340876
 30
0.0
 11
14.6388266377
 21
7.5319340876
 31
0.0
  0
LINE
  5
173
330
1F
100
AcDbEntity
  8
0
  6
Continuous
 62
     7
370
    15
100
AcDbLine
 10
13.7331296604
 20
7.7319340705
 30
0.0
 11
13.7331296604
 21
7.5319340876
 31
0.0
  0
LINE
  5
174
330
1F
100
AcDbEntity
  8
0
  6
Continuous
 62
     7
370
    15
100
AcDbLine
 10
12.7331297458
 20
7.7319340705
 30
0.0
 11
13.7331296604
 21
7.7319340705
 31
0.0
  0
LINE
  5
175
330
1F
100
AcDbEntity
  8
0
  6
Continuous
 62
     7
370
    15
100
AcDbLine
 10
12.7331297458
 20
7.7319340705
 30
0.0
 11
12.7331297458
 21
7.5319340876
 31
0.0
  0
LINE
  5
176
330
1F
100
AcDbEntity
  8
0
  6
Continuous
 62
     7
370
    15
100
AcDbLine
 10
12.7331297458
 20
7.5319340876
 30
0.0
 11
12.2983027156
 21
7.5319340876
 31
0.0
  0
LINE
  5
177
330
1F
100
AcDbEntity
  8
0
  6
Continuous
 62
     7
370
    15
100
AcDbLine
 10
12.2983027156
 20
7.5319340876
 30
0.0
 11
12.2983027156
 21
7.1395739002
 31
0.0
  0
LINE
  5
178
330
1F
100
AcDbEntity
  8
0
  6
Continuous
 62
     7
370
    15
100
AcDbLine
 10
12.3983027071
 20
7.1395739002
 30
0.0
 11
12.2983027156
 21
7.1395739002
 31
0.0
  0
LINE
  5
179
330
1F
100
AcDbEntity
  8
0
  6
Continuous
 62
     7
370
    15
100
AcDbLine
 10
12.3983027071
 20
7.0411485039
 30
0.0
 11
12.3983027071
 21
7.1395739002
 31
0.0
  0
LINE
  5
17A
330
1F
100
AcDbEntity
  8
0
  6
Continuous
 62
     7
370
    15
100
AcDbLine
 10
12.2983027156
 20
7.0411485039
 30
0.0
 11
12.3983027071
 21
7.0411485039
 31
0.0
  0
LINE
  5
17B
330
1F
100
AcDbEntity
  8
0
  6
Continuous
 62
     7
370
    15
100
AcDbLine
 10
12.2983027156
 20
7.0411485039
 30
0.0
 11
12.2983027156
 21
6.9728788925
 31
0.0
  0
LINE
  5
17C
330
1F
100
AcDbEntity
  8
0
  6
Continuous
 62
     7
370
    15
100
AcDbLine
 10
12.2983027156
 20
6.9728788925
 30
0.0
 11
12.1801925334
 21
6.9728788925
 31
0.0
  0
LINE
  5
17D
330
1F
100
AcDbEntity
  8
0
  6
Continuous
 62
     7
370
    15
100
AcDbLine
 10
12.1801925334
 20
6.9728788925
 30
0.0
 11
12.1801925334
 21
7.0411485039
 31
0.0
  0
LINE
  5
17E
330
1F
100
AcDbEntity
  8
0
  6
Continuous
 62
     7
370
    15
100
AcDbLine
 10
12.1801925334
 20
7.0411485039
 30
0.0
 11
12.0801925419
 21
7.0411485039
 31
0.0
  0
LINE
  5
17F
330
1F
100
AcDbEntity
  8
0
  6
Continuous
 62
     7
370
    15
100
AcDbLine
 10
8.8923825421
 20
0.7930499625
 30
0.0
 11
8.9923825405
 21
0.7930499625
 31
0.0
  0
LINE
  5
180
330
1F
100
AcDbEntity
  8
0
  6
Continuous
 62
     7
370
    15
100
AcDbLine
 10
8.8923825421
 20
0.8914750654
 30
0.0
 11
8.8923825421
 21
0.7930499625
 31
0.0
  0
LINE
  5
181
330
1F
100
AcDbEntity
  8
0
  6
Continuous
 62
     7
370
    15
100
AcDbLine
 10
12.1801925334
 20
7.1395739002
 30
0.0
 11
12.1801925334
 21
7.5319340876
 31
0.0
  0
LINE
  5
182
330
1F
100
AcDbEntity
  8
0
  6
Continuous
 62
     7
370
    15
100
AcDbLine
 10
12.1801925334
 20
7.5319340876
 30
0.0
 11
9.1104927731
 21
7.5319340876
 31
0.0
  0
LINE
  5
183
330
1F
100
AcDbEntity
  8
0
  6
Continuous
 62
     7
370
    15
100
AcDbLine
 10
9.1104927731
 20
7.1395739002
 30
0.0
 11
9.1104927731
 21
7.5319340876
 31
0.0
  0
LINE
  5
184
330
1F
100
AcDbEntity
  8
0
  6
Continuous
 62
     7
370
    15
100
AcDbLine
 10
9.2104927829
 20
7.1395739002
 30
0.0
 11
9.1104927731
 21
7.1395739002
 31
0.0
  0
LINE
  5
185
330
1F
100
AcDbEntity
  8
0
  6
Continuous
 62
     7
370
    15
100
AcDbLine
 10
9.2104927829
 20
7.0411485039
 30
0.0
 11
9.2104927829
 21
7.1395739002
 31
0.0
  0
LINE
  5
186
330
1F
100
AcDbEntity
  8
0
  6
Continuous
 62
     7
370
    15
100
AcDbLine
 10
9.1104927731
 20
7.0411485039
 30
0.0
 11
9.2104927829
 21
7.0411485039
 31
0.0
  0
LINE
  5
187
330
1F
100
AcDbEntity
  8
0
  6
Continuous
 62
     7
370
    15
100
AcDbLine
 10
9.1104927731
 20
6.9728788925
 30
0.0
 11
9.1104927731
 21
7.0411485039
 31
0.0
  0
LINE
  5
188
330
1F
100
AcDbEntity
  8
0
  6
Continuous
 62
     7
370
    15
100
AcDbLine
 10
8.9923825405
 20
6.9728788925
 30
0.0
 11
9.1104927731
 21
6.9728788925
 31
0.0
  0
LINE
  5
189
330
1F
100
AcDbEntity
  8
0
  6
Continuous
 62
     7
370
    15
100
AcDbLine
 10
8.9923825405
 20
7.0411485039
 30
0.0
 11
8.9923825405
 21
6.9728788925
 31
0.0
  0
LINE
  5
18A
330
1F
100
AcDbEntity
  8
0
  6
Continuous
 62
     7
370
    15
100
AcDbLine
 10
8.9923825405
 20
7.0411485039
 30
0.0
 11
8.8923825421
 21
7.0411485039
 31
0.0
  0
LINE
  5
18B
330
1F
100
AcDbEntity
  8
0
  6
Continuous
 62
     7
370
    15
100
AcDbLine
 10
8.8923825421
 20
7.0411485039
 30
0.0
 11
8.8923825421
 21
7.1395739002
 31
0.0
  0
LINE
  5
18C
330
1F
100
AcDbEntity
  8
0
  6
Continuous
 62
     7
370
    15
100
AcDbLine
 10
8.8923825421
 20
7.1395739002
 30
0.0
 11
8.9923825405
 21
7.1395739002
 31
0.0
  0
LINE
  5
18D
330
1F
100
AcDbEntity
  8
0
  6
Continuous
 62
     7
370
    15
100
AcDbLine
 10
12.1801925334
 20
0.8914750654
 30
0.0
 11
12.0801925419
 21
0.8914750654
 31
0.0
  0
LINE
  5
18E
330
1F
100
AcDbEntity
  8
0
  6
Continuous
 62
     7
370
    15
100
AcDbLine
 10
8.5575555057
 20
7.5319340876
 30
0.0
 11
8.9923825405
 21
7.5319340876
 31
0.0
  0
LINE
  5
18F
330
1F
100
AcDbEntity
  8
0
  6
Continuous
 62
     7
370
    15
100
AcDbLine
 10
8.5575555057
 20
7.7319340705
 30
0.0
 11
8.5575555057
 21
7.5319340876
 31
0.0
  0
LINE
  5
190
330
1F
100
AcDbEntity
  8
0
  6
Continuous
 62
     7
370
    15
100
AcDbLine
 10
8.5575555057
 20
7.7319340705
 30
0.0
 11
7.5575554811
 21
7.7319340705
 31
0.0
  0
LINE
  5
191
330
1F
100
AcDbEntity
  8
0
  6
Continuous
 62
     7
370
    15
100
AcDbLine
 10
7.5575554811
 20
7.7319340705
 30
0.0
 11
7.5575554811
 21
7.5319340876
 31
0.0
  0
LINE
  5
192
330
1F
100
AcDbEntity
  8
0
  6
Continuous
 62
     7
370
    15
100
AcDbLine
 10
7.5575554811
 20
7.5319340876
 30
0.0
 11
6.6518585038
 21
7.5319340876
 31
0.0
  0
ARC
  5
193
330
1F
100
AcDbEntity
  8
0
  6
Continuous
 62
     7
370
    15
100
AcDbCircle
 10
7.5469650728
 20
7.6256581683
 30
0.0
 40
0.8999999999999999
100
AcDbArc
 50
185.9775038722
 51
227.4593570075
  0
LINE
  5
194
330
1F
100
AcDbEntity
  8
0
  6
Continuous
 62
     7
370
    15
100
AcDbLine
 10
10.5453425793
 20
2.5181876802
 30
0.0
 11
10.7453427089
 21
2.5181876802
 31
0.0
  0
LINE
  5
195
330
1F
100
AcDbEntity
  8
0
  6
Continuous
 62
     7
370
    15
100
AcDbLine
 10
10.7453427089
 20
1.5181876923
 30
0.0
 11
10.7453427089
 21
2.5181876802
 31
0.0
  0
LINE
  5
196
330
1F
100
AcDbEntity
  8
0
  6
Continuous
 62
     7
370
    15
100
AcDbLine
 10
10.5453425793
 20
1.5181876923
 30
0.0
 11
10.7453427089
 21
1.5181876923
 31
0.0
  0
LINE
  5
197
330
1F
100
AcDbEntity
  8
0
  6
Continuous
 62
     7
370
    15
100
AcDbLine
 10
12.7331297458
 20
0.2006897921
 30
0.0
 11
13.7331296604
 21
0.2006897921
 31
0.0
  0
LINE
  5
198
330
1F
100
AcDbEntity
  8
0
  6
Continuous
 62
     7
370
    15
100
AcDbLine
 10
10.5453425793
 20
6.1010494973
 30
0.0
 11
10.5453425793
 21
5.1010495827
 31
0.0
  0
LINE
  5
199
330
1F
100
AcDbEntity
  8
0
  6
Continuous
 62
     7
370
    15
100
AcDbLine
 10
10.5453425793
 20
6.1010494973
 30
0.0
 11
10.7453427089
 21
6.1010494973
 31
0.0
  0
LINE
  5
19A
330
1F
100
AcDbEntity
  8
0
  6
Continuous
 62
     7
370
    15
100
AcDbLine
 10
6.9384634196
 20
6.9625401853
 30
0.0
 11
8.8189944997
 21
5.2368950801
 31
0.0
  0
LINE
  5
19B
330
1F
100
AcDbEntity
  8
0
  6
Continuous
 62
     7
370
    15
100
AcDbLine
 10
10.5453425793
 20
1.5181876923
 30
0.0
 11
10.5453425793
 21
2.5181876802
 31
0.0
  0
ARC
  5
19C
330
1F
100
AcDbEntity
  8
0
  6
Continuous
 62
     7
370
    15
100
AcDbCircle
 10
8.2104927777
 20
4.5737769553
 30
0.0
 40
0.9000000000000008
100
AcDbArc
 50
0.0
 51
47.4593570075
  0
LINE
  5
19D
330
1F
100
AcDbEntity
  8
0
  6
Continuous
 62
     7
370
    15
100
AcDbLine
 10
9.1104927731
 20
4.5737769805
 30
0.0
 11
9.1104927731
 21
3.3588467905
 31
0.0
  0
ARC
  5
19E
330
1F
100
AcDbEntity
  8
0
  6
Continuous
 62
     7
370
    15
100
AcDbCircle
 10
8.2104927777
 20
3.3588467974
 30
0.0
 40
0.8999999999999986
100
AcDbArc
 50
312.5406429925
 51
0.0
  0
LINE
  5
19F
330
1F
100
AcDbEntity
  8
0
  6
Continuous
 62
     7
370
    15
100
AcDbLine
 10
6.9384634196
 20
0.9700836773
 30
0.0
 11
8.8189944997
 21
2.6957286359
 31
0.0
  0
ARC
  5
1A0
330
1F
100
AcDbEntity
  8
0
  6
Continuous
 62
     7
370
    15
100
AcDbCircle
 10
7.5469650728
 20
0.3069655844
 30
0.0
 40
0.9000000000000006
100
AcDbArc
 50
132.5406429925
 51
174.0224961278
  0
LINE
  5
1A1
330
1F
100
AcDbEntity
  8
0
  6
Continuous
 62
     7
370
    15
100
AcDbLine
 10
7.5575554811
 20
0.400689775
 30
0.0
 11
6.6518585038
 21
0.400689775
 31
0.0
  0
LINE
  5
1A2
330
1F
100
AcDbEntity
  8
0
  6
Continuous
 62
     7
370
    15
100
AcDbLine
 10
7.5575554811
 20
0.2006897921
 30
0.0
 11
7.5575554811
 21
0.400689775
 31
0.0
  0
LINE
  5
1A3
330
1F
100
AcDbEntity
  8
0
  6
Continuous
 62
     7
370
    15
100
AcDbLine
 10
8.5575555057
 20
0.2006897921
 30
0.0
 11
7.5575554811
 21
0.2006897921
 31
0.0
  0
LINE
  5
1A4
330
1F
100
AcDbEntity
  8
0
  6
Continuous
 62
     7
370
    15
100
AcDbLine
 10
9.1104927731
 20
0.8914750654
 30
0.0
 11
9.2104927829
 21
0.8914750654
 31
0.0
  0
LINE
  5
1A5
330
1F
100
AcDbEntity
  8
0
  6
Continuous
 62
     7
370
    15
100
AcDbLine
 10
9.2104927829
 20
0.8914750654
 30
0.0
 11
9.2104927829
 21
0.7930499625
 31
0.0
  0
LINE
  5
1A6
330
1F
100
AcDbEntity
  8
0
  6
Continuous
 62
     7
370
    15
100
AcDbLine
 10
12.1801925334
 20
4.5737769805
 30
0.0
 11
12.1801925334
 21
3.3588467905
 31
0.0
  0
LINE
  5
1A7
330
1F
100
AcDbEntity
  8
0
  6
Continuous
 62
     7
370
    15
100
AcDbLine
 10
12.0801925419
 20
7.0411485039
 30
0.0
 11
12.0801925419
 21
7.1395739002
 31
0.0
  0
LINE
  5
1A8
330
1F
100
AcDbEntity
  8
0
  6
Continuous
 62
     7
370
    15
100
AcDbLine
 10
12.0801925419
 20
7.1395739002
 30
0.0
 11
12.1801925334
 21
7.1395739002
 31
0.0
  0
LINE
  5
1A9
330
1F
100
AcDbEntity
  8
0
  6
Continuous
 62
     7
370
    15
100
AcDbLine
 10
8.9923825405
 20
7.5319340876
 30
0.0
 11
8.9923825405
 21
7.1395739002
 31
0.0
  0
LINE
  5
1AA
330
1F
100
AcDbEntity
  8
0
  6
Continuous
 62
     7
370
    15
100
AcDbLine
 10
10.5453425793
 20
5.1010495827
 30
0.0
 11
10.7453427089
 21
5.1010495827
 31
0.0
  0
MTEXT
  5
1AC
330
1F
100
AcDbEntity
  8
0
  6
Continuous
 62
     7
100
AcDbMText
 10
0.0
 20
0.5307595909
 30
0.0
 40
0.1903
 41
0.0
 71
     1
 72
     1
  1
SolidWorks Student Edition.
  7
SLDTEXTSTYLE0
 73
     1
 44
1.0
  0
MTEXT
  5
1AD
330
1F
100
AcDbEntity
  8
0
  6
Continuous
 62
     7
100
AcDbMText
 10
0.0
 20
0.2453095909
 30
0.0
 40
0.1903
 41
0.0
 71
     1
 72
     1
  1
For Academic Use Only.
  7
SLDTEXTSTYLE0
 73
     1
 44
1.0
  0
ENDSEC
  0
SECTION
  2
OBJECTS
  0
DICTIONARY
  5
C
330
0
100
AcDbDictionary
281
     1
  3
ACAD_GROUP
350
D
  3
ACAD_LAYOUT
350
1A
  3
ACAD_MLINESTYLE
350
17
  3
ACAD_PLOTSETTINGS
350
19
  3
ACAD_PLOTSTYLENAME
350
E
  0
DICTIONARY
  5
D
102
{ACAD_REACTORS
330
C
102
}
330
C
100
AcDbDictionary
281
     1
  0
DICTIONARY
  5
1A
102
{ACAD_REACTORS
330
C
102
}
330
C
100
AcDbDictionary
281
     1
  3
Layout1
350
1E
  3
Layout2
350
26
  3
Model
350
22
  0
DICTIONARY
  5
17
102
{ACAD_REACTORS
330
C
102
}
330
C
100
AcDbDictionary
281
     1
  3
Standard
350
18
  0
DICTIONARY
  5
19
102
{ACAD_REACTORS
330
C
102
}
330
C
100
AcDbDictionary
281
     1
  0
ACDBDICTIONARYWDFLT
  5
E
102
{ACAD_REACTORS
330
C
102
}
330
C
100
AcDbDictionary
281
     1
  3
Normal
350
F
100
AcDbDictionaryWithDefault
340
F
  0
LAYOUT
  5
1E
102
{ACAD_REACTORS
330
1A
102
}
330
1A
100
AcDbPlotSettings
  1

  2
none_device
  4

  6

 40
0.0
 41
0.0
 42
0.0
 43
0.0
 44
0.0
 45
0.0
 46
0.0
 47
0.0
 48
0.0
 49
0.0
140
0.0
141
0.0
142
1.0
143
1.0
 70
   688
 72
     0
 73
     0
 74
     5
  7

 75
    16
147
1.0
148
0.0
149
0.0
100
AcDbLayout
  1
Layout1
 70
     1
 71
     1
 10
0.0
 20
0.0
 11
12.0
 21
9.0
 12
0.0
 22
0.0
 32
0.0
 14
1.0000000000E+20
 24
1.0000000000E+20
 34
1.0000000000E+20
 15
-1.0000000000E+20
 25
-1.0000000000E+20
 35
-1.0000000000E+20
146
0.0
 13
0.0
 23
0.0
 33
0.0
 16
1.0
 26
0.0
 36
0.0
 17
0.0
 27
1.0
 37
0.0
 76
     0
330
1B
  0
LAYOUT
  5
26
102
{ACAD_REACTORS
330
1A
102
}
330
1A
100
AcDbPlotSettings
  1

  2
none_device
  4

  6

 40
0.0
 41
0.0
 42
0.0
 43
0.0
 44
0.0
 45
0.0
 46
0.0
 47
0.0
 48
0.0
 49
0.0
140
0.0
141
0.0
142
1.0
143
1.0
 70
   688
 72
     0
 73
     0
 74
     5
  7

 75
    16
147
1.0
148
0.0
149
0.0
100
AcDbLayout
  1
Layout2
 70
     1
 71
     2
 10
0.0
 20
0.0
 11
0.0
 21
0.0
 12
0.0
 22
0.0
 32
0.0
 14
0.0
 24
0.0
 34
0.0
 15
0.0
 25
0.0
 35
0.0
146
0.0
 13
0.0
 23
0.0
 33
0.0
 16
1.0
 26
0.0
 36
0.0
 17
0.0
 27
1.0
 37
0.0
 76
     0
330
23
  0
LAYOUT
  5
22
102
{ACAD_REACTORS
330
1A
102
}
330
1A
100
AcDbPlotSettings
  1

  2
none_device
  4

  6

 40
0.0
 41
0.0
 42
0.0
 43
0.0
 44
0.0
 45
0.0
 46
0.0
 47
0.0
 48
0.0
 49
0.0
140
0.0
141
0.0
142
1.0
143
1.0
 70
  1712
 72
     0
 73
     0
 74
     0
  7

 75
     0
147
1.0
148
0.0
149
0.0
100
AcDbLayout
  1
Model
 70
     1
 71
     0
 10
0.0
 20
0.0
 11
17.0
 21
11.0
 12
0.0
 22
0.0
 32
0.0
 14
0.0
 24
0.0
 34
0.0
 15
17.0
 25
11.0
 35
0.0
146
0.0
 13
0.0
 23
0.0
 33
0.0
 16
1.0
 26
0.0
 36
0.0
 17
0.0
 27
1.0
 37
0.0
 76
     0
330
1F
331
29
  0
MLINESTYLE
  5
18
102
{ACAD_REACTORS
330
17
102
}
330
17
100
AcDbMlineStyle
  2
Standard
 70
     0
  3

 62
   256
 51
90.0
 52
90.0
 71
     2
 49
0.5
 62
   256
  6
BYLAYER
 49
-0.5
 62
   256
  6
BYLAYER
  0
ACDBPLACEHOLDER
  5
F
102
{ACAD_REACTORS
330
E
102
}
330
E
  0
ENDSEC
  0
EOF
