  999
DXF file created by gear template generator.  2014-05-30T10:48:30
  0
SECTION
  2
ENTITIES
 0
LWPOLYLINE
 8
a
 90
810
 70
1
 10
56.93627
 20
25.16009
 10
57.01201
 20
25.12774
 10
57.08758
 20
25.09438
 10
57.23819
 20
25.02476
 10
57.53737
 20
24.87479
 10
57.83394
 20
24.71164
 10
58.12791
 20
24.53632
 10
58.41928
 20
24.34957
 10
58.70802
 20
24.15197
 10
58.44893
 20
22.91608
 10
58.10514
 20
22.85108
 10
57.76329
 20
22.79708
 10
57.42366
 20
22.75459
 10
57.08654
 20
22.72429
 10
56.75231
 20
22.7071
 10
56.58643
 20
22.70383
 10
56.50382
 20
22.70363
 10
56.42146
 20
22.70442
 10
56.05135
 20
21.39994
 10
56.12185
 20
21.35736
 10
56.19204
 20
21.31381
 10
56.33149
 20
21.22391
 10
56.6069
 20
21.03376
 10
56.87787
 20
20.83092
 10
57.14458
 20
20.6164
 10
57.40712
 20
20.39092
 10
57.66555
 20
20.15505
 10
57.23698
 20
18.96725
 10
56.88749
 20
18.95073
 10
56.54146
 20
18.94483
 10
56.19922
 20
18.95002
 10
55.86116
 20
18.96693
 10
55.52779
 20
18.99643
 10
55.36307
 20
19.01628
 10
55.28124
 20
19.02757
 10
55.19979
 20
19.03982
 10
54.65173
 20
17.79955
 10
54.71562
 20
17.74757
 10
54.77906
 20
17.69467
 10
54.90465
 20
17.58624
 10
55.15091
 20
17.3596
 10
55.39101
 20
17.12103
 10
55.62527
 20
16.87148
 10
55.85388
 20
16.61165
 10
56.07697
 20
16.34211
 10
55.48726
 20
15.22552
 10
55.13887
 20
15.2578
 10
54.79538
 20
15.30011
 10
54.45719
 20
15.35288
 10
54.12478
 20
15.41668
 10
53.79876
 20
15.49228
 10
53.6384
 20
15.53487
 10
53.55894
 20
15.55744
 10
53.47999
 20
15.5809
 10
52.76465
 20
14.42898
 10
52.82069
 20
14.36861
 10
52.87615
 20
14.3074
 10
52.98542
 20
14.18254
 10
53.19774
 20
13.92384
 10
53.40231
 20
13.65418
 10
53.59956
 20
13.37445
 10
53.78978
 20
13.08533
 10
53.97318
 20
12.78737
 10
53.23381
 20
11.76372
 10
52.8933
 20
11.84417
 10
52.55905
 20
11.93387
 10
52.2315
 20
12.0332
 10
51.9112
 20
12.14263
 10
51.59888
 20
12.26288
 10
51.44601
 20
12.32736
 10
51.37046
 20
12.36077
 10
51.29554
 20
12.395
 10
50.42685
 20
11.35384
 10
50.47394
 20
11.28626
 10
50.52034
 20
11.21792
 10
50.61117
 20
11.07908
 10
50.78542
 20
10.79335
 10
50.95047
 20
10.49784
 10
51.10687
 20
10.19338
 10
51.255
 20
9.8806
 10
51.39515
 20
9.56001
 10
50.52051
 20
8.64922
 10
50.19451
 20
8.77628
 10
49.876
 20
8.91163
 10
49.56546
 20
9.05558
 10
49.26351
 20
9.20852
 10
48.97096
 20
9.37106
 10
48.82855
 20
9.4562
 10
48.75839
 20
9.4998
 10
48.68896
 20
9.54412
 10
47.68382
 20
8.63399
 10
47.72105
 20
8.56051
 10
47.75749
 20
8.48638
 10
47.82811
 20
8.33625
 10
47.9609
 20
8.02905
 10
48.08321
 20
7.71344
 10
48.19571
 20
7.39018
 10
48.29888
 20
7.05983
 10
48.39304
 20
6.72286
 10
47.40016
 20
5.94266
 10
47.09502
 20
6.11385
 10
46.79844
 20
6.29221
 10
46.51095
 20
6.47797
 10
46.23323
 20
6.67145
 10
45.96615
 20
6.87313
 10
45.83697
 20
6.97726
 10
45.77356
 20
7.0302
 10
45.71098
 20
7.08374
 10
44.58895
 20
6.32236
 10
44.61559
 20
6.24442
 10
44.64136
 20
6.16594
 10
44.6904
 20
6.00744
 10
44.77915
 20
5.68475
 10
44.85634
 20
5.35519
 10
44.92276
 20
5.01942
 10
44.97895
 20
4.67793
 10
45.0253
 20
4.33113
 10
43.93349
 20
3.6967
 10
43.65514
 20
3.90869
 10
43.38628
 20
4.1266
 10
43.12744
 20
4.35056
 10
42.87935
 20
4.58081
 10
42.64293
 20
4.81769
 10
42.52951
 20
4.93878
 10
42.47408
 20
5.00003
 10
42.41956
 20
5.06177
 10
41.20249
 20
4.46395
 10
41.21802
 20
4.38307
 10
41.23262
 20
4.30176
 10
41.25913
 20
4.13797
 10
41.30209
 20
3.80607
 10
41.33267
 20
3.46898
 10
41.35172
 20
3.12723
 10
41.35983
 20
2.78124
 10
41.35746
 20
2.43137
 10
40.18799
 20
1.95507
 10
39.94185
 20
2.20373
 10
39.70593
 20
2.45694
 10
39.48078
 20
2.71475
 10
39.26715
 20
2.97728
 10
39.066
 20
3.24476
 10
38.97053
 20
3.38046
 10
38.92417
 20
3.44883
 10
38.87877
 20
3.51755
 10
37.59034
 20
3.09494
 10
37.59447
 20
3.01267
 10
37.59761
 20
2.93013
 10
37.60106
 20
2.76425
 10
37.59742
 20
2.4296
 10
37.58079
 20
2.09153
 10
37.55208
 20
1.75046
 10
37.51196
 20
1.40671
 10
37.46093
 20
1.06056
 10
36.23655
 20
0.75166
 10
36.02741
 20
1.03216
 10
35.82902
 20
1.31573
 10
35.64195
 20
1.60237
 10
35.46693
 20
1.89208
 10
35.30497
 20
2.18495
 10
35.22931
 20
2.33262
 10
35.19292
 20
2.40677
 10
35.15753
 20
2.48115
 10
33.82282
 20
2.24196
 10
33.81546
 20
2.15992
 10
33.80708
 20
2.07774
 10
33.78741
 20
1.91299
 10
33.73723
 20
1.58211
 10
33.67371
 20
1.24964
 10
33.59782
 20
0.91588
 10
33.51025
 20
0.58106
 10
33.41154
 20
0.24539
 10
32.15608
 20
0.10989
 10
31.98802
 20
0.41677
 10
31.83102
 20
0.7252
 10
31.68566
 20
1.03508
 10
31.55267
 20
1.34633
 10
31.43304
 20
1.65889
 10
31.37867
 20
1.81565
 10
31.35295
 20
1.89415
 10
31.32826
 20
1.97272
 10
29.97325
 20
1.92162
 10
29.95454
 20
1.8414
 10
29.93481
 20
1.76119
 10
29.8924
 20
1.60078
 10
29.79666
 20
1.2801
 10
29.68749
 20
0.95971
 10
29.56588
 20
0.63976
 10
29.43257
 20
0.32039
 10
29.2881
 20
0.00172
 10
28.026
 20
0.04227
 10
27.90229
 20
0.36955
 10
27.78975
 20
0.69682
 10
27.68893
 20
1.02392
 10
27.60054
 20
1.35065
 10
27.52558
 20
1.67682
 10
27.49356
 20
1.83962
 10
27.47901
 20
1.92093
 10
27.46549
 20
2.00218
 10
26.11656
 20
2.14015
 10
26.08687
 20
2.06332
 10
26.05617
 20
1.98663
 10
25.99185
 20
1.83369
 10
25.85241
 20
1.52945
 10
25.69971
 20
1.22738
 10
25.53476
 20
0.92747
 10
25.35829
 20
0.62975
 10
25.17088
 20
0.33429
 10
23.92671
 20
0.55009
 10
23.84975
 20
0.89141
 10
23.78385
 20
1.23116
 10
23.72953
 20
1.5691
 10
23.68748
 20
1.90496
 10
23.65865
 20
2.23838
 10
23.64959
 20
2.40405
 10
23.6465
 20
2.4866
 10
23.64442
 20
2.56894
 10
22.32782
 20
2.8933
 10
22.28773
 20
2.82135
 10
22.24665
 20
2.74969
 10
22.16167
 20
2.60718
 10
21.98125
 20
2.32531
 10
21.78799
 20
2.04743
 10
21.58291
 20
1.77339
 10
21.36673
 20
1.50314
 10
21.14002
 20
1.23664
 10
19.93799
 20
1.62349
 10
19.90928
 20
1.97219
 10
19.8913
 20
2.31781
 10
19.88455
 20
2.66002
 10
19.88965
 20
2.99846
 10
19.9075
 20
3.33266
 10
19.92159
 20
3.49797
 10
19.93002
 20
3.58015
 10
19.93941
 20
3.66198
 10
18.68077
 20
4.16642
 10
18.63105
 20
4.10075
 10
18.5804
 20
4.0355
 10
18.47642
 20
3.9062
 10
18.25852
 20
3.65219
 10
18.02847
 20
3.4039
 10
17.78724
 20
3.16108
 10
17.53555
 20
2.92354
 10
17.27396
 20
2.69118
 10
16.13747
 20
3.24156
 10
16.15757
 20
3.59087
 10
16.18787
 20
3.93562
 10
16.22881
 20
4.27545
 10
16.28096
 20
4.60988
 10
16.34514
 20
4.93834
 10
16.38211
 20
5.10009
 10
16.40189
 20
5.18029
 10
16.42259
 20
5.26001
 10
15.2464
 20
5.93471
 10
15.18802
 20
5.8766
 10
15.12878
 20
5.81904
 10
15.00782
 20
5.70547
 10
14.75669
 20
5.48425
 10
14.49432
 20
5.2704
 10
14.22165
 20
5.06351
 10
13.93935
 20
4.86331
 10
13.64797
 20
4.66963
 10
12.59913
 20
5.37282
 10
12.66765
 20
5.71593
 10
12.74564
 20
6.05311
 10
12.83347
 20
6.38393
 10
12.93166
 20
6.70785
 10
13.04093
 20
7.02418
 10
13.10004
 20
7.17921
 10
13.1308
 20
7.25587
 10
13.16239
 20
7.33194
 10
12.09154
 20
8.16377
 10
12.02565
 20
8.11435
 10
11.95897
 20
8.06559
 10
11.82338
 20
7.96997
 10
11.54391
 20
7.78585
 10
11.25434
 20
7.6106
 10
10.95552
 20
7.44367
 10
10.64811
 20
7.28471
 10
10.3326
 20
7.13346
 10
9.39184
 20
7.97577
 10
9.50744
 20
8.30601
 10
9.6316
 20
8.62906
 10
9.76462
 20
8.94443
 10
9.90693
 20
9.25153
 10
10.05917
 20
9.54958
 10
10.13928
 20
9.69487
 10
10.1804
 20
9.76651
 10
10.22227
 20
9.83744
 10
9.27762
 20
10.81021
 10
9.20549
 20
10.77044
 10
9.13268
 20
10.73143
 10
8.98509
 20
10.65561
 10
8.68272
 20
10.51218
 10
8.37157
 20
10.37893
 10
8.05243
 20
10.25522
 10
7.72589
 20
10.14059
 10
7.3924
 20
10.03472
 10
6.57803
 20
10.99977
 10
6.73846
 20
11.3107
 10
6.90637
 20
11.61332
 10
7.08199
 20
11.90712
 10
7.26566
 20
12.19142
 10
7.45789
 20
12.46538
 10
7.55744
 20
12.59811
 10
7.60814
 20
12.66333
 10
7.65947
 20
12.72774
 10
6.85939
 20
13.82252
 10
6.78243
 20
13.79317
 10
6.7049
 20
13.76468
 10
6.5482
 20
13.71013
 10
6.2288
 20
13.61018
 10
5.90214
 20
13.52153
 10
5.56889
 20
13.44344
 10
5.22957
 20
13.37537
 10
4.8846
 20
13.31694
 10
4.21245
 20
14.38594
 10
4.4146
 20
14.67152
 10
4.62299
 20
14.94783
 10
4.83779
 20
15.21432
 10
5.05924
 20
15.4703
 10
5.28772
 20
15.71484
 10
5.40478
 20
15.83242
 10
5.46406
 20
15.88995
 10
5.52386
 20
15.94659
 10
4.88393
 20
17.14206
 10
4.80363
 20
17.12371
 10
4.72289
 20
17.10628
 10
4.56013
 20
17.07408
 10
4.22993
 20
17.01955
 10
3.89411
 20
16.97723
 10
3.55323
 20
16.94627
 10
3.20774
 20
16.92609
 10
2.85799
 20
16.91624
 10
2.34117
 20
18.06838
 10
2.58109
 20
18.32304
 10
2.82591
 20
18.56766
 10
3.0757
 20
18.80167
 10
3.33062
 20
19.02434
 10
3.59092
 20
19.23469
 10
3.7232
 20
19.33484
 10
3.78991
 20
19.38356
 10
3.85701
 20
19.43133
 10
3.38969
 20
20.70422
 10
3.30762
 20
20.69723
 10
3.22523
 20
20.69121
 10
3.05957
 20
20.68197
 10
2.725
 20
20.67393
 10
2.38656
 20
20.67876
 10
2.04469
 20
20.69554
 10
1.69975
 20
20.72364
 10
1.35204
 20
20.76256
 10
1.00059
 20
21.97542
 10
1.27362
 20
22.19421
 10
1.5501
 20
22.40238
 10
1.83003
 20
22.59934
 10
2.11346
 20
22.78436
 10
2.4005
 20
22.95645
 10
2.54543
 20
23.03721
 10
2.61827
 20
23.07617
 10
2.69136
 20
23.11414
 10
2.40574
 20
24.43968
 10
2.3235
 20
24.44418
 10
2.24108
 20
24.44968
 10
2.07574
 20
24.46359
 10
1.7433
 20
24.50219
 10
1.40883
 20
24.55407
 10
1.07262
 20
24.61827
 10
0.73495
 20
24.6941
 10
0.39604
 20
24.78104
 10
0.21681
 20
26.031
 10
0.51763
 20
26.20967
 10
0.82039
 20
26.37733
 10
1.12501
 20
26.53342
 10
1.43143
 20
26.6772
 10
1.73963
 20
26.80766
 10
1.89439
 20
26.86746
 10
1.97194
 20
26.89591
 10
2.04961
 20
26.92333
 10
1.95125
 20
28.27573
 10
1.87043
 20
28.29162
 10
1.78958
 20
28.30855
 10
1.62779
 20
28.34533
 10
1.30396
 20
28.42982
 10
0.97996
 20
28.52775
 10
0.65596
 20
28.63811
 10
0.33213
 20
28.7602
 10
0.00861
 20
28.89346
 10
0.00509
 20
30.1562
 10
0.32785
 20
30.29126
 10
0.651
 20
30.41516
 10
0.97437
 20
30.52733
 10
1.29782
 20
30.62706
 10
1.62117
 20
30.71336
 10
1.78276
 20
30.75105
 10
1.86351
 20
30.76842
 10
1.94424
 20
30.78477
 10
2.03505
 20
32.13769
 10
1.95723
 20
32.16468
 10
1.87952
 20
32.1927
 10
1.72442
 20
32.25164
 10
1.4155
 20
32.38037
 10
1.10828
 20
32.52244
 10
0.8028
 20
32.67682
 10
0.49911
 20
32.84279
 10
0.19729
 20
33.01977
 10
0.36954
 20
34.27072
 10
0.70796
 20
34.35955
 10
1.0452
 20
34.43726
 10
1.38104
 20
34.50334
 10
1.71523
 20
34.55709
 10
2.04744
 20
34.59754
 10
2.2127
 20
34.61237
 10
2.29509
 20
34.61834
 10
2.3773
 20
34.62329
 10
2.65552
 20
35.95041
 10
2.58221
 20
35.98797
 10
2.50916
 20
36.02652
 10
2.36377
 20
36.10648
 10
2.07578
 20
36.27695
 10
1.79132
 20
36.46039
 10
1.51029
 20
36.65579
 10
1.23266
 20
36.86241
 10
0.95841
 20
37.07967
 10
1.30308
 20
38.29447
 10
1.65057
 20
38.33534
 10
1.99534
 20
38.36536
 10
2.33711
 20
38.38406
 10
2.67552
 20
38.39077
 10
3.01014
 20
38.3846
 10
3.17585
 20
38.37628
 10
3.25826
 20
38.37073
 10
3.34037
 20
38.36419
 10
3.80058
 20
39.63967
 10
3.73321
 20
39.68707
 10
3.66623
 20
39.73541
 10
3.53339
 20
39.83482
 10
3.27192
 20
40.04372
 10
3.01576
 20
40.26496
 10
2.76467
 20
40.49757
 10
2.51849
 20
40.74082
 10
2.27715
 20
40.99414
 10
2.78753
 20
42.14914
 10
3.13732
 20
42.14125
 10
3.48292
 20
42.123
 10
3.82397
 20
42.09395
 10
4.16002
 20
42.0535
 10
4.49052
 20
42.00081
 10
4.65346
 20
41.96952
 10
4.7343
 20
41.95255
 10
4.8147
 20
41.93465
 10
5.44794
 20
43.13367
 10
5.38783
 20
43.18998
 10
5.32823
 20
43.24717
 10
5.21051
 20
43.3641
 10
4.98066
 20
43.60736
 10
4.75779
 20
43.8621
 10
4.54151
 20
44.12739
 10
4.33158
 20
44.40253
 10
4.12784
 20
44.68697
 10
4.794
 20
45.75971
 10
5.13929
 20
45.70321
 10
5.47899
 20
45.63704
 10
5.81267
 20
45.5608
 10
6.13982
 20
45.47398
 10
6.45977
 20
45.37581
 10
6.61677
 20
45.32214
 10
6.69446
 20
45.29408
 10
6.77159
 20
45.26517
 10
7.56554
 20
46.36439
 10
7.51385
 20
46.42852
 10
7.46279
 20
46.49345
 10
7.36249
 20
46.62563
 10
7.16874
 20
46.8985
 10
6.98348
 20
47.18178
 10
6.80623
 20
47.47459
 10
6.63663
 20
47.77627
 10
6.47446
 20
48.0863
 10
7.28344
 20
49.05589
 10
7.61751
 20
48.95188
 10
7.94469
 20
48.83908
 10
8.26451
 20
48.71714
 10
8.57639
 20
48.58563
 10
8.87957
 20
48.44389
 10
9.02757
 20
48.3689
 10
9.1006
 20
48.3303
 10
9.17295
 20
48.29093
 10
10.11216
 20
49.26896
 10
10.06989
 20
49.33966
 10
10.02837
 20
49.41107
 10
9.94745
 20
49.55591
 10
9.79355
 20
49.8531
 10
9.64952
 20
50.1594
 10
9.51475
 20
50.47403
 10
9.38879
 20
50.79638
 10
9.27134
 20
51.12596
 10
10.20739
 20
51.97352
 10
10.52373
 20
51.82404
 10
10.83203
 20
51.66679
 10
11.13177
 20
51.50154
 10
11.42231
 20
51.3279
 10
11.70281
 20
51.14535
 10
11.83894
 20
51.05049
 10
11.90589
 20
51.0021
 10
11.97205
 20
50.95305
 10
13.03823
 20
51.79084
 10
13.00622
 20
51.86673
 10
12.97504
 20
51.94323
 10
12.91506
 20
52.09792
 10
12.80402
 20
52.41364
 10
12.70403
 20
52.73701
 10
12.61435
 20
53.06733
 10
12.53448
 20
53.40407
 10
12.46405
 20
53.74679
 10
13.50894
 20
54.45583
 10
13.8014
 20
54.26377
 10
14.08481
 20
54.06515
 10
14.35864
 20
53.85979
 10
14.62219
 20
53.64741
 10
14.87455
 20
53.42759
 10
14.99615
 20
53.31471
 10
15.05571
 20
53.25747
 10
15.11441
 20
53.19969
 10
16.28681
 20
53.88095
 10
16.26567
 20
53.96056
 10
16.24544
 20
54.04065
 10
16.20757
 20
54.20219
 10
16.14156
 20
54.53028
 10
16.08754
 20
54.86442
 10
16.0447
 20
55.20401
 10
16.01248
 20
55.54859
 10
15.99043
 20
55.89777
 10
17.12383
 20
56.45449
 10
17.38671
 20
56.2236
 10
17.63972
 20
55.98747
 10
17.88231
 20
55.746
 10
18.11373
 20
55.499
 10
18.33305
 20
55.24621
 10
18.43775
 20
55.1175
 10
18.48877
 20
55.05253
 10
18.53885
 20
54.98714
 10
19.79466
 20
55.4986
 10
19.7848
 20
55.58038
 10
19.77592
 20
55.6625
 10
19.7609
 20
55.82774
 10
19.74119
 20
56.16183
 10
19.7342
 20
56.50023
 10
19.73904
 20
56.84248
 10
19.75508
 20
57.18819
 10
19.78185
 20
57.53705
 10
20.9817
 20
57.93061
 10
21.20989
 20
57.66538
 10
21.42758
 20
57.39634
 10
21.63419
 20
57.12345
 10
21.82899
 20
56.84665
 10
22.01099
 20
56.56579
 10
22.09676
 20
56.42376
 10
22.13824
 20
56.35233
 10
22.17874
 20
56.2806
 10
23.4935
 20
56.61231
 10
23.49513
 20
56.69467
 10
23.49775
 20
56.77723
 10
23.50588
 20
56.94295
 10
23.53286
 20
57.27653
 10
23.57303
 20
57.61261
 10
23.62546
 20
57.95085
 10
23.68946
 20
58.29097
 10
23.76451
 20
58.6327
 10
25.00746
 20
58.85545
 10
25.19652
 20
58.56104
 10
25.37464
 20
58.26432
 10
25.54127
 20
57.96534
 10
25.69565
 20
57.66412
 10
25.83679
 20
57.36066
 10
25.90196
 20
57.20808
 10
25.93309
 20
57.13157
 10
25.96321
 20
57.05491
 10
27.31135
 20
57.20041
 10
27.32442
 20
57.28173
 10
27.33851
 20
57.36312
 10
27.36962
 20
57.5261
 10
27.44276
 20
57.85268
 10
27.52932
 20
58.1799
 10
27.62831
 20
58.50755
 10
27.73902
 20
58.83545
 10
27.86091
 20
59.16342
 10
29.12276
 20
59.21101
 10
29.269
 20
58.89316
 10
29.4041
 20
58.57453
 10
29.52749
 20
58.25527
 10
29.63845
 20
57.9355
 10
29.73598
 20
57.61535
 10
29.77928
 20
57.45518
 10
29.79946
 20
57.37508
 10
29.81862
 20
57.29497
 10
31.17389
 20
57.25144
 10
31.19815
 20
57.33015
 10
31.22343
 20
57.40879
 10
31.27692
 20
57.56585
 10
31.3948
 20
57.87907
 10
31.52605
 20
58.19106
 10
31.66968
 20
58.50175
 10
31.82495
 20
58.81105
 10
31.99129
 20
59.11886
 10
33.24749
 20
58.99037
 10
33.34807
 20
58.65526
 10
33.43751
 20
58.32093
 10
33.51527
 20
57.9876
 10
33.58064
 20
57.6555
 10
33.63267
 20
57.3249
 10
33.65326
 20
57.16026
 10
33.6621
 20
57.07813
 10
33.66992
 20
56.99614
 10
35.00594
 20
56.76441
 10
35.04091
 20
56.83898
 10
35.0769
 20
56.91333
 10
35.15172
 20
57.06142
 10
35.31205
 20
57.35519
 10
35.48545
 20
57.64588
 10
35.67092
 20
57.93355
 10
35.86772
 20
58.21823
 10
36.07528
 20
58.4999
 10
37.30137
 20
58.19783
 10
37.35434
 20
57.85198
 10
37.39638
 20
57.50846
 10
37.42699
 20
57.16755
 10
37.44551
 20
56.82958
 10
37.45102
 20
56.49496
 10
37.44849
 20
56.32906
 10
37.44581
 20
56.2465
 10
37.44215
 20
56.16421
 10
38.73291
 20
55.7488
 10
38.77793
 20
55.81778
 10
38.82391
 20
55.8864
 10
38.91862
 20
56.02263
 10
39.11827
 20
56.29123
 10
39.33043
 20
56.55496
 10
39.55413
 20
56.81402
 10
39.78864
 20
57.06854
 10
40.03339
 20
57.31857
 10
41.2055
 20
56.84881
 10
41.20982
 20
56.49895
 10
41.20364
 20
56.15293
 10
41.18651
 20
55.81108
 10
41.15781
 20
55.47382
 10
41.1167
 20
55.14168
 10
41.09111
 20
54.97775
 10
41.07696
 20
54.89637
 10
41.06188
 20
54.81539
 10
42.28227
 20
54.22438
 10
42.33645
 20
54.28642
 10
42.39153
 20
54.34798
 10
42.50428
 20
54.4697
 10
42.73937
 20
54.7079
 10
42.98617
 20
54.93953
 10
43.24375
 20
55.16494
 10
43.5114
 20
55.38434
 10
43.78856
 20
55.59789
 10
44.88389
 20
54.96957
 10
44.83947
 20
54.62252
 10
44.7852
 20
54.28072
 10
44.72066
 20
53.94458
 10
44.6453
 20
53.6146
 10
44.55836
 20
53.29141
 10
44.51021
 20
53.13264
 10
44.48488
 20
53.05401
 10
44.45867
 20
52.97593
 10
45.58493
 20
52.22082
 10
45.64721
 20
52.27472
 10
45.71033
 20
52.32801
 10
45.83892
 20
52.43286
 10
46.10487
 20
52.63602
 10
46.38151
 20
52.83105
 10
46.66795
 20
53.01842
 10
46.96353
 20
53.19844
 10
47.26771
 20
53.37133
 10
48.26494
 20
52.59668
 10
48.17266
 20
52.25919
 10
48.07134
 20
51.92827
 10
47.96064
 20
51.60438
 10
47.8401
 20
51.2881
 10
47.70903
 20
50.98016
 10
47.63924
 20
50.82964
 10
47.60322
 20
50.7553
 10
47.5664
 20
50.68162
 10
48.57661
 20
49.77712
 10
48.64579
 20
49.82183
 10
48.7157
 20
49.86582
 10
48.85763
 20
49.95175
 10
49.14927
 20
50.11592
 10
49.45036
 20
50.27055
 10
49.76009
 20
50.41623
 10
50.07785
 20
50.55336
 10
50.40313
 20
50.68223
 10
51.28284
 20
49.77634
 10
51.14449
 20
49.45497
 10
50.9981
 20
49.14137
 10
50.84341
 20
48.83605
 10
50.68002
 20
48.53962
 10
50.50736
 20
48.25292
 10
50.41731
 20
48.11357
 10
50.37129
 20
48.04497
 10
50.32457
 20
47.97713
 10
51.19907
 20
46.94084
 10
51.2738
 20
46.97548
 10
51.34916
 20
47.00931
 10
51.50167
 20
47.07466
 10
51.81331
 20
47.19664
 10
52.13299
 20
47.30786
 10
52.45999
 20
47.40902
 10
52.79373
 20
47.50059
 10
53.13379
 20
47.58294
 10
53.87886
 20
46.56343
 10
53.69713
 20
46.26445
 10
53.50852
 20
45.97427
 10
53.31284
 20
45.69345
 10
53.10978
 20
45.42264
 10
52.89891
 20
45.16276
 10
52.79034
 20
45.0373
 10
52.73522
 20
44.97578
 10
52.67952
 20
44.9151
 10
53.40128
 20
43.76719
 10
53.4801
 20
43.79109
 10
53.55943
 20
43.81411
 10
53.71955
 20
43.85759
 10
54.04514
 20
43.93501
 10
54.37719
 20
44.00066
 10
54.71508
 20
44.05532
 10
55.05832
 20
44.09955
 10
55.40653
 20
44.13377
 10
56.00247
 20
43.02049
 10
55.78089
 20
42.74971
 10
55.55373
 20
42.48861
 10
55.32087
 20
42.23775
 10
55.0821
 20
41.99784
 10
54.83712
 20
41.76984
 10
54.71214
 20
41.66071
 10
54.64899
 20
41.60746
 10
54.58539
 20
41.55512
 10
55.14037
 20
40.31793
 10
55.22175
 20
40.33063
 10
55.30351
 20
40.34238
 10
55.46813
 20
40.36315
 10
55.80132
 20
40.39451
 10
56.13928
 20
40.41331
 10
56.48148
 20
40.42041
 10
56.82754
 20
40.41645
 10
57.17712
 20
40.40187
 10
57.61232
 20
39.21649
 10
57.35522
 20
38.97918
 10
57.09393
 20
38.75223
 10
56.82842
 20
38.53622
 10
56.55859
 20
38.33188
 10
56.28425
 20
38.14019
 10
56.14531
 20
38.04952
 10
56.07536
 20
38.00557
 10
56.0051
 20
37.9626
 10
56.38249
 20
36.66021
 10
56.46485
 20
36.66146
 10
56.54745
 20
36.66172
 10
56.71335
 20
36.65938
 10
57.04767
 20
36.64406
 10
57.38495
 20
36.61564
 10
57.72482
 20
36.57505
 10
58.06696
 20
36.52295
 10
58.41111
 20
36.45987
 10
58.67709
 20
35.22546
 10
58.38946
 20
35.02624
 10
58.09914
 20
34.83787
 10
57.80615
 20
34.66091
 10
57.51051
 20
34.49611
 10
57.21216
 20
34.34447
 10
57.06195
 20
34.27401
 10
56.98657
 20
34.24022
 10
56.911
 20
34.20745
 10
57.10346
 20
32.86521
 10
57.18519
 20
32.85499
 10
57.26703
 20
32.84375
 10
57.43099
 20
32.81834
 10
57.75993
 20
32.75664
 10
58.08997
 20
32.68156
 10
58.42088
 20
32.59406
 10
58.75244
 20
32.49486
 10
59.08446
 20
32.3845
 10
59.17606
 20
31.12508
 10
58.8635
 20
30.96783
 10
58.54979
 20
30.82169
 10
58.23502
 20
30.68723
 10
57.91932
 20
30.56518
 10
57.60277
 20
30.45654
 10
57.44421
 20
30.40767
 10
57.36487
 20
30.38471
 10
57.28548
 20
30.36277
 10
57.28926
 20
29.00681
 10
57.36877
 20
28.98531
 10
57.44825
 20
28.96279
 10
57.60708
 20
28.91481
 10
57.92423
 20
28.80793
 10
58.24061
 20
28.68765
 10
58.55612
 20
28.55495
 10
58.87064
 20
28.41057
 10
59.18408
 20
28.25507
 10
59.09951
 20
26.99516
 10
58.76811
 20
26.88294
 10
58.43711
 20
26.78189
 10
58.10669
 20
26.69254
 10
57.77708
 20
26.61562
 10
57.44849
 20
26.55208
 10
57.28467
 20
26.52576
 10
57.2029
 20
26.51406
 10
57.12123
 20
26.50339
 0
CIRCLE
 8
a
 10
29.60749
 20
29.60749
 40
0.5
 0
LWPOLYLINE
 8
a
 90
900
 70
1
 10
62.5985
 20
24.74347
 10
62.55027
 20
24.7378
 10
62.50183
 20
24.73292
 10
62.45319
 20
24.72877
 10
62.40437
 20
24.72529
 10
62.30624
 20
24.72019
 10
62.2075
 20
24.7174
 10
62.0084
 20
24.7181
 10
61.80743
 20
24.72642
 10
61.6048
 20
24.74173
 10
61.40072
 20
24.7636
 10
61.19532
 20
24.79169
 10
60.98875
 20
24.82576
 10
60.78112
 20
24.86559
 10
60.57255
 20
24.91103
 10
60.31843
 20
26.13167
 10
60.49154
 20
26.25657
 10
60.66603
 20
26.37596
 10
60.84184
 20
26.48963
 10
61.01896
 20
26.59736
 10
61.19737
 20
26.69885
 10
61.37705
 20
26.79375
 10
61.55801
 20
26.88158
 10
61.74028
 20
26.96167
 10
61.83193
 20
26.99852
 10
61.92395
 20
27.03301
 10
61.9701
 20
27.0493
 10
62.01635
 20
27.0649
 10
62.06272
 20
27.07976
 10
62.1092
 20
27.09381
 10
61.96907
 20
28.48295
 10
61.92072
 20
28.48743
 10
61.87233
 20
28.49273
 10
61.82389
 20
28.49878
 10
61.77541
 20
28.50552
 10
61.67836
 20
28.52094
 10
61.5812
 20
28.53875
 10
61.3866
 20
28.58082
 10
61.19175
 20
28.63074
 10
60.99673
 20
28.68785
 10
60.80165
 20
28.75167
 10
60.60659
 20
28.82185
 10
60.41161
 20
28.89812
 10
60.2168
 20
28.98026
 10
60.02223
 20
29.06807
 10
60.02746
 20
30.31487
 10
60.22276
 20
30.40105
 10
60.41824
 20
30.48155
 10
60.61385
 20
30.55618
 10
60.8095
 20
30.62473
 10
61.00511
 20
30.68691
 10
61.20059
 20
30.74238
 10
61.39586
 20
30.79067
 10
61.5908
 20
30.83111
 10
61.68811
 20
30.8481
 10
61.78529
 20
30.86271
 10
61.83382
 20
30.86904
 10
61.8823
 20
30.87468
 10
61.93074
 20
30.87958
 10
61.97913
 20
30.88366
 10
62.13088
 20
32.27157
 10
62.08452
 20
32.28602
 10
62.03829
 20
32.30126
 10
61.99216
 20
32.31725
 10
61.94615
 20
32.33392
 10
61.85443
 20
32.36918
 10
61.76309
 20
32.4068
 10
61.58149
 20
32.48841
 10
61.40127
 20
32.57775
 10
61.2224
 20
32.67416
 10
61.04485
 20
32.77714
 10
60.86863
 20
32.88635
 10
60.69378
 20
33.00149
 10
60.5203
 20
33.12233
 10
60.34824
 20
33.24868
 10
60.61258
 20
34.46715
 10
60.82152
 20
34.51084
 10
61.02948
 20
34.54894
 10
61.23633
 20
34.58127
 10
61.44195
 20
34.60764
 10
61.64622
 20
34.6278
 10
61.84896
 20
34.64141
 10
62.05
 20
34.64805
 10
62.24909
 20
34.64707
 10
62.3478
 20
34.64346
 10
62.44589
 20
34.63754
 10
62.49468
 20
34.63365
 10
62.54328
 20
34.62909
 10
62.59168
 20
34.6238
 10
62.63986
 20
34.61774
 10
63.07686
 20
35.94377
 10
63.03452
 20
35.96753
 10
62.99246
 20
35.99206
 10
62.95067
 20
36.01729
 10
62.90913
 20
36.04316
 10
62.82674
 20
36.09672
 10
62.74522
 20
36.15251
 10
62.58456
 20
36.27009
 10
62.42685
 20
36.39495
 10
62.27193
 20
36.52644
 10
62.11967
 20
36.66409
 10
61.97001
 20
36.80755
 10
61.82292
 20
36.95653
 10
61.67836
 20
37.1108
 10
61.53633
 20
37.27016
 10
62.04822
 20
38.40704
 10
62.26168
 20
38.40633
 10
62.47301
 20
38.40036
 10
62.68207
 20
38.38898
 10
62.88868
 20
38.37203
 10
63.09267
 20
38.34927
 10
63.29382
 20
38.32044
 10
63.49184
 20
38.28513
 10
63.68638
 20
38.24278
 10
63.78218
 20
38.21872
 10
63.8769
 20
38.19254
 10
63.92381
 20
38.17859
 10
63.9704
 20
38.16402
 10
64.01664
 20
38.14879
 10
64.06251
 20
38.13284
 10
64.76566
 20
39.33904
 10
64.72918
 20
39.37109
 10
64.69314
 20
39.40382
 10
64.65751
 20
39.43719
 10
64.62225
 20
39.47113
 10
64.5528
 20
39.54065
 10
64.48466
 20
39.61217
 10
64.35196
 20
39.76059
 10
64.22366
 20
39.91551
 10
64.09946
 20
40.07633
 10
63.97915
 20
40.24263
 10
63.86259
 20
40.41407
 10
63.74968
 20
40.59038
 10
63.64035
 20
40.77133
 10
63.53456
 20
40.95673
 10
64.27163
 20
41.96235
 10
64.48029
 20
41.91727
 10
64.68576
 20
41.86749
 10
64.88788
 20
41.8129
 10
65.08645
 20
41.75336
 10
65.28125
 20
41.68869
 10
65.47201
 20
41.61866
 10
65.65836
 20
41.54295
 10
65.83985
 20
41.46109
 10
65.92856
 20
41.41763
 10
66.01576
 20
41.37233
 10
66.05875
 20
41.34893
 10
66.10129
 20
41.325
 10
66.14335
 20
41.30048
 10
66.1849
 20
41.27535
 10
67.12347
 20
42.30899
 10
67.09445
 20
42.34793
 10
67.066
 20
42.38744
 10
67.03809
 20
42.42748
 10
67.01066
 20
42.46802
 10
66.95718
 20
42.55046
 10
66.9054
 20
42.63458
 10
66.80645
 20
42.80734
 10
66.71317
 20
42.98555
 10
66.62511
 20
43.16868
 10
66.54201
 20
43.35636
 10
66.46364
 20
43.54829
 10
66.38986
 20
43.74422
 10
66.32054
 20
43.94395
 10
66.25561
 20
44.1473
 10
67.18566
 20
44.97769
 10
67.38038
 20
44.89022
 10
67.57101
 20
44.79881
 10
67.75736
 20
44.70338
 10
67.93921
 20
44.60385
 10
68.11632
 20
44.5001
 10
68.28834
 20
44.39194
 10
68.45488
 20
44.27914
 10
68.61538
 20
44.16133
 10
68.69312
 20
44.10038
 10
68.769
 20
44.03794
 10
68.80618
 20
44.00612
 10
68.84281
 20
43.97386
 10
68.87886
 20
43.94114
 10
68.91427
 20
43.90791
 10
70.04724
 20
44.72383
 10
70.02695
 20
44.76794
 10
70.00734
 20
44.81251
 10
69.98836
 20
44.85748
 10
69.96996
 20
44.90283
 10
69.93479
 20
44.99459
 10
69.90163
 20
45.08764
 10
69.84077
 20
45.2772
 10
69.78657
 20
45.47091
 10
69.73852
 20
45.66835
 10
69.69625
 20
45.8692
 10
69.6595
 20
46.07323
 10
69.62806
 20
46.28022
 10
69.60179
 20
46.48999
 10
69.58055
 20
46.7024
 10
70.66292
 20
47.32128
 10
70.83521
 20
47.19523
 10
71.00266
 20
47.06618
 10
71.1651
 20
46.9341
 10
71.32229
 20
46.79894
 10
71.47395
 20
46.66063
 10
71.61973
 20
46.51907
 10
71.75918
 20
46.37411
 10
71.89167
 20
46.2255
 10
71.95504
 20
46.14973
 10
72.01628
 20
46.07287
 10
72.04603
 20
46.03401
 10
72.07516
 20
45.99484
 10
72.10362
 20
45.95534
 10
72.13135
 20
45.91548
 10
73.40919
 20
46.47801
 10
73.39852
 20
46.52538
 10
73.3886
 20
46.57305
 10
73.37939
 20
46.62098
 10
73.37082
 20
46.66917
 10
73.3555
 20
46.76623
 10
73.3424
 20
46.86414
 10
73.32228
 20
47.06222
 10
73.30955
 20
47.26296
 10
73.3036
 20
47.46608
 10
73.30401
 20
47.67133
 10
73.31048
 20
47.87854
 10
73.32277
 20
48.08754
 10
73.34068
 20
48.29819
 10
73.36407
 20
48.51038
 10
74.55146
 20
48.89069
 10
74.69377
 20
48.73158
 10
74.83074
 20
48.57054
 10
74.96217
 20
48.40757
 10
75.08782
 20
48.24268
 10
75.20741
 20
48.07586
 10
75.32057
 20
47.90708
 10
75.42684
 20
47.73629
 10
75.52554
 20
47.56339
 10
75.57177
 20
47.47609
 10
75.61569
 20
47.38819
 10
75.63671
 20
47.34399
 10
75.65706
 20
47.29962
 10
75.67668
 20
47.25506
 10
75.69552
 20
47.21031
 10
77.0624
 20
47.49487
 10
77.0618
 20
47.54342
 10
77.06202
 20
47.59211
 10
77.06297
 20
47.64091
 10
77.06461
 20
47.68983
 10
77.0698
 20
47.78796
 10
77.07735
 20
47.88645
 10
77.09885
 20
48.08438
 10
77.12813
 20
48.28338
 10
77.16454
 20
48.4833
 10
77.20762
 20
48.68398
 10
77.25703
 20
48.88531
 10
77.3125
 20
49.08719
 10
77.37382
 20
49.28952
 10
77.44081
 20
49.4922
 10
78.68133
 20
49.61733
 10
78.78745
 20
49.43211
 10
78.88794
 20
49.24611
 10
78.98261
 20
49.05938
 10
79.07124
 20
48.87197
 10
79.15353
 20
48.68393
 10
79.22913
 20
48.49531
 10
79.29756
 20
48.30616
 10
79.35816
 20
48.11652
 10
79.38522
 20
48.02152
 10
79.40991
 20
47.9264
 10
79.42128
 20
47.8788
 10
79.43196
 20
47.83117
 10
79.44189
 20
47.7835
 10
79.45101
 20
47.73581
 10
80.84718
 20
47.72996
 10
80.8567
 20
47.77758
 10
80.86703
 20
47.82515
 10
80.87811
 20
47.8727
 10
80.88988
 20
47.9202
 10
80.91536
 20
48.01511
 10
80.94322
 20
48.10988
 10
81.00541
 20
48.29901
 10
81.07542
 20
48.48758
 10
81.1526
 20
48.67555
 10
81.23646
 20
48.8629
 10
81.32665
 20
49.04956
 10
81.42288
 20
49.23549
 10
81.52493
 20
49.42065
 10
81.6326
 20
49.60497
 10
82.87202
 20
49.46945
 10
82.93732
 20
49.26622
 10
82.99694
 20
49.06338
 10
83.05072
 20
48.86105
 10
83.09844
 20
48.6593
 10
83.13984
 20
48.45827
 10
83.17457
 20
48.25806
 10
83.20218
 20
48.05881
 10
83.22203
 20
47.86071
 10
83.22875
 20
47.76216
 10
83.23312
 20
47.66399
 10
83.23435
 20
47.61506
 10
83.23489
 20
47.56625
 10
83.23469
 20
47.51756
 10
83.2337
 20
47.46902
 10
84.59814
 20
47.17302
 10
84.61735
 20
47.21761
 10
84.63735
 20
47.262
 10
84.65807
 20
47.3062
 10
84.67946
 20
47.35022
 10
84.72412
 20
47.43776
 10
84.77107
 20
47.52466
 10
84.87122
 20
47.69673
 10
84.97891
 20
47.86663
 10
85.09348
 20
48.03445
 10
85.21446
 20
48.20026
 10
85.34149
 20
48.36409
 10
85.47428
 20
48.52595
 10
85.61259
 20
48.68584
 10
85.75623
 20
48.84376
 10
86.9404
 20
48.45351
 10
86.96201
 20
48.24114
 10
86.97816
 20
48.03034
 10
86.98869
 20
47.82124
 10
86.99343
 20
47.61399
 10
86.99212
 20
47.40874
 10
86.98447
 20
47.20568
 10
86.97005
 20
47.00505
 10
86.94827
 20
46.80715
 10
86.93436
 20
46.70935
 10
86.91822
 20
46.61242
 10
86.90925
 20
46.56431
 10
86.89963
 20
46.51645
 10
86.88932
 20
46.46887
 10
86.87825
 20
46.42159
 10
88.15134
 20
45.84837
 10
88.1794
 20
45.888
 10
88.20819
 20
45.92726
 10
88.23764
 20
45.96619
 10
88.26772
 20
46.0048
 10
88.3296
 20
46.08114
 10
88.3936
 20
46.15638
 10
88.52734
 20
46.30387
 10
88.668
 20
46.44766
 10
88.81496
 20
46.58799
 10
88.96777
 20
46.72503
 10
89.12608
 20
46.85887
 10
89.28962
 20
46.98958
 10
89.45816
 20
47.11723
 10
89.63149
 20
47.24182
 10
90.70864
 20
46.6139
 10
90.68562
 20
46.40168
 10
90.65759
 20
46.19213
 10
90.62442
 20
45.98541
 10
90.58596
 20
45.7817
 10
90.54201
 20
45.58121
 10
90.49231
 20
45.38418
 10
90.43649
 20
45.19093
 10
90.37405
 20
45.00188
 10
90.3401
 20
44.90912
 10
90.30417
 20
44.81766
 10
90.28539
 20
44.77246
 10
90.26603
 20
44.72765
 10
90.24605
 20
44.68325
 10
90.22539
 20
44.63931
 10
91.35148
 20
43.81393
 10
91.38717
 20
43.84685
 10
91.42349
 20
43.87927
 10
91.4604
 20
43.91122
 10
91.49784
 20
43.94274
 10
91.57424
 20
44.00454
 10
91.65249
 20
44.06483
 10
91.81397
 20
44.18129
 10
91.98145
 20
44.2927
 10
92.15437
 20
44.39941
 10
92.33234
 20
44.50168
 10
92.51502
 20
44.59968
 10
92.70216
 20
44.69354
 10
92.89355
 20
44.78335
 10
93.089
 20
44.86918
 10
94.01206
 20
44.03103
 10
93.94542
 20
43.82823
 10
93.87444
 20
43.62909
 10
93.79901
 20
43.43379
 10
93.71904
 20
43.24252
 10
93.63437
 20
43.05555
 10
93.54478
 20
42.87316
 10
93.45001
 20
42.69574
 10
93.34962
 20
42.52381
 10
93.29713
 20
42.44012
 10
93.24297
 20
42.35813
 10
93.2152
 20
42.31783
 10
93.18695
 20
42.27802
 10
93.15817
 20
42.23875
 10
93.12883
 20
42.20006
 10
94.05871
 20
41.15859
 10
94.10046
 20
41.18338
 10
94.14273
 20
41.20754
 10
94.18547
 20
41.23112
 10
94.22865
 20
41.25415
 10
94.31623
 20
41.29872
 10
94.4053
 20
41.34143
 10
94.58747
 20
41.42177
 10
94.77445
 20
41.49592
 10
94.96578
 20
41.56435
 10
95.16112
 20
41.62738
 10
95.36019
 20
41.68526
 10
95.56275
 20
41.73816
 10
95.76863
 20
41.78621
 10
95.97766
 20
41.82954
 10
96.70628
 20
40.81778
 10
96.59894
 20
40.63327
 10
96.4881
 20
40.45324
 10
96.37372
 20
40.27788
 10
96.25573
 20
40.10743
 10
96.13403
 20
39.94214
 10
96.00849
 20
39.78237
 10
95.87889
 20
39.62853
 10
95.74495
 20
39.48122
 10
95.67621
 20
39.41028
 10
95.60618
 20
39.34135
 10
95.57064
 20
39.3077
 10
95.53473
 20
39.27463
 10
95.49842
 20
39.2422
 10
95.46168
 20
39.21046
 10
96.1547
 20
37.99841
 10
96.20069
 20
38.01398
 10
96.24706
 20
38.02882
 10
96.29377
 20
38.043
 10
96.3408
 20
38.05656
 10
96.43573
 20
38.08194
 10
96.53174
 20
38.1052
 10
96.72662
 20
38.14591
 10
96.92493
 20
38.17956
 10
97.12631
 20
38.20671
 10
97.33049
 20
38.22776
 10
97.53724
 20
38.24298
 10
97.74638
 20
38.25261
 10
97.95775
 20
38.25681
 10
98.17121
 20
38.25573
 10
98.67356
 20
37.11459
 10
98.5302
 20
36.95643
 10
98.38435
 20
36.80338
 10
98.23601
 20
36.65564
 10
98.08516
 20
36.51344
 10
97.93176
 20
36.37707
 10
97.77574
 20
36.24688
 10
97.61699
 20
36.12335
 10
97.45535
 20
36.00711
 10
97.37337
 20
35.95201
 10
97.29053
 20
35.89915
 10
97.24877
 20
35.87362
 10
97.20677
 20
35.84874
 10
97.16451
 20
35.82457
 10
97.12197
 20
35.80116
 10
97.54785
 20
34.47151
 10
97.59608
 20
34.47718
 10
97.64452
 20
34.48206
 10
97.69315
 20
34.48621
 10
97.74197
 20
34.48969
 10
97.84011
 20
34.49479
 10
97.93885
 20
34.49758
 10
98.13794
 20
34.49688
 10
98.33892
 20
34.48856
 10
98.54154
 20
34.47325
 10
98.74563
 20
34.45138
 10
98.95102
 20
34.42329
 10
99.1576
 20
34.38922
 10
99.36522
 20
34.34939
 10
99.5738
 20
34.30395
 10
99.82791
 20
33.08331
 10
99.6548
 20
32.95841
 10
99.48032
 20
32.83902
 10
99.30451
 20
32.72535
 10
99.12738
 20
32.61762
 10
98.94898
 20
32.51613
 10
98.7693
 20
32.42123
 10
98.58834
 20
32.3334
 10
98.40607
 20
32.25331
 10
98.31442
 20
32.21646
 10
98.2224
 20
32.18197
 10
98.17625
 20
32.16568
 10
98.12999
 20
32.15008
 10
98.08363
 20
32.13522
 10
98.03715
 20
32.12117
 10
98.17727
 20
30.73203
 10
98.22562
 20
30.72755
 10
98.27402
 20
30.72225
 10
98.32246
 20
30.7162
 10
98.37093
 20
30.70946
 10
98.46798
 20
30.69404
 10
98.56515
 20
30.67623
 10
98.75974
 20
30.63416
 10
98.9546
 20
30.58424
 10
99.14961
 20
30.52713
 10
99.34469
 20
30.46331
 10
99.53976
 20
30.39313
 10
99.73473
 20
30.31686
 10
99.92954
 20
30.23472
 10
100.12411
 20
30.14691
 10
100.11889
 20
28.90011
 10
99.92359
 20
28.81393
 10
99.7281
 20
28.73343
 10
99.53249
 20
28.6588
 10
99.33685
 20
28.59025
 10
99.14124
 20
28.52807
 10
98.94575
 20
28.4726
 10
98.75049
 20
28.42431
 10
98.55555
 20
28.38387
 10
98.45824
 20
28.36688
 10
98.36106
 20
28.35227
 10
98.31253
 20
28.34594
 10
98.26404
 20
28.34029
 10
98.2156
 20
28.3354
 10
98.16722
 20
28.33132
 10
98.01546
 20
26.9434
 10
98.06182
 20
26.92896
 10
98.10806
 20
26.91372
 10
98.15418
 20
26.89773
 10
98.2002
 20
26.88106
 10
98.29192
 20
26.8458
 10
98.38326
 20
26.80818
 10
98.56485
 20
26.72657
 10
98.74507
 20
26.63723
 10
98.92395
 20
26.54082
 10
99.1015
 20
26.43784
 10
99.27771
 20
26.32863
 10
99.45257
 20
26.21349
 10
99.62604
 20
26.09265
 10
99.7981
 20
25.9663
 10
99.53377
 20
24.74783
 10
99.32482
 20
24.70414
 10
99.11687
 20
24.66604
 10
98.91002
 20
24.63371
 10
98.70439
 20
24.60734
 10
98.50013
 20
24.58718
 10
98.29738
 20
24.57357
 10
98.09635
 20
24.56693
 10
97.89726
 20
24.56791
 10
97.79854
 20
24.57152
 10
97.70045
 20
24.57744
 10
97.65166
 20
24.58133
 10
97.60306
 20
24.58589
 10
97.55467
 20
24.59118
 10
97.50649
 20
24.59724
 10
97.06948
 20
23.27121
 10
97.11183
 20
23.24745
 10
97.15389
 20
23.22292
 10
97.19568
 20
23.19769
 10
97.23722
 20
23.17182
 10
97.31961
 20
23.11826
 10
97.40113
 20
23.06247
 10
97.56179
 20
22.94489
 10
97.71949
 20
22.82003
 10
97.87442
 20
22.68854
 10
98.02668
 20
22.55089
 10
98.17633
 20
22.40743
 10
98.32343
 20
22.25845
 10
98.46799
 20
22.10418
 10
98.61002
 20
21.94482
 10
98.09813
 20
20.80794
 10
97.88466
 20
20.80865
 10
97.67333
 20
20.81462
 10
97.46428
 20
20.826
 10
97.25767
 20
20.84295
 10
97.05368
 20
20.86571
 10
96.85253
 20
20.89454
 10
96.65451
 20
20.92985
 10
96.45997
 20
20.9722
 10
96.36416
 20
20.99626
 10
96.26945
 20
21.02244
 10
96.22253
 20
21.03639
 10
96.17594
 20
21.05096
 10
96.1297
 20
21.06619
 10
96.08384
 20
21.08214
 10
95.38069
 20
19.87594
 10
95.41717
 20
19.84389
 10
95.4532
 20
19.81116
 10
95.48884
 20
19.77779
 10
95.52409
 20
19.74385
 10
95.59354
 20
19.67433
 10
95.66169
 20
19.60281
 10
95.79439
 20
19.45439
 10
95.92269
 20
19.29947
 10
96.04689
 20
19.13865
 10
96.1672
 20
18.97235
 10
96.28376
 20
18.80091
 10
96.39666
 20
18.6246
 10
96.50599
 20
18.44365
 10
96.61179
 20
18.25825
 10
95.87471
 20
17.25263
 10
95.66606
 20
17.29771
 10
95.46059
 20
17.34749
 10
95.25847
 20
17.40208
 10
95.05989
 20
17.46162
 10
94.86509
 20
17.52629
 10
94.67434
 20
17.59632
 10
94.48798
 20
17.67203
 10
94.3065
 20
17.75389
 10
94.21779
 20
17.79735
 10
94.13059
 20
17.84265
 10
94.0876
 20
17.86605
 10
94.04506
 20
17.88998
 10
94.00299
 20
17.91449
 10
93.96145
 20
17.93963
 10
93.02288
 20
16.90599
 10
93.0519
 20
16.86705
 10
93.08034
 20
16.82754
 10
93.10826
 20
16.7875
 10
93.13569
 20
16.74696
 10
93.18916
 20
16.66452
 10
93.24095
 20
16.5804
 10
93.33989
 20
16.40764
 10
93.43318
 20
16.22943
 10
93.52123
 20
16.0463
 10
93.60434
 20
15.85862
 10
93.6827
 20
15.66669
 10
93.75649
 20
15.47076
 10
93.8258
 20
15.27103
 10
93.89074
 20
15.06768
 10
92.96069
 20
14.23729
 10
92.76597
 20
14.32476
 10
92.57534
 20
14.41617
 10
92.38899
 20
14.5116
 10
92.20713
 20
14.61112
 10
92.03003
 20
14.71488
 10
91.858
 20
14.82304
 10
91.69146
 20
14.93584
 10
91.53097
 20
15.05365
 10
91.45323
 20
15.1146
 10
91.37735
 20
15.17704
 10
91.34017
 20
15.20886
 10
91.30353
 20
15.24112
 10
91.26748
 20
15.27384
 10
91.23207
 20
15.30707
 10
90.09911
 20
14.49115
 10
90.1194
 20
14.44703
 10
90.139
 20
14.40247
 10
90.15799
 20
14.3575
 10
90.17638
 20
14.31215
 10
90.21155
 20
14.22039
 10
90.24472
 20
14.12734
 10
90.30558
 20
13.93778
 10
90.35978
 20
13.74407
 10
90.40783
 20
13.54663
 10
90.4501
 20
13.34578
 10
90.48685
 20
13.14175
 10
90.51828
 20
12.93476
 10
90.54456
 20
12.72499
 10
90.56579
 20
12.51258
 10
89.48342
 20
11.8937
 10
89.31114
 20
12.01974
 10
89.14368
 20
12.14879
 10
88.98124
 20
12.28088
 10
88.82405
 20
12.41604
 10
88.6724
 20
12.55435
 10
88.52662
 20
12.69591
 10
88.38717
 20
12.84087
 10
88.25467
 20
12.98947
 10
88.1913
 20
13.06525
 10
88.13007
 20
13.14211
 10
88.10031
 20
13.18097
 10
88.07118
 20
13.22014
 10
88.04273
 20
13.25964
 10
88.015
 20
13.2995
 10
86.73715
 20
12.73697
 10
86.74783
 20
12.6896
 10
86.75774
 20
12.64193
 10
86.76696
 20
12.594
 10
86.77552
 20
12.54581
 10
86.79085
 20
12.44875
 10
86.80394
 20
12.35084
 10
86.82406
 20
12.15276
 10
86.8368
 20
11.95202
 10
86.84275
 20
11.7489
 10
86.84234
 20
11.54365
 10
86.83586
 20
11.33644
 10
86.82358
 20
11.12744
 10
86.80566
 20
10.91679
 10
86.78227
 20
10.7046
 10
85.59488
 20
10.32429
 10
85.45257
 20
10.4834
 10
85.3156
 20
10.64444
 10
85.18418
 20
10.80741
 10
85.05852
 20
10.9723
 10
84.93894
 20
11.13912
 10
84.82577
 20
11.3079
 10
84.71951
 20
11.47869
 10
84.62081
 20
11.65159
 10
84.57458
 20
11.73889
 10
84.53066
 20
11.82679
 10
84.50963
 20
11.87099
 10
84.48929
 20
11.91536
 10
84.46966
 20
11.95992
 10
84.45083
 20
12.00467
 10
83.08395
 20
11.72011
 10
83.08454
 20
11.67156
 10
83.08433
 20
11.62287
 10
83.08338
 20
11.57407
 10
83.08174
 20
11.52515
 10
83.07655
 20
11.42702
 10
83.069
 20
11.32853
 10
83.0475
 20
11.1306
 10
83.01822
 20
10.9316
 10
82.98181
 20
10.73168
 10
82.93873
 20
10.531
 10
82.88932
 20
10.32967
 10
82.83385
 20
10.12779
 10
82.77253
 20
9.92546
 10
82.70553
 20
9.72278
 10
81.46502
 20
9.59765
 10
81.3589
 20
9.78287
 10
81.2584
 20
9.96887
 10
81.16373
 20
10.1556
 10
81.07511
 20
10.34301
 10
80.99282
 20
10.53105
 10
80.91722
 20
10.71967
 10
80.84879
 20
10.90882
 10
80.78819
 20
11.09846
 10
80.76112
 20
11.19346
 10
80.73644
 20
11.28858
 10
80.72506
 20
11.33618
 10
80.71438
 20
11.38381
 10
80.70445
 20
11.43148
 10
80.69534
 20
11.47917
 10
79.29916
 20
11.48502
 10
79.28965
 20
11.4374
 10
79.27932
 20
11.38982
 10
79.26824
 20
11.34228
 10
79.25647
 20
11.29478
 10
79.23099
 20
11.19987
 10
79.20312
 20
11.1051
 10
79.14094
 20
10.91597
 10
79.07093
 20
10.7274
 10
78.99375
 20
10.53942
 10
78.90988
 20
10.35208
 10
78.81969
 20
10.16542
 10
78.72346
 20
9.97949
 10
78.62141
 20
9.79433
 10
78.51375
 20
9.61001
 10
77.27432
 20
9.74553
 10
77.20903
 20
9.94876
 10
77.14941
 20
10.1516
 10
77.09563
 20
10.35393
 10
77.0479
 20
10.55567
 10
77.00651
 20
10.75671
 10
76.97177
 20
10.95692
 10
76.94416
 20
11.15617
 10
76.92432
 20
11.35427
 10
76.9176
 20
11.45282
 10
76.91323
 20
11.55099
 10
76.912
 20
11.59992
 10
76.91146
 20
11.64873
 10
76.91165
 20
11.69742
 10
76.91265
 20
11.74596
 10
75.5482
 20
12.04196
 10
75.52899
 20
11.99737
 10
75.509
 20
11.95298
 10
75.48828
 20
11.90878
 10
75.46689
 20
11.86476
 10
75.42223
 20
11.77722
 10
75.37527
 20
11.69032
 10
75.27512
 20
11.51825
 10
75.16744
 20
11.34835
 10
75.05286
 20
11.18053
 10
74.93188
 20
11.01472
 10
74.80485
 20
10.85089
 10
74.67206
 20
10.68903
 10
74.53375
 20
10.52913
 10
74.39011
 20
10.37122
 10
73.20595
 20
10.76147
 10
73.18434
 20
10.97384
 10
73.16819
 20
11.18464
 10
73.15765
 20
11.39374
 10
73.15292
 20
11.60099
 10
73.15422
 20
11.80624
 10
73.16188
 20
12.0093
 10
73.17629
 20
12.20993
 10
73.19807
 20
12.40783
 10
73.21199
 20
12.50563
 10
73.22812
 20
12.60256
 10
73.23709
 20
12.65067
 10
73.24671
 20
12.69853
 10
73.25702
 20
12.74611
 10
73.26809
 20
12.79339
 10
71.99501
 20
13.36661
 10
71.96694
 20
13.32698
 10
71.93816
 20
13.28772
 10
71.9087
 20
13.24879
 10
71.87862
 20
13.21018
 10
71.81674
 20
13.13384
 10
71.75274
 20
13.0586
 10
71.61901
 20
12.91111
 10
71.47835
 20
12.76732
 10
71.33139
 20
12.62699
 10
71.17858
 20
12.48995
 10
71.02026
 20
12.35611
 10
70.85672
 20
12.2254
 10
70.68819
 20
12.09775
 10
70.51486
 20
11.97316
 10
69.43771
 20
12.60108
 10
69.46072
 20
12.8133
 10
69.48875
 20
13.02285
 10
69.52192
 20
13.22957
 10
69.56038
 20
13.43328
 10
69.60433
 20
13.63377
 10
69.65403
 20
13.8308
 10
69.70985
 20
14.02405
 10
69.7723
 20
14.2131
 10
69.80624
 20
14.30586
 10
69.84218
 20
14.39732
 10
69.86096
 20
14.44252
 10
69.88031
 20
14.48733
 10
69.9003
 20
14.53173
 10
69.92095
 20
14.57567
 10
68.79486
 20
15.40105
 10
68.75918
 20
15.36813
 10
68.72285
 20
15.33571
 10
68.68595
 20
15.30376
 10
68.6485
 20
15.27224
 10
68.5721
 20
15.21044
 10
68.49386
 20
15.15015
 10
68.33238
 20
15.03369
 10
68.1649
 20
14.92228
 10
67.99197
 20
14.81557
 10
67.81401
 20
14.7133
 10
67.63133
 20
14.6153
 10
67.44418
 20
14.52144
 10
67.25279
 20
14.43163
 10
67.05734
 20
14.34579
 10
66.13429
 20
15.18395
 10
66.20092
 20
15.38675
 10
66.27191
 20
15.58589
 10
66.34733
 20
15.78119
 10
66.4273
 20
15.97246
 10
66.51198
 20
16.15943
 10
66.60156
 20
16.34182
 10
66.69634
 20
16.51924
 10
66.79672
 20
16.69117
 10
66.84921
 20
16.77486
 10
66.90338
 20
16.85685
 10
66.93114
 20
16.89715
 10
66.9594
 20
16.93696
 10
66.98817
 20
16.97623
 10
67.01751
 20
17.01492
 10
66.08764
 20
18.05639
 10
66.04588
 20
18.0316
 10
66.00362
 20
18.00744
 10
65.96087
 20
17.98386
 10
65.91769
 20
17.96083
 10
65.83011
 20
17.91626
 10
65.74104
 20
17.87355
 10
65.55888
 20
17.79321
 10
65.3719
 20
17.71906
 10
65.18056
 20
17.65063
 10
64.98523
 20
17.5876
 10
64.78616
 20
17.52972
 10
64.58359
 20
17.47682
 10
64.37771
 20
17.42877
 10
64.16869
 20
17.38544
 10
63.44006
 20
18.3972
 10
63.54741
 20
18.58171
 10
63.65824
 20
18.76174
 10
63.77262
 20
18.93709
 10
63.89062
 20
19.10755
 10
64.01231
 20
19.27284
 10
64.13786
 20
19.43261
 10
64.26745
 20
19.58645
 10
64.40139
 20
19.73375
 10
64.47013
 20
19.8047
 10
64.54016
 20
19.87363
 10
64.5757
 20
19.90728
 10
64.61161
 20
19.94035
 10
64.64792
 20
19.97278
 10
64.68467
 20
20.00452
 10
63.99165
 20
21.21657
 10
63.94565
 20
21.201
 10
63.89928
 20
21.18616
 10
63.85257
 20
21.17198
 10
63.80555
 20
21.15842
 10
63.71061
 20
21.13304
 10
63.61461
 20
21.10978
 10
63.41972
 20
21.06907
 10
63.22141
 20
21.03542
 10
63.02003
 20
21.00827
 10
62.81586
 20
20.98722
 10
62.60911
 20
20.972
 10
62.39997
 20
20.96237
 10
62.1886
 20
20.95817
 10
61.97513
 20
20.95925
 10
61.47278
 20
22.10039
 10
61.61614
 20
22.25855
 10
61.76199
 20
22.4116
 10
61.91033
 20
22.55934
 10
62.06118
 20
22.70154
 10
62.21459
 20
22.83791
 10
62.37061
 20
22.9681
 10
62.52935
 20
23.09163
 10
62.69099
 20
23.20787
 10
62.77298
 20
23.26296
 10
62.85581
 20
23.31583
 10
62.89757
 20
23.34136
 10
62.93957
 20
23.36624
 10
62.98183
 20
23.39041
 10
63.02437
 20
23.41382
 0
CIRCLE
 8
a
 10
80.07317
 20
29.60749
 40
0.5
  0
ENDSEC
  0
EOF
